<?xml version="1.0" encoding="utf-8"?>
<!-- Generator: Adobe Illustrator 21.1.0, SVG Export Plug-In . SVG Version: 6.00 Build 0)  -->
<svg version="1.1" id="Layer_1" xmlns="http://www.w3.org/2000/svg" xmlns:xlink="http://www.w3.org/1999/xlink" x="0px" y="0px"
	 viewBox="0 0 1231.8 1198.9" style="enable-background:new 0 0 1231.8 1198.9;" xml:space="preserve">
<style type="text/css">
	.st0{fill:#FFFFFF;}
	.st1{fill:#0071ED;}
	.st2{fill:#FFE600;}
</style>
<g>
	<g>
		<path class="st0" d="M290.4,966.7l0.3-194.2l-0.2,0v0.4l-0.6,0.1v0.4l-0.6,0.1v0.4l-0.6,0.1v0.4l-0.6,0.1v0.4l-0.6,0.1v0.4
			l-0.6,0.1v0.4l-0.6,0.1v0.4l-0.6,0.1v0.4l-0.6,0.1v0.4l-0.6,0.1v0.4l-0.6,0.1v0.4l-0.6,0.1v0.4l-0.6,0.1v0.4l-0.6,0.1v0.4
			l-0.6,0.1v0.4l-0.6,0.1v0.4l-0.6,0.1v0.4l-0.6,0.1v0.4l-0.6,0.1v0.4l-0.6,0.1v0.4l-0.6,0.1v0.4l-0.6,0.1v0.4l-0.6,0.1v0.4
			l-0.6,0.1v0.4l-0.6,0.1v0.4l-0.6,0.1v0.4l-0.6,0.1v0.4l-0.6,0.1v0.4l-0.6,0.1l0,0.4l-0.6,0.1v0.4l-0.6,0.1v0.4l-0.6,0.1v0.4
			l-0.6,0.1v0.4l-0.6,0.1v0.4l-0.6,0.1l0,0.4h0l-0.3,178.5l-31.9,3.8l-38.4-136.2l-0.2,137.8l7,24.8l31.8-3.8v-0.4l0.6-0.1v-0.4
			l0.6-0.1v-0.4l0.6-0.1v-0.4l0.6-0.1v-0.4l0.6-0.1v-0.4l0.6-0.1v-0.4l0.6-0.1v-0.4l0.6-0.1v-0.4l0.6-0.1v-0.4l0.6-0.1v-0.4l0.6-0.1
			v-0.4l0.6-0.1V989l0.6-0.1v-0.4l0.6-0.1V988l0.6-0.1v-0.4l0.6-0.1V987l0.6-0.1v-0.4l0.6-0.1V986l0.6-0.1v-0.4l0.6-0.1v-0.4
			l0.6-0.1v-0.4l0.6-0.1v-0.4l0.6-0.1v-0.4l0.6-0.1v-0.4l0.6-0.1v-0.4l0.6-0.1v-0.4l0.6-0.1v-0.4l0.6-0.1v-0.4l0.6-0.1v-0.4l0.6-0.1
			v-0.4l0.6-0.1v-0.4l0.6-0.1v-0.4l0.6-0.1v-0.4l0.6-0.1v-0.4l0.6-0.1v-0.4l0.5-0.1v15.7l27.9-3.4v-0.4l0.6-0.1v-0.4l0.6-0.1v-0.4
			l0.6-0.1v-0.4l0.6-0.1v-0.4l0.6-0.1v-0.4l0.6-0.1v-0.4l0.6-0.1v-0.4l0.6-0.1v-0.4l0.6-0.1v-0.4l0.6-0.1V984l0.6-0.1v-0.4l0.6-0.1
			V983l0.6-0.1v-0.4l0.6-0.1V982l0.6-0.1v-0.4l0.6-0.1V981l0.6-0.1v-0.4l0.6-0.1V980l0.6-0.1v-0.4l0.6-0.1v-0.4l0.6-0.1v-0.4
			l0.6-0.1v-0.4l0.6-0.1v-0.4l0.6-0.1v-0.4l0.6-0.1v-0.4l0.6-0.1v-0.4l0.6-0.1v-0.4l0.6-0.1v-0.4l0.6-0.1v-0.4l0.6-0.1v-0.4l0.6-0.1
			v-0.4l0.6-0.1v-0.4l0.6-0.1v-0.4l0.6-0.1v-0.4l0.6-0.1v-0.4l0.6-0.1v-0.4l0.6-0.1v-0.4l0.6-0.1v-0.4l0.6-0.1v-0.4l0.6-0.1v-0.4
			l0.6-0.1v-0.4l0.6-0.1v-0.4l0.6-0.1v-0.4l0.6-0.1v-0.4l0.6-0.1v-0.4l0.6-0.1v-0.4l0.6-0.1v-0.4l0.6-0.1v-0.4l0.6-0.1v-0.4l0.6-0.1
			v-0.4l0.6-0.1v-0.2L290.4,966.7z M361.3,764v0.4l-0.6,0.1v0.4l-0.6,0.1l0,0.4l-0.6,0.1v0.4l-0.6,0.1v0.4l-0.6,0.1v0.4l-0.6,0.1
			v0.4l-0.6,0.1v0.4l-0.6,0.1v0.4l-0.6,0.1v0.4l-0.6,0.1v0.4l-0.6,0.1v0.4l-0.6,0.1v0.4l-0.6,0.1v0.4l-0.6,0.1v0.4l-0.6,0.1v0.4
			l-0.6,0.1v0.4l-0.6,0.1v0.4l-0.6,0.1v0.4l-0.6,0.1v0.4l-0.6,0.1v0.4l-0.6,0.1v0.4l-0.6,0.1v0.4l-0.6,0.1v0.4l-0.6,0.1v0.4
			l-0.6,0.1v0.4l-0.6,0.1v0.4l-0.6,0.1v0.4l-0.6,0.1v0.4l-0.6,0.1v0.4l-0.6,0.1v0.4l-0.6,0.1v0.4l-0.6,0.1v0.4l-0.6,0.1v0.4
			l-0.6,0.1v0.4l-0.6,0.1v0.4l-0.6,0.1v0.4l-0.6,0.1v0.4l-0.6,0.1v0.4l-0.6,0.1v0.4l-0.6,0.1v0.4l-0.6,0.1v0.4l-0.6,0.1v0.4
			l-0.4,0.1l26.5,94.3l0.2-116.2L361.3,764z M544.8,936.3l-30.1-190.6l-0.2,0l0.1,0.4l-0.7,0.1l0.1,0.4l-0.7,0.1l0.1,0.4l-0.7,0.1
			l0.1,0.4l-0.7,0.1l0.1,0.4l-0.7,0.1l0.1,0.4l-0.7,0.1l0.1,0.4l-0.7,0.1l0.1,0.4l-0.7,0.1l0.1,0.4l-0.7,0.1l0.1,0.4l-0.7,0.1
			l0.1,0.4l-0.7,0.1l0.1,0.4l-0.7,0.1l0.1,0.4l-0.7,0.1l0.1,0.4l-0.7,0.1l0.1,0.4l-0.7,0.1l0.1,0.4l-0.7,0.1l0.1,0.4l-0.7,0.1
			l0.1,0.4l-0.7,0.1l0.1,0.4l-0.7,0.1l0.1,0.4l-0.7,0.1l0.1,0.4l-0.7,0.1l0.1,0.4l-0.7,0.1l0.1,0.4l-0.7,0.1l0.1,0.4l-0.7,0.1
			l0.1,0.4l-0.7,0.1l0.1,0.4l-0.7,0.1l0.1,0.4l-0.7,0.1l0.1,0.4l-0.7,0.1l0.1,0.4l-0.7,0.1l0.1,0.4l-0.7,0.1l0.1,0.4l-0.7,0.1
			l0.1,0.4l-0.7,0.1l0.1,0.4l-0.5,0.1c5.9,7.4,8.9,17.9,8.9,31.2l-0.2,101.1c0,0.9,0,1.8,0,2.7l10.4,64.8l46.2-5.6l0.1-0.4l0.6-0.1
			l0.1-0.4l0.5-0.1l0.1-0.4l0.5-0.1l0.1-0.4l0.5-0.1l0.1-0.4l0.5-0.1l0.1-0.4l0.6-0.1l0.1-0.4l0.5-0.1l0.1-0.4l0.6-0.1l0.1-0.4
			l0.5-0.1l0.1-0.4l0.5-0.1l0.1-0.4l0.6-0.1l0.1-0.4l0.5-0.1l0.1-0.4l0.6-0.1l0.1-0.4l0.5-0.1l0.1-0.4l0.5-0.1l0.1-0.4l0.6-0.1
			l0.1-0.4l0.5-0.1l0.1-0.4l0.6-0.1l0.1-0.4l0.5-0.1l0.1-0.4l0.6-0.1l0.1-0.4l0.6-0.1l0.1-0.4l0.5-0.1l0.1-0.4l0.5-0.1l0.1-0.4
			l0.5-0.1l0.1-0.4l0.5-0.1l0.1-0.4l0.5-0.1l0.1-0.4l0.5-0.1l0.1-0.4l0.6-0.1l0.1-0.4l0.5-0.1l0.1-0.4l0.5-0.1l0.1-0.4l0.5-0.1
			l0.1-0.4l0.6-0.1l0.1-0.4l0.6-0.1l0.1-0.4l0.5-0.1l0.1-0.4l0.6-0.1l0.1-0.4l0.6-0.1l0.1-0.4l0.6-0.1l0.1-0.4l0.5-0.1l0.1-0.4
			l0.5-0.1l0.1-0.4l0.6-0.1l0.1-0.4l0.5-0.1l0.1-0.4l0.5-0.1l0.1-0.4l0.5-0.1l0.1-0.4l0.5-0.1l0.1-0.4l0.5-0.1l0.1-0.4l0.5-0.1
			l0.1-0.4l0.6-0.1l0.1-0.4l0.5-0.1l0.1-0.4l0.5-0.1l0.1-0.4l0.6-0.1l0.1-0.4l0.6-0.1l0-0.2L544.8,936.3z M593.1,736.4l-0.1,0.4
			l-0.6,0.1l-0.1,0.4l-0.6,0.1l-0.1,0.4l-0.6,0.1l-0.1,0.4l-0.6,0.1l-0.1,0.4l-0.6,0.1l-0.1,0.4l-0.6,0.1l-0.1,0.4l-0.6,0.1
			l-0.1,0.4l-0.6,0.1l-0.1,0.4l-0.6,0.1l-0.1,0.4l-0.6,0.1l-0.1,0.4l-0.6,0.1l-0.1,0.4l-0.6,0.1l-0.1,0.4l-0.6,0.1l-0.1,0.4
			l-0.6,0.1l-0.1,0.4l-0.6,0.1l-0.1,0.4l-0.6,0.1l-0.1,0.4l-0.6,0.1l-0.1,0.4l-0.6,0.1l-0.1,0.4l-0.6,0.1l-0.1,0.4l-0.6,0.1
			l-0.1,0.4l-0.6,0.1l-0.1,0.4l-0.6,0.1l-0.1,0.4l-0.5,0.1l-0.1,0.4l-0.6,0.1l-0.1,0.4l-0.6,0.1l-0.1,0.4l-0.6,0.1l-0.1,0.4
			l-0.6,0.1l-0.1,0.4l-0.6,0.1l-0.1,0.4l-0.6,0.1l-0.1,0.4l-0.6,0.1l-0.1,0.4l-0.6,0.1l-0.1,0.4l-0.6,0.1l-0.1,0.4l-0.6,0.1
			l-0.1,0.4l-0.6,0.1l-0.1,0.4l-0.6,0.1l-0.1,0.4l-0.6,0.1l-0.1,0.4l-0.5,0.1l-0.1,0.4l-0.6,0.1l-0.1,0.4l-0.6,0.1l-0.1,0.4
			l-0.6,0.1l-0.1,0.4l-0.6,0.1l-0.1,0.4l-0.6,0.1l-0.1,0.4l-0.6,0.1l-0.1,0.4l-0.5,0.1l-0.1,0.4l-0.6,0.1l-0.1,0.4l-0.6,0.1
			l-0.1,0.4l-0.6,0.1l-0.1,0.4l-0.6,0.1l-0.1,0.4l-0.6,0.1l-0.1,0.4l-0.6,0.1l-0.1,0.4l-0.6,0.1l-6.1,41.6l14.1,94.1l23.9-161.2
			L593.1,736.4z M455.7,949.2c-30.5,3.6-47.1-12.2-47-43.3l0.2-101.1c0-17.7,5.4-31.7,15.7-41.2c-0.2,0.2-0.4,0.3-0.6,0.5
			c-0.2,0.2-0.4,0.3-0.6,0.5c-0.2,0.2-0.4,0.3-0.6,0.5c-0.2,0.2-0.4,0.3-0.6,0.5c-0.2,0.2-0.4,0.3-0.6,0.5c-0.2,0.2-0.4,0.3-0.6,0.5
			c-0.2,0.2-0.4,0.3-0.6,0.5c-0.2,0.2-0.4,0.3-0.6,0.5c-0.2,0.2-0.4,0.3-0.6,0.5c-0.2,0.2-0.4,0.3-0.6,0.5c-0.2,0.2-0.4,0.3-0.6,0.5
			c-0.2,0.2-0.4,0.3-0.6,0.5c-0.2,0.2-0.4,0.3-0.6,0.5c-0.2,0.2-0.4,0.3-0.6,0.5c-0.2,0.2-0.4,0.3-0.6,0.5c-0.2,0.2-0.4,0.3-0.6,0.5
			c-0.2,0.2-0.4,0.3-0.6,0.5c-0.2,0.2-0.4,0.3-0.6,0.5c-0.2,0.2-0.4,0.3-0.6,0.5c-0.2,0.2-0.4,0.3-0.6,0.5c-0.2,0.2-0.4,0.3-0.6,0.5
			c-0.2,0.2-0.4,0.3-0.6,0.5c-0.2,0.2-0.4,0.3-0.6,0.5c-0.2,0.2-0.4,0.3-0.6,0.5c-0.2,0.2-0.4,0.3-0.6,0.5c-0.2,0.2-0.4,0.3-0.6,0.5
			c-0.2,0.2-0.4,0.3-0.6,0.5c-0.2,0.2-0.4,0.3-0.6,0.5c-0.2,0.2-0.4,0.3-0.6,0.5c-0.2,0.2-0.4,0.3-0.6,0.5c-0.2,0.2-0.4,0.3-0.6,0.5
			c-0.2,0.2-0.4,0.3-0.6,0.5c-0.2,0.2-0.4,0.3-0.6,0.5c-0.2,0.2-0.4,0.3-0.6,0.5c-0.2,0.2-0.4,0.3-0.6,0.5c-0.2,0.2-0.4,0.3-0.6,0.5
			c-0.2,0.2-0.4,0.3-0.6,0.5c-0.2,0.2-0.4,0.3-0.6,0.5c-0.2,0.2-0.4,0.3-0.6,0.5c-0.2,0.2-0.4,0.3-0.6,0.5c-0.2,0.2-0.4,0.3-0.6,0.5
			c-0.2,0.2-0.4,0.3-0.6,0.5c-0.2,0.2-0.4,0.3-0.6,0.5c-0.2,0.2-0.4,0.3-0.6,0.5c-0.2,0.2-0.4,0.3-0.6,0.5c-0.2,0.2-0.4,0.3-0.6,0.5
			c-2.5,1.9-4.8,4.1-6.8,6.4l-0.3,161.7l-31.9,3.8l-38.4-136.2l-0.2,137.6l7,24.8l31.9-3.8v-0.4l0.6-0.1v-0.4l0.6-0.1v-0.4l0.6-0.1
			v-0.4l0.6-0.1v-0.4l0.6-0.1v-0.4l0.6-0.1v-0.4l0.6-0.1v-0.4l0.6-0.1v-0.4l0.6-0.1V976l0.6-0.1v-0.4l0.6-0.1V975l0.6-0.1v-0.4
			l0.6-0.1V974l0.6-0.1v-0.4l0.6-0.1V973l0.6-0.1v-0.4l0.6-0.1V972l0.6-0.1v-0.4l0.6-0.1l0-0.4l0.6-0.1v-0.4l0.6-0.1V970l0.6-0.1
			v-0.4l0.6-0.1v-0.4l0.6-0.1v-0.4l0.6-0.1v-0.4l0.6-0.1v-0.4l0.6-0.1v-0.4l0.6-0.1v-0.4l0.6-0.1v-0.4l0.6-0.1v-0.4l0.6-0.1v-0.4
			l0.6-0.1v-0.4l0.6-0.1v-0.4l0.6-0.1v-0.4l0.6-0.1v-0.4l0.6-0.1v-0.4l0.6-0.1v-0.4l0.6-0.1v-0.4l0.6-0.1v-0.4l0.6-0.1v-0.4l0.6-0.1
			v-0.4l0.6-0.1v-0.4l0.2,0c7.4,12.6,21.2,18.2,40.8,15.9c11.7-1.4,21.3-5.2,28.8-11.1c0.2-0.2,0.4-0.3,0.6-0.5
			c0.2-0.2,0.4-0.3,0.6-0.5c0.2-0.2,0.4-0.3,0.6-0.5c0.2-0.2,0.4-0.3,0.6-0.5c0.2-0.2,0.4-0.3,0.6-0.5c0.2-0.2,0.4-0.3,0.6-0.5
			c0.2-0.2,0.4-0.4,0.6-0.5c0.2-0.2,0.4-0.3,0.6-0.5c0.2-0.2,0.4-0.3,0.6-0.5c0.2-0.2,0.4-0.3,0.6-0.5c0.2-0.2,0.4-0.3,0.6-0.5
			c0.2-0.2,0.4-0.3,0.6-0.5c0.2-0.2,0.4-0.3,0.6-0.5c0.2-0.2,0.4-0.3,0.6-0.5c0.2-0.2,0.4-0.3,0.6-0.5c0.2-0.2,0.4-0.3,0.6-0.5
			c0.2-0.2,0.4-0.3,0.6-0.5c0.2-0.2,0.4-0.3,0.6-0.5c0.2-0.2,0.4-0.3,0.6-0.5c0.2-0.2,0.4-0.3,0.6-0.5c0.2-0.2,0.4-0.3,0.6-0.5
			c0.2-0.2,0.4-0.3,0.6-0.5c0.2-0.2,0.4-0.3,0.6-0.5c0.2-0.2,0.4-0.3,0.6-0.5c0.2-0.2,0.4-0.3,0.6-0.5c0.2-0.2,0.4-0.3,0.6-0.5
			c0.2-0.2,0.4-0.3,0.6-0.5c0.2-0.2,0.4-0.3,0.6-0.5c0.2-0.2,0.4-0.3,0.6-0.5c0.2-0.2,0.4-0.3,0.6-0.5c0.2-0.2,0.4-0.3,0.6-0.5
			c0.2-0.2,0.4-0.3,0.6-0.5c0.2-0.2,0.4-0.3,0.6-0.5c0.2-0.2,0.4-0.3,0.6-0.5c0.2-0.2,0.4-0.3,0.6-0.5c0.2-0.2,0.4-0.3,0.6-0.5
			c0.2-0.2,0.4-0.3,0.6-0.5c0.2-0.2,0.4-0.3,0.6-0.5c0.2-0.2,0.4-0.3,0.6-0.5c0.2-0.2,0.4-0.3,0.6-0.5c0.2-0.2,0.4-0.3,0.6-0.5
			c0.2-0.2,0.4-0.3,0.6-0.5c0.2-0.2,0.4-0.3,0.6-0.5c0.2-0.2,0.4-0.3,0.6-0.5c0.2-0.2,0.4-0.3,0.6-0.5c0.2-0.2,0.4-0.3,0.6-0.5
			c0.2-0.2,0.4-0.3,0.6-0.5c0.2-0.2,0.4-0.3,0.6-0.5c0.2-0.2,0.4-0.3,0.6-0.5s0.4-0.3,0.6-0.5c1.4-1,2.7-2.1,3.9-3.3
			C479.7,942.9,469,947.6,455.7,949.2z M456,778.1c-9.9,1.2-16.1,7.2-16.1,21.1l0,17.8c0.2,1.3,0.3,2.8,0.3,4.4V910
			c1.6,9.3,7.3,12.4,15.6,11.4c9.9-1.2,16.1-7.2,16.1-21.1l0.2-105C472,781.4,465.9,776.9,456,778.1z M240.9,778.4v0.4l-0.6,0.1v0.4
			l-0.6,0.1l0,0.4l-0.6,0.1v0.4l-0.6,0.1v0.4l-0.6,0.1v0.4l-0.6,0.1v0.4l-0.6,0.1v0.4l-0.6,0.1v0.4l-0.6,0.1v0.4l-0.6,0.1v0.4
			L234,784v0.4l-0.6,0.1v0.4l-0.6,0.1v0.4l-0.6,0.1v0.4l-0.6,0.1v0.4l-0.6,0.1v0.4l-0.6,0.1v0.4l-0.6,0.1v0.4l-0.6,0.1v0.4l-0.6,0.1
			v0.4l-0.6,0.1v0.4l-0.6,0.1v0.4l-0.6,0.1v0.4l-0.6,0.1v0.4l-0.6,0.1v0.4l-0.6,0.1v0.4l-0.6,0.1v0.4l-0.6,0.1v0.4l-0.6,0.1l0,0.4
			l-0.6,0.1v0.4l-0.6,0.1v0.4l-0.6,0.1v0.4l-0.6,0.1v0.4l-0.6,0.1v0.4l-0.6,0.1v0.4l-0.6,0.1v0.4l-0.6,0.1v0.4l-0.6,0.1v0.4
			l-0.6,0.1v0.4l-0.6,0.1v0.4l-0.6,0.1v0.4l-0.6,0.1v0.4l-0.4,0l26.5,94.2l0.2-116.2L240.9,778.4z M170,981l0.3-194.2l-0.2,0v0.4
			l-0.6,0.1v0.4l-0.6,0.1v0.4l-0.6,0.1v0.4l-0.6,0.1v0.4l-0.6,0.1v0.4l-0.6,0.1v0.4l-0.6,0.1v0.4l-0.6,0.1v0.4l-0.6,0.1v0.4
			l-0.6,0.1v0.4l-0.6,0.1v0.4l-0.6,0.1v0.4l-0.6,0.1v0.4l-0.6,0.1v0.4l-0.6,0.1l0,0.4l-0.6,0.1v0.4l-0.6,0.1v0.4l-0.6,0.1v0.4
			l-0.6,0.1v0.4l-0.6,0.1v0.4l-0.6,0.1v0.4l-0.6,0.1v0.4l-0.6,0.1l0,0.4l-0.6,0.1v0.4l-0.6,0.1v0.4l-0.6,0.1v0.4l-0.6,0.1v0.4
			l-0.6,0.1v0.4l-0.6,0.1v0.4l-0.6,0.1v0.4l-0.6,0.1v0.4l-0.6,0.1v0.4l-0.6,0.1v0.4l-0.6,0.1v0.4l-0.6,0.1v0.4l-0.3,0l-0.3,178.4
			l-31,3.7l0.3-194.2l-0.2,0v0.4l-0.6,0.1v0.4l-0.6,0.1l0,0.4l-0.6,0.1v0.4l-0.6,0.1v0.4l-0.6,0.1v0.4l-0.6,0.1v0.4l-0.6,0.1v0.4
			l-0.6,0.1v0.4l-0.6,0.1v0.4l-0.6,0.1v0.4l-0.6,0.1v0.4l-0.6,0.1v0.4l-0.6,0.1v0.4l-0.6,0.1v0.4l-0.6,0.1v0.4l-0.6,0.1v0.5
			l-0.6,0.1v0.4l-0.6,0.1v0.4L105,803v0.4l-0.6,0.1v0.4l-0.6,0.1v0.4l-0.6,0.1l0,0.4l-0.6,0.1v0.4l-0.6,0.1v0.4l-0.6,0.1v0.4
			l-0.6,0.1v0.5l-0.6,0.1v0.4l-0.6,0.1v0.4l-0.6,0.1v0.4l-0.6,0.1v0.4l-0.6,0.1v0.5l-0.6,0.1v0.4l-0.6,0.1v0.4l-0.6,0.1v0.4
			l-0.6,0.1v0.4l-0.6,0.1v0.4l-0.6,0.1v0.4l-0.6,0.1v0.4l-0.6,0.1v0.4l-0.6,0.1v0.4l-0.6,0.1v0.4l-0.6,0.1v0.4l-0.6,0.1v0.4
			l-0.6,0.1v0.4l-0.6,0.1v0.4l-0.6,0.1v0.4l-0.6,0.1v0.4l-0.6,0.1v0.4l-0.6,0.1v0.4l-0.6,0.1v0.4l-0.6,0.1v194.5l31-3.7v-0.4
			l0.6-0.1v-0.4l0.6-0.1v-0.4l0.6-0.1v-0.4l0.6-0.1v-0.5l0.6-0.1v-0.4l0.6-0.1v-0.5l0.6-0.1v-0.4l0.6-0.1v-0.4l0.6-0.1v-0.4l0.6-0.1
			v-0.5l0.6-0.1v-0.4l0.6-0.1v-0.4l0.6-0.1v-0.4l0.6-0.1v-0.4l0.6-0.1v-0.4l0.6-0.1v-0.4l0.6-0.1v-0.4l0.6-0.1v-0.4l0.6-0.1v-0.4
			l0.6-0.1v-0.4l0.6-0.1v-0.4l0.6-0.1v-0.4l0.6-0.1v-0.4l0.6-0.1v-0.4l0.6-0.1v-0.4l0.6-0.1v-0.4l0.6-0.1v-0.4l0.6-0.1l0-0.4
			l0.6-0.1v-0.4l0.6-0.1v-0.4l0.6-0.1v-0.4l0.6-0.1v-0.4l0.6-0.1v-0.4l0.6-0.1v-0.4l0.6-0.1v-0.4l0.6-0.1v-0.4l0.1,0v16.3l27.9-3.4
			v-0.4l0.6-0.1v-0.4l0.6-0.1v-0.4l0.6-0.1v-0.4l0.6-0.1v-0.4l0.6-0.1v-0.4l0.6-0.1v-0.4l0.6-0.1v-0.4l0.6-0.1v-0.4l0.6-0.1v-0.4
			l0.6-0.1v-0.4l0.6-0.1V998l0.6-0.1v-0.4l0.6-0.1V997l0.6-0.1v-0.4l0.6-0.1V996l0.6-0.1v-0.4l0.6-0.1V995l0.6-0.1v-0.4l0.6-0.1
			v-0.4l0.6-0.1v-0.4l0.6-0.1v-0.4l0.6-0.1v-0.4l0.6-0.1v-0.4l0.6-0.1v-0.4l0.6-0.1l0-0.4l0.6-0.1v-0.4l0.6-0.1v-0.4l0.6-0.1v-0.4
			l0.6-0.1v-0.4l0.6-0.1v-0.4l0.6-0.1v-0.4l0.6-0.1v-0.4l0.6-0.1v-0.4l0.6-0.1v-0.4l0.6-0.1v-0.4l0.6-0.1v-0.4l0.6-0.1v-0.4l0.6-0.1
			v-0.4l0.6-0.1v-0.4l0.6-0.1v-0.4l0.6-0.1v-0.4l0.6-0.1v-0.4l0.6-0.1v-0.4l0.6-0.1v-0.4l0.6-0.1v-0.4l0.6-0.1v-0.4l0.6-0.1v-0.4
			l0.6-0.1V979l0.6-0.1v-0.4l0.6-0.1V978l0.6-0.1v-0.2L170,981z"/>
		<path class="st0" d="M1017.7,785c0.2,0.1,0.3,0.1,0.5,0.2c0,0,0,0,0.1,0c0.2-0.2,0.4-0.3,0.6-0.5c0.2-0.2,0.4-0.3,0.6-0.5
			c0.2-0.2,0.4-0.3,0.6-0.5c0.2-0.2,0.4-0.3,0.6-0.5c0.2-0.2,0.4-0.3,0.6-0.5c0.2-0.2,0.4-0.3,0.6-0.5c0.2-0.1,0.4-0.3,0.6-0.5
			C1021.1,782.9,1019.4,784,1017.7,785z M1017.7,785c0.2,0.1,0.3,0.1,0.5,0.2c0,0,0,0,0.1,0c0.2-0.2,0.4-0.3,0.6-0.5
			c0.2-0.2,0.4-0.3,0.6-0.5c0.2-0.2,0.4-0.3,0.6-0.5c0.2-0.2,0.4-0.3,0.6-0.5c0.2-0.2,0.4-0.3,0.6-0.5c0.2-0.2,0.4-0.3,0.6-0.5
			c0.2-0.1,0.4-0.3,0.6-0.5C1021.1,782.9,1019.4,784,1017.7,785z M1017.7,785c0.2,0.1,0.3,0.1,0.5,0.2c0,0,0,0,0.1,0
			c0.2-0.2,0.4-0.3,0.6-0.5c0.2-0.2,0.4-0.3,0.6-0.5c0.2-0.2,0.4-0.3,0.6-0.5c0.2-0.2,0.4-0.3,0.6-0.5c0.2-0.2,0.4-0.3,0.6-0.5
			c0.2-0.2,0.4-0.3,0.6-0.5c0.2-0.1,0.4-0.3,0.6-0.5C1021.1,782.9,1019.4,784,1017.7,785z M673.7,761l-15.1,100.1l29.9-3.6
			L673.7,761z M673.7,761l-15.1,100.1l29.9-3.6L673.7,761z M756.4,911.1l0.3-166.7l-32.4,3.9l0-27.6l-0.2,0v0.4l-0.6,0.1l0,0.4
			l-0.6,0.1v0.4l-0.6,0.1v0.4l-0.6,0.1v0.4l-0.6,0.1v0.4l-0.6,0.1v0.4l-0.6,0.1v0.4l-0.6,0.1v0.4l-0.6,0.1v0.4l-0.6,0.1v0.4
			l-0.6,0.1v0.4l-0.6,0.1v0.4l-0.6,0.1v0.4l-0.6,0.1v0.4l-0.6,0.1v0.4l-0.6,0.1v0.4l-0.6,0.1v0.4l-0.6,0.1v0.4l-0.6,0.1v0.4
			l-0.6,0.1v0.4l-0.6,0.1v0.4l-0.6,0.1v0.4l-0.6,0.1v0.4l-0.6,0.1v0.4l-0.6,0.1v0.4l-0.6,0.1v0.4l-0.6,0.1v0.4l-0.6,0.1v0.4
			l-0.6,0.1v0.4l-0.6,0.1l0,0.4l-0.6,0.1v0.4l-0.6,0.1v0.4l-0.6,0.1v0.4l-0.6,0.1v0.4l-0.6,0.1v0.4l-0.6,0.1v0.4l-0.6,0.1v0.4
			l-0.3,0l5.3,32.6l18.7-2.3v116.3l4.6,28.1l-31.3,3.7l-5.3-34.6l-38.1,4.5l-3.4,22.2l9.7-1.2l5.4,34.6l31.3-3.8l-0.1-0.4l0.7-0.1
			l-0.1-0.4l0.7-0.1l-0.1-0.4l0.7-0.1l-0.1-0.4l0.7-0.1l-0.1-0.4l0.7-0.1l-0.1-0.4l0.7-0.1l-0.1-0.4l0.7-0.1l-0.1-0.4l0.7-0.1
			l-0.1-0.4l0.7-0.1l-0.1-0.4l0.7-0.1l-0.1-0.4l0.7-0.1l-0.1-0.4l0.7-0.1l-0.1-0.4l0.7-0.1l-0.1-0.4l0.7-0.1l-0.1-0.4l0.7-0.1
			l-0.1-0.4l0.7-0.1l-0.1-0.4l0.7-0.1L708,931l0.7-0.1l-0.1-0.4l0.7-0.1l-0.1-0.4l0.7-0.1l-0.1-0.4l0.7-0.1l-0.1-0.4l0.7-0.1
			l-0.1-0.4l0.7-0.1l-0.1-0.4l0.7-0.1l-0.1-0.4l0.7-0.1l-0.1-0.4l0.7-0.1l-0.1-0.4l0.7-0.1l-0.1-0.4l0.7-0.1l-0.1-0.4l0.7-0.1
			l-0.1-0.4l0.7-0.1l-0.1-0.4l0.7-0.1l-0.1-0.4l0.7-0.1l-0.1-0.4l0.7-0.1l-0.1-0.4l0.7-0.1l-0.1-0.4l0.7-0.1l-0.1-0.4l0.7-0.1
			l-0.1-0.4l0.7-0.1l-0.1-0.4l0.7-0.1l-0.1-0.4l0.7-0.1l-0.1-0.4l0.7-0.1l-0.1-0.4l0.7-0.1l-0.1-0.4l0.7-0.1l-0.1-0.4l0.7-0.1
			l-0.1-0.4l0.6-0.1v18.5l31-3.8v-0.4l0.6-0.1v-0.4l0.6-0.1v-0.4l0.6-0.1v-0.4l0.6-0.1v-0.4l0.6-0.1V930l0.6-0.1v-0.4l0.6-0.1V929
			l0.6-0.1v-0.4l0.6-0.1V928l0.6-0.1v-0.4l0.6-0.1V927l0.6-0.1v-0.4l0.6-0.1V926l0.6-0.1v-0.4l0.6-0.1l0-0.4l0.6-0.1v-0.4l0.6-0.1
			V924l0.6-0.1v-0.4l0.6-0.1V923l0.6-0.1v-0.4l0.6-0.1v-0.4l0.6-0.1v-0.4l0.6-0.1v-0.4l0.6-0.1v-0.4l0.6-0.1v-0.4l0.6-0.1v-0.4
			l0.6-0.1v-0.4l0.6-0.1v-0.4l0.6-0.1v-0.4l0.6-0.1v-0.4l0.6-0.1v-0.4l0.6-0.1v-0.4l0.6-0.1v-0.4l0.6-0.1v-0.4l0.6-0.1v-0.4l0.6-0.1
			v-0.4l0.6-0.1v-0.4l0.6-0.1v-0.4l0.6-0.1v-0.4l0.6-0.1v-0.4l0.6-0.1v-0.4l0.6-0.1v-0.4l0.6-0.1v-0.4l0.6-0.1l0-0.4l0.6-0.1v-0.4
			l0.6-0.1v-0.4l0.6-0.1v-0.4l0.6-0.1v-0.4l0.6-0.1v-0.4l0.6-0.1v-0.4l0.6-0.1v-0.2L756.4,911.1z M673.7,761l-15.1,100.1l29.9-3.6
			L673.7,761z M673.7,761l-15.1,100.1l29.9-3.6L673.7,761z M1017.7,785c0.2,0.1,0.3,0.1,0.5,0.2c0,0,0,0,0.1,0
			c0.2-0.2,0.4-0.3,0.6-0.5c0.2-0.2,0.4-0.3,0.6-0.5c0.2-0.2,0.4-0.3,0.6-0.5c0.2-0.2,0.4-0.3,0.6-0.5c0.2-0.2,0.4-0.3,0.6-0.5
			c0.2-0.2,0.4-0.3,0.6-0.5c0.2-0.1,0.4-0.3,0.6-0.5C1021.1,782.9,1019.4,784,1017.7,785z M991.3,716.5l-14.9,1.8l-0.1,59.7
			l12.1-1.4c11.6-1.4,18.6-7.2,18.6-22.8l0-19.2C1007.1,720.7,1002.3,715.2,991.3,716.5z M1017.7,785c0.2,0.1,0.3,0.1,0.5,0.2
			c0,0,0,0,0.1,0c0.2-0.2,0.4-0.3,0.6-0.5c0.2-0.2,0.4-0.3,0.6-0.5c0.2-0.2,0.4-0.3,0.6-0.5c0.2-0.2,0.4-0.3,0.6-0.5
			c0.2-0.2,0.4-0.3,0.6-0.5c0.2-0.2,0.4-0.3,0.6-0.5c0.2-0.1,0.4-0.3,0.6-0.5C1021.1,782.9,1019.4,784,1017.7,785z M1116.8,726.5
			l0-8.1c0-13.9-5.6-18.5-15.5-17.3c-9.9,1.2-15.5,7.1-15.5,21c0,11.8,5.3,20.2,12.7,27.5l15.6-1.9v-0.4l0.6-0.1v-0.4l0.6-0.1v-0.4
			l0.6-0.1v-0.4l0.6-0.1v-0.4l0.6-0.1V745l0.6-0.1v-0.4l0.6-0.1V744l0.6-0.1v-0.4l0.6-0.1v-0.4l0.6-0.1v-0.4l0.6-0.1v-0.4l0.6-0.1
			v-0.4l0.6-0.1v-0.4l0.6-0.1v-0.4l0.6-0.1v-0.4l0.6-0.1v-0.4l0.6-0.1v-0.4l0.6-0.1v-0.4l0.6-0.1v-0.4l0.6-0.1v-0.4l0.6-0.1v-0.4
			l0.6-0.1v-0.4l0.6-0.1v-0.4l0.6-0.1v-0.4l0.6-0.1v-0.4l0.6-0.1v-0.4l0.6-0.1v-0.4l0.6-0.1v-0.4l0.6-0.1v-0.4l0.6-0.1v-0.4l0.6-0.1
			v-0.4l0.6-0.1V732l0.6-0.1v-0.4l0.6-0.1V731l0.6-0.1v-0.4l0.6-0.1V730l0.6-0.1v-0.4l0.6-0.1v-0.4l0.6-0.1v-0.4l0.6-0.1v-0.4
			l0.6-0.1v-0.4l0.6-0.1v-0.4l0.6-0.1v-0.4l0.6-0.1v-0.4l0.6-0.1v-0.4l0.6-0.1v-0.4l0.6-0.1v-0.4l0.6-0.1v-0.4l0.6-0.1v-0.4l0.6-0.1
			v-0.4l0.6-0.1V723L1116.8,726.5z M1053.7,829l0-11.8l-0.2,0v0.4l-0.6,0.1v0.4l-0.6,0.1v0.4l-0.6,0.1v0.4l-0.6,0.1v0.4l-0.6,0.1
			v0.4l-0.6,0.1v0.4l-0.6,0.1v0.4l-0.6,0.1v0.4l-0.6,0.1v0.4l-0.6,0.1v0.4l-0.6,0.1v0.4l-0.6,0.1v0.4l-0.6,0.1v0.4l-0.6,0.1v0.4
			l-0.6,0.1v0.4l-0.6,0.1v0.4l-0.6,0.1v0.4l-0.6,0.1v0.4l-0.6,0.1v0.4l-0.6,0.1v0.4l-0.6,0.1v0.4l-0.6,0.1v0.4l-0.6,0.1v0.4
			l-0.6,0.1l0,0.4l-0.4,0.1l0,24.5c0,9.4,0.2,16.4,3.3,23.2l-31.6,3.8c-1.7-4.8-2.8-7.7-2.8-23.6l0.1-30.6c0-18.1-6.2-24-20.3-22.3
			l-10.7,1.3l-0.1,79.2l-31,3.7l0.3-194.3l-0.2,0v0.4l-0.6,0.1v0.4l-0.6,0.1v0.4l-0.6,0.1v0.4l-0.6,0.1v0.4l-0.6,0.1v0.4l-0.6,0.1
			v0.4l-0.6,0.1v0.4l-0.6,0.1v0.4l-0.6,0.1v0.4l-0.6,0.1v0.4l-0.6,0.1v0.4l-0.6,0.1v0.4l-0.6,0.1v0.4l-0.6,0.1v0.4l-0.6,0.1v0.4
			l-0.6,0.1v0.4l-0.6,0.1v0.4l-0.6,0.1v0.4l-0.6,0.1v0.4l-0.6,0.1v0.4l-0.6,0.1v0.4l-0.6,0.1v0.4l-0.6,0.1v0.4l-0.6,0.1v0.4
			l-0.6,0.1v0.4l-0.6,0.1v0.4l-0.6,0.1v0.4l-0.6,0.1v0.4l-0.6,0.1v0.4l-0.6,0.1v0.4l-0.6,0.1v0.4l-0.6,0.1v0.4l-0.6,0.1v0.4
			l-0.6,0.1v0.4l-0.6,0.1v0.4l-0.6,0.1v0.4l-0.6,0.1v0.4l-0.6,0.1v0.4l-0.6,0.1v0.4l-0.6,0.1v0.4l-0.6,0.1v0.4l-0.6,0.1v0.4l-0.2,0
			c4.3,7.1,6.6,16.5,6.5,27.9l-0.2,101.1c0,15.3-4.1,27.8-11.8,37.1v32.4l31-3.8v-0.4l0.6-0.1v-0.4l0.6-0.1v-0.4l0.6-0.1v-0.4
			l0.6-0.1v-0.4l0.6-0.1v-0.4l0.6-0.1v-0.4l0.6-0.1v-0.4l0.6-0.1v-0.4l0.6-0.1v-0.4l0.6-0.1v-0.4l0.6-0.1v-0.4l0.6-0.1v-0.4l0.6-0.1
			v-0.4l0.6-0.1v-0.4l0.6-0.1l0-0.4l0.6-0.1v-0.4l0.6-0.1v-0.4l0.6-0.1v-0.4l0.6-0.1v-0.4l0.6-0.1v-0.4l0.6-0.1v-0.4l0.6-0.1v-0.4
			l0.6-0.1v-0.4l0.6-0.1v-0.4l0.6-0.1v-0.4l0.6-0.1v-0.4l0.6-0.1v-0.4l0.6-0.1V896l0.6-0.1v-0.4l0.6-0.1V895l0.6-0.1v-0.4l0.6-0.1
			V894l0.6-0.1v-0.4l0.6-0.1V893l0.6-0.1v-0.4l0.6-0.1v-0.4l0.6-0.1v-0.4l0.6-0.1v-0.4l0.6-0.1v-0.4l0.6-0.1v-0.4l0.6-0.1v-0.4
			l0.6-0.1v-0.4l0.6-0.1v-0.4l0.6-0.1v-0.4l0.6-0.1v-0.4l0.6-0.1v-0.4l0.6-0.1v-0.4l0.6-0.1v-0.4l0.6-0.1v-0.4l0.6-0.1v-0.4l0.1,0
			c0.1,13.2,1.2,16.2,2.8,20.7l31.6-3.8c-0.1-0.1-0.1-0.3-0.1-0.4l0.8-0.1c-0.1-0.1-0.1-0.3-0.1-0.4l0.8-0.1
			c-0.1-0.1-0.1-0.3-0.1-0.4l0.8-0.1c0-0.1-0.1-0.3-0.1-0.4l0.8-0.1c-0.1-0.1-0.1-0.3-0.1-0.4l0.8-0.1c-0.1-0.1-0.1-0.3-0.1-0.4
			l0.8-0.1c-0.1-0.1-0.1-0.3-0.1-0.4l0.8-0.1c-0.1-0.1-0.1-0.3-0.1-0.4l0.8-0.1c-0.1-0.1-0.1-0.3-0.1-0.4l0.8-0.1
			c0-0.1-0.1-0.3-0.1-0.4l0.8-0.1c-0.1-0.1-0.1-0.3-0.1-0.4l0.8-0.1c-0.1-0.1-0.1-0.3-0.1-0.4l0.8-0.1c-0.1-0.1-0.1-0.3-0.1-0.4
			l0.8-0.1c-0.1-0.1-0.1-0.3-0.1-0.4l0.8-0.1c-0.1-0.1-0.1-0.3-0.1-0.4l0.8-0.1c-0.1-0.1-0.1-0.3-0.1-0.4l0.8-0.1
			c-0.1-0.1-0.1-0.3-0.1-0.4l0.8-0.1c-0.1-0.1-0.1-0.3-0.1-0.4l0.8-0.1c-0.1-0.1-0.1-0.3-0.1-0.4l0.8-0.1c-0.1-0.1-0.1-0.3-0.1-0.4
			l0.8-0.1c0-0.1-0.1-0.3-0.1-0.4l0.8-0.1c0-0.1-0.1-0.3-0.1-0.4l0.8-0.1c-0.1-0.1-0.1-0.3-0.1-0.4l0.8-0.1
			c-0.1-0.1-0.1-0.3-0.1-0.4l0.8-0.1c-0.1-0.1-0.1-0.3-0.1-0.4l0.8-0.1c-0.1-0.1-0.1-0.3-0.1-0.4l0.8-0.1c0-0.1-0.1-0.3-0.1-0.4
			l0.8-0.1c-0.1-0.1-0.1-0.3-0.1-0.4l0.8-0.1c-0.1-0.1-0.1-0.3-0.1-0.4l0.8-0.1c-0.1-0.1-0.1-0.3-0.1-0.4l0.8-0.1
			c-0.1-0.1-0.1-0.3-0.1-0.4l0.8-0.1c-0.1-0.1-0.1-0.3-0.1-0.4l0.8-0.1c0-0.1-0.1-0.3-0.1-0.4l0.8-0.1c-0.1-0.1-0.1-0.3-0.1-0.4
			l0.8-0.1c0,0,0-0.1,0-0.1c7.6,9.7,20.2,13.8,37.4,11.8c11.6-1.4,21-5.1,28.3-10.9c0.2-0.2,0.4-0.3,0.6-0.5
			c0.2-0.2,0.4-0.3,0.6-0.5c0.2-0.2,0.4-0.3,0.6-0.5c0.2-0.2,0.4-0.3,0.6-0.5c0.2-0.1,0.4-0.3,0.6-0.5c0.2-0.1,0.4-0.3,0.6-0.5
			c0.2-0.2,0.4-0.3,0.6-0.5c0.2-0.2,0.4-0.3,0.6-0.5c0.2-0.2,0.4-0.3,0.6-0.5c0.2-0.2,0.4-0.3,0.6-0.5c0.2-0.2,0.4-0.3,0.6-0.5
			c0.2-0.2,0.4-0.3,0.6-0.5c0.2-0.2,0.4-0.3,0.6-0.5c0.2-0.2,0.4-0.3,0.6-0.5c0.2-0.2,0.4-0.3,0.6-0.5c0.2-0.2,0.4-0.3,0.6-0.5
			c0.2-0.2,0.4-0.3,0.6-0.5c0.2-0.2,0.4-0.3,0.6-0.5c0.2-0.2,0.4-0.3,0.6-0.5c0.2-0.2,0.4-0.3,0.6-0.5c0.2-0.1,0.4-0.3,0.6-0.5
			c0.2-0.2,0.4-0.3,0.6-0.5c0.2-0.2,0.4-0.3,0.6-0.5c0.2-0.2,0.4-0.3,0.6-0.5c0.2-0.2,0.4-0.3,0.6-0.5c0.2-0.2,0.4-0.3,0.6-0.5
			c0.2-0.2,0.4-0.3,0.6-0.5c0.2-0.2,0.4-0.3,0.6-0.5c0.2-0.2,0.4-0.3,0.6-0.5c0.2-0.2,0.4-0.3,0.6-0.5c0.2-0.2,0.4-0.3,0.6-0.5
			c0.2-0.2,0.4-0.3,0.6-0.5c0.2-0.2,0.4-0.3,0.6-0.5c0.2-0.2,0.4-0.3,0.6-0.5c0.2-0.2,0.4-0.3,0.6-0.5c0.2-0.2,0.4-0.3,0.6-0.5
			c0.2-0.2,0.4-0.3,0.6-0.5c0.2-0.2,0.4-0.3,0.6-0.5c0.2-0.2,0.4-0.3,0.6-0.5c0.2-0.2,0.4-0.3,0.6-0.5c0.2-0.2,0.4-0.3,0.6-0.5
			c0.2-0.2,0.4-0.3,0.6-0.5c0.2-0.2,0.4-0.3,0.6-0.5c0.2-0.2,0.4-0.3,0.6-0.5c0.2-0.2,0.4-0.3,0.6-0.5c0.2-0.2,0.4-0.3,0.6-0.5
			c0.2-0.2,0.4-0.3,0.6-0.5c0.2-0.2,0.4-0.3,0.6-0.5c0.2-0.2,0.4-0.3,0.6-0.5c0.2-0.1,0.4-0.3,0.6-0.5c0.2-0.1,0.4-0.3,0.6-0.4
			c-7.2,5.6-16.6,9.2-28,10.6C1069.4,876,1053.7,860.1,1053.7,829z M1027.6,776.9c7.9,18.1,24.2,28,37.2,38.9l18.3-2.2l0,13.9
			c0,13.9,6.2,18.2,16,17c9.9-1.2,16.1-6.9,16.1-20.8c0.1-40-60.6-40.3-60.5-95.8c0-18.7,5.6-33.2,16.6-42.6
			c-0.1,0.1-0.2,0.2-0.4,0.3c-0.2,0.2-0.4,0.3-0.6,0.5c-0.2,0.2-0.4,0.3-0.6,0.5c-0.2,0.2-0.4,0.3-0.6,0.5c-0.2,0.2-0.4,0.3-0.6,0.5
			c-0.2,0.2-0.4,0.3-0.6,0.5s-0.4,0.3-0.6,0.5c-0.2,0.2-0.4,0.3-0.6,0.5c-0.2,0.2-0.4,0.3-0.6,0.5c-0.2,0.2-0.4,0.3-0.6,0.5
			c-0.2,0.2-0.4,0.3-0.6,0.5c-0.2,0.2-0.4,0.3-0.6,0.5c-0.2,0.2-0.4,0.3-0.6,0.5c-0.2,0.2-0.4,0.3-0.6,0.5c-0.2,0.2-0.4,0.3-0.6,0.5
			c-0.2,0.2-0.4,0.3-0.6,0.5c-0.2,0.2-0.4,0.3-0.6,0.5c-0.2,0.2-0.4,0.3-0.6,0.5c-0.2,0.2-0.4,0.3-0.6,0.5c-0.2,0.2-0.4,0.3-0.6,0.5
			c-0.2,0.2-0.4,0.3-0.6,0.5c-0.2,0.2-0.4,0.3-0.6,0.5c-0.2,0.2-0.4,0.3-0.6,0.5c-0.2,0.2-0.4,0.3-0.6,0.5c-0.2,0.2-0.4,0.3-0.6,0.5
			c-0.2,0.2-0.4,0.3-0.6,0.5c-0.2,0.2-0.4,0.3-0.6,0.5c-0.2,0.2-0.4,0.3-0.6,0.5c-0.2,0.2-0.4,0.3-0.6,0.5c-0.2,0.2-0.4,0.3-0.6,0.5
			c-0.2,0.2-0.4,0.3-0.6,0.5c-0.2,0.2-0.4,0.3-0.6,0.5c-0.2,0.2-0.4,0.3-0.6,0.5c-0.2,0.2-0.4,0.3-0.6,0.5c-0.2,0.2-0.4,0.3-0.6,0.5
			c-0.2,0.2-0.4,0.3-0.6,0.5s-0.4,0.3-0.6,0.5c-0.2,0.2-0.4,0.3-0.6,0.5s-0.4,0.3-0.6,0.5c-0.2,0.2-0.4,0.3-0.6,0.5
			c-0.2,0.2-0.4,0.3-0.6,0.5c-0.2,0.2-0.4,0.3-0.6,0.5c-0.2,0.2-0.4,0.3-0.6,0.5c-0.2,0.2-0.4,0.3-0.6,0.5c-0.2,0.2-0.4,0.3-0.6,0.5
			c-0.2,0.2-0.4,0.3-0.6,0.5c-0.2,0.2-0.4,0.3-0.6,0.5c-0.2,0.2-0.4,0.3-0.6,0.5c-0.2,0.2-0.4,0.3-0.6,0.5c-1.6,1.2-3.1,2.6-4.4,4
			c1,4.5,1.5,9.5,1.5,15.2l0,15.3C1038.1,757.5,1034.7,768.7,1027.6,776.9z M1018.2,785.1c0.2-0.2,0.4-0.3,0.6-0.5
			c0.2-0.2,0.4-0.3,0.6-0.5c0.2-0.2,0.4-0.3,0.6-0.5c0.2-0.2,0.4-0.3,0.6-0.5c0.2-0.2,0.4-0.3,0.6-0.5c0.2-0.2,0.4-0.3,0.6-0.5
			c0.2-0.1,0.4-0.3,0.6-0.5c-1.5,1.2-3.1,2.3-4.8,3.3C1017.9,785,1018,785.1,1018.2,785.1C1018.2,785.1,1018.2,785.1,1018.2,785.1z
			 M1007.1,753.8l0-19.2c0-13.9-4.8-19.4-15.8-18.1l-14.9,1.8l-0.1,59.7l12.1-1.4C1000,775.2,1007,769.3,1007.1,753.8z M1017.7,785
			c0.2,0.1,0.3,0.1,0.5,0.2c0,0,0,0,0.1,0c0.2-0.2,0.4-0.3,0.6-0.5c0.2-0.2,0.4-0.3,0.6-0.5c0.2-0.2,0.4-0.3,0.6-0.5
			c0.2-0.2,0.4-0.3,0.6-0.5c0.2-0.2,0.4-0.3,0.6-0.5c0.2-0.2,0.4-0.3,0.6-0.5c0.2-0.1,0.4-0.3,0.6-0.5
			C1021.1,782.9,1019.4,784,1017.7,785z M877.9,898.9c-30.5,3.6-47.1-12.2-47-43.3l0.2-101.1c0-18.3,5.8-32.7,16.8-42.1
			c-0.1,0.1-0.3,0.2-0.4,0.3c-0.2,0.2-0.4,0.3-0.6,0.5c-0.2,0.2-0.4,0.3-0.6,0.5c-0.2,0.2-0.4,0.3-0.6,0.5c-0.2,0.2-0.4,0.3-0.6,0.5
			s-0.4,0.3-0.6,0.5c-0.2,0.2-0.4,0.3-0.6,0.5c-0.2,0.2-0.4,0.3-0.6,0.5c-0.2,0.2-0.4,0.3-0.6,0.5c-0.2,0.2-0.4,0.3-0.6,0.5
			c-0.2,0.2-0.4,0.3-0.6,0.5c-0.2,0.2-0.4,0.3-0.6,0.5c-0.2,0.2-0.4,0.3-0.6,0.5c-0.2,0.2-0.4,0.3-0.6,0.5c-0.2,0.2-0.4,0.3-0.6,0.5
			c-0.2,0.2-0.4,0.3-0.6,0.5c-0.2,0.2-0.4,0.3-0.6,0.5c-0.2,0.2-0.4,0.3-0.6,0.5c-0.2,0.2-0.4,0.3-0.6,0.5c-0.2,0.2-0.4,0.3-0.6,0.5
			c-0.2,0.2-0.4,0.3-0.6,0.5c-0.2,0.2-0.4,0.3-0.6,0.5c-0.2,0.2-0.4,0.3-0.6,0.5c-0.2,0.2-0.4,0.3-0.6,0.5c-0.2,0.2-0.4,0.3-0.6,0.5
			c-0.2,0.2-0.4,0.3-0.6,0.5c-0.2,0.2-0.4,0.3-0.6,0.5s-0.4,0.3-0.6,0.5c-0.2,0.2-0.4,0.3-0.6,0.5c-0.2,0.2-0.4,0.3-0.6,0.5
			c-0.2,0.2-0.4,0.3-0.6,0.5c-0.2,0.2-0.4,0.3-0.6,0.5c-0.2,0.2-0.4,0.3-0.6,0.5c-0.2,0.2-0.4,0.3-0.6,0.5c-0.2,0.2-0.4,0.3-0.6,0.5
			c-0.2,0.2-0.4,0.3-0.6,0.5c-0.2,0.2-0.4,0.3-0.6,0.5c-0.2,0.2-0.4,0.3-0.6,0.5c-0.2,0.2-0.4,0.3-0.6,0.5c-0.2,0.2-0.4,0.3-0.6,0.5
			c-0.2,0.2-0.4,0.3-0.6,0.5c-0.2,0.2-0.4,0.3-0.6,0.5c-0.2,0.2-0.4,0.3-0.6,0.5c-0.2,0.2-0.4,0.3-0.6,0.5c-0.2,0.1-0.4,0.3-0.5,0.4
			v2.7l-32.4,3.9l0,21.5l0.5-0.1v-0.4l0.6-0.1v-0.4l0.6-0.1v-0.4l0.6-0.1v-0.4l0.6-0.1v-0.4l0.6-0.1v-0.4l0.6-0.1v-0.4l0.6-0.1v-0.4
			l0.6-0.1v-0.4l0.6-0.1v-0.4l0.6-0.1v-0.4l0.6-0.1v-0.4l0.6-0.1v-0.4l0.6-0.1v-0.4l0.6-0.1v-0.4l0.6-0.1v-0.4l0.6-0.1v-0.4l0.6-0.1
			v-0.4l0.6-0.1v-0.4l0.6-0.1v-0.4l0.6-0.1V752l0.6-0.1v-0.4l0.6-0.1V751l0.6-0.1v-0.4l0.6-0.1l0-0.4l0.6-0.1v-0.4l0.6-0.1V749
			l0.6-0.1v-0.4l0.6-0.1V748l0.6-0.1v-0.4l0.6-0.1V747l0.6-0.1v-0.4l0.6-0.1V746l0.3,0c-0.1,0.1-0.2,0.3-0.3,0.4
			c-5.9,8.8-8.9,20-8.9,33.3v101.1c0,31.1,16.6,46.9,47.1,43.2c11.6-1.4,21.2-5.2,28.7-11c0.2-0.2,0.4-0.3,0.6-0.5
			c0.2-0.2,0.4-0.3,0.6-0.5c0.2-0.2,0.4-0.3,0.6-0.5c0.2-0.2,0.4-0.3,0.6-0.5c0.2-0.2,0.4-0.3,0.6-0.5s0.4-0.3,0.6-0.5
			s0.4-0.3,0.6-0.5c0.2-0.2,0.4-0.3,0.6-0.5c0.2-0.2,0.4-0.3,0.6-0.5c0.2-0.2,0.4-0.3,0.6-0.5c0.2-0.2,0.4-0.3,0.6-0.5
			c0.2-0.2,0.4-0.3,0.6-0.5c0.2-0.2,0.4-0.3,0.6-0.5c0.2-0.2,0.4-0.3,0.6-0.5c0.2-0.2,0.4-0.3,0.6-0.5c0.2-0.2,0.4-0.3,0.6-0.5
			c0.2-0.2,0.4-0.3,0.6-0.5c0.2-0.2,0.4-0.3,0.6-0.5c0.2-0.2,0.4-0.3,0.6-0.5c0.2-0.2,0.4-0.3,0.6-0.5c0.2-0.2,0.4-0.3,0.6-0.5
			c0.2-0.2,0.4-0.3,0.6-0.5c0.2-0.2,0.4-0.3,0.6-0.5c0.2-0.2,0.4-0.3,0.6-0.5s0.4-0.3,0.6-0.5c0.2-0.2,0.4-0.3,0.6-0.5
			s0.4-0.3,0.6-0.5s0.4-0.3,0.6-0.5c0.2-0.2,0.4-0.3,0.6-0.5c0.2-0.2,0.4-0.3,0.6-0.5s0.4-0.3,0.6-0.5c0.2-0.2,0.4-0.3,0.6-0.5
			c0.2-0.1,0.4-0.3,0.6-0.5c0.2-0.2,0.4-0.3,0.6-0.5c0.2-0.2,0.4-0.3,0.6-0.5c0.2-0.1,0.4-0.3,0.6-0.5c0.2-0.2,0.4-0.3,0.6-0.5
			c0.2-0.2,0.4-0.3,0.6-0.5c0.2-0.2,0.4-0.3,0.6-0.5c0.2-0.2,0.4-0.3,0.6-0.5c0.2-0.2,0.4-0.3,0.6-0.5c0.2-0.2,0.4-0.3,0.6-0.5
			c0.2-0.2,0.4-0.3,0.6-0.5c0.2-0.2,0.4-0.3,0.6-0.5c0.2-0.2,0.4-0.3,0.6-0.5c0.2-0.2,0.4-0.3,0.6-0.5c0.2-0.2,0.4-0.3,0.6-0.5
			c0.2-0.2,0.4-0.3,0.6-0.5c0.2-0.2,0.4-0.3,0.6-0.5c0.2-0.2,0.4-0.3,0.6-0.5c0.2-0.2,0.5-0.4,0.7-0.5
			C899,893.8,889.5,897.5,877.9,898.9z M878.2,727.7c-9.9,1.2-16.1,7.2-16.1,21.1l0,17.7c0.1,1.2,0.2,2.4,0.2,3.7V859
			c1.4,9.8,7.2,13.1,15.7,12c9.9-1.2,16.1-7.2,16.1-21.1l0.2-105C894.3,731.1,888.1,726.5,878.2,727.7z M1017.7,785
			c0.2,0.1,0.3,0.1,0.5,0.2c0,0,0,0,0.1,0c0.2-0.2,0.4-0.3,0.6-0.5c0.2-0.2,0.4-0.3,0.6-0.5c0.2-0.2,0.4-0.3,0.6-0.5
			c0.2-0.2,0.4-0.3,0.6-0.5c0.2-0.2,0.4-0.3,0.6-0.5c0.2-0.2,0.4-0.3,0.6-0.5c0.2-0.1,0.4-0.3,0.6-0.5
			C1021.1,782.9,1019.4,784,1017.7,785z M673.7,761l-15.1,100.1l29.9-3.6L673.7,761z M652.6,729.3l-0.2,0l-0.1,0.4l-0.6,0.1
			l-0.1,0.4l-0.6,0.1l-0.1,0.4l-0.6,0.1l-0.1,0.4l-0.6,0.1l-0.1,0.4l-0.5,0.1l-0.1,0.4l-0.6,0.1l-0.1,0.4l-0.6,0.1l-0.1,0.4
			l-0.5,0.1l-0.1,0.4l-0.5,0.1l-0.1,0.4l-0.6,0.1l-0.1,0.4l-0.5,0.1l-0.1,0.4l-0.6,0.1l-0.1,0.4l-0.6,0.1l-0.1,0.4l-0.6,0.1
			l-0.1,0.4l-0.6,0.1l-0.1,0.4l-0.6,0.1l-0.1,0.4l-0.6,0.1l-0.1,0.4l-0.5,0.1l-0.1,0.4l-0.6,0.1l-0.1,0.4l-0.5,0.1l-0.1,0.4
			l-0.6,0.1l-0.1,0.4l-0.6,0.1l-0.1,0.4l-0.6,0.1l-0.1,0.4l-0.6,0.1l-0.1,0.4l-0.6,0.1l-0.1,0.4l-0.6,0.1l-0.1,0.4l-0.5,0.1
			l-0.1,0.4l-0.6,0.1l-0.1,0.4l-0.6,0.1l-0.1,0.4l-0.5,0.1l-0.1,0.4l-0.5,0.1l-0.1,0.4l-0.6,0.1l-0.1,0.4l-0.5,0.1l-0.1,0.4
			l-0.6,0.1l-0.1,0.4l-0.6,0.1l-0.1,0.4l-0.6,0.1l-0.1,0.4l-0.6,0.1l-0.1,0.4l-0.6,0.1l-0.1,0.4l-0.6,0.1l-0.1,0.4l-0.5,0.1
			l-0.1,0.4l-0.6,0.1l-0.1,0.4l-0.6,0.1l-0.1,0.4l-0.5,0.1l-0.1,0.4l-0.6,0.1l-0.1,0.4l-0.6,0.1l-0.1,0.4l-0.6,0.1l-0.1,0.4
			l-0.5,0.1l-0.1,0.4l-0.6,0.1l-0.1,0.4l-0.5,0.1l-0.1,0.4l-0.5,0.1l-0.1,0.4l-0.6,0.1L589,953l28.5-3.4l0.1-0.4l0.5-0.1l0.1-0.4
			l0.6-0.1l0.1-0.4l0.6-0.1l0.1-0.4l0.5-0.1l0.1-0.4l0.6-0.1l0.1-0.4l0.5-0.1l0.1-0.4l0.5-0.1l0.1-0.4l0.6-0.1l0.1-0.4l0.5-0.1
			l0.1-0.4l0.6-0.1l0.1-0.4l0.6-0.1l0.1-0.4l0.5-0.1l0.1-0.4l0.6-0.1l0.1-0.4l0.6-0.1l0.1-0.4l0.6-0.1l0.1-0.4l0.5-0.1l0.1-0.4
			l0.6-0.1l0.1-0.4l0.6-0.1l0.1-0.4l0.5-0.1l0.1-0.4l0.6-0.1l0.1-0.4l0.5-0.1l0.1-0.4l0.5-0.1l0.1-0.4l0.6-0.1l0.1-0.4l0.5-0.1
			l0.1-0.4l0.6-0.1l0.1-0.4l0.6-0.1l0.1-0.4l0.5-0.1l0.1-0.4l0.6-0.1l0.1-0.4l0.6-0.1l0.1-0.4l0.6-0.1l0.1-0.4l0.5-0.1l0.1-0.4
			l0.6-0.1l0.1-0.4l0.6-0.1l0.1-0.4l0.5-0.1l0.1-0.4l0.6-0.1l0.1-0.4l0.5-0.1l0.1-0.4l0.5-0.1l0.1-0.4l0.6-0.1l0.1-0.4l0.5-0.1
			l0.1-0.4l0.6-0.1l0.1-0.4l0.6-0.1l0.1-0.4l0.5-0.1l0.1-0.4l0.6-0.1l0.1-0.4l0.6-0.1l0.1-0.4l0.6-0.1l0.1-0.4l0.5-0.1l0.1-0.4
			l0.5-0.1l0.1-0.4l0.6-0.1l0.1-0.4l0.5-0.1l0.1-0.4l0.6-0.1l0.1-0.4l0.5-0.1l0-0.2l-28.3,3.4L652.6,729.3z M1017.7,785
			c0.2,0.1,0.3,0.1,0.5,0.2c0,0,0,0,0.1,0c0.2-0.2,0.4-0.3,0.6-0.5c0.2-0.2,0.4-0.3,0.6-0.5c0.2-0.2,0.4-0.3,0.6-0.5
			c0.2-0.2,0.4-0.3,0.6-0.5c0.2-0.2,0.4-0.3,0.6-0.5c0.2-0.2,0.4-0.3,0.6-0.5c0.2-0.1,0.4-0.3,0.6-0.5
			C1021.1,782.9,1019.4,784,1017.7,785z M1017.7,785c0.2,0.1,0.3,0.1,0.5,0.2c0,0,0,0,0.1,0c0.2-0.2,0.4-0.3,0.6-0.5
			c0.2-0.2,0.4-0.3,0.6-0.5c0.2-0.2,0.4-0.3,0.6-0.5c0.2-0.2,0.4-0.3,0.6-0.5c0.2-0.2,0.4-0.3,0.6-0.5c0.2-0.2,0.4-0.3,0.6-0.5
			c0.2-0.1,0.4-0.3,0.6-0.5C1021.1,782.9,1019.4,784,1017.7,785z M1017.7,785c0.2,0.1,0.3,0.1,0.5,0.2c0,0,0,0,0.1,0
			c0.2-0.2,0.4-0.3,0.6-0.5c0.2-0.2,0.4-0.3,0.6-0.5c0.2-0.2,0.4-0.3,0.6-0.5c0.2-0.2,0.4-0.3,0.6-0.5c0.2-0.2,0.4-0.3,0.6-0.5
			c0.2-0.2,0.4-0.3,0.6-0.5c0.2-0.1,0.4-0.3,0.6-0.5C1021.1,782.9,1019.4,784,1017.7,785z"/>
	</g>
	<g>
		<g>
			<path class="st0" d="M354.7,675.6c16.4-2,26.7-11.5,26.7-34.5l0.4-248.8l-0.7,0.1l0,0.4l-0.6,0.1l0,0.4l-0.6,0.1l0,0.4l-0.6,0.1
				l0,0.4l-0.6,0.1l0,0.4l-0.6,0.1l0,0.4l-0.6,0.1l0,0.4l-0.6,0.1l0,0.4l-0.6,0.1l0,0.4l-0.6,0.1l0,0.4l-0.6,0.1l0,0.4l-0.6,0.1v0.4
				l-0.6,0.1l0,0.4l-0.6,0.1l0,0.4l-0.6,0.1v0.4l-0.6,0.1l0,0.4l-0.6,0.1l0,0.4l-0.6,0.1v0.4l-0.6,0.1l0,0.4l-0.6,0.1l0,0.4
				l-0.6,0.1v0.4l-0.6,0.1l0,0.4l-0.6,0.1l0,0.4l-0.6,0.1v0.4l-0.6,0.1l0,0.4l-0.6,0.1l0,0.4l-0.6,0.1v0.4l-0.6,0.1l0,0.4l-0.6,0.1
				l0,0.4l-0.6,0.1v0.4l-0.6,0.1v0.4l-0.6,0.1l0,0.4l-0.6,0.1v0.4l-0.6,0.1v0.4l-0.6,0.1l0,0.4l-0.6,0.1v0.4l-0.6,0.1v0.4l-0.6,0.1
				l0,0.4l-0.6,0.1v0.4l-0.6,0.1v0.4l-0.6,0.1v0.4l-0.6,0.1v0.4l-0.6,0.1v0.4l-0.6,0.1v0.4l-0.6,0.1v0.4l-0.6,0.1v0.4l-0.6,0.1v0.4
				l-0.6,0.1v0.4l-0.6,0.1v0.4l-0.6,0.1v0.4L349,418v0.4l-0.6,0.1v248.9c0,3-0.2,5.7-0.6,8.3C349.9,675.9,352.2,675.9,354.7,675.6z"
				/>
			<polygon class="st0" points="117.8,746.2 118.3,423.7 117.6,423.8 117.6,424.2 116.9,424.3 116.9,424.7 116.3,424.8 116.3,425.3 
				115.7,425.3 115.7,425.8 115,425.9 115,426.3 114.4,426.4 114.4,426.8 113.7,426.9 113.7,427.3 113.1,427.4 113.1,427.9 
				112.5,427.9 112.5,428.4 111.8,428.5 111.8,428.9 111.2,429 111.2,429.4 110.5,429.5 110.5,430 109.9,430 109.9,430.5 
				109.2,430.6 109.2,431 108.6,431.1 108.6,431.5 108,431.6 108,432.1 107.3,432.1 107.3,432.6 106.7,432.7 106.7,433.1 106,433.2 
				106,433.6 105.4,433.7 105.4,434.1 104.7,434.2 104.7,434.7 104.1,434.7 104.1,435.2 103.5,435.3 103.5,435.7 102.8,435.8 
				102.8,436.2 102.2,436.3 102.2,436.8 101.5,436.8 101.5,437.3 100.9,437.4 100.9,437.8 100.3,437.9 100.3,438.3 99.6,438.4 
				99.6,438.9 99,438.9 99,439.4 98.3,439.5 98.3,439.9 97.7,440 97.7,440.4 97,440.5 97,440.9 96.4,441 96.4,441.5 95.8,441.5 
				95.8,442 95.1,442.1 95.1,442.5 94.5,442.6 94.5,443 93.8,443.1 93.8,443.6 93.2,443.6 93.2,444.1 92.5,444.2 92.5,444.6 
				91.9,444.7 91.9,445.1 91.3,445.2 91.3,445.7 90.6,445.7 90.6,446.2 90,446.3 90,446.7 89.3,446.8 89.3,447.2 88.7,447.3 
				88.7,447.7 88.1,447.8 88.1,448.3 87.4,448.3 87.4,448.8 86.8,448.9 86.8,449.3 86.1,449.4 86.1,449.8 85.5,449.9 85.5,450.4 
				84.8,450.4 84.8,773.2 136.3,766.9 136.3,766.5 137,766.4 137,766 137.6,765.9 137.6,765.4 138.2,765.4 138.2,764.9 138.8,764.8 
				138.8,764.4 139.5,764.3 139.5,763.9 140.1,763.8 140.1,763.3 140.7,763.3 140.7,762.8 141.4,762.7 141.4,762.3 142,762.2 
				142,761.8 142.6,761.7 142.6,761.3 143.3,761.2 143.3,760.7 143.9,760.7 143.9,760.2 144.5,760.1 144.5,759.7 145.2,759.6 
				145.2,759.2 145.8,759.1 145.8,758.7 146.4,758.6 146.4,758.1 147.1,758.1 147.1,757.6 147.7,757.5 147.7,757.1 148.3,757 
				148.3,756.6 149,756.5 149,756 149.6,756 149.6,755.5 150.2,755.5 150.2,755 150.8,754.9 150.8,754.5 151.5,754.4 151.5,754 
				152.1,753.9 152.1,753.4 152.7,753.4 152.7,752.9 153.4,752.8 153.4,752.4 154,752.3 154,751.9 154.6,751.8 154.6,751.4 
				155.3,751.3 155.3,750.8 155.9,750.8 155.9,750.3 156.5,750.2 156.5,749.8 157.2,749.7 157.2,749.3 157.8,749.2 157.8,748.7 
				158.4,748.7 158.4,748.2 159.1,748.2 159.1,747.7 159.7,747.6 159.7,747.2 160.3,747.1 160.3,746.7 161,746.6 161,746.1 
				161.6,746.1 161.6,745.6 162.2,745.5 162.2,745.1 162.8,745 162.8,744.6 163.5,744.5 163.5,744.1 164.1,744 164.1,743.5 
				164.7,743.5 164.7,743 165.4,742.9 165.4,742.5 166,742.4 166,742 166.6,741.9 166.6,741.4 167.3,741.4 167.3,740.9 167.9,740.9 
				167.9,740.4 168.5,740.3 168.5,740.2 			"/>
			<path class="st0" d="M707.6,633.5c16.4-2,26.7-11.5,26.7-34.5l0.4-248.8l-0.7,0.1v0.4l-0.6,0.1v0.4l-0.6,0.1l0,0.4l-0.6,0.1
				l0,0.4l-0.6,0.1l0,0.4l-0.6,0.1v0.4l-0.6,0.1l0,0.4l-0.6,0.1l0,0.4l-0.6,0.1l0,0.4l-0.6,0.1v0.4l-0.6,0.1v0.4l-0.6,0.1v0.4
				l-0.6,0.1l0,0.4l-0.6,0.1l0,0.4l-0.6,0.1v0.4l-0.6,0.1v0.4l-0.6,0.1l0,0.4l-0.6,0.1l0,0.4l-0.6,0.1v0.4l-0.6,0.1v0.4l-0.6,0.1
				v0.4l-0.6,0.1l0,0.4l-0.6,0.1l0,0.4l-0.6,0.1v0.4l-0.6,0.1v0.4l-0.6,0.1l0,0.4l-0.6,0.1l0,0.4l-0.6,0.1v0.4l-0.6,0.1v0.4
				l-0.6,0.1v0.4l-0.6,0.1l0,0.4l-0.6,0.1l0,0.4l-0.6,0.1v0.4l-0.6,0.1v0.4l-0.6,0.1l0,0.4l-0.6,0.1l0,0.4l-0.6,0.1v0.4l-0.6,0.1
				v0.4l-0.6,0.1v0.4l-0.6,0.1v0.4l-0.6,0.1v0.4l-0.6,0.1v0.4l-0.6,0.1v0.4l-0.6,0.1v0.4l-0.6,0.1v0.4l-0.6,0.1v0.4l-0.6,0.1v0.4
				l-0.6,0.1v0.4l-0.6,0.1v0.4l-0.6,0.1v0.4l-0.6,0.1v0.4l-0.6,0.1v248.9c0,3.3-0.3,6.2-0.7,8.9
				C702.8,633.9,705.1,633.8,707.6,633.5z"/>
			<polygon class="st0" points="169.5,606.8 169.4,629.7 202.8,625.6 202.8,625.2 203.4,625.1 203.4,624.7 204.1,624.6 204.1,624.2 
				204.7,624.1 204.7,623.6 205.3,623.6 205.3,623.1 206,623 206,622.6 206.6,622.5 206.6,622.1 207.2,622 207.2,621.6 207.9,621.5 
				207.9,621 208.5,621 208.5,620.5 209.1,620.5 209.1,620 209.8,619.9 209.8,619.5 210.4,619.4 210.4,619 211.1,618.9 211.1,618.5 
				211.7,618.4 211.7,617.9 212.3,617.9 212.3,617.4 213,617.3 213,616.9 213.6,616.8 213.6,616.4 214.2,616.3 214.2,615.9 
				214.9,615.8 214.9,615.3 215.5,615.3 215.5,614.8 216.1,614.7 216.1,614.3 216.8,614.2 216.8,613.8 217.4,613.7 217.4,613.3 
				218.1,613.2 218.1,612.7 218.7,612.7 218.7,612.2 219.3,612.1 219.3,611.7 220,611.6 220,611.2 220.6,611.1 220.6,610.7 
				221.2,610.6 221.2,610.1 221.9,610.1 221.9,609.6 222.5,609.6 222.5,609.1 223.1,609 223.1,608.6 223.8,608.5 223.8,608.1 
				224.4,608 224.4,607.6 225.1,607.5 225.1,607 225.7,607 225.7,606.5 226.3,606.4 226.3,606 227,605.9 227,605.5 227.6,605.4 
				227.6,605 228.2,604.9 228.2,604.4 228.9,604.4 228.9,603.9 229.5,603.8 229.5,603.4 230.1,603.3 230.1,602.9 230.8,602.8 
				230.8,602.4 231.4,602.3 231.4,601.8 232.1,601.8 232.1,601.3 232.7,601.2 232.7,600.8 233.3,600.7 233.3,600.3 234,600.2 
				234,599.8 234.6,599.7 234.6,599.2 235.2,599.2 235.2,599 			"/>
			<polygon class="st0" points="503.9,700.2 504.4,423.5 450.6,430 450.7,384 449.9,384.1 449.9,384.6 449.3,384.6 449.3,385.1 
				448.7,385.2 448.7,385.6 448,385.7 448,386.1 447.4,386.2 447.4,386.6 446.7,386.7 446.7,387.1 446.1,387.2 446.1,387.6 
				445.4,387.7 445.4,388.2 444.8,388.2 444.8,388.7 444.1,388.7 444.1,389.2 443.5,389.3 443.5,389.7 442.9,389.8 442.9,390.2 
				442.2,390.3 442.2,390.7 441.6,390.8 441.6,391.2 440.9,391.3 440.9,391.7 440.3,391.8 440.3,392.3 439.6,392.3 439.6,392.8 
				439,392.8 439,393.3 438.4,393.4 438.4,393.8 437.7,393.9 437.7,394.3 437.1,394.4 437.1,394.8 436.4,394.9 436.4,395.3 
				435.8,395.4 435.8,395.8 435.1,395.9 435.1,396.3 434.5,396.4 434.5,396.9 433.9,396.9 433.9,397.4 433.2,397.4 433.2,397.9 
				432.6,398 432.6,398.4 431.9,398.5 431.9,398.9 431.3,399 431.3,399.4 430.6,399.5 430.6,399.9 430.5,399.9 430.4,454.7 
				470.9,449.8 470.9,726.4 522.4,720.2 522.4,719.8 523.1,719.7 523.1,719.3 523.7,719.2 523.7,718.8 524.3,718.7 524.3,718.3 
				525,718.2 525,717.8 525.6,717.7 525.6,717.2 526.2,717.2 526.2,716.7 526.9,716.7 526.9,716.2 527.5,716.2 527.5,715.7 
				528.1,715.6 528.1,715.2 528.8,715.1 528.8,714.7 529.4,714.6 529.4,714.2 530,714.1 530,713.7 530.7,713.6 530.7,713.2 
				531.3,713.1 531.3,712.7 531.9,712.6 531.9,712.2 532.6,712.1 532.6,711.7 533.2,711.6 533.2,711.1 533.8,711.1 533.8,710.6 
				534.5,710.6 534.5,710.1 535.1,710.1 535.1,709.6 535.7,709.5 535.7,709.1 536.4,709 536.4,708.6 537,708.5 537,708.1 537.6,708 
				537.6,707.6 538.3,707.5 538.3,707.1 538.9,707 538.9,706.6 539.5,706.5 539.5,706.1 540.2,706 540.2,705.5 540.8,705.5 
				540.8,705 541.4,705 541.4,704.5 542.1,704.5 542.1,704 542.7,703.9 542.7,703.5 543.3,703.4 543.3,703 544,702.9 544,702.5 
				544.6,702.4 544.6,702 545.2,701.9 545.2,701.5 545.9,701.4 545.9,701 546.5,700.9 546.5,700.5 547.1,700.4 547.1,700 
				547.8,699.9 547.8,699.4 548.4,699.4 548.4,698.9 549,698.9 549,698.4 549.7,698.4 549.7,697.9 550.3,697.8 550.3,697.4 
				550.9,697.3 550.9,696.9 551.6,696.8 551.6,696.4 552.2,696.3 552.2,695.9 552.8,695.8 552.8,695.4 553.5,695.3 553.5,694.9 
				554.1,694.8 554.1,694.4 554.7,694.3 554.7,694.1 			"/>
			<path class="st0" d="M706.2,680.2c-50.6,6-76.7-20.4-76.6-72l0.4-245.6l-0.7,0.1l0,0.4l-0.6,0.1l0,0.4l-0.6,0.1l0,0.4l-0.6,0.1
				l0,0.4l-0.6,0.1l0,0.4l-0.6,0.1l0,0.4l-0.6,0.1l0,0.4l-0.6,0.1l0,0.4l-0.6,0.1v0.4l-0.6,0.1v0.4l-0.6,0.1v0.4l-0.6,0.1v0.4
				l-0.6,0.1v0.4l-0.6,0.1v0.4l-0.6,0.1l0,0.4l-0.6,0.1l0,0.4l-0.6,0.1l0,0.4l-0.6,0.1l0,0.4l-0.6,0.1l0,0.4l-0.6,0.1l0,0.4
				l-0.6,0.1l0,0.4l-0.6,0.1l0,0.4l-0.6,0.1l0,0.4l-0.6,0.1l0,0.4l-0.6,0.1l0,0.4l-0.6,0.1v0.4l-0.6,0.1v0.4l-0.6,0.1v0.4l-0.6,0.1
				v0.4l-0.6,0.1v0.4l-0.6,0.1v0.4l-0.1,0l-0.1,32.6l-53.8,6.4l0,22.1l20.4-2.5v-0.4l0.6-0.1v-0.4l0.6-0.1v-0.4l0.6-0.1v-0.4
				l0.6-0.1v-0.4l0.6-0.1v-0.4l0.6-0.1v-0.4l0.6-0.1v-0.4l0.6-0.1v-0.4l0.6-0.1v-0.4l0.6-0.1v-0.4l0.6-0.1v-0.4l0.6-0.1v-0.4
				l0.6-0.1v-0.4l0.6-0.1v-0.4l0.6-0.1v-0.4l0.6-0.1v-0.4l0.6-0.1v-0.4l0.6-0.1v-0.4l0.6-0.1V427l0.6-0.1v-0.4l0.6-0.1l0-0.4
				l0.6-0.1l0-0.4l0.6-0.1l0-0.4l0.6-0.1l0-0.4l0.6-0.1l0-0.4l0.6-0.1l0-0.4l0.6-0.1l0-0.4l0.6-0.1v-0.4l0.6-0.1V422l0.6-0.1v-0.4
				l0.6-0.1V421l0.2,0v213.3c0,51.6,26.2,78,76.8,71.9c19.1-2.3,34.8-8.5,46.8-18c0.2-0.2,0.4-0.3,0.6-0.5c0.2-0.2,0.4-0.3,0.6-0.5
				c0.2-0.2,0.4-0.3,0.6-0.5c0.2-0.2,0.4-0.3,0.6-0.5c0.2-0.2,0.4-0.3,0.6-0.5c0.2-0.2,0.4-0.3,0.6-0.5c0.2-0.2,0.4-0.3,0.6-0.5
				c0.2-0.2,0.4-0.3,0.6-0.5c0.2-0.2,0.4-0.3,0.6-0.5c0.2-0.2,0.4-0.3,0.6-0.5c0.2-0.2,0.4-0.3,0.6-0.5c0.2-0.2,0.4-0.3,0.6-0.5
				c0.2-0.2,0.4-0.3,0.6-0.5c0.2-0.2,0.4-0.3,0.6-0.5c0.2-0.2,0.4-0.3,0.6-0.5c0.2-0.2,0.4-0.3,0.6-0.5c0.2-0.2,0.4-0.3,0.6-0.5
				c0.2-0.2,0.4-0.3,0.6-0.5c0.2-0.2,0.4-0.3,0.6-0.5c0.2-0.2,0.4-0.3,0.6-0.5c0.2-0.2,0.4-0.3,0.6-0.5c0.2-0.2,0.4-0.3,0.6-0.5
				c0.2-0.2,0.4-0.3,0.6-0.5c0.2-0.2,0.4-0.3,0.6-0.5c0.2-0.2,0.4-0.3,0.6-0.5c0.2-0.2,0.4-0.3,0.6-0.5c0.2-0.2,0.4-0.3,0.6-0.5
				c0.2-0.2,0.4-0.3,0.6-0.5c0.2-0.2,0.4-0.3,0.6-0.5c0.2-0.2,0.4-0.3,0.6-0.5c0.2-0.2,0.4-0.3,0.6-0.5c0.2-0.2,0.4-0.3,0.6-0.5
				c0.2-0.2,0.4-0.3,0.6-0.5c0.2-0.2,0.4-0.3,0.6-0.5c0.2-0.2,0.4-0.3,0.6-0.5c0.2-0.2,0.4-0.3,0.6-0.5c0.2-0.2,0.4-0.3,0.6-0.5
				c0.2-0.2,0.4-0.3,0.6-0.5c0.2-0.2,0.4-0.3,0.6-0.5c0.2-0.2,0.4-0.3,0.6-0.5c0.2-0.2,0.4-0.3,0.6-0.5c0.2-0.2,0.4-0.3,0.6-0.5
				c0.2-0.2,0.4-0.3,0.6-0.5c0.2-0.2,0.4-0.3,0.6-0.5c0.1-0.1,0.2-0.2,0.4-0.3C736.9,673.3,722.9,678.2,706.2,680.2z"/>
			<path class="st0" d="M353.2,722.3c-50.6,6-76.7-20.4-76.6-72l0.4-245.5l-0.7,0.1v0.4l-0.6,0.1l0,0.4l-0.6,0.1l0,0.4l-0.6,0.1
				l0,0.4l-0.6,0.1l0,0.4l-0.6,0.1l0,0.4l-0.6,0.1l0,0.4l-0.6,0.1l0,0.4l-0.6,0.1l0,0.4l-0.6,0.1l0,0.4l-0.6,0.1l0,0.4l-0.6,0.1
				l0,0.4l-0.6,0.1l0,0.4l-0.6,0.1v0.4l-0.6,0.1v0.4l-0.6,0.1v0.4l-0.6,0.1v0.4l-0.6,0.1v0.4l-0.6,0.1v0.4l-0.6,0.1v0.4l-0.6,0.1
				v0.4l-0.6,0.1l0,0.4l-0.6,0.1l0,0.4l-0.6,0.1l0,0.4l-0.6,0.1l0,0.4l-0.6,0.1l0,0.4l-0.6,0.1l0,0.4l-0.6,0.1l0,0.4l-0.6,0.1l0,0.4
				l-0.6,0.1v0.4l-0.6,0.1v0.4l-0.6,0.1v0.4l-0.6,0.1v0.4l-0.6,0.1v0.4l-0.5,0.1l-0.1,30.9l-84.7,10.1l0,22.8l51.3-6.2v-0.4l0.6-0.1
				v-0.4l0.6-0.1v-0.4l0.6-0.1v-0.4l0.6-0.1v-0.4l0.6-0.1V477l0.6-0.1v-0.4l0.6-0.1V476l0.6-0.1v-0.4l0.6-0.1V475l0.6-0.1v-0.4
				l0.6-0.1v-0.4l0.6-0.1v-0.4l0.6-0.1v-0.4l0.6-0.1l0-0.4l0.6-0.1l0-0.4l0.6-0.1l0-0.4l0.6-0.1l0-0.4l0.6-0.1l0-0.4l0.6-0.1l0-0.4
				l0.6-0.1v-0.4l0.6-0.1v-0.4l0.6-0.1v-0.4l0.6-0.1v-0.4l0.6-0.1v-0.4l0.6-0.1v-0.4l0.6-0.1v-0.4l0.6-0.1v-0.4l0.6-0.1v-0.4
				l0.6-0.1v-0.4l0.6-0.1v-0.4l0.6-0.1v-0.4l0.6-0.1V463l0.6-0.1v-0.4l0.6-0.1V462l0.6-0.1v-0.4l0,0V677c0,51.6,26.2,78,76.8,71.9
				c19.2-2.3,34.9-8.5,46.9-18c0.2-0.2,0.4-0.3,0.6-0.5c0.2-0.2,0.4-0.3,0.6-0.5c0.2-0.2,0.4-0.3,0.6-0.5c0.2-0.2,0.4-0.3,0.6-0.5
				c0.2-0.2,0.4-0.3,0.6-0.5c0.2-0.2,0.4-0.3,0.6-0.5c0.2-0.2,0.4-0.3,0.6-0.5c0.2-0.2,0.4-0.3,0.6-0.5c0.2-0.2,0.4-0.3,0.6-0.5
				c0.2-0.2,0.4-0.3,0.6-0.5c0.2-0.2,0.4-0.3,0.6-0.5c0.2-0.2,0.4-0.3,0.6-0.5c0.2-0.2,0.4-0.3,0.6-0.5c0.2-0.2,0.4-0.3,0.6-0.5
				c0.2-0.2,0.4-0.3,0.6-0.5c0.2-0.2,0.4-0.3,0.6-0.5c0.2-0.2,0.4-0.3,0.6-0.5c0.2-0.2,0.4-0.3,0.6-0.5c0.2-0.2,0.4-0.3,0.6-0.5
				c0.2-0.2,0.4-0.3,0.6-0.5c0.2-0.2,0.4-0.3,0.6-0.5c0.2-0.2,0.4-0.3,0.6-0.5c0.2-0.2,0.4-0.3,0.6-0.5c0.2-0.2,0.4-0.3,0.6-0.5
				c0.2-0.2,0.4-0.3,0.6-0.5c0.2-0.2,0.4-0.3,0.6-0.5c0.2-0.2,0.4-0.3,0.6-0.5c0.2-0.2,0.4-0.3,0.6-0.5c0.2-0.2,0.4-0.3,0.6-0.5
				c0.2-0.2,0.4-0.3,0.6-0.5c0.2-0.2,0.4-0.3,0.6-0.5c0.2-0.2,0.4-0.3,0.6-0.5c0.2-0.2,0.4-0.3,0.6-0.5c0.2-0.2,0.4-0.3,0.6-0.5
				c0.2-0.2,0.4-0.3,0.6-0.5c0.2-0.2,0.4-0.3,0.6-0.5c0.2-0.2,0.4-0.3,0.6-0.5c0.2-0.2,0.4-0.3,0.6-0.5c0.2-0.2,0.4-0.3,0.6-0.5
				c0.2-0.2,0.4-0.3,0.6-0.5c0.2-0.2,0.4-0.3,0.6-0.5c0.2-0.2,0.4-0.3,0.6-0.5c0.2-0.2,0.4-0.3,0.6-0.5c0.2-0.2,0.4-0.3,0.6-0.5
				c0.2-0.2,0.4-0.3,0.6-0.5c0.1-0.1,0.2-0.2,0.3-0.2C384.5,715.2,370.2,720.3,353.2,722.3z"/>
		</g>
		<g>
			<polygon class="st0" points="1058.2,357.5 1058.2,378.8 1113.5,372.1 1113.5,371.7 1114.2,371.6 1114.2,371.2 1114.8,371.1 
				1114.8,370.7 1115.5,370.6 1115.5,370.2 1116.1,370.1 1116.1,369.7 1116.8,369.7 1116.8,369.2 1117.4,369.2 1117.4,368.8 
				1118,368.7 1118,368.3 1118.7,368.2 1118.7,367.8 1119.3,367.7 1119.3,367.3 1120,367.2 1120,366.8 1120.6,366.7 1120.6,366.3 
				1121.3,366.2 1121.3,365.8 1121.9,365.7 1121.9,365.3 1122.6,365.3 1122.6,364.8 1123.2,364.8 1123.2,364.4 1123.8,364.3 
				1123.8,363.9 1124.5,363.8 1124.5,363.4 1125.1,363.3 1125.1,362.9 1125.8,362.8 1125.8,362.4 1126.4,362.3 1126.4,361.9 
				1127.1,361.8 1127.1,361.4 1127.7,361.3 1127.7,360.9 1128.4,360.9 1128.4,360.5 1129,360.4 1129,360 1129.6,359.9 1129.7,359.5 
				1130.3,359.4 1130.3,359 1130.9,358.9 1130.9,358.5 1131.6,358.4 1131.6,358 1132.2,357.9 1132.2,357.5 1132.9,357.4 1132.9,357 
				1133.5,357 1133.5,356.5 1134.2,356.5 1134.2,356.1 1134.8,356 1134.8,355.6 1135.5,355.5 1135.5,355.1 1136.1,355 1136.1,354.6 
				1136.7,354.5 1136.7,354.1 1137.4,354 1137.4,353.6 1138,353.5 1138,353.1 1138.7,353 1138.7,352.6 1139.3,352.6 1139.3,352.1 
				1140,352.1 1140,351.7 1140.6,351.6 1140.6,351.2 1141.3,351.1 1141.3,350.7 1141.9,350.6 1141.9,350.2 1142.5,350.1 
				1142.5,349.7 1143.2,349.6 1143.2,349.2 1143.8,349.1 1143.8,348.7 1144.5,348.6 1144.5,348.2 1145.1,348.2 1145.1,347.7 
				1145.8,347.7 1145.8,347.3 1146.4,347.2 1146.4,347 			"/>
			<path class="st0" d="M886.3,477.1l3.7-0.4c19.2-2.3,30.9-12,31-37.8l0.1-31.8c0-23.1-7.9-32.2-26.2-30.1l-24.8,3l0,22.7
				c12,1.6,17.5,11,17.5,30v31.8C887.5,469.2,887.1,473.4,886.3,477.1z"/>
			<polygon class="st0" points="1095.3,509.9 1095.9,509.8 1095.9,509.4 1096.6,509.3 1096.6,508.9 1097.2,508.9 1097.2,508.4 
				1097.8,508.4 1097.8,507.9 1098.5,507.9 1098.5,507.5 1099.1,507.4 1099.1,507 1099.8,506.9 1099.8,506.5 1100.4,506.4 
				1100.4,506 1101,505.9 1101,505.5 1101.7,505.4 1101.7,505 1102.3,504.9 1102.3,504.5 1103,504.4 1103,504 1103.6,504 
				1103.6,503.5 1104.2,503.5 1104.2,503.1 1104.9,503 1104.9,502.6 1105.5,502.5 1105.5,502.1 1106.2,502 1106.2,501.6 
				1106.8,501.5 1106.8,501.1 1107.4,501 1107.4,500.6 1108.1,500.5 1108.1,500.1 1108.7,500 1108.7,499.6 1109.4,499.6 
				1109.4,499.1 1110,499.1 1110,498.6 1110.6,498.6 1110.6,498.2 1111.3,498.1 1111.3,497.7 1111.9,497.6 1111.9,497.2 
				1112.6,497.1 1112.6,496.7 1113.2,496.6 1113.2,496.2 1113.8,496.1 1113.8,495.7 1114.5,495.6 1114.5,495.2 1115.1,495.1 
				1115.1,494.7 1115.8,494.7 1115.8,494.2 1116.4,494.2 1116.4,493.8 1117,493.7 1117,493.3 1117.7,493.2 1117.7,492.8 
				1118.3,492.7 1118.3,492.3 1119,492.2 1119,491.8 1119.6,491.7 1119.6,491.3 1120.2,491.2 1120.2,490.8 1120.9,490.7 
				1120.9,490.3 1121.5,490.3 1121.5,489.8 1122.2,489.8 1122.2,489.3 1122.8,489.3 1122.8,488.9 1123.4,488.8 1123.4,488.4 
				1124.1,488.3 1124.1,487.9 1124.7,487.8 1124.7,487.4 1125.4,487.3 1125.4,486.9 1126,486.8 1126,486.4 1126.6,486.3 
				1126.6,485.9 1127.3,485.8 1127.3,485.4 1127.9,485.4 1127.9,485.2 1058,493.5 1057.9,514.8 1095.3,510.3 			"/>
			<polygon class="st0" points="818,662.7 818.6,340.2 817.9,340.3 817.9,340.7 817.2,340.8 817.2,341.2 816.6,341.3 816.6,341.7 
				815.9,341.8 815.9,342.2 815.3,342.3 815.3,342.7 814.6,342.8 814.6,343.2 814,343.3 814,343.7 813.3,343.8 813.3,344.2 
				812.7,344.3 812.7,344.7 812.1,344.8 812.1,345.2 811.4,345.3 811.4,345.7 810.8,345.8 810.8,346.2 810.1,346.3 810.1,346.7 
				809.5,346.8 809.5,347.2 808.8,347.3 808.8,347.7 808.2,347.8 808.2,348.2 807.5,348.3 807.5,348.7 806.9,348.8 806.9,349.2 
				806.3,349.3 806.3,349.7 805.6,349.8 805.6,350.2 805,350.3 805,350.7 804.3,350.8 804.3,351.2 803.7,351.3 803.7,351.7 
				803,351.8 803,352.2 802.4,352.3 802.4,352.7 801.7,352.8 801.7,353.2 801.1,353.3 801.1,353.7 800.5,353.8 800.4,354.2 
				799.8,354.3 799.8,354.7 799.2,354.8 799.2,355.2 798.5,355.3 798.5,355.7 797.9,355.8 797.9,356.2 797.2,356.3 797.2,356.7 
				796.6,356.8 796.6,357.2 795.9,357.3 795.9,357.7 795.3,357.8 795.3,358.2 794.6,358.3 794.6,358.7 794,358.8 794,359.2 
				793.4,359.3 793.4,359.7 792.7,359.8 792.7,360.2 792.1,360.2 792.1,360.7 791.4,360.7 791.4,361.2 790.8,361.2 790.8,361.7 
				790.1,361.7 790.1,362.2 789.5,362.2 789.5,362.7 788.8,362.7 788.8,363.2 788.2,363.2 788.2,363.7 787.6,363.7 787.6,364.2 
				786.9,364.2 786.9,364.7 786.3,364.7 786.3,365.2 785.6,365.2 785.6,365.7 785,365.7 785,688.5 836.5,682.2 836.5,681.8 
				837.1,681.7 837.1,681.3 837.7,681.2 837.7,680.8 838.4,680.7 838.4,680.3 839,680.2 839,679.8 839.6,679.7 839.6,679.3 
				840.3,679.2 840.3,678.8 840.9,678.7 840.9,678.3 841.5,678.2 841.5,677.8 842.2,677.8 842.2,677.3 842.8,677.3 842.8,676.8 
				843.4,676.8 843.4,676.3 844.1,676.3 844.1,675.8 844.7,675.8 844.7,675.3 845.3,675.3 845.3,674.8 846,674.8 846,674.3 
				846.6,674.3 846.6,673.8 847.2,673.8 847.2,673.3 847.9,673.3 847.9,672.8 848.5,672.8 848.5,672.3 849.1,672.3 849.1,671.9 
				849.8,671.8 849.8,671.4 850.4,671.3 850.4,670.9 851,670.8 851,670.4 851.7,670.3 851.7,669.9 852.3,669.8 852.3,669.4 
				852.9,669.3 852.9,668.9 853.6,668.8 853.6,668.4 854.2,668.3 854.2,667.9 854.9,667.8 854.9,667.4 855.5,667.3 855.5,666.9 
				856.1,666.8 856.1,666.4 856.8,666.3 856.8,665.9 857.4,665.8 857.4,665.4 858,665.3 858,664.9 858.7,664.8 858.7,664.4 
				859.3,664.3 859.3,663.9 859.9,663.8 859.9,663.4 860.6,663.3 860.6,662.9 861.2,662.8 861.2,662.4 861.8,662.3 861.8,661.9 
				862.5,661.8 862.5,661.4 863.1,661.3 863.1,660.9 863.7,660.8 863.7,660.4 864.4,660.3 864.4,659.9 865,659.8 865,659.4 
				865.6,659.3 865.6,658.9 866.3,658.8 866.3,658.4 866.9,658.3 866.9,657.9 867.5,657.8 867.5,657.4 868.2,657.3 868.2,656.9 
				868.8,656.8 868.8,656.7 			"/>
			<path class="st0" d="M939.8,490.2c0.2-0.2,0.4-0.3,0.6-0.5c0.2-0.2,0.4-0.3,0.6-0.5c0,0,0.1-0.1,0.1-0.1
				c-0.8,0.5-1.7,1.1-2.6,1.6c0.1,0,0.3,0.1,0.4,0.1c0,0,0.1-0.1,0.1-0.1C939.4,490.6,939.6,490.4,939.8,490.2z"/>
			<path class="st0" d="M1006.2,640.3l0.6-322.6l-0.7,0.1l0,0.4l-0.6,0.1l0,0.4l-0.6,0.1l0,0.4l-0.6,0.1l0,0.4l-0.6,0.1l0,0.4
				l-0.6,0.1l0,0.4l-0.6,0.1l0,0.4l-0.6,0.1v0.4l-0.6,0.1v0.4l-0.6,0.1v0.4l-0.6,0.1l0,0.4l-0.6,0.1l0,0.4l-0.6,0.1l0,0.4l-0.6,0.1
				l0,0.4l-0.6,0.1l0,0.4l-0.6,0.1l0,0.4l-0.6,0.1v0.4l-0.6,0.1v0.4l-0.6,0.1v0.4l-0.6,0.1v0.4l-0.6,0.1v0.4l-0.6,0.1l0,0.4
				l-0.6,0.1l0,0.4l-0.6,0.1l0,0.4l-0.6,0.1l0,0.4l-0.6,0.1l0,0.4l-0.6,0.1l0,0.4l-0.6,0.1v0.4l-0.6,0.1v0.4l-0.6,0.1v0.4l-0.6,0.1
				v0.4l-0.6,0.1v0.4l-0.6,0.1v0.4l-0.6,0.1l0,0.4l-0.6,0.1l0,0.4l-0.6,0.1l0,0.4l-0.6,0.1l0,0.4l-0.6,0.1v0.4l-0.6,0.1v0.4
				l-0.6,0.1v0.4l-0.6,0.1v0.4l-0.6,0.1v0.4l-0.6,0.1v0.4l-0.6,0.1v0.4l-0.6,0.1v0.4L977,340v0.4l-0.6,0.1v0.4l-0.6,0.1v0.4
				l-0.6,0.1v0.4l-0.6,0.1v0.4l-0.6,0.1v0.4l-0.6,0.1v279.9c0.6,7.5,2,14.2,5,20.8l-52.4,6.3c-2.8-8-4.7-12.8-4.6-39.1l0.1-50.7
				c0.1-30-10.2-39.8-33.6-37l-17.8,2.1l0,24c12.5,3.1,18.2,14.2,18.2,36.5v50.7c0,26.3,1.9,31.1,4.7,39.1l52.4-6.3
				c-0.1-0.1-0.1-0.3-0.2-0.4l0.8-0.1c-0.1-0.1-0.1-0.3-0.2-0.4l0.8-0.1c-0.1-0.1-0.1-0.3-0.2-0.4l0.8-0.1c-0.1-0.1-0.1-0.3-0.2-0.4
				l0.8-0.1c-0.1-0.1-0.1-0.3-0.2-0.4l0.8-0.1c-0.1-0.1-0.1-0.3-0.2-0.4l0.8-0.1c-0.1-0.1-0.1-0.3-0.2-0.4l0.8-0.1
				c-0.1-0.1-0.1-0.3-0.2-0.4l0.8-0.1c-0.1-0.1-0.1-0.3-0.2-0.4l0.8-0.1c-0.1-0.1-0.1-0.3-0.2-0.4l0.8-0.1c-0.1-0.1-0.1-0.3-0.2-0.4
				l0.8-0.1c-0.1-0.1-0.1-0.3-0.2-0.4l0.8-0.1c-0.1-0.1-0.1-0.3-0.2-0.4l0.8-0.1c-0.1-0.1-0.1-0.3-0.2-0.4l0.8-0.1
				c-0.1-0.1-0.1-0.3-0.2-0.4l0.8-0.1c-0.1-0.1-0.1-0.3-0.2-0.4l0.8-0.1c-0.1-0.1-0.1-0.3-0.2-0.4l0.8-0.1c-0.1-0.1-0.1-0.3-0.2-0.4
				l0.8-0.1c-0.1-0.1-0.1-0.3-0.2-0.4l0.8-0.1c-0.1-0.1-0.1-0.3-0.2-0.4l0.8-0.1c-0.1-0.1-0.1-0.3-0.2-0.4l0.8-0.1
				c-0.1-0.1-0.1-0.3-0.2-0.4l0.8-0.1c-0.1-0.1-0.1-0.3-0.2-0.4l0.8-0.1c-0.1-0.1-0.1-0.3-0.2-0.4l0.8-0.1c-0.1-0.1-0.1-0.3-0.2-0.4
				l0.8-0.1c-0.1-0.1-0.1-0.3-0.2-0.4l0.8-0.1c-0.1-0.1-0.1-0.3-0.2-0.4l0.8-0.1c-0.1-0.1-0.1-0.3-0.2-0.4l0.8-0.1
				c-0.1-0.1-0.1-0.3-0.2-0.4l0.8-0.1c-0.1-0.1-0.1-0.3-0.2-0.4l0.8-0.1c-0.1-0.1-0.1-0.3-0.2-0.4l0.8-0.1c-0.1-0.1-0.1-0.3-0.2-0.4
				l0.8-0.1c-0.1-0.1-0.1-0.3-0.2-0.4l0.8-0.1c-0.1-0.1-0.1-0.3-0.2-0.4l0.8-0.1c-0.1-0.1-0.1-0.3-0.2-0.4l0.8-0.1
				c-0.1-0.1-0.1-0.3-0.2-0.4l0.8-0.1c-0.1-0.1-0.1-0.3-0.2-0.4l0.8-0.1c-0.1-0.1-0.1-0.3-0.2-0.4l0.8-0.1c-0.1-0.1-0.1-0.3-0.2-0.4
				l0.8-0.1c-0.1-0.1-0.1-0.3-0.2-0.4l0.8-0.1c-0.1-0.1-0.1-0.3-0.2-0.4l0.8-0.1c-0.1-0.1-0.1-0.3-0.2-0.4l0.8-0.1
				c-0.1-0.1-0.1-0.3-0.2-0.4l0.8-0.1c-0.1-0.1-0.1-0.3-0.2-0.4l0.8-0.1c-0.1-0.1-0.1-0.3-0.2-0.4l0.3,0v18.8l140.4-17v-0.4l0.6-0.1
				v-0.4l0.6-0.1v-0.4l0.6-0.1v-0.4l0.6-0.1v-0.4l0.6-0.1v-0.4l0.6-0.1v-0.4l0.6-0.1v-0.4l0.6-0.1v-0.4l0.6-0.1v-0.4l0.6-0.1v-0.4
				l0.6-0.1v-0.4l0.6-0.1v-0.4l0.6-0.1V642l0.6-0.1v-0.4l0.6-0.1V641l0.6-0.1l0-0.4l0.6-0.1V640l0.6-0.1l0-0.4l0.6-0.1V639l0.6-0.1
				v-0.4l0.6-0.1l0-0.4l0.6-0.1v-0.4l0.6-0.1l0-0.4l0.6-0.1v-0.4l0.6-0.1l0-0.4l0.6-0.1v-0.4l0.6-0.1l0-0.4l0.6-0.1v-0.4l0.6-0.1
				l0-0.4l0.6-0.1v-0.4l0.6-0.1v-0.4l0.6-0.1l0-0.4l0.6-0.1v-0.4l0.6-0.1l0-0.4l0.6-0.1v-0.4l0.6-0.1l0-0.4l0.6-0.1v-0.4l0.6-0.1
				l0-0.4l0.6-0.1v-0.4l0.6-0.1l0-0.4l0.6-0.1v-0.4l0.6-0.1v-0.4l0.6-0.1l0-0.4l0.6-0.1l0-0.4l0.6-0.1l0-0.4l0.6-0.1l0-0.4l0.6-0.1
				l0-0.4l0.6-0.1v-0.4l0.6-0.1l0-0.4l0.6-0.1v-0.4l0.6-0.1l0-0.1L1006.2,640.3z"/>
		</g>
		<g>
			<path class="st1" d="M169.6,560.7l66.5-7.9l-0.1,46.1l-66.5,7.9l-0.2,133.2l-51.5,6.1l0.6-322.7l136.2-16.2l-0.1,46.1l-84.7,10.1
				L169.6,560.7z"/>
			<path class="st1" d="M328.5,398.4l-0.4,249c0,23.1,10.2,30.1,26.6,28.2c16.4-2,26.7-11.5,26.7-34.5l0.4-249l48.7-5.8L430.1,632
				c-0.1,51.6-26.4,84.3-76.9,90.3c-50.6,6-76.7-20.4-76.6-72l0.4-245.7L328.5,398.4z"/>
			<path class="st1" d="M450.7,383.9l159.2-19l-0.1,46.1l-53.8,6.4L555.4,694l-51.5,6.1l0.5-276.6l-53.8,6.4L450.7,383.9z"/>
			<path class="st1" d="M681.4,356.4l-0.4,249c0,23.1,10.2,30.1,26.6,28.2c16.4-2,26.7-11.5,26.7-34.5l0.4-249l48.7-5.8l-0.4,245.7
				c-0.1,51.6-26.4,84.3-76.9,90.3c-50.6,6-76.7-20.4-76.6-72l0.4-245.7L681.4,356.4z"/>
			<path class="st1" d="M925.7,649.9c-2.8-8-4.7-12.8-4.6-39.1l0.1-50.7c0.1-30-10.2-39.8-33.6-37l-17.8,2.1l-0.2,131.4l-51.5,6.1
				l0.6-322.7l77.7-9.3c53.4-6.4,76.3,15.3,76.2,65.1l0,25.4c-0.1,33.2-10.9,56.1-33.8,69.5c25.7,7.5,34.1,31,34.1,64.6l-0.1,49.8
				c0,15.7,0.4,27.1,5.5,38.5L925.7,649.9z M870,380l-0.2,99.1l20.1-2.4c19.2-2.3,30.9-12,31-37.8l0.1-31.8
				c0-23.1-7.9-32.2-26.2-30.1L870,380z"/>
			<path class="st1" d="M1058,447.4l70.7-8.4l-0.1,46.1l-70.7,8.4l-0.2,94.5l88.9-10.6l-0.1,46.1l-140.4,16.7l0.6-322.7l140.4-16.7
				l-0.1,46.1l-88.9,10.6L1058,447.4z"/>
		</g>
	</g>
	<polygon class="st2" points="1155,244.1 1127.1,231.5 1101,247.3 1104.4,216.9 1081.3,196.9 1111.2,190.7 1123.1,162.6 
		1138.2,189.1 1168.6,191.7 1148,214.3 	"/>
	<polygon class="st2" points="994.2,81.5 966.4,68.9 940.2,84.7 943.6,54.3 920.5,34.3 950.4,28.1 962.3,0 977.4,26.5 1007.9,29.1 
		987.3,51.7 	"/>
	<polygon class="st2" points="662.4,136.2 634.5,123.7 608.4,139.5 611.8,109.1 588.7,89.1 618.6,82.9 630.5,54.8 645.6,81.3 
		676,83.9 655.4,106.5 	"/>
	<polygon class="st2" points="85.4,254.7 68.7,280.3 80.3,308.5 50.8,300.6 27.6,320.4 26,289.9 0,273.8 28.5,262.9 35.7,233.3 
		54.9,257 	"/>
	<polygon class="st2" points="220.8,75.8 204.1,101.4 215.8,129.6 186.3,121.7 163,141.5 161.4,111 135.4,95 164,84 171.2,54.4 
		190.4,78.1 	"/>
	<g>
		<g>
			<path class="st0" d="M106.4,1059c0-14.2,6.6-25.4,21.6-27.2c15.2-1.8,21.9,7.8,21.9,21.9v49.7c0,14.2-6.6,25.4-21.9,27.2
				c-14.9,1.8-21.6-7.8-21.6-22V1059z M112.9,1108.3c0,10.6,4.2,17.8,15.1,16.5c11-1.3,15.4-9.6,15.4-20.2v-50.6
				c0-10.6-4.4-17.8-15.4-16.5c-10.9,1.3-15.1,9.6-15.1,20.2V1108.3z"/>
			<path class="st0" d="M256.3,1064.5v5.8l-25.5,3.1v44l-6.5,0.8V1021l37.5-4.5v5.8l-31,3.8v41.5L256.3,1064.5z"/>
			<path class="st0" d="M427.5,996.4v97.2l-6.5,0.8v-97.2L427.5,996.4z"/>
			<path class="st0" d="M508.4,1083.8l-5.9,0.7v-97.2l8.5-1l29.6,78.5v-82.1l5.9-0.7v97.2l-7.2,0.9l-30.9-83V1083.8z"/>
			<path class="st0" d="M643.1,970.3c15.2-1.8,21.9,7.2,21.9,21.5v48.9c0,14.3-6.6,25-21.9,26.8l-21.7,2.6v-97.2L643.1,970.3z
				 M642.9,1061.7c11-1.3,15.5-9.2,15.5-19.9v-49.5c0-10.7-4.7-17.5-15.5-16.2l-15.1,1.8v85.6L642.9,1061.7z"/>
			<path class="st0" d="M745.9,957.9v97.2l-6.5,0.8v-97.2L745.9,957.9z"/>
			<path class="st0" d="M830.3,1023.4l-4.9,22.1l-5.9,0.7l21.6-100l9.4-1.1l22,94.7l-6.5,0.8l-4.9-20.9L830.3,1023.4z M831.3,1017.7
				l28.8-3.5L845.6,953L831.3,1017.7z"/>
			<path class="st0" d="M952,1030.2l-5.9,0.7v-97.2l8.5-1l29.6,78.5V929l5.9-0.7v97.2l-7.2,0.9l-30.9-83V1030.2z"/>
			<path class="st0" d="M1074.4,993.8l-4.9,22.1l-5.9,0.7l21.6-100l9.4-1.1l22,94.7l-6.5,0.8l-4.9-20.9L1074.4,993.8z M1075.4,988.2
				l28.8-3.5l-14.5-61.2L1075.4,988.2z"/>
		</g>
	</g>
	<g>
		<path class="st1" d="M117,792.9l31-3.7l-0.3,194.5l-31,3.7L117,792.9z"/>
		<path class="st1" d="M198.1,836.8l-0.2,140.8L170,981l0.3-194.5l38.9-4.6l31.7,112.6l0.2-116.4l27.6-3.3l-0.3,194.5l-31.9,3.8
			L198.1,836.8z"/>
		<path class="st1" d="M318.6,822.5l-0.2,140.9l-27.9,3.3l0.3-194.5l38.9-4.6l31.7,112.6l0.2-116.4l27.6-3.3l-0.3,194.5l-31.9,3.8
			L318.6,822.5z"/>
		<path class="st1" d="M408.8,804.8c0.1-31.1,16.7-50.9,47.2-54.5c30.5-3.6,47.1,12.2,47,43.3l-0.2,101.1
			c-0.1,31.1-16.7,50.9-47.2,54.5c-30.5,3.6-47.1-12.2-47-43.3L408.8,804.8z M439.7,904.2c0,13.9,6.2,18.4,16,17.3
			c9.9-1.2,16.1-7.2,16.1-21.1l0.2-105c0-13.9-6.2-18.4-16-17.3c-9.9,1.2-16.1,7.2-16.1,21.1L439.7,904.2z"/>
		<path class="st1" d="M569.4,897.6l24-161.5l28.5-3.4l-30.8,198.1l-46.3,5.5l-30.1-190.8l31.3-3.7L569.4,897.6z"/>
		<path class="st1" d="M729.3,914.4l-31.3,3.7l-5.3-34.6l-38.1,4.5l-5.4,35.9l-28.5,3.4l31.9-198.2l45.4-5.4L729.3,914.4z
			 M658.6,861.1l29.9-3.6L673.7,761L658.6,861.1z"/>
		<path class="st1" d="M724.3,720.5l95.9-11.4l0,27.8l-32.4,3.9l-0.3,166.7l-31,3.7l0.3-166.7l-32.4,3.9L724.3,720.5z"/>
		<path class="st1" d="M831.1,754.5c0.1-31.1,16.7-50.9,47.2-54.5c30.5-3.6,47.1,12.2,47,43.3l-0.2,101.1
			c-0.1,31.1-16.7,50.9-47.2,54.5c-30.5,3.6-47.1-12.2-47-43.3L831.1,754.5z M861.9,853.8c0,13.9,6.2,18.4,16,17.3
			c9.9-1.2,16.1-7.2,16.1-21.1l0.2-105c0-13.9-6.2-18.4-16-17.3c-9.9,1.2-16.1,7.2-16.1,21.1L861.9,853.8z"/>
		<path class="st1" d="M1009.9,880.9c-1.7-4.8-2.8-7.7-2.8-23.6l0.1-30.6c0-18.1-6.2-24-20.3-22.3l-10.7,1.3l-0.1,79.2l-31,3.7
			l0.3-194.5l46.8-5.6c32.2-3.8,46,9.2,45.9,39.2l0,15.3c0,20-6.5,33.8-20.4,41.9c15.5,4.5,20.6,18.7,20.5,38.9l-0.1,30
			c0,9.4,0.3,16.4,3.3,23.2L1009.9,880.9z M976.4,718.2l-0.1,59.7l12.1-1.4c11.6-1.4,18.6-7.2,18.7-22.8l0-19.2
			c0-13.9-4.8-19.4-15.8-18.1L976.4,718.2z"/>
		<path class="st1" d="M1100.5,673.5c30.2-3.6,45.7,12.3,45.6,43.4l0,6.1l-29.3,3.5l0-8.1c0-13.9-5.6-18.5-15.5-17.3
			c-9.9,1.2-15.5,7.1-15.5,21c-0.1,40,60.6,40.3,60.5,95.8c-0.1,31.1-15.9,50.8-46.3,54.4c-30.5,3.6-46.2-12.3-46.2-43.4l0-11.9
			l29.3-3.5l0,13.9c0,13.9,6.2,18.1,16,17c9.9-1.2,16.1-6.9,16.1-20.8c0.1-40-60.6-40.3-60.5-95.8
			C1054.8,696.7,1070.4,677,1100.5,673.5z"/>
	</g>
	<path class="st1" d="M112.9,1054c0-14.2,6.6-25.4,21.6-27.2c15.2-1.8,21.9,7.8,21.9,21.9v49.7c0,14.2-6.6,25.4-21.9,27.2
		c-14.9,1.8-21.6-7.8-21.6-22V1054z M119.4,1103.4c0,10.6,4.2,17.8,15.1,16.5c11-1.3,15.4-9.6,15.4-20.2v-50.6
		c0-10.6-4.4-17.8-15.4-16.5c-10.9,1.3-15.1,9.6-15.1,20.2V1103.4z"/>
	<path class="st1" d="M262.8,1059.5v5.8l-25.5,3.1v44l-6.5,0.8V1016l37.5-4.5v5.8l-31,3.8v41.5L262.8,1059.5z"/>
	<path class="st1" d="M433.9,991.5v97.2l-6.5,0.8v-97.2L433.9,991.5z"/>
	<path class="st1" d="M514.9,1078.9l-5.9,0.7v-97.2l8.5-1l29.6,78.5v-82.1l5.9-0.7v97.2l-7.2,0.9l-30.9-83V1078.9z"/>
	<path class="st1" d="M649.5,965.4c15.2-1.8,21.9,7.2,21.9,21.5v48.9c0,14.3-6.6,25-21.9,26.8l-21.7,2.6V968L649.5,965.4z
		 M649.4,1056.8c11-1.3,15.5-9.2,15.5-19.9v-49.5c0-10.7-4.7-17.5-15.5-16.2l-15.1,1.8v85.6L649.4,1056.8z"/>
	<path class="st1" d="M752.3,952.9v97.2l-6.5,0.8v-97.2L752.3,952.9z"/>
	<path class="st1" d="M836.8,1018.4l-4.9,22.1l-5.9,0.7l21.6-100l9.4-1.1l22,94.7l-6.5,0.8l-4.9-20.9L836.8,1018.4z M837.8,1012.8
		l28.8-3.5L852,948.1L837.8,1012.8z"/>
	<path class="st1" d="M958.5,1025.3l-5.9,0.7v-97.2l8.5-1l29.6,78.5v-82.1l5.9-0.7v97.2l-7.2,0.9l-30.9-83V1025.3z"/>
	<path class="st1" d="M1080.8,988.9l-4.9,22.1l-5.9,0.7l21.6-100l9.4-1.1l22,94.7l-6.5,0.8l-4.9-20.9L1080.8,988.9z M1081.8,983.2
		l28.8-3.5l-14.5-61.2L1081.8,983.2z"/>
	<g>
		<path class="st2" d="M1076.6,271.8c-0.5-0.4-1.3-0.4-1.7,0.1l-27.1,30.1c-0.4,0.5-0.4,1.3,0.1,1.7c0.2,0.2,0.5,0.3,0.8,0.3
			c0.3,0,0.7-0.1,0.9-0.4l27.1-30.1C1077.2,273,1077.1,272.3,1076.6,271.8z"/>
		<path class="st2" d="M924.9,123.4c-0.6-0.3-1.3,0-1.6,0.5l-98.7,199.6c-0.3,0.6-0.1,1.3,0.5,1.6c0.2,0.1,0.4,0.1,0.5,0.1
			c0.4,0,0.9-0.2,1.1-0.7l98.7-199.6C925.8,124.5,925.5,123.7,924.9,123.4z"/>
		<path class="st2" d="M210.2,169c-0.3-0.6-1.1-0.8-1.6-0.4c-0.6,0.3-0.8,1.1-0.4,1.6l122.1,212.7c0.2,0.4,0.6,0.6,1,0.6
			c0.2,0,0.4-0.1,0.6-0.2c0.6-0.3,0.8-1.1,0.4-1.6L210.2,169z"/>
		<path class="st2" d="M631.3,162c-0.7-0.1-1.2,0.4-1.3,1.1l-14.8,187.3c-0.1,0.7,0.4,1.2,1.1,1.3c0,0,0.1,0,0.1,0
			c0.6,0,1.2-0.5,1.2-1.1l14.8-187.3C632.5,162.6,632,162,631.3,162z"/>
		<path class="st2" d="M93.1,323.2c-0.5-0.4-1.3-0.4-1.7,0.1c-0.4,0.5-0.4,1.3,0.1,1.7l91.8,78.4c0.2,0.2,0.5,0.3,0.8,0.3
			c0.3,0,0.7-0.1,0.9-0.4c0.4-0.5,0.4-1.3-0.1-1.7L93.1,323.2z"/>
	</g>
	<g>
		<path class="st2" d="M656,1142.8c0-0.3,0-0.7-0.2-1.1c0.3-0.5,0.5-1,0.4-1.6c0-1,0-2,0-3c0-2.8-0.1-5.7-0.2-8.5l0-1.6
			c0-1.3,0-2.6,0-3.9c0-0.1,0-0.2,0-0.4c0-0.4,0.1-1-0.1-1.6c0.1-0.5,0.1-0.9,0.1-1.2l0-0.1c0-1.8-0.1-3.6-0.2-5.4
			c0-0.2,0-0.3,0-0.5c0-0.5,0-1.1-0.2-1.8c0-0.3,0-0.5,0-0.8c0-0.8,0-1.6,0-2.4c0-0.2,0-0.5,0-0.7c0-0.6,0.1-1.4-0.2-2.2
			c0.1-1.1,0-2.1,0-3.1c0-0.5-0.1-1-0.1-1.5c0-0.5-0.2-1-0.6-1.3c-0.3-0.2-0.8-0.5-1.6-0.4l-0.6,0.1c-0.4,0-0.7,0.1-1.1,0.1
			c-0.8,0.1-1.6,0.2-2.4,0.3c-1.5,0.2-3,0.3-4.5,0.7l-4,0.5l-6.5,0.8c-0.8,0.1-1.7,0.2-2.5,0.3c-1,0.1-1.9,0.4-2.6,1l-0.8,0.6
			c-0.4,0.1-0.8,0.4-1.1,0.7c-1.5,0.8-2.2,0.7-2.8,0.3c-0.6-0.7-1.2-0.7-1.5-0.7c-0.4,0-1.1,0.3-1.5,1.3c-0.2,0.5-0.1,0.9-0.1,1.2
			l0,5c0,4.3,0,8.7,0,13c0,0.2,0,0.5-0.1,0.7c-0.1,0.6-0.2,1.4,0,2.2c-0.2,0.5-0.2,1-0.1,1.3l0,0.1l0,10.8c0,0.1,0,0.1,0,0.2
			c-0.4,0.3-0.6,0.7-0.8,1.2c-0.1,0.5-0.1,1,0,1.4c-0.4,0.4-0.6,0.9-0.7,1.4c-0.1,0.9,0.5,1.5,0.8,1.8l0,0c0,0.7,0.2,1.1,0.6,1.4
			c-0.2,1,0.1,1.8,0.4,2.3c-0.9,0.6-1.2,1.4-1.4,2c0,0.1-0.1,0.2-0.1,0.3c-0.2,0.4-0.3,0.7-0.4,1c-0.5,0.4-0.7,0.9-0.9,1.3l-0.1,0.3
			c-0.4,0.9-0.6,1.3-1,1.4c-0.8,0.3-1.5,1.1-1.7,2.1c-0.1,0.4-0.1,0.8,0.1,1.2c-0.2,0.2-0.3,0.5-0.3,0.8l-0.2,1.1
			c-0.2,0.9-0.4,1.7-0.5,2.6c-0.2,1,0.2,1.6,0.4,2c0.3,0.4,0.8,0.7,1.4,0.7c0.3,0.1,0.6,0.2,0.9,0.2c0.6,0,1.1-0.3,1.5-0.7
			c0.2-0.3,0.4-0.6,0.5-0.9c0.1,0,0.1,0,0.2,0c0.1,0.1,0.3,0.3,0.5,0.4c0.8,0.4,1.9,0.2,2.6-0.5c0.3-0.3,0.4-0.6,0.6-0.9
			c0.2-0.1,0.5-0.2,0.7-0.3c0.7,0.3,1.3,0.6,2,0.9c0.6,0.8,1.5,1,2.2,0.7c1.3-0.4,1.5-1.6,1.5-2l0-0.1c0-0.1,0-0.1,0-0.2
			c0.1,0,0.1-0.1,0.2-0.1c0.2-0.1,0.5-0.2,0.8-0.4c0.2,0.3,0.5,0.5,0.8,0.6c0.1,0,0.2,0.1,0.3,0.1c0.3,0.3,0.7,0.5,1.1,0.6
			c0.6,0.1,1.2-0.1,1.6-0.4c0.4-0.3,0.5-0.7,0.6-1c0.3-0.2,0.6-0.4,0.8-0.8c0.2-0.3,0.3-0.7,0.3-1.3c0.2-0.1,0.4-0.2,0.5-0.4
			c0.1,0.1,0.1,0.1,0.2,0.2c0.4,0.3,1.1,0.7,2.3,0.6c0.6,0.3,1.4,0.3,2.3-0.1c0.5-0.2,1.6-0.8,1.8-2c0-0.3,0.1-0.5,0.1-0.8
			c0.1-0.8,0.2-1.3,0.5-1.7c0-0.1,0.1-0.1,0.1-0.2c1.7-0.4,2.2-0.9,2.6-2.8c0,0,0-0.1,0-0.1c1.2-0.4,2.8-2.3,2.5-3.7
			c-0.1-0.3-0.1-0.5-0.2-0.8c1,0.8,2.3,0.6,3.3-0.4c0.5-0.6,1.2-1,1.9-1.1c0.6-0.1,1.8-0.4,2.2-2.2c0.1-0.5,0.3-1.2-0.3-1.9
			C656.1,1142.8,656,1142.8,656,1142.8z M652.2,1142l0,1.4h0.1c0,0.3,0,0.5,0.1,0.7c-0.8,0.3-1.5,0.8-2.2,1.4
			c-1.5-0.7-3.4-0.1-4.4,1.1l-0.5,0.6l0.4,1.4c0.1,0.3,0.2,0.6,0.2,0.9c-0.1,0.1-0.2,0.3-0.3,0.4c-1.1,0.3-1.8,1.1-2.1,2.4
			c0,0.1-0.1,0.3-0.1,0.4c-0.1,0-0.3,0.1-0.5,0.1c-0.4,0.1-0.7,0.2-0.9,0.4l-0.8,0.4l-0.1,0.8c-0.7,1-0.8,2.1-0.9,3
			c0,0.1,0,0.1,0,0.2c-0.3-0.1-0.7-0.2-1-0.1c-0.2-1.7-1.5-1.9-2.1-1.9l-1.7-0.1l0,0.9c-0.4,0.1-1.1,0.2-1.5,1
			c-0.1,0.2-0.1,0.3-0.2,0.5l-0.6,0.5l-0.1,0.6c0,0.1,0,0.1,0,0.2c0,0.2-0.1,0.4-0.1,0.6c0,0-0.1,0-0.1,0c0,0,0,0,0,0
			c-0.4-0.6-1-0.9-1.7-1c-0.7,0-1.3,0.3-1.6,0.8c-0.1,0.2-0.4,0.3-0.8,0.5c-0.4,0.2-0.8,0.4-1.2,0.7l-0.5,0.4l-0.1,0.3
			c-0.7-0.3-1.5-0.7-2.2-1c-0.5-0.2-1.2-0.2-1.7,0.1c-0.3-0.3-0.8-0.5-1.6-0.3l-1.7,0.4l0.3,0.9c-0.2,0-0.3,0.1-0.4,0.2
			c-0.2-0.2-0.5-0.3-0.9-0.4l0,0c0.5-0.4,0.9-0.9,0.9-1.5c0-0.3,0-0.6-0.1-1c1.3-0.7,1.8-2,2.1-2.9l0.1-0.3c0-0.1,0.1-0.1,0.1-0.2
			l0.2-0.1l0.3-0.4c0.4-0.5,0.4-1,0.5-1.3l0-0.1c0.1-0.2,0.2-0.4,0.3-0.6c0.2-0.5,0.2-0.5,0.3-0.5c1.1-0.5,1.3-1.5,1.4-2.1
			c0-0.1,0-0.2,0.1-0.3l0.2-0.6l-0.2-0.5c-0.1-0.2-0.2-0.4-0.3-0.5c0-0.1-0.1-0.2-0.1-0.3c0.3-0.5,0.4-1.1,0.2-1.6
			c-0.1-0.5-0.4-0.8-0.7-1.1c0-0.3-0.1-0.7-0.3-1l-0.1-0.1c0.6-0.8,0.5-1.5,0.3-2.1c0.7-0.8,0.7-1.7,0.6-2.1l0-0.1l0-10.8
			c0-0.1,0-0.2,0-0.3c0,0,0,0,0-0.1l0.2-0.3v-1.3l-0.1-0.3c-0.1-0.2,0-0.6,0-1c0-0.3,0.1-0.7,0.1-1.1c0-4.3,0-8.7,0-13l0-3.4
			c1.9,0.3,3.6-0.6,4.4-1l0.3-0.2l0.2-0.2l0.3-0.1l1-0.7l0.3-0.3c0.3-0.2,0.5-0.4,0.9-0.4c0.9-0.1,1.7-0.2,2.6-0.3l6.5-0.8l4.1-0.6
			l0.2,0c1.4-0.3,2.8-0.5,4.2-0.7c0.8-0.1,1.7-0.2,2.5-0.3c0.1,0,0.2,0,0.2,0c0,0,0,0,0,0c0.1,1,0.1,2,0,2.9l0,0.6l0.1,0.3
			c0.1,0.3,0.1,0.7,0.1,1.2c0,0.3,0,0.7,0,1c0,0.7,0,1.5,0,2.2c0,0.4,0,0.7,0,1.1l0,0.4l0.1,0.3c0,0.1,0,0.5,0,0.7
			c0,0.2,0,0.5,0,0.7c0.1,1.8,0.1,3.6,0.2,5.4l0,0.3c0,0,0,0,0,0l-0.2,0.2l0,1.4l0.2,0.3c0,0.1,0,0.3,0,0.4c0,0.2,0,0.4,0,0.6
			c0,1.3,0,2.5,0,3.8l0,1.7c0.2,2.8,0.2,5.7,0.2,8.4c0,1,0,1.9,0,2.9C652.2,1140.7,652.1,1141.4,652.2,1142z"/>
		<path class="st2" d="M597.8,1136l-491.7,59.6c-0.9,0.1-1.5,0.9-1.4,1.8c0.1,0.8,0.8,1.4,1.6,1.4c0.1,0,0.1,0,0.2,0l491.7-59.6
			c0.9-0.1,1.5-0.9,1.4-1.8C599.5,1136.5,598.7,1135.9,597.8,1136z"/>
		<path class="st2" d="M1125.9,1074.1c-0.1-0.9-0.9-1.5-1.8-1.4l-451.2,54.3c-0.9,0.1-1.5,0.9-1.4,1.8c0.1,0.8,0.8,1.4,1.6,1.4
			c0.1,0,0.1,0,0.2,0l451.2-54.3C1125.4,1075.7,1126,1074.9,1125.9,1074.1z"/>
	</g>
</g>
</svg>
