<?xml version="1.0" encoding="utf-8"?>
<!-- Generator: Adobe Illustrator 21.1.0, SVG Export Plug-In . SVG Version: 6.00 Build 0)  -->
<svg version="1.1" id="Layer_1" xmlns="http://www.w3.org/2000/svg" xmlns:xlink="http://www.w3.org/1999/xlink" x="0px" y="0px"
	 viewBox="0 0 1231.8 1198.9" style="enable-background:new 0 0 1231.8 1198.9;" xml:space="preserve">
<style type="text/css">
	.st0{fill:#FFFFFF;}
	.st1{fill:#0071ED;}
	.st2{fill:#FFE600;}
</style>
<g>
	<g>
		<path class="st0" d="M292.4,966.6l-1.5,0.2l-0.1,0l0.3-194.2h-0.2v0.4l-0.6,0.1v0.4l-0.6,0.1v0.4l-0.6,0.1v0.4l-0.6,0.1v0.4
			l-0.6,0.1v0.4l-0.6,0.1v0.4l-0.6,0.1v0.4l-0.6,0.1v0.4l-0.6,0.1v0.4l-0.6,0.1v0.4l-0.6,0.1v0.4l-0.6,0.1v0.4l-0.6,0.1v0.4
			l-0.6,0.1v0.4l-0.6,0.1v0.4l-0.6,0.1v0.4l-0.6,0.1v0.4l-0.6,0.1v0.4l-0.6,0.1v0.4l-0.6,0.1v0.4l-0.6,0.1v0.4l-0.6,0.1v0.4
			l-0.6,0.1v0.4l-0.6,0.1v0.4l-0.6,0.1v0.4l-0.6,0.1v0.4l-0.6,0.1v0.4l-0.6,0.1v0.4l-0.6,0.1v0.4l-0.6,0.1v0.4l-0.6,0.1v0.4
			l-0.6,0.1v0.4l-0.6,0.1v0.4l-0.6,0.1v0.4l-0.6,0.1v0.4L269.6,969l-0.8,0.1l-31.1,3.7l-38.4-136.2v3.1l-0.2,134.7l7,24.8l31.8-3.8
			V995l0.6-0.1v-0.4l0.6-0.1V994l0.6-0.1v-0.4l0.6-0.1V993l0.6-0.1v-0.4l0.6-0.1V992l0.6-0.1v-0.4l0.6-0.1V991l0.6-0.1v-0.4l0.6-0.1
			V990l0.6-0.1v-0.4l0.6-0.1v-0.3l0.6-0.1v-0.4l0.6-0.1v-0.4l0.6-0.1v-0.4l0.6-0.1v-0.4l0.6-0.1v-0.4l0.6-0.1v-0.4l0.6-0.1v-0.4
			l0.6-0.1v-0.4l0.6-0.1v-0.4l0.6-0.1v-0.4l0.6-0.1v-0.4l0.6-0.1v-0.4l0.6-0.1v-0.4l0.6-0.1v-0.4l0.6-0.1v-0.4l0.6-0.1v-0.4l0.6-0.1
			v-0.4l0.6-0.1v-0.4l0.6-0.1v-0.4l0.6-0.1v-0.4l0.6-0.1v-0.4l0.6-0.1v-0.4l0.6-0.1v-0.4l0.5-0.1v15.7l27.9-3.4v-0.4l0.6-0.1v-0.4
			l0.6-0.1v-0.4l0.6-0.1v-0.4l0.6-0.1v-0.4l0.6-0.1v-0.4l0.6-0.1v-0.4l0.6-0.1v-0.4l0.6-0.1v-0.4l0.6-0.1v-0.4l0.6-0.1v-0.7l0.6-0.1
			v-0.4l0.6-0.1v-0.4l0.6-0.1v-0.4l0.6-0.1v-0.4l0.6-0.1v-0.4l0.6-0.1v-0.4l0.6-0.1v-0.4l0.6-0.1v-0.4l0.6-0.1v-0.4l0.6-0.1v-0.4
			l0.6-0.1v-0.4l0.6-0.1v-0.4l0.6-0.1v-0.4l0.6-0.1v-0.4l0.6-0.1v-0.4l0.6-0.1v-0.4l0.6-0.1v-0.4l0.6-0.1v-0.4l0.6-0.1v-0.4l0.6-0.1
			v-0.4l0.6-0.1v-0.4l0.6-0.1v-0.4l0.6-0.1v-0.4l0.6-0.1v-0.4l0.6-0.1v-0.4l0.6-0.1v-0.4l0.6-0.1v-0.4l0.6-0.1v-0.4l0.6-0.1v-0.4
			l0.6-0.1v-0.4l0.6-0.1v-0.4l0.6-0.1v-0.4l0.6-0.1v-0.4l0.6-0.1v-0.4l0.6-0.1v-0.4l0.6-0.1v-0.4l0.6-0.1v-0.4l0.6-0.1v-0.4l0.6-0.1
			v-0.4l0.6-0.1v-0.4l0.6-0.1v-0.2L292.4,966.6z M362.4,763.8l-0.4,0.1l-0.3,0.1v0.4l-0.6,0.1v0.4l-0.6,0.1v0.4l-0.6,0.1v0.4
			l-0.6,0.1v0.4l-0.6,0.1v0.4l-0.6,0.1v0.4l-0.6,0.1v0.4l-0.6,0.1v0.4l-0.6,0.1v0.4l-0.6,0.1v0.4l-0.6,0.1v0.4l-0.6,0.1v0.4
			l-0.6,0.1v0.4l-0.6,0.1v0.4l-0.6,0.1v0.4l-0.6,0.1v0.4l-0.6,0.1v0.4l-0.6,0.1v0.4l-0.6,0.1v0.4l-0.6,0.1v0.4l-0.6,0.1v0.4
			l-0.6,0.1v0.4l-0.6,0.1v0.4l-0.6,0.1v0.4l-0.6,0.1v0.4l-0.6,0.1v0.4l-0.6,0.1v0.4l-0.6,0.1v0.4l-0.6,0.1v0.4l-0.6,0.1v0.4
			l-0.6,0.1v0.4l-0.6,0.1v0.4l-0.6,0.1v0.4l-0.6,0.1v0.4l-0.6,0.1v0.4l-0.6,0.1v0.4l-0.6,0.1v0.4l-0.6,0.1v0.4l-0.6,0.1v0.4
			l-0.6,0.1v0.4l-0.6,0.1v0.4l-0.6,0.1v0.4l-0.4,0.1l25.7,91.5l0.8,2.8l0.2-116.1v-0.1L362.4,763.8z M592.7,930.8l-47.5,5.5
			l-30.1-190.6h-0.2l0.1,0.4l-0.7,0.1l0.1,0.4l-0.7,0.1l0.1,0.4l-0.7,0.1l0.1,0.4l-0.7,0.1l0.1,0.4l-0.7,0.1l0.1,0.4l-0.7,0.1
			l0.1,0.4l-0.7,0.1l0.1,0.4l-0.7,0.1l0.1,0.4l-0.7,0.1l0.1,0.4l-0.7,0.1l0.1,0.4l-0.7,0.1l0.1,0.4l-0.7,0.1l0.1,0.4l-0.7,0.1
			l0.1,0.4l-0.7,0.1l0.1,0.4l-0.7,0.1l0.1,0.4l-0.7,0.1l0.1,0.4l-0.7,0.1l0.1,0.4l-0.7,0.1l0.1,0.4l-0.7,0.1l0.1,0.4l-0.7,0.1
			l0.1,0.4l-0.7,0.1l0.1,0.4l-0.7,0.1l0.1,0.4l-0.7,0.1l0.1,0.4l-0.7,0.1l0.1,0.4l-0.7,0.1l0.1,0.4l-0.7,0.1l0.1,0.4l-0.7,0.1
			l0.1,0.4l-0.7,0.1l0.1,0.4l-0.7,0.1l0.1,0.4l-0.7,0.1l0.1,0.4l-0.7,0.1l0.1,0.4l-0.7,0.1l0.1,0.4l-0.5,0.1
			c5.9,7.4,8.9,17.9,8.9,31.2L504,894.6v2.7l10.4,64.8l46.2-5.6l0.1-0.4l0.6-0.1l0.1-0.4l0.5-0.1l0.1-0.4l0.5-0.1l0.1-0.4l0.5-0.1
			l0.1-0.4l0.5-0.1l0.1-0.4l0.6-0.1l0.1-0.4l0.5-0.1l0.1-0.4l0.6-0.1l0.1-0.4l0.5-0.1l0.1-0.4l0.5-0.1l0.1-0.4l0.6-0.1l0.1-0.4
			l0.5-0.1l0.1-0.4l0.6-0.1l0.1-0.4l0.5-0.1l0.1-0.4l0.5-0.1l0.1-0.4l0.6-0.1l0.1-0.4l0.5-0.1l0.1-0.4l0.6-0.1l0.1-0.4l0.5-0.1
			l0.1-0.4l0.6-0.1l0.1-0.4l0.6-0.1l0.1-0.4l0.5-0.1l0.1-0.4l0.5-0.1l0.1-0.4l0.5-0.1l0.1-0.4l0.5-0.1l0.1-0.4l0.5-0.1l0.1-0.4
			l0.5-0.1l0.1-0.4l0.6-0.1l0.1-0.4l0.5-0.1l0.1-0.4l0.5-0.1l0.1-0.4l0.5-0.1l0.1-0.4l0.6-0.1l0.1-0.4l0.6-0.1l0.1-0.4l0.5-0.1
			l0.1-0.4l0.6-0.1l0.1-0.4l0.6-0.1l0.1-0.4l0.6-0.1l0.1-0.4l0.5-0.1l0.1-0.4l0.5-0.1l0.1-0.4l0.6-0.1l0.1-0.4l0.5-0.1l0.1-0.4
			l0.5-0.1l0.1-0.4l0.5-0.1l0.1-0.4l0.5-0.1l0.1-0.4l0.5-0.1l0.1-0.4l0.5-0.1l0.1-0.4l0.6-0.1l0.1-0.4l0.5-0.1l0.1-0.4l0.5-0.1
			l0.1-0.4l0.6-0.1l0.1-0.4l0.1,0l0.5-0.1v-0.2L592.7,930.8z M593.7,736.6L593.7,736.6l-0.2,0.4l-0.6,0.1l-0.1,0.4l-0.6,0.1
			l-0.1,0.4l-0.6,0.1l-0.1,0.4l-0.6,0.1l-0.1,0.4l-0.6,0.1l-0.1,0.4l-0.6,0.1l-0.1,0.4l-0.6,0.1l-0.1,0.4l-0.6,0.1l-0.1,0.4
			l-0.6,0.1l-0.1,0.4l-0.6,0.1l-0.1,0.4l-0.6,0.1l-0.1,0.4l-0.6,0.1l-0.1,0.4l-0.6,0.1l-0.1,0.4l-0.6,0.1l-0.1,0.4l-0.6,0.1
			l-0.1,0.4l-0.6,0.1l-0.1,0.4l-0.5,0.1l-0.1,0.4l-0.6,0.1L581,746l-0.6,0.1l-0.1,0.4l-0.6,0.1l-0.1,0.4l-0.6,0.1l-0.1,0.4l-0.6,0.1
			l-0.1,0.4l-0.6,0.1l-0.1,0.4l-0.6,0.1l-0.1,0.4l-0.6,0.1l-0.1,0.4l-0.6,0.1l-0.1,0.4l-0.6,0.1l-0.1,0.4l-0.6,0.1L574,751l-0.6,0.1
			l-0.1,0.4l-0.6,0.1l-0.1,0.4l-0.5,0.1l-0.1,0.4l-0.6,0.1l-0.1,0.4l-0.6,0.1l-0.1,0.4l-0.6,0.1l-0.1,0.4l-0.6,0.1l-0.1,0.4
			l-0.6,0.1l-0.1,0.4l-0.6,0.1l-0.1,0.4l-0.5,0.1l-0.1,0.4l-0.6,0.1l-0.1,0.4l-0.6,0.1l-0.1,0.4l-0.6,0.1l-0.1,0.4l-0.6,0.1
			l-0.1,0.4l-0.6,0.1l-0.1,0.4l-0.6,0.1L563,759l-0.6,0.1l-6.1,41.6l14,93.4l0.1,0.7l23.5-158.2L593.7,736.6z M466.8,947.1
			c-0.1,0-0.1,0-0.2,0c-0.8,0.2-1.6,0.4-2.5,0.6c-0.4,0.1-0.9,0.2-1.3,0.3c-0.5,0.1-1,0.2-1.5,0.3c-0.3,0.1-0.7,0.1-1,0.2
			c-1,0.2-2.1,0.4-3.2,0.5c-0.4,0.1-0.7,0.1-1.1,0.2c-1.5,0.2-2.9,0.3-4.3,0.4c-2.6,0.2-5,0.2-7.4,0c-23-1.4-35.4-16.8-35.3-43.7
			l0.2-101.1c0-17.7,5.4-31.7,15.7-41.2c-0.2,0.2-0.4,0.3-0.6,0.5c0,0-0.1,0.1-0.2,0.1l0,0c-0.1,0.1-0.3,0.2-0.4,0.4
			c-0.2,0.2-0.4,0.3-0.6,0.5c-0.2,0.2-0.4,0.3-0.6,0.5c-0.2,0.2-0.4,0.3-0.6,0.5c-0.2,0.2-0.4,0.3-0.6,0.5c-0.2,0.2-0.4,0.3-0.6,0.5
			c-0.2,0.2-0.4,0.3-0.6,0.5c-0.2,0.2-0.4,0.3-0.6,0.5c-0.2,0.2-0.4,0.3-0.6,0.5c-0.2,0.2-0.4,0.3-0.6,0.5c-0.2,0.2-0.4,0.3-0.6,0.5
			c-0.2,0.2-0.4,0.3-0.6,0.5c-0.2,0.2-0.4,0.3-0.6,0.5c-0.2,0.2-0.4,0.3-0.6,0.5c-0.2,0.2-0.4,0.3-0.6,0.5c-0.2,0.2-0.4,0.3-0.6,0.5
			c-0.2,0.2-0.4,0.3-0.6,0.5c-0.2,0.2-0.4,0.3-0.6,0.5c-0.2,0.2-0.4,0.3-0.6,0.5c-0.2,0.2-0.4,0.3-0.6,0.5c-0.2,0.2-0.4,0.3-0.6,0.5
			c-0.2,0.2-0.4,0.3-0.6,0.5c-0.2,0.2-0.4,0.3-0.6,0.5c-0.2,0.2-0.4,0.3-0.6,0.5c-0.2,0.2-0.4,0.3-0.6,0.5c-0.2,0.2-0.4,0.3-0.6,0.5
			c-0.2,0.2-0.4,0.3-0.6,0.5c-0.2,0.2-0.4,0.3-0.6,0.5c-0.2,0.2-0.4,0.3-0.6,0.5c-0.2,0.2-0.4,0.3-0.6,0.5c-0.2,0.2-0.4,0.3-0.6,0.5
			c-0.2,0.2-0.4,0.3-0.6,0.5c-0.2,0.2-0.4,0.3-0.6,0.5c-0.2,0.2-0.4,0.3-0.6,0.5c-0.2,0.2-0.4,0.3-0.6,0.5c-0.2,0.2-0.4,0.3-0.6,0.5
			c-0.2,0.2-0.4,0.3-0.6,0.5c-0.2,0.2-0.4,0.3-0.6,0.5c-0.2,0.2-0.4,0.3-0.6,0.5c-0.2,0.2-0.4,0.3-0.6,0.5c-0.2,0.2-0.4,0.3-0.6,0.5
			c-0.2,0.2-0.4,0.3-0.6,0.5c-0.2,0.2-0.4,0.3-0.6,0.5c-0.2,0.2-0.4,0.3-0.6,0.5c-0.2,0.2-0.4,0.3-0.6,0.5c-2.5,1.9-4.8,4.1-6.8,6.4
			l-0.3,161.7l-1,0.1l-30.9,3.7L320,822.4l0,3.7L319.8,960l7,24.8l31.9-3.8v-0.4l0.6-0.1v-0.4l0.6-0.1v-0.4l0.6-0.1v-0.4l0.6-0.1
			v-0.4l0.6-0.1v-0.4l0.6-0.1v-0.4l0.6-0.1v-0.4l0.6-0.1v-0.4l0.6-0.1v-0.4l0.6-0.1v-0.4l0.6-0.1v-0.4l0.6-0.1v-0.4l0.6-0.1v-0.4
			l0.6-0.1v-0.4l0.6-0.1v-0.4l0.6-0.1v-0.4l0.6-0.1v-0.4l0.6-0.1v-0.4l0.6-0.1v-0.4l0.6-0.1v-0.4l0.6-0.1v-0.4l0.6-0.1v-0.4l0.6-0.1
			v-0.4l0.6-0.1v-0.4l0.6-0.1v-0.4l0.6-0.1v-0.4l0.6-0.1v-0.4l0.6-0.1v-0.4l0.6-0.1v-0.4l0.6-0.1v-0.4l0.6-0.1v-0.4l0.6-0.1v-0.4
			l0.6-0.1v-0.4l0.6-0.1v-0.4l0.6-0.1v-0.4l0.6-0.1v-0.4l0.6-0.1v-0.4l0.6-0.1v-0.4l0.6-0.1v-0.4l0.6-0.1v-0.4l0.6-0.1v-0.4l0.6-0.1
			v-0.4h0.2c7.4,12.6,21.2,18.2,40.8,15.9c11.7-1.4,21.3-5.2,28.8-11.1c0.2-0.2,0.4-0.3,0.6-0.5c0.2-0.2,0.4-0.3,0.6-0.5
			c0.2-0.2,0.4-0.3,0.6-0.5c0.2-0.2,0.4-0.3,0.6-0.5c0.2-0.2,0.4-0.3,0.6-0.5c0.2-0.2,0.4-0.3,0.6-0.5c0.2-0.2,0.4-0.4,0.6-0.5
			c0.2-0.2,0.4-0.3,0.6-0.5c0.2-0.2,0.4-0.3,0.6-0.5c0.2-0.2,0.4-0.3,0.6-0.5c0.2-0.2,0.4-0.3,0.6-0.5c0.2-0.2,0.4-0.3,0.6-0.5
			c0.2-0.2,0.4-0.3,0.6-0.5c0.2-0.2,0.4-0.3,0.6-0.5c0.2-0.2,0.4-0.3,0.6-0.5c0.2-0.2,0.4-0.3,0.6-0.5c0.2-0.2,0.4-0.3,0.6-0.5
			c0.2-0.2,0.4-0.3,0.6-0.5c0.2-0.2,0.4-0.3,0.6-0.5c0.2-0.2,0.4-0.3,0.6-0.5c0.2-0.2,0.4-0.3,0.6-0.5c0.2-0.2,0.4-0.3,0.6-0.5
			c0.2-0.2,0.4-0.3,0.6-0.5c0.2-0.2,0.4-0.3,0.6-0.5c0.2-0.2,0.4-0.3,0.6-0.5c0.2-0.2,0.4-0.3,0.6-0.5c0.2-0.2,0.4-0.3,0.6-0.5
			c0.2-0.2,0.4-0.3,0.6-0.5c0.2-0.2,0.4-0.3,0.6-0.5c0.2-0.2,0.4-0.3,0.6-0.5c0.2-0.2,0.4-0.3,0.6-0.5c0.2-0.2,0.4-0.3,0.6-0.5
			c0.2-0.2,0.4-0.3,0.6-0.5c0.2-0.2,0.4-0.3,0.6-0.5c0.2-0.2,0.4-0.3,0.6-0.5c0.2-0.2,0.4-0.3,0.6-0.5c0.2-0.2,0.4-0.3,0.6-0.5
			c0.2-0.2,0.4-0.3,0.6-0.5c0.2-0.2,0.4-0.3,0.6-0.5c0.2-0.2,0.4-0.3,0.6-0.5c0.2-0.2,0.4-0.3,0.6-0.5c0.2-0.2,0.4-0.3,0.6-0.5
			c0.2-0.2,0.4-0.3,0.6-0.5c0.2-0.2,0.4-0.3,0.6-0.5c0.2-0.2,0.4-0.3,0.6-0.5c0.2-0.2,0.4-0.3,0.6-0.5c0.2-0.2,0.4-0.3,0.6-0.5
			c0.2-0.2,0.4-0.3,0.6-0.5c0.2-0.2,0.4-0.3,0.6-0.5c0.2-0.2,0.4-0.3,0.6-0.5c1.4-1,2.7-2.1,3.9-3.3
			C482.2,941,475.3,944.8,466.8,947.1z M457.1,778.1c-0.2,0-0.5,0-0.7,0.1c-9.9,1.2-16.1,7.2-16.1,21.1v17.8
			c0.2,1.3,0.3,2.8,0.3,4.4v88.6c1.6,9.3,7.3,12.4,15.6,11.4c4-0.5,7.4-1.8,10.1-4c0.4-0.3,0.7-0.7,1.1-1c3.2-3.4,5-8.6,5-16
			l0.2-105C472.4,781.8,466.6,777.2,457.1,778.1z M241.9,778.1l-0.4,0.2l-0.2,0.1v0.4l-0.6,0.1v0.4l-0.6,0.1v0.4l-0.6,0.1v0.4
			l-0.6,0.1v0.4l-0.6,0.1v0.4l-0.6,0.1v0.4l-0.6,0.1v0.4l-0.6,0.1v0.4l-0.6,0.1v0.4l-0.6,0.1v0.4l-0.9,0.2v0.4l-0.6,0.1v0.4
			l-0.6,0.1v0.4l-0.6,0.1v0.4l-0.6,0.1v0.4l-0.6,0.1v0.4l-0.6,0.1v0.4l-0.6,0.1v0.4l-0.6,0.1v0.4l-0.6,0.1v0.4l-0.6,0.1v0.4
			l-0.6,0.1v0.4l-0.6,0.1v0.4l-0.6,0.1v0.4l-0.6,0.1v0.4l-0.6,0.1v0.4l-0.6,0.1v0.4l-0.6,0.1v0.4l-0.6,0.1v0.4l-0.6,0.1v0.4
			l-0.6,0.1v0.4l-0.6,0.1v0.4l-0.6,0.1v0.4l-0.6,0.1v0.4l-0.6,0.1v0.4l-0.6,0.1v0.4l-0.6,0.1v0.4l-0.6,0.1v0.4l-0.6,0.1v0.4
			l-0.6,0.1v0.4l-0.6,0.1v0.4l-0.6,0.1v0.4h-0.4l25.9,92.1l0.6,2.1l0.2-116.1V778L241.9,778.1z M170.4,981.1l0.3-194.2h-0.2v0.4
			l-0.6,0.1v0.4l-0.6,0.1v0.4l-0.6,0.1v0.4l-0.6,0.1v0.4l-0.6,0.1v0.4l-0.6,0.1v0.4l-0.6,0.1v0.4l-0.6,0.1v0.4l-0.6,0.1v0.4
			l-0.6,0.1v0.4l-0.6,0.1v0.4l-0.6,0.1v0.4l-0.6,0.1v0.4l-0.6,0.1v0.4l-0.6,0.1v0.4l-0.6,0.1v0.4l-0.6,0.1v0.4l-0.6,0.1v0.4
			l-0.6,0.1v0.4l-0.6,0.1v0.4l-0.6,0.1v0.4l-0.6,0.1v0.4l-0.6,0.1v0.4l-0.6,0.1v0.4l-0.6,0.1v0.4l-0.6,0.1v0.4l-0.6,0.1v0.4
			l-0.6,0.1v0.4l-0.6,0.1v0.4l-0.6,0.1v0.4l-0.6,0.1v0.4l-0.6,0.1v0.4l-0.6,0.1v0.4l-0.6,0.1v0.4l-0.6,0.1v0.4h-0.3l-0.3,178.4
			l-0.8,0.1l-30.2,3.6l0.3-194v-0.2H118v0.4l-0.6,0.1v0.4l-0.6,0.1v0.4l-0.6,0.1v0.4l-0.6,0.1v0.4l-0.6,0.1v0.4l-0.6,0.1v0.4
			l-0.6,0.1v0.4l-0.6,0.1v0.4l-0.6,0.1v0.4l-0.6,0.1v0.4l-0.6,0.1v0.4l-0.6,0.1v0.4l-0.6,0.1v0.4l-0.6,0.1v0.4l-0.6,0.1v0.4
			l-0.6,0.1v0.5l-0.6,0.1v0.4l-0.6,0.1v0.4l-1.8,0.9v0.4l-0.6,0.1v0.4l-0.6,0.1v0.4l-0.6,0.1v0.4l-0.6,0.1v0.4l-0.6,0.1v0.4
			l-0.6,0.1v0.4l-0.6,0.1v0.5l-0.6,0.1v0.4l-0.6,0.1v0.4l-0.6,0.1v0.4l-0.6,0.1v0.4l-0.6,0.1v0.5l-0.6,0.1v0.4l-0.6,0.1v0.4
			l-0.6,0.1v0.4l-0.6,0.1v0.4l-0.6,0.1v0.4l-0.6,0.1v0.4l-0.6,0.1v0.4l-0.6,0.1v0.4l-0.6,0.1v0.4l-0.6,0.1v0.4l-0.6,0.1v0.4
			l-0.6,0.1v0.4l-0.6,0.1v0.4l-0.6,0.1v0.4l-0.6,0.1v0.4l-0.6,0.1v0.4l-0.6,0.1v0.4l-0.6,0.1v0.4l-0.6,0.1v0.4l-0.6,0.1v194.5
			l31-3.7v-0.4l0.6-0.1v-0.4l0.6-0.1v-0.4l0.6-0.1v-0.4l0.6-0.1v-0.5l0.6-0.1v-0.4l0.6-0.1v-0.5l0.6-0.1v-0.4l0.6-0.1v-0.4l0.6-0.1
			v-0.4l0.6-0.1v-0.5l0.6-0.1v-0.4l0.6-0.1v-0.4l0.6-0.1v-0.4l0.6-0.1v-0.4l0.6-0.1v-0.4l0.6-0.1v-0.4l0.6-0.1v-0.4l0.6-0.1v-0.4
			l0.6-0.1v-0.4l0.6-0.1v-0.4l0.6-0.1v-0.4l0.6-0.1v-0.4l0.6-0.1v-0.4l0.6-0.1v-0.4l0.6-0.1v-0.4l0.6-0.1v-0.4l0.6-0.1v-0.4l0.6-0.1
			v-0.4l0.6-0.1v-0.4l0.6-0.1v-0.4l0.6-0.1v-0.4l0.6-0.1v-0.4l0.6-0.1v-0.4l0.6-0.1v-0.4l0.6-0.1v-0.4l0.6-0.1v-0.4h0.1v16.3
			l27.9-3.4v-0.4l0.6-0.1v-0.4l0.6-0.1v-0.4l0.6-0.1v-0.4l0.6-0.1v-0.4l0.6-0.1v-0.4l0.6-0.1v-0.4l0.6-0.1v-0.4l0.6-0.1v-0.4
			l0.6-0.1v-0.4l0.6-0.1v-0.4l0.6-0.1v-0.7l0.6-0.1v-0.4l0.6-0.1v-0.4l0.6-0.1v-0.4l0.6-0.1v-0.4l0.6-0.1v-0.4l0.6-0.1v-0.4l0.6-0.1
			v-0.4l0.6-0.1v-0.4l0.6-0.1v-0.4l0.6-0.1v-0.4l0.6-0.1v-0.4l0.6-0.1v-0.4l0.6-0.1v-0.4l0.6-0.1v-0.4l0.6-0.1v-0.4l0.6-0.1v-0.4
			l0.6-0.1v-0.4l0.6-0.1v-0.4l0.6-0.1v-0.4l0.6-0.1v-0.4l0.6-0.1v-0.4l0.6-0.1v-0.4l0.6-0.1v-0.4l0.6-0.1v-0.4l0.6-0.1v-0.4l0.6-0.1
			v-0.4l0.6-0.1v-0.4l0.6-0.1v-0.4l0.6-0.1v-0.4l0.6-0.1v-0.4l0.6-0.1v-0.4l0.6-0.1v-0.4l0.6-0.1v-0.4l0.6-0.1v-0.4l0.6-0.1v-0.4
			l0.6-0.1v-0.4l0.6-0.1v-0.9l0.6-0.1v-0.4l0.6-0.1v-0.4l0.6-0.1v-0.2L170.4,981.1z"/>
		<path class="st0" d="M1022.3,782.3c0.2-0.1,0.4-0.3,0.6-0.5C1022.7,781.9,1022.5,782.1,1022.3,782.3z M1020.6,783.5
			c-0.8,0.5-1.6,1-2.4,1.5c0,0,0,0,0,0c0,0,0,0-0.1,0c0.2,0.1,0.3,0.1,0.5,0.2c0,0,0,0,0.1,0c0,0,0.1-0.1,0.1-0.1
			c0.2-0.1,0.3-0.2,0.5-0.4c0.2-0.2,0.4-0.3,0.6-0.5c0.2-0.2,0.4-0.3,0.6-0.5c0.2-0.2,0.4-0.3,0.6-0.5c0.2-0.2,0.4-0.3,0.6-0.5
			c0.2-0.2,0.4-0.3,0.6-0.5C1021.8,782.7,1021.2,783.1,1020.6,783.5C1020.6,783.5,1020.6,783.5,1020.6,783.5z M1022.3,782.3
			c0.2-0.1,0.4-0.3,0.6-0.5C1022.7,781.9,1022.5,782.1,1022.3,782.3z M1020.6,783.5c-0.8,0.5-1.6,1-2.4,1.5c0,0,0,0,0,0
			c0,0,0,0-0.1,0c0.2,0.1,0.3,0.1,0.5,0.2c0,0,0,0,0.1,0c0,0,0.1-0.1,0.1-0.1c0.2-0.1,0.3-0.2,0.5-0.4c0.2-0.2,0.4-0.3,0.6-0.5
			c0.2-0.2,0.4-0.3,0.6-0.5c0.2-0.2,0.4-0.3,0.6-0.5c0.2-0.2,0.4-0.3,0.6-0.5c0.2-0.2,0.4-0.3,0.6-0.5
			C1021.8,782.7,1021.2,783.1,1020.6,783.5C1020.6,783.5,1020.6,783.5,1020.6,783.5z M1022.3,782.3c0.2-0.1,0.4-0.3,0.6-0.5
			C1022.7,781.9,1022.5,782.1,1022.3,782.3z M1020.6,783.5c-0.8,0.5-1.6,1-2.4,1.5c0,0,0,0,0,0c0,0,0,0-0.1,0
			c0.2,0.1,0.3,0.1,0.5,0.2c0,0,0,0,0.1,0c0,0,0.1-0.1,0.1-0.1c0.2-0.1,0.3-0.2,0.5-0.4c0.2-0.2,0.4-0.3,0.6-0.5
			c0.2-0.2,0.4-0.3,0.6-0.5c0.2-0.2,0.4-0.3,0.6-0.5c0.2-0.2,0.4-0.3,0.6-0.5c0.2-0.2,0.4-0.3,0.6-0.5
			C1021.8,782.7,1021.2,783.1,1020.6,783.5C1020.6,783.5,1020.6,783.5,1020.6,783.5z M623.1,927.1L653,729.4h-0.2l-0.1,0.4l-0.6,0.1
			l-0.1,0.4l-0.6,0.1l-0.1,0.4l-0.6,0.1l-0.1,0.4l-0.6,0.1l-0.1,0.4l-0.5,0.1l-0.1,0.4l-0.6,0.1l-0.1,0.4l-0.6,0.1l-0.1,0.4
			l-0.5,0.1l-0.1,0.4l-0.5,0.1l-0.1,0.4l-0.6,0.1l-0.1,0.4l-0.5,0.1l-0.1,0.4l-0.6,0.1l-0.1,0.4l-0.6,0.1l-0.1,0.4l-0.6,0.1
			l-0.1,0.4l-0.6,0.1l-0.1,0.4l-0.6,0.1l-0.1,0.4l-0.6,0.1l-0.1,0.4l-0.5,0.1l-0.1,0.4l-0.6,0.1l-0.1,0.4l-0.5,0.1l-0.1,0.4
			l-0.6,0.1l-0.1,0.4l-0.6,0.1l-0.1,0.4l-0.6,0.1l-0.1,0.4l-0.6,0.1l-0.1,0.4l-0.6,0.1l-0.1,0.4l-0.6,0.1l-0.1,0.4l-0.5,0.1
			l-0.1,0.4l-0.6,0.1l-0.1,0.4l-0.6,0.1l-0.1,0.4l-0.5,0.1l-0.1,0.4l-0.5,0.1l-0.1,0.4l-0.6,0.1l-0.1,0.4l-0.5,0.1l-0.1,0.4
			l-0.6,0.1l-0.1,0.4l-0.6,0.1l-0.1,0.4l-0.6,0.1l-0.1,0.4l-0.6,0.1l-0.1,0.4l-0.6,0.1l-0.1,0.4l-0.6,0.1l-0.1,0.4l-0.5,0.1
			l-0.1,0.4l-0.6,0.1l-0.1,0.4l-0.6,0.1l-0.1,0.4l-0.5,0.1l-0.1,0.4l-0.6,0.1l-0.1,0.4l-0.6,0.1l-0.1,0.4l-0.6,0.1l-0.1,0.4
			l-0.5,0.1l-0.1,0.4l-0.6,0.1l-0.1,0.4l-0.5,0.1l-0.1,0.4l-0.5,0.1l-0.1,0.4l-0.3,0l-0.3,0l-4.8,32.4l-21.2,143.6l0,0.2l-3.2,22
			l28.5-3.4l0.1-0.4l0.5-0.1l0.1-0.4l0.6-0.1l0.1-0.4l0.6-0.1l0.1-0.4l0.5-0.1l0.1-0.4l0.6-0.1l0.1-0.4l0.5-0.1l0.1-0.4l0.5-0.1
			l0.1-0.4l0.6-0.1l0.1-0.4l0.5-0.1l0.1-0.4l0.6-0.1l0.1-0.4l0.6-0.1l0.1-0.4l0.5-0.1l0.1-0.4l0.6-0.1l0.1-0.4l0.6-0.1l0.1-0.4
			l0.6-0.1l0.1-0.4l0.5-0.1l0.1-0.4l0.6-0.1l0.1-0.4l0.6-0.1l0.1-0.4l0.5-0.1l0.1-0.4l0.6-0.1l0.1-0.4l0.5-0.1l0.1-0.4l0.5-0.1
			l0.1-0.4l0.6-0.1l0.1-0.4l0.5-0.1l0.1-0.4l0.6-0.1l0.1-0.4l0.6-0.1l0.1-0.4l0.5-0.1l0.1-0.4l0.6-0.1l0.1-0.4l0.6-0.1l0.1-0.4
			l0.6-0.1l0.1-0.4l0.5-0.1l0.1-0.4l0.6-0.1l0.1-0.4l0.6-0.1l0.1-0.4l0.5-0.1l0.1-0.4l0.6-0.1l0.1-0.4l0.5-0.1l0.1-0.4l0.5-0.1
			l0.1-0.4l0.6-0.1l0.1-0.4l0.5-0.1l0.1-0.4l0.6-0.1l0.1-0.4l0.6-0.1l0.1-0.4l0.5-0.1l0.1-0.4l0.6-0.1l0.1-0.4l0.6-0.1l0.1-0.4
			l0.6-0.1l0.1-0.4l0.5-0.1l0.1-0.4l0.5-0.1l0.1-0.4l0.6-0.1l0.1-0.4l0.5-0.1l0.1-0.4l0.6-0.1l0.1-0.4l0.5-0.1V924l-28.3,3.4
			L623.1,927.1z M674.1,761.1L659,861.2l29.9-3.6L674.1,761.1z M1022.3,782.3c0.2-0.1,0.4-0.3,0.6-0.5
			C1022.7,781.9,1022.5,782.1,1022.3,782.3z M1020.6,783.5c-0.8,0.5-1.6,1-2.4,1.5c0,0,0,0,0,0c0,0,0,0-0.1,0
			c0.2,0.1,0.3,0.1,0.5,0.2c0,0,0,0,0.1,0c0,0,0.1-0.1,0.1-0.1c0.2-0.1,0.3-0.2,0.5-0.4c0.2-0.2,0.4-0.3,0.6-0.5
			c0.2-0.2,0.4-0.3,0.6-0.5c0.2-0.2,0.4-0.3,0.6-0.5c0.2-0.2,0.4-0.3,0.6-0.5c0.2-0.2,0.4-0.3,0.6-0.5
			C1021.8,782.7,1021.2,783.1,1020.6,783.5C1020.6,783.5,1020.6,783.5,1020.6,783.5z M879.3,727.7c-0.2,0-0.5,0-0.7,0.1
			c-9.9,1.2-16.1,7.2-16.1,21.1v17.7c0.1,1.2,0.2,2.4,0.2,3.7v88.8c1.4,9.8,7.2,13.1,15.7,12c4-0.5,7.4-1.8,10.1-4
			c0.4-0.3,0.7-0.7,1.1-1c3.2-3.4,5-8.6,5-16l0.2-105C894.7,731.5,888.8,726.8,879.3,727.7z M905.8,888.1c-0.2,0.2-0.4,0.3-0.6,0.5
			c-0.2,0.2-0.4,0.3-0.6,0.5c-0.2,0.2-0.4,0.3-0.6,0.5c-0.1,0.1-0.3,0.2-0.4,0.3c1-0.7,2-1.5,2.9-2.3
			C906.3,887.7,906,887.9,905.8,888.1z M882,898.4c-1.2,0.2-2.4,0.4-3.7,0.5c-30.5,3.6-47.1-12.2-47-43.3l0.2-101.1c0-0.5,0-1,0-1.5
			c0-0.5,0-1,0-1.4c0.3-10.5,2.7-19.5,6.9-27.1c0.2-0.3,0.4-0.7,0.6-1c0.4-0.7,0.8-1.3,1.2-2c0.6-0.8,1.1-1.7,1.7-2.5
			c1.9-2.4,3.9-4.6,6.2-6.6c-0.1,0.1-0.2,0.1-0.3,0.2c-0.1,0.1-0.2,0.2-0.3,0.2c-0.1,0.1-0.2,0.2-0.3,0.2c-0.2,0.2-0.4,0.3-0.6,0.5
			c-0.2,0.2-0.4,0.3-0.6,0.5c-0.2,0.2-0.4,0.3-0.6,0.5c-0.2,0.2-0.4,0.3-0.6,0.5c-0.2,0.2-0.4,0.3-0.6,0.5s-0.4,0.3-0.6,0.5
			c-0.2,0.2-0.4,0.3-0.6,0.5c-0.2,0.2-0.4,0.3-0.6,0.5c-0.2,0.2-0.4,0.3-0.6,0.5c-0.2,0.2-0.4,0.3-0.6,0.5s-0.4,0.3-0.6,0.5
			c-0.2,0.2-0.4,0.3-0.6,0.5c-0.2,0.2-0.4,0.3-0.6,0.5c-0.2,0.2-0.4,0.3-0.6,0.5c-0.2,0.2-0.4,0.3-0.6,0.5s-0.4,0.3-0.6,0.5
			c-0.2,0.2-0.4,0.3-0.6,0.5c-0.2,0.2-0.4,0.3-0.6,0.5c-0.2,0.2-0.4,0.3-0.6,0.5c-0.2,0.2-0.4,0.3-0.6,0.5s-0.4,0.3-0.6,0.5
			c-0.2,0.2-0.4,0.3-0.6,0.5c-0.2,0.2-0.4,0.3-0.6,0.5c-0.2,0.2-0.4,0.3-0.6,0.5c-0.2,0.2-0.4,0.3-0.6,0.5s-0.4,0.3-0.6,0.5
			c-0.2,0.2-0.4,0.3-0.6,0.5c-0.2,0.2-0.4,0.3-0.6,0.5c-0.2,0.2-0.4,0.3-0.6,0.5c-0.2,0.2-0.4,0.3-0.6,0.5s-0.4,0.3-0.6,0.5
			c-0.2,0.2-0.4,0.3-0.6,0.5c-0.2,0.2-0.4,0.3-0.6,0.5c-0.2,0.2-0.4,0.3-0.6,0.5c-0.2,0.2-0.4,0.3-0.6,0.5s-0.4,0.3-0.6,0.5
			c-0.2,0.2-0.4,0.3-0.6,0.5c-0.2,0.2-0.4,0.3-0.6,0.5c-0.2,0.2-0.4,0.3-0.6,0.5c-0.2,0.2-0.4,0.3-0.6,0.5s-0.4,0.3-0.6,0.5
			c-0.2,0.2-0.4,0.3-0.6,0.5c-0.2,0.1-0.4,0.3-0.5,0.4v2.7l-32.4,3.9v21.5l0.5-0.1v-0.4l0.6-0.1v-0.4l0.6-0.1v-0.4l0.6-0.1v-0.4
			l0.6-0.1v-0.4l0.6-0.1v-0.4l0.6-0.1v-0.4l0.6-0.1v-0.4l0.6-0.1v-0.4l0.6-0.1v-0.4l0.6-0.1v-0.4l0.6-0.1v-0.4l0.6-0.1v-0.4l0.6-0.1
			v-0.4l0.6-0.1v-0.4l0.6-0.1v-0.4l0.6-0.1v-0.4l0.6-0.1v-0.4l0.6-0.1v-0.4l0.6-0.1v-0.4l0.6-0.1v-0.6l0.6-0.1v-0.4l0.6-0.1v-0.4
			l0.6-0.1v-0.4l0.6-0.1v-0.4l0.6-0.1v-0.4l0.6-0.1v-0.4l0.6-0.1v-0.4l0.6-0.1v-0.4l0.6-0.1v-0.4l0.6-0.1v-0.4l0.6-0.1v-0.4l0.6-0.1
			v-0.4h0.3c-0.1,0.1-0.2,0.3-0.3,0.4c-5.9,8.8-8.9,20-8.9,33.3v101.1c0,31.1,16.6,46.9,47.1,43.2c11.6-1.4,21.2-5.2,28.7-11
			c0.2-0.2,0.4-0.3,0.6-0.5c0.2-0.2,0.4-0.3,0.6-0.5c0.2-0.2,0.4-0.3,0.6-0.5c0.2-0.2,0.4-0.3,0.6-0.5c0.2-0.2,0.4-0.3,0.6-0.5
			s0.4-0.3,0.6-0.5c0.2-0.2,0.4-0.3,0.6-0.5c0.2-0.2,0.4-0.3,0.6-0.5c0.2-0.2,0.4-0.3,0.6-0.5c0.2-0.2,0.4-0.3,0.6-0.5
			s0.4-0.3,0.6-0.5c0.2-0.2,0.4-0.3,0.6-0.5c0.2-0.2,0.4-0.3,0.6-0.5c0.2-0.2,0.4-0.3,0.6-0.5c0.2-0.2,0.4-0.3,0.6-0.5
			s0.4-0.3,0.6-0.5c0.2-0.2,0.4-0.3,0.6-0.5c0.2-0.2,0.4-0.3,0.6-0.5c0.2-0.2,0.4-0.3,0.6-0.5c0.2-0.2,0.4-0.3,0.6-0.5
			s0.4-0.3,0.6-0.5c0.2-0.2,0.4-0.3,0.6-0.5c0.2-0.2,0.4-0.3,0.6-0.5c0.2-0.2,0.4-0.3,0.6-0.5c0.2-0.2,0.4-0.3,0.6-0.5
			s0.4-0.3,0.6-0.5c0.2-0.2,0.4-0.3,0.6-0.5c0.2-0.2,0.4-0.3,0.6-0.5c0.2-0.2,0.4-0.3,0.6-0.5c0.2-0.2,0.4-0.3,0.6-0.5
			s0.4-0.3,0.6-0.5c0.2-0.2,0.4-0.3,0.6-0.5c0.2-0.1,0.4-0.3,0.6-0.5c0.2-0.2,0.4-0.3,0.6-0.5c0.2-0.2,0.4-0.3,0.6-0.5
			c0.2-0.1,0.4-0.3,0.6-0.5c0.2-0.2,0.4-0.3,0.6-0.5c0.2-0.2,0.4-0.3,0.6-0.5c0.2-0.2,0.4-0.3,0.6-0.5c0.2-0.2,0.4-0.3,0.6-0.5
			s0.4-0.3,0.6-0.5c0.2-0.2,0.4-0.3,0.6-0.5c0.1,0,0.1-0.1,0.2-0.1c0,0,0,0,0,0c0.1-0.1,0.3-0.2,0.4-0.4c0.2-0.2,0.4-0.3,0.6-0.5
			c0.2-0.2,0.4-0.3,0.6-0.5s0.4-0.3,0.6-0.5c0.1,0,0.1-0.1,0.2-0.1C897.7,894.2,890.5,897,882,898.4C882,898.4,882,898.4,882,898.4z
			 M1022.3,782.3c0.2-0.1,0.4-0.3,0.6-0.5C1022.7,781.9,1022.5,782.1,1022.3,782.3z M1020.6,783.5c-0.8,0.5-1.6,1-2.4,1.5
			c0,0,0,0,0,0c0,0,0,0-0.1,0c0.2,0.1,0.3,0.1,0.5,0.2c0,0,0,0,0.1,0c0,0,0.1-0.1,0.1-0.1c0.2-0.1,0.3-0.2,0.5-0.4
			c0.2-0.2,0.4-0.3,0.6-0.5c0.2-0.2,0.4-0.3,0.6-0.5c0.2-0.2,0.4-0.3,0.6-0.5c0.2-0.2,0.4-0.3,0.6-0.5c0.2-0.2,0.4-0.3,0.6-0.5
			C1021.8,782.7,1021.2,783.1,1020.6,783.5C1020.6,783.5,1020.6,783.5,1020.6,783.5z M1007.4,731.3c-0.2-3.4-0.8-6.1-1.8-8.3
			c0,0,0,0,0,0c-0.2-0.4-0.4-0.8-0.6-1.2c-0.1-0.2-0.2-0.4-0.3-0.5c-0.1-0.2-0.2-0.3-0.3-0.5c-0.2-0.3-0.4-0.6-0.7-0.9
			c-0.1-0.1-0.1-0.2-0.2-0.2c-0.3-0.3-0.6-0.6-0.9-0.8c-2.6-2.1-6.2-2.8-10.9-2.3l-14.9,1.8l-0.1,59.6v0.1l12.1-1.4
			c0.7-0.1,1.4-0.2,2.1-0.3c1-0.2,2-0.4,3-0.7c0.3-0.1,0.6-0.2,0.9-0.3c1.2-0.4,2.4-0.9,3.4-1.5c0,0,0,0,0,0c1.9-1,3.4-2.3,4.8-4
			c0,0,0,0,0,0c0.2-0.2,0.4-0.5,0.6-0.7c0.2-0.3,0.4-0.6,0.6-0.9c0,0,0,0,0-0.1c0.1-0.2,0.2-0.4,0.4-0.6c0.2-0.3,0.3-0.6,0.4-0.9
			c1-2.1,1.8-4.7,2.1-7.6c0-0.1,0-0.2,0-0.3c0.1-0.7,0.2-1.4,0.2-2.2c0.1-0.9,0.1-1.8,0.1-2.8v-19.2
			C1007.5,733.4,1007.5,732.3,1007.4,731.3z M1018,785c0.1,0,0.1,0,0.2,0.1c0.2,0.1,0.3,0.1,0.4,0.1l0,0c0.2-0.2,0.4-0.3,0.6-0.5
			c0.2-0.2,0.4-0.3,0.6-0.5c0.2-0.2,0.4-0.3,0.6-0.5c0.1-0.1,0.1-0.1,0.2-0.2c0,0,0,0,0,0c0.1-0.1,0.2-0.2,0.4-0.3
			c0.2-0.2,0.3-0.2,0.5-0.4c0,0,0,0,0,0c0,0,0.1-0.1,0.1-0.1c0.2-0.2,0.4-0.3,0.6-0.5c0.2-0.1,0.4-0.3,0.6-0.5
			C1021.3,782.9,1019.7,784,1018,785z M1115.6,821.8c-1.8-37.2-57.8-39.2-60.4-90c-0.1-1.3-0.1-2.6-0.1-3.9c0-0.7,0-1.4,0-2.1
			c0-0.3,0-0.7,0-1c0-0.1,0-0.1,0-0.2c0.5-12.6,3.7-23.2,9.5-31.5c0.2-0.3,0.4-0.6,0.7-0.9c0.5-0.7,1-1.3,1.6-2
			c0.3-0.3,0.6-0.7,0.9-1c1.1-1.3,2.4-2.5,3.7-3.6c0,0-0.1,0.1-0.2,0.1c0,0,0,0,0,0c-0.2,0.2-0.4,0.3-0.6,0.5
			c-0.2,0.2-0.4,0.3-0.6,0.5c-0.2,0.2-0.4,0.3-0.6,0.5c-0.2,0.2-0.4,0.3-0.6,0.5c-0.2,0.2-0.4,0.3-0.6,0.5c-0.2,0.2-0.4,0.3-0.6,0.5
			c-0.2,0.2-0.4,0.3-0.6,0.5c-0.2,0.2-0.4,0.3-0.6,0.5c-0.2,0.2-0.4,0.3-0.6,0.5c-0.2,0.2-0.4,0.3-0.6,0.5c-0.2,0.2-0.4,0.3-0.6,0.5
			c-0.2,0.2-0.4,0.3-0.6,0.5c-0.2,0.2-0.4,0.3-0.6,0.5c-0.2,0.2-0.4,0.3-0.6,0.5c-0.2,0.2-0.4,0.3-0.6,0.5c-0.2,0.2-0.4,0.3-0.6,0.5
			c-0.2,0.2-0.4,0.3-0.6,0.5c-0.2,0.2-0.4,0.3-0.6,0.5c-0.2,0.2-0.4,0.3-0.6,0.5c-0.2,0.2-0.4,0.3-0.6,0.5c-0.2,0.2-0.4,0.3-0.6,0.5
			c-0.2,0.2-0.4,0.3-0.6,0.5c-0.2,0.2-0.4,0.3-0.6,0.5c-0.2,0.2-0.4,0.3-0.6,0.5c-0.2,0.2-0.4,0.3-0.6,0.5c-0.2,0.2-0.4,0.3-0.6,0.5
			c-0.2,0.2-0.4,0.3-0.6,0.5c-0.2,0.2-0.4,0.3-0.6,0.5c-0.2,0.2-0.4,0.3-0.6,0.5c-0.2,0.2-0.4,0.3-0.6,0.5c-0.2,0.2-0.4,0.3-0.6,0.5
			c-0.2,0.2-0.4,0.3-0.6,0.5c-0.2,0.2-0.4,0.3-0.6,0.5c-0.2,0.2-0.4,0.3-0.6,0.5c-0.2,0.2-0.4,0.3-0.6,0.5c-0.2,0.2-0.4,0.3-0.6,0.5
			c-0.2,0.2-0.4,0.3-0.6,0.5c-0.2,0.2-0.4,0.3-0.6,0.5c-0.2,0.2-0.4,0.3-0.6,0.5c-0.2,0.2-0.4,0.3-0.6,0.5c-0.2,0.2-0.4,0.3-0.6,0.5
			c-0.2,0.2-0.4,0.3-0.6,0.5c-0.2,0.2-0.4,0.3-0.6,0.5c-0.2,0.2-0.4,0.3-0.6,0.5c-0.2,0.2-0.4,0.3-0.6,0.5c-0.2,0.2-0.4,0.3-0.6,0.5
			c-0.2,0.2-0.4,0.3-0.6,0.5c-0.2,0.2-0.4,0.3-0.6,0.5c-1.6,1.2-3.1,2.6-4.4,4c1,4.5,1.5,9.5,1.5,15.2v15.3
			c-1.1,13.4-4.5,24.6-11.6,32.8c7.9,18,24.1,27.9,37.1,38.8c0,0,0.1,0.1,0.1,0.1l18.3-2.2v13.8c0,0.8,0,1.5,0.1,2.2
			c0.6,12.2,6.7,16,15.9,14.8c9.3-1.1,15.3-6.2,16-18.4c0.1-0.8,0.1-1.6,0.1-2.5C1115.6,823,1115.6,822.4,1115.6,821.8z
			 M1130.2,860.8l-0.2,0.2c0.3-0.2,0.5-0.4,0.8-0.6C1130.6,860.5,1130.4,860.7,1130.2,860.8z M1130,861c-0.1,0.1-0.3,0.2-0.4,0.3
			C1129.7,861.2,1129.9,861.1,1130,861z M1102.8,871c-21,3.2-35-2-42.4-14.3c-4.2-7-6.3-16.3-6.3-27.6v-11.8h-0.2v0.4l-0.6,0.1v0.4
			l-0.6,0.1v0.4l-0.6,0.1v0.4l-0.6,0.1v0.4l-0.6,0.1v0.4l-0.6,0.1v0.4l-0.6,0.1v0.4l-0.6,0.1v0.4l-0.6,0.1v0.4l-0.6,0.1v0.4
			l-0.6,0.1v0.4l-0.6,0.1v0.4l-0.6,0.1v0.4l-0.6,0.1v0.4l-0.6,0.1v0.4l-0.6,0.1v0.4l-0.6,0.1v0.4l-0.6,0.1v0.4l-0.6,0.1v0.4
			l-0.6,0.1v0.4l-0.6,0.1v0.4l-0.6,0.1v0.4l-0.6,0.1v0.4l-0.6,0.1v0.4l-0.4,0.1v24.5c0,9.4,0.2,16.4,3.3,23.2l-31.6,3.8
			c0-0.1-0.1-0.2-0.1-0.3c-1.6-4.6-2.7-7.8-2.7-23.2l0.1-30.6c0-11.3-2.4-17.8-7.6-20.7c-3.2-1.8-7.4-2.2-12.7-1.6l-10.7,1.3
			l-0.1,79.2l-0.7,0.1c0.1,13,1.2,16,2.8,20.4l31.6-3.8c-0.1-0.1-0.1-0.3-0.1-0.4l0.8-0.1c-0.1-0.1-0.1-0.3-0.1-0.4l0.8-0.1
			c-0.1-0.1-0.1-0.3-0.1-0.4l0.8-0.1c0-0.1-0.1-0.3-0.1-0.4l0.8-0.1c-0.1-0.1-0.1-0.3-0.1-0.4l0.8-0.1c-0.1-0.1-0.1-0.3-0.1-0.4
			l0.8-0.1c-0.1-0.1-0.1-0.3-0.1-0.4l0.8-0.1c-0.1-0.1-0.1-0.3-0.1-0.4l0.8-0.1c-0.1-0.1-0.1-0.3-0.1-0.4l0.8-0.1
			c0-0.1-0.1-0.3-0.1-0.4l0.8-0.1c-0.1-0.1-0.1-0.3-0.1-0.4l0.8-0.1c-0.1-0.1-0.1-0.3-0.1-0.4l0.8-0.1c-0.1-0.1-0.1-0.3-0.1-0.4
			l0.8-0.1c-0.1-0.1-0.1-0.3-0.1-0.4l0.8-0.1c-0.1-0.1-0.1-0.3-0.1-0.4l0.8-0.1c-0.1-0.1-0.1-0.3-0.1-0.4l0.8-0.1
			c-0.1-0.1-0.1-0.3-0.1-0.4l0.8-0.1c-0.1-0.1-0.1-0.3-0.1-0.4l0.8-0.1c-0.1-0.1-0.1-0.3-0.1-0.4l0.8-0.1c-0.1-0.1-0.1-0.3-0.1-0.4
			l0.8-0.1c0-0.1-0.1-0.3-0.1-0.4l0.8-0.1c0-0.1-0.1-0.3-0.1-0.4l0.8-0.1c-0.1-0.1-0.1-0.3-0.1-0.4l0.8-0.1
			c-0.1-0.1-0.1-0.3-0.1-0.4l0.8-0.1c-0.1-0.1-0.1-0.3-0.1-0.4l0.8-0.1c-0.1-0.1-0.1-0.3-0.1-0.4l0.8-0.1c0-0.1-0.1-0.3-0.1-0.4
			l0.8-0.1c-0.1-0.1-0.1-0.3-0.1-0.4l0.8-0.1c-0.1-0.1-0.1-0.3-0.1-0.4l0.8-0.1c-0.1-0.1-0.1-0.3-0.1-0.4l0.8-0.1
			c-0.1-0.1-0.1-0.3-0.1-0.4l0.8-0.1c-0.1-0.1-0.1-0.3-0.1-0.4l0.8-0.1c0-0.1-0.1-0.3-0.1-0.4l0.8-0.1c-0.1-0.1-0.1-0.3-0.1-0.4
			l0.8-0.1v-0.1c7.6,9.7,20.2,13.8,37.4,11.8c11.6-1.4,21-5.1,28.3-10.9c0.2-0.2,0.4-0.3,0.6-0.5s0.4-0.3,0.6-0.5
			c0.2-0.2,0.4-0.3,0.6-0.5c0.2-0.2,0.4-0.3,0.6-0.5c0.2-0.1,0.4-0.3,0.6-0.5c0.2-0.1,0.4-0.3,0.6-0.5s0.4-0.3,0.6-0.5
			c0.2-0.2,0.4-0.3,0.6-0.5c0.2-0.2,0.4-0.3,0.6-0.5c0.2-0.2,0.4-0.3,0.6-0.5c0.2-0.2,0.4-0.3,0.6-0.5s0.4-0.3,0.6-0.5
			c0.2-0.2,0.4-0.3,0.6-0.5c0.2-0.2,0.4-0.3,0.6-0.5c0.2-0.2,0.4-0.3,0.6-0.5c0.2-0.2,0.4-0.3,0.6-0.5s0.4-0.3,0.6-0.5
			c0.2-0.2,0.4-0.3,0.6-0.5c0.2-0.2,0.4-0.3,0.6-0.5c0.2-0.2,0.4-0.3,0.6-0.5c0.2-0.1,0.4-0.3,0.6-0.5s0.4-0.3,0.6-0.5
			c0.2-0.2,0.4-0.3,0.6-0.5c0.2-0.2,0.4-0.3,0.6-0.5c0.2-0.2,0.4-0.3,0.6-0.5c0.2-0.2,0.4-0.3,0.6-0.5s0.4-0.3,0.6-0.5
			c0.2-0.2,0.4-0.3,0.6-0.5c0.2-0.2,0.4-0.3,0.6-0.5c0.2-0.2,0.4-0.3,0.6-0.5c0.2-0.2,0.4-0.3,0.6-0.5s0.4-0.3,0.6-0.5
			c0.2-0.2,0.4-0.3,0.6-0.5c0.2-0.2,0.4-0.3,0.6-0.5c0.2-0.2,0.4-0.3,0.6-0.5c0.2-0.2,0.4-0.3,0.6-0.5s0.4-0.3,0.6-0.5
			c0.2-0.2,0.4-0.3,0.6-0.5c0.2-0.2,0.4-0.3,0.6-0.5c0.2-0.2,0.4-0.3,0.6-0.5c0.2-0.2,0.4-0.3,0.6-0.5s0.4-0.3,0.6-0.5
			c0.2-0.2,0.4-0.3,0.6-0.5c0.2-0.2,0.4-0.3,0.6-0.5c0.2-0.2,0.4-0.3,0.6-0.5c0.2-0.2,0.4-0.3,0.6-0.5s0.4-0.3,0.6-0.5
			c0.2-0.2,0.4-0.3,0.6-0.5c0.2-0.2,0.4-0.3,0.6-0.5c-1.5,1.1-3.1,2.1-4.9,3C1118.6,867.7,1111.2,869.9,1102.8,871z M976.2,885.1
			v0.3l0.1,0L976.2,885.1L976.2,885.1z M946,888.6l0.3-193.9h-0.2v0.4l-0.3,0l-0.3,0.1v0.4l-0.6,0.1v0.4l-0.6,0.1v0.4l-0.6,0.1v0.4
			l-0.6,0.1v0.4l-0.6,0.1v0.4l-0.6,0.1v0.4l-0.6,0.1v0.4l-0.6,0.1v0.4l-0.6,0.1v0.4l-0.6,0.1v0.4l-0.6,0.1v0.4l-0.6,0.1v0.4
			l-0.6,0.1v0.4l-0.6,0.1v0.4l-0.6,0.1v0.4l-0.6,0.1v0.4l-0.6,0.1v0.4l-0.6,0.1v0.4l-0.6,0.1v0.4l-0.6,0.1v0.4l-0.6,0.1v0.4
			l-0.6,0.1v0.4l-0.6,0.1v0.4l-0.6,0.1v0.4l-0.6,0.1v0.4l-0.6,0.1v0.4l-0.6,0.1v0.4l-0.6,0.1v0.4l-0.6,0.1v0.4l-0.6,0.1v0.4
			l-0.6,0.1v0.4l-0.6,0.1v0.4l-0.6,0.1v0.4l-0.6,0.1v0.4l-0.6,0.1v0.4l-0.6,0.1v0.4l-0.6,0.1v0.4l-0.6,0.1v0.4l-0.6,0.1v0.4
			l-0.6,0.1v0.4l-0.6,0.1v0.4h-0.2c4.3,7.1,6.6,16.5,6.5,27.9L927,845.1c0,15.3-4.1,27.8-11.8,37.1v32.4l31-3.8v-0.4l0.6-0.1v-0.4
			l0.6-0.1v-0.4l0.6-0.1v-0.4l0.6-0.1v-0.4l0.6-0.1v-0.4l0.6-0.1v-0.4l0.6-0.1v-0.4l0.6-0.1v-0.4l0.6-0.1v-0.4l0.6-0.1v-0.4l0.6-0.1
			v-0.4l0.6-0.1v-0.4l0.6-0.1v-0.4l0.6-0.1v-0.4l0.6-0.1v-0.4l0.6-0.1v-0.4l0.6-0.1v-0.4l0.6-0.1v-0.4l0.6-0.1v-0.4l0.6-0.1v-0.4
			l0.6-0.1v-0.4l0.6-0.1v-0.4l0.6-0.1v-0.4l0.6-0.1v-0.4l0.6-0.1v-0.4l0.6-0.1v-0.4l0.6-0.1v-0.4l0.6-0.1v-0.7l0.6-0.1v-0.4l0.6-0.1
			v-0.4l0.6-0.1v-0.4l0.6-0.1v-0.4l0.6-0.1v-0.4l0.6-0.1v-0.4l0.6-0.1v-0.4l0.6-0.1v-0.4l0.6-0.1v-0.4l0.6-0.1v-0.4l0.6-0.1v-0.4
			l0.6-0.1v-0.4l0.6-0.1v-0.4l0.6-0.1v-0.4l0.6-0.1v-0.4l0.6-0.1v-0.4l0.6-0.1v-0.4l0.6-0.1v-0.4l0.6-0.1v-0.4l0.6-0.1v-0.4l0.6-0.1
			v-0.4l0.6-0.1v-0.1L946,889V888.6z M1144.5,723.1L1144.5,723.1h0.6V723L1144.5,723.1z M1117.2,718.5c0-13.9-5.6-18.5-15.5-17.3
			c-9.9,1.2-15.5,7.1-15.5,21v0.1c0,0.7,0,1.4,0.1,2.1c0.6,10.7,5.7,18.5,12.6,25.3l15.6-1.9v-0.4l0.6-0.1v-0.4l0.6-0.1v-0.4
			l0.6-0.1v-0.4l0.6-0.1v-0.4l0.6-0.1v-0.2l0.6-0.1v-0.4l0.6-0.1v-0.4l0.6-0.1v-0.4l0.6-0.1v-0.4l0.6-0.1v-0.4l0.6-0.1v-0.4l0.6-0.1
			v-0.4l0.6-0.1v-0.4l0.6-0.1v-0.4l0.6-0.1v-0.4l0.6-0.1v-0.4l0.6-0.1v-0.4l0.6-0.1v-0.4l0.6-0.1v-0.4l0.6-0.1v-0.4l0.6-0.1v-0.4
			l0.6-0.1v-0.4l0.6-0.1v-0.4l0.6-0.1v-0.4l0.6-0.1v-0.4l0.6-0.1v-0.4l0.6-0.1v-0.4l0.6-0.1v-0.4l0.6-0.1v-0.4l0.6-0.1v-0.4l0.6-0.1
			v-0.4l0.6-0.1v0.1l0.6-0.1v-0.4l0.6-0.1v-0.4l0.6-0.1v-0.4l0.6-0.1v-0.4l0.6-0.1v-0.4l0.6-0.1v-0.4l0.6-0.1v-0.4l0.6-0.1v-0.4
			l0.6-0.1v-0.4l0.6-0.1v-0.4l0.6-0.1v-0.4l0.6-0.1v-0.4l0.6-0.1v-0.4l0.6-0.1v-0.4l0.6-0.1v-0.4l0.6-0.1v-0.4l0.6-0.1v-0.4l0.6-0.1
			v-0.3l-27.3,3.4V718.5z M1022.3,782.3c0.2-0.1,0.4-0.3,0.6-0.5C1022.7,781.9,1022.5,782.1,1022.3,782.3z M1020.6,783.5
			c-0.8,0.5-1.6,1-2.4,1.5c0,0,0,0,0,0c0,0,0,0-0.1,0c0.2,0.1,0.3,0.1,0.5,0.2c0,0,0,0,0.1,0c0,0,0.1-0.1,0.1-0.1
			c0.2-0.1,0.3-0.2,0.5-0.4c0.2-0.2,0.4-0.3,0.6-0.5c0.2-0.2,0.4-0.3,0.6-0.5c0.2-0.2,0.4-0.3,0.6-0.5c0.2-0.2,0.4-0.3,0.6-0.5
			c0.2-0.2,0.4-0.3,0.6-0.5C1021.8,782.7,1021.2,783.1,1020.6,783.5C1020.6,783.5,1020.6,783.5,1020.6,783.5z M1002.6,718.8
			c-2.6-2.1-6.2-2.8-10.9-2.3l-14.9,1.8l-0.1,59.6v0.1l12.1-1.4c0.7-0.1,1.4-0.2,2.1-0.3c1-0.2,2-0.4,3-0.7c0.3-0.1,0.6-0.2,0.9-0.3
			c1.2-0.4,2.4-0.9,3.4-1.5c0,0,0,0,0,0c1.9-1,3.5-2.3,4.8-4c0,0,0,0,0,0c0.2-0.2,0.4-0.5,0.6-0.7c0.2-0.3,0.4-0.6,0.6-0.9
			c0,0,0,0,0-0.1c0.1-0.2,0.2-0.4,0.4-0.6c0.3-0.6,0.6-1.2,0.8-1.8c0.1-0.3,0.2-0.6,0.4-1c1.1-3,1.6-6.6,1.6-11v-19.2
			C1007.5,726.8,1006,721.6,1002.6,718.8z M1022.3,782.3c0.2-0.1,0.4-0.3,0.6-0.5C1022.7,781.9,1022.5,782.1,1022.3,782.3z
			 M1020.6,783.5c-0.8,0.5-1.6,1-2.4,1.5c0,0,0,0,0,0c0,0,0,0-0.1,0c0.2,0.1,0.3,0.1,0.5,0.2c0,0,0,0,0.1,0c0,0,0.1-0.1,0.1-0.1
			c0.2-0.1,0.3-0.2,0.5-0.4c0.2-0.2,0.4-0.3,0.6-0.5c0.2-0.2,0.4-0.3,0.6-0.5c0.2-0.2,0.4-0.3,0.6-0.5c0.2-0.2,0.4-0.3,0.6-0.5
			c0.2-0.2,0.4-0.3,0.6-0.5C1021.8,782.7,1021.2,783.1,1020.6,783.5C1020.6,783.5,1020.6,783.5,1020.6,783.5z M674.1,761.1
			L659,861.2l29.9-3.6L674.1,761.1z M674.1,761.1L659,861.2l29.9-3.6L674.1,761.1z M756.9,911.1L756.9,911.1l0.2-166.6v-0.1
			l-32.3,3.9l-0.1,0v-27.6h-0.2v0.4l-0.6,0.1v0.4l-0.6,0.1v0.4l-0.6,0.1v0.4l-0.6,0.1v0.4l-0.6,0.1v0.4l-0.6,0.1v0.4l-0.6,0.1v0.4
			l-0.6,0.1v0.4l-0.6,0.1v0.4l-0.6,0.1v0.4l-0.6,0.1v0.4l-0.6,0.1v0.4l-0.6,0.1v0.4l-0.6,0.1v0.4l-0.6,0.1v0.4l-0.6,0.1v0.4
			l-0.6,0.1v0.4l-0.6,0.1v0.4l-0.6,0.1v0.4l-0.6,0.1v0.4l-0.6,0.1v0.4l-0.6,0.1v0.4l-0.6,0.1v0.4l-0.6,0.1v0.4l-0.6,0.1v0.4
			l-0.6,0.1v0.4l-0.6,0.1v0.4l-0.6,0.1v0.4l-0.6,0.1v0.4l-0.6,0.1v0.4l-0.6,0.1v0.4l-0.6,0.1v0.4l-0.6,0.1v0.4l-0.6,0.1v0.4
			l-0.6,0.1v0.4l-0.6,0.1v0.4l-0.6,0.1v0.4H702l5.3,32.6L726,770v116.3l4.6,28.1l-31.3,3.7v0l-5.3-34.6l-0.9,0.1l-37.2,4.4
			l-3.4,22.2l9.7-1.2l5.4,34.6l31.3-3.8l-0.1-0.4l0.7-0.1l-0.1-0.4l0.7-0.1l-0.1-0.4l0.7-0.1l-0.1-0.4l0.7-0.1l-0.1-0.4l0.7-0.1
			l-0.1-0.4l0.7-0.1l-0.1-0.4l0.7-0.1l-0.1-0.4l0.7-0.1l-0.1-0.4l0.7-0.1l-0.1-0.4l0.7-0.1l-0.1-0.4l0.7-0.1l-0.1-0.4l0.7-0.1
			l-0.1-0.4l0.7-0.1l-0.1-0.4l0.7-0.1l-0.1-0.4l0.7-0.1l-0.1-0.4l0.7-0.1l-0.1-0.4l0.7-0.1l-0.7-0.2l0.7-0.1l-0.1-0.4l0.7-0.1
			l-0.1-0.4l0.7-0.1l-0.1-0.4l0.7-0.1l-0.1-0.4l0.7-0.1l-0.1-0.4l0.7-0.1l-0.1-0.4l0.7-0.1l-0.1-0.4l0.7-0.1l-0.1-0.4l0.7-0.1
			l-0.1-0.4l0.7-0.1l-0.1-0.4l0.7-0.1l-0.1-0.4l0.7-0.1l-0.1-0.4l0.7-0.1l-0.1-0.4l0.7-0.1l-0.1-0.4l0.7-0.1l-0.1-0.4l0.7-0.1
			l-0.1-0.4l0.7-0.1l-0.1-0.4l0.7-0.1l-0.1-0.4l0.7-0.1l-0.1-0.4l0.7-0.1l-0.1-0.4l0.7-0.1l-0.1-0.4l0.7-0.1l-0.1-0.4l0.7-0.1
			l-0.1-0.4l0.7-0.1l-0.1-0.4l0.7-0.1l-0.1-0.4l0.7-0.1l-0.1-0.4l0.6-0.1v18.5l31-3.8v-0.4l0.6-0.1v-0.4l0.6-0.1v-0.4l0.6-0.1v-0.4
			l0.6-0.1v-0.4l0.6-0.1v-0.1l0.6-0.1v-0.4l0.6-0.1v-0.4l0.6-0.1v-0.4l0.6-0.1v-0.4l0.6-0.1v-0.4l0.6-0.1v-0.4l0.6-0.1v-0.4l0.6-0.1
			v-0.4l0.6-0.1v-0.4l0.6-0.1v-0.4l0.6-0.1v-0.4l0.6-0.1v-0.4l0.6-0.1v-0.4l0.6-0.1v-0.4l0.6-0.1v-0.4l0.6-0.1v-0.4l0.6-0.1v-0.4
			l0.6-0.1v-0.4l0.6-0.1v-0.4l0.6-0.1v-0.4l0.6-0.1v-0.4l0.6-0.1v-0.4l0.6-0.1v-0.4l0.6-0.1v-0.4l0.6-0.1v-0.4l0.6-0.1v-0.4l0.6-0.1
			v-0.4l0.6-0.1v-0.4l0.6-0.1v-0.4l0.6-0.1v-0.4l0.6-0.1v-0.4l0.6-0.1v-0.4l0.6-0.1v-0.4l0.6-0.1v-0.4l0.6-0.1v-0.4l0.6-0.1v-0.4
			l0.6-0.1v-0.4l0.6-0.1v-0.4l0.6-0.1v-0.4l0.6-0.1v-0.4l0.6-0.1v-0.4l0.6-0.1v-0.4l0.6-0.1v-0.4l0.6-0.1v-0.4l0.6-0.1v-0.4l0.6-0.1
			v-0.2L756.9,911.1z M674.1,761.1L659,861.2l29.9-3.6L674.1,761.1z M674.1,761.1L659,861.2l29.9-3.6L674.1,761.1z M1022.3,782.3
			c0.2-0.1,0.4-0.3,0.6-0.5C1022.7,781.9,1022.5,782.1,1022.3,782.3z M1020.6,783.5c-0.8,0.5-1.6,1-2.4,1.5c0,0,0,0,0,0
			c0,0,0,0-0.1,0c0.2,0.1,0.3,0.1,0.5,0.2c0,0,0,0,0.1,0c0,0,0.1-0.1,0.1-0.1c0.2-0.1,0.3-0.2,0.5-0.4c0.2-0.2,0.4-0.3,0.6-0.5
			c0.2-0.2,0.4-0.3,0.6-0.5c0.2-0.2,0.4-0.3,0.6-0.5c0.2-0.2,0.4-0.3,0.6-0.5c0.2-0.2,0.4-0.3,0.6-0.5
			C1021.8,782.7,1021.2,783.1,1020.6,783.5C1020.6,783.5,1020.6,783.5,1020.6,783.5z M1022.3,782.3c0.2-0.1,0.4-0.3,0.6-0.5
			C1022.7,781.9,1022.5,782.1,1022.3,782.3z M1020.6,783.5c-0.8,0.5-1.6,1-2.4,1.5c0,0,0,0,0,0c0,0,0,0-0.1,0
			c0.2,0.1,0.3,0.1,0.5,0.2c0,0,0,0,0.1,0c0,0,0.1-0.1,0.1-0.1c0.2-0.1,0.3-0.2,0.5-0.4c0.2-0.2,0.4-0.3,0.6-0.5
			c0.2-0.2,0.4-0.3,0.6-0.5c0.2-0.2,0.4-0.3,0.6-0.5c0.2-0.2,0.4-0.3,0.6-0.5c0.2-0.2,0.4-0.3,0.6-0.5
			C1021.8,782.7,1021.2,783.1,1020.6,783.5C1020.6,783.5,1020.6,783.5,1020.6,783.5z M1022.3,782.3c0.2-0.1,0.4-0.3,0.6-0.5
			C1022.7,781.9,1022.5,782.1,1022.3,782.3z M1020.6,783.5c-0.8,0.5-1.6,1-2.4,1.5c0,0,0,0,0,0c0,0,0,0-0.1,0
			c0.2,0.1,0.3,0.1,0.5,0.2c0,0,0,0,0.1,0c0,0,0.1-0.1,0.1-0.1c0.2-0.1,0.3-0.2,0.5-0.4c0.2-0.2,0.4-0.3,0.6-0.5
			c0.2-0.2,0.4-0.3,0.6-0.5c0.2-0.2,0.4-0.3,0.6-0.5c0.2-0.2,0.4-0.3,0.6-0.5c0.2-0.2,0.4-0.3,0.6-0.5
			C1021.8,782.7,1021.2,783.1,1020.6,783.5C1020.6,783.5,1020.6,783.5,1020.6,783.5z"/>
	</g>
	<g>
		<g>
			<path class="st0" d="M355.1,675.6c16.4-2,26.7-11.5,26.7-34.5l0.4-248.8l-0.7,0.1v0.4l-0.6,0.1v0.4l-0.6,0.1v0.4l-0.6,0.1v0.4
				l-0.6,0.1v0.4l-0.6,0.1v0.4l-0.6,0.1v0.4l-0.6,0.1v0.4l-0.6,0.1v0.4l-0.6,0.1v0.4l-0.6,0.1v0.4l-0.6,0.1v0.4l-0.6,0.1v0.4
				l-0.6,0.1v0.4l-0.6,0.1v0.4l-0.6,0.1v0.4l-0.6,0.1v0.4l-0.6,0.1v0.4l-0.6,0.1v0.4l-0.6,0.1v0.4l-0.6,0.1v0.4l-0.6,0.1v0.4
				l-0.6,0.1v0.4l-0.6,0.1v0.4l-0.6,0.1v0.4l-0.6,0.1v0.4l-0.6,0.1v0.4l-0.6,0.1v0.4l-0.6,0.1v0.4l-0.6,0.1v0.4l-0.6,0.1v0.4
				l-0.6,0.1v0.4l-0.6,0.1v0.4l-0.6,0.1v0.4l-0.6,0.1v0.4l-0.6,0.1v0.4l-0.6,0.1v0.4l-0.6,0.1v0.4l-0.6,0.1v0.4l-0.6,0.1v0.4
				l-0.6,0.1v0.4l-0.6,0.1v0.4l-0.6,0.1v0.4l-0.6,0.1v0.4l-0.6,0.1v0.4l-0.6,0.1v0.4l-0.6,0.1v0.4l-0.6,0.1v0.4l-0.6,0.1v0.4
				l-0.6,0.1v0.4l-2.7,0.7v0.4l-0.6,0.1v248.9c0,3-0.2,5.7-0.6,8.3C350.3,676,352.6,676,355.1,675.6z"/>
			<polygon class="st0" points="118.2,746.2 118.7,423.8 118,423.8 118,424.2 117.3,424.3 117.3,424.8 116.7,424.8 116.7,425.3 
				116.1,425.3 116.1,425.8 115.4,425.9 115.4,426.3 114.8,426.4 114.8,426.8 114.1,426.9 114.1,427.3 113.5,427.4 113.5,427.9 
				112.9,427.9 112.9,428.4 112.2,428.5 112.2,428.9 111.6,429 111.6,429.4 110.9,429.5 110.9,430 110.3,430 110.3,430.5 
				109.6,430.6 109.6,431 109,431.1 109,431.5 108.4,431.6 108.4,432.1 107.7,432.1 107.7,432.6 107.1,432.8 107.1,433.1 
				106.4,433.2 106.4,433.6 105.8,433.8 105.8,434.1 105.1,434.2 105.1,434.8 104.5,434.8 104.5,435.2 103.9,435.3 103.9,435.8 
				103.2,435.8 103.2,436.2 102.6,436.3 102.6,436.8 101.9,436.8 101.9,437.3 101.3,437.4 101.3,437.8 100.7,437.9 100.7,438.3 
				100,438.4 100,438.9 99.4,438.9 99.4,439.4 98.7,439.5 98.7,439.9 98.1,440 98.1,440.4 97.4,440.5 97.4,440.9 96.8,441 
				96.8,441.5 96.2,441.5 96.2,442 95.5,442.1 95.5,442.5 94.9,442.6 94.9,443 94.2,443.1 94.2,443.6 93.6,443.6 93.6,444.1 
				92.9,444.2 92.9,444.6 92.3,444.8 92.3,445.1 91.7,445.2 91.7,445.8 91,445.8 91,446.2 90.4,446.3 90.4,446.8 89.7,446.8 
				89.7,447.2 89.1,447.3 89.1,447.8 88.5,447.8 88.5,448.3 87.8,448.3 87.8,448.8 87.2,448.9 87.2,449.3 86.5,449.4 86.5,449.8 
				85.9,449.9 85.9,450.4 85.2,450.4 85.2,773.2 136.7,767 136.7,766.5 137.4,766.5 137.4,766 138,766 138,765.5 138.6,765.5 
				138.6,765 139.2,764.8 139.2,764.5 139.9,764.3 139.9,764 140.5,763.8 140.5,763.3 141.1,763.3 141.1,762.8 141.8,762.8 
				141.8,762.3 142.4,762.2 142.4,761.8 143,761.8 143,761.3 143.7,761.2 143.7,760.8 144.3,760.8 144.3,760.2 144.9,760.1 
				144.9,759.8 145.6,759.6 145.6,759.2 146.2,759.1 146.2,758.8 146.8,758.6 146.8,758.1 147.5,758.1 147.5,757.6 148.1,757.5 
				148.1,757.1 148.7,757 148.7,756.6 149.4,756.5 149.4,756 150,756 150,755.5 150.6,755.5 150.6,755 151.2,755 151.2,754.5 
				151.9,754.5 151.9,754 152.5,754 152.5,753.5 153.1,753.5 153.1,753 153.8,752.8 153.8,752.5 154.4,752.3 154.4,752 155,751.8 
				155,751.5 155.7,751.3 155.7,750.8 156.3,750.8 156.3,750.3 156.9,750.2 156.9,749.8 157.6,749.8 157.6,749.3 158.2,749.2 
				158.2,748.8 158.8,748.8 158.8,748.2 159.5,748.2 159.5,747.8 160.1,747.6 160.1,747.2 160.7,747.1 160.7,746.8 161.4,746.6 
				161.4,746.1 162,746.1 162,745.6 162.6,745.5 162.6,745.1 163.2,745 163.2,744.6 163.9,744.5 163.9,744.1 164.5,744 164.5,743.5 
				165.1,743.5 165.1,743 165.8,743 165.8,742.5 166.4,742.5 166.4,742 167,742 167,741.5 167.7,741.5 167.7,741 168.3,741 
				168.3,740.5 168.9,740.3 168.9,740.2 			"/>
			<path class="st0" d="M708,633.5c16.4-2,26.7-11.5,26.7-34.5l0.4-248.8l-0.7,0.1v0.4l-0.6,0.1v0.4l-0.6,0.1v0.4l-0.6,0.1v0.4
				l-0.6,0.1v0.4l-0.6,0.1v0.4l-0.6,0.1v0.4l-0.6,0.1v0.4l-0.6,0.1v0.4l-0.6,0.1v0.4l-0.6,0.1v0.4l-0.6,0.1v0.4l-0.6,0.1v0.4
				l-0.6,0.1v0.4l-0.6,0.1v0.4l-0.6,0.1v0.4l-0.6,0.1v0.4l-0.6,0.1v0.4l-0.6,0.1v0.4l-0.6,0.1v0.4l-0.6,0.1v0.4l-0.6,0.1v0.4
				l-0.6,0.1v0.4l-0.6,0.1v0.4l-0.6,0.1v0.4l-0.6,0.1v0.4l-0.6,0.1v0.4l-0.6,0.1v0.4l-0.6,0.1v0.4l-0.6,0.1v0.4l-0.6,0.1v0.4
				l-0.6,0.1v0.4l-0.6,0.1v0.4l-0.6,0.1v0.4l-0.6,0.1v0.4l-0.6,0.1v0.4l-0.6,0.1v0.4l-0.6,0.1v0.4l-0.6,0.1v0.4l-0.6,0.1v0.4
				l-0.6,0.1v0.4l-0.6,0.1v0.4l-0.6,0.1v0.4l-0.6,0.1v0.4l-0.6,0.1v0.4l-0.6,0.1v0.4l-0.6,0.1v0.4l-0.6,0.1v0.4l-0.6,0.1v0.4
				l-0.6,0.1v0.4l-0.6,0.1v0.4l-0.6,0.1v248.9c0,3.3-0.3,6.2-0.7,8.9C703.2,634,705.5,633.8,708,633.5z"/>
			<polygon class="st0" points="169.9,606.8 169.8,629.8 203.2,625.6 203.2,625.2 203.8,625.1 203.8,624.8 204.5,624.6 204.5,624.2 
				205.1,624.1 205.1,623.6 205.7,623.6 205.7,623.1 206.4,623 206.4,622.6 207,622.5 207,622.1 207.6,622 207.6,621.6 208.3,621.5 
				208.3,621 208.9,621 208.9,620.5 209.5,620.5 209.5,620 210.2,620 210.2,619.5 210.8,619.5 210.8,619 211.5,619 211.5,618.5 
				212.1,618.5 212.1,618 212.7,618 212.7,617.5 213.4,617.3 213.4,617 214,616.8 214,616.5 214.6,616.3 214.6,616 215.3,615.8 
				215.3,615.3 215.9,615.3 215.9,614.8 216.5,614.8 216.5,614.3 217.2,614.2 217.2,613.8 217.8,613.8 217.8,613.3 218.5,613.2 
				218.5,612.8 219.1,612.8 219.1,612.2 219.7,612.1 219.7,611.8 220.4,611.6 220.4,611.2 221,611.1 221,610.8 221.6,610.6 
				221.6,610.1 222.3,610.1 222.3,609.6 222.9,609.6 222.9,609.1 223.5,609 223.5,608.6 224.2,608.5 224.2,608.1 224.8,608 
				224.8,607.6 225.5,607.5 225.5,607 226.1,607 226.1,606.5 226.7,606.5 226.7,606 227.4,606 227.4,605.5 228,605.5 228,605 
				228.6,605 228.6,604.5 229.3,604.5 229.3,604 229.9,603.8 229.9,603.5 230.5,603.3 230.5,603 231.2,602.8 231.2,602.5 
				231.8,602.3 231.8,601.8 232.5,601.8 232.5,601.3 233.1,601.2 233.1,600.8 233.7,600.8 233.7,600.3 234.4,600.2 234.4,599.8 
				235,599.8 235,599.2 235.6,599.2 235.6,599 			"/>
			<polygon class="st0" points="504.3,700.2 504.8,423.5 451,430 451.1,384 450.3,384.1 450.3,384.6 449.7,384.6 449.7,385.1 
				449.1,385.2 449.1,385.6 448.4,385.8 448.4,386.1 447.8,386.2 447.8,386.6 447.1,386.8 447.1,387.1 446.5,387.2 446.5,387.6 
				445.8,387.8 445.8,388.2 445.2,388.2 445.2,388.8 444.5,388.8 444.5,389.2 443.9,389.3 443.9,389.8 443.3,389.8 443.3,390.2 
				442.6,390.3 442.6,390.8 442,390.8 442,391.2 441.3,391.3 441.3,391.8 440.7,391.8 440.7,392.3 440,392.3 440,392.8 439.4,392.8 
				439.4,393.3 438.8,393.4 438.8,393.8 438.1,393.9 438.1,394.3 437.5,394.4 437.5,394.8 436.8,394.9 436.8,395.3 436.2,395.4 
				436.2,395.8 435.5,395.9 435.5,396.3 434.9,396.4 434.9,396.9 434.3,396.9 434.3,397.4 433.6,397.4 433.6,397.9 433,398 
				433,398.4 432.3,398.5 432.3,398.9 431.7,399 431.7,399.4 431,399.5 431,399.9 430.9,399.9 430.8,454.8 471.3,449.8 471.3,726.5 
				522.8,720.2 522.8,719.8 523.5,719.8 523.5,719.3 524.1,719.2 524.1,718.8 524.7,718.8 524.7,718.3 525.4,718.2 525.4,717.8 
				526,717.8 526,717.2 526.6,717.2 526.6,716.8 527.3,716.8 527.3,716.2 527.9,716.2 527.9,715.8 528.5,715.6 528.5,715.2 
				529.2,715.1 529.2,714.8 529.8,714.6 529.8,714.2 530.4,714.1 530.4,713.8 531.1,713.6 531.1,713.2 531.7,713.1 531.7,712.8 
				532.3,712.6 532.3,712.2 533,712.1 533,711.8 533.6,711.6 533.6,711.1 534.2,711.1 534.2,710.6 534.9,710.6 534.9,710.1 
				535.5,710.1 535.5,709.6 536.1,709.5 536.1,709.1 536.8,709 536.8,708.6 537.4,708.5 537.4,708.1 538,708 538,707.6 538.7,707.5 
				538.7,707.1 539.3,707 539.3,706.6 539.9,706.5 539.9,706.1 540.6,706 540.6,705.5 541.2,705.5 541.2,705 541.8,705 541.8,704.5 
				542.5,704.5 542.5,704 543.1,704 543.1,703.5 543.7,703.5 543.7,703 544.4,703 544.4,702.5 545,702.5 545,702 545.6,702 
				545.6,701.5 546.3,701.5 546.3,701 546.9,701 546.9,700.5 547.5,700.5 547.5,700 548.2,700 548.2,699.5 548.8,699.5 548.8,699 
				549.4,699 549.4,698.5 550.1,698.5 550.1,698 550.7,697.8 550.7,697.5 551.3,697.3 551.3,697 552,696.8 552,696.5 552.6,696.3 
				552.6,696 553.2,695.8 553.2,695.5 553.9,695.3 553.9,695 554.5,694.8 554.5,694.5 555.1,694.3 555.1,694.1 			"/>
			<path class="st0" d="M706.6,680.2c-50.6,6-76.7-20.4-76.6-72l0.4-245.6l-0.7,0.1v0.4l-0.6,0.1v0.4l-0.6,0.1v0.4l-0.6,0.1v0.4
				l-0.6,0.1v0.4l-0.6,0.1v0.4l-0.6,0.1v0.4l-0.6,0.1v0.4l-0.6,0.1v0.4l-0.6,0.1v0.4l-0.6,0.1v0.4l-0.6,0.1v0.4l-0.6,0.1v0.4
				l-0.6,0.1v0.4l-0.6,0.1v0.4l-0.6,0.1v0.4l-0.6,0.1v0.4l-0.6,0.1v0.4l-0.6,0.1v0.4l-0.6,0.1v0.4l-0.6,0.1v0.4l-0.6,0.1v0.4
				l-0.6,0.1v0.4l-0.6,0.1v0.4l-0.6,0.1v0.4l-0.6,0.1v0.4l-0.6,0.1v0.4l-0.6,0.1v0.4l-0.6,0.1v0.4l-0.6,0.1v0.4l-0.6,0.1v0.4h-0.1
				l-0.1,32.6l-53.8,6.4v22.1l20.4-2.5v-0.4l0.6-0.1v-0.4l0.6-0.1v-0.4l0.6-0.1v-0.4l0.6-0.1v-0.4l0.6-0.1v-0.4l0.6-0.1v-0.4
				l0.6-0.1v-0.4l0.6-0.1v-0.4l0.6-0.1v-0.4l0.6-0.1v-0.4l0.6-0.1v-0.4l0.6-0.1v-0.4l0.6-0.1v-0.4l0.6-0.1v-0.4l0.6-0.1v-0.4
				l0.6-0.1v-0.4l0.6-0.1v-0.4l0.6-0.1v-0.4l0.6-0.1V427l0.6-0.1v-0.4l0.6-0.1V426l0.6-0.1v-0.4l0.6-0.1V425l0.6-0.1v-0.4l0.6-0.1
				V424l0.6-0.1v-0.4l0.6-0.1V423l0.6-0.1v-0.4l0.6-0.1V422l0.6-0.1v-0.4l0.6-0.1V421h0.2v213.3c0,51.6,26.2,78,76.8,71.9
				c19.1-2.3,34.8-8.5,46.8-18c0.2-0.2,0.4-0.3,0.6-0.5c0.2-0.2,0.4-0.3,0.6-0.5c0.2-0.2,0.4-0.3,0.6-0.5c0.2-0.2,0.4-0.3,0.6-0.5
				c0.2-0.2,0.4-0.3,0.6-0.5c0.2-0.2,0.4-0.3,0.6-0.5c0.2-0.2,0.4-0.3,0.6-0.5c0.2-0.2,0.4-0.3,0.6-0.5c0.2-0.2,0.4-0.3,0.6-0.5
				c0.2-0.2,0.4-0.3,0.6-0.5c0.2-0.2,0.4-0.3,0.6-0.5c0.2-0.2,0.4-0.3,0.6-0.5c0.2-0.2,0.4-0.3,0.6-0.5c0.2-0.2,0.4-0.3,0.6-0.5
				c0.2-0.2,0.4-0.3,0.6-0.5c0.2-0.2,0.4-0.3,0.6-0.5c0.2-0.2,0.4-0.3,0.6-0.5c0.2-0.2,0.4-0.3,0.6-0.5c0.2-0.2,0.4-0.3,0.6-0.5
				c0.2-0.2,0.4-0.3,0.6-0.5c0.2-0.2,0.4-0.3,0.6-0.5c0.2-0.2,0.4-0.3,0.6-0.5c0.2-0.2,0.4-0.3,0.6-0.5c0.2-0.2,0.4-0.3,0.6-0.5
				c0.2-0.2,0.4-0.3,0.6-0.5c0.2-0.2,0.4-0.3,0.6-0.5c0.2-0.2,0.4-0.3,0.6-0.5c0.2-0.2,0.4-0.3,0.6-0.5c0.2-0.2,0.4-0.3,0.6-0.5
				c0.2-0.2,0.4-0.3,0.6-0.5c0.2-0.2,0.4-0.3,0.6-0.5c0.2-0.2,0.4-0.3,0.6-0.5c0.2-0.2,0.4-0.3,0.6-0.5c0.2-0.2,0.4-0.3,0.6-0.5
				c0.2-0.2,0.4-0.3,0.6-0.5c0.2-0.2,0.4-0.3,0.6-0.5c0.2-0.2,0.4-0.3,0.6-0.5c0.2-0.2,0.4-0.3,0.6-0.5c0.2-0.2,0.4-0.3,0.6-0.5
				c0.2-0.2,0.4-0.3,0.6-0.5c0.2-0.2,0.4-0.3,0.6-0.5c0.2-0.2,0.4-0.3,0.6-0.5c0.2-0.2,0.4-0.3,0.6-0.5c0.2-0.2,0.4-0.3,0.6-0.5
				c0.1-0.1,0.2-0.2,0.4-0.3C737.3,673.3,723.3,678.2,706.6,680.2z"/>
			<path class="st0" d="M353.6,722.3c-50.6,6-76.7-20.4-76.6-72l0.4-245.5l-0.7,0.1v0.4l-0.6,0.1v0.4l-0.6,0.1v0.4l-0.6,0.1v0.4
				l-0.6,0.1v0.4l-0.6,0.1v0.4l-0.6,0.1v0.4l-0.6,0.1v0.4l-0.6,0.1v0.4l-0.6,0.1v0.4l-0.6,0.1v0.4l-0.6,0.1v0.4l-0.6,0.1v0.4
				l-0.6,0.1v0.4l-0.6,0.1v0.4l-0.6,0.1v0.4l-0.6,0.1v0.4l-0.6,0.1v0.4l-0.6,0.1v0.4l-0.6,0.1v0.4l-0.6,0.1v0.4l-0.6,0.1v0.4
				l-0.6,0.1v0.4l-0.6,0.1v0.4l-0.6,0.1v0.4l-0.6,0.1v0.4l-0.6,0.1v0.4l-0.6,0.1v0.4l-0.6,0.1v0.4l-0.6,0.1v0.4l-0.6,0.1v0.4
				l-0.6,0.1v0.4l-0.6,0.1v0.4l-0.6,0.1v0.4l-0.5,0.1l-0.1,30.9l-84.7,10.1v22.8l51.3-6.2v-0.4l0.6-0.1v-0.4l0.6-0.1v-0.4l0.6-0.1
				v-0.4l0.6-0.1v-0.4l0.6-0.1v0l0.6-0.1v-0.4l0.6-0.1V476l0.6-0.1v-0.4l0.6-0.1V475l0.6-0.1v-0.4l0.6-0.1V474l0.6-0.1v-0.4l0.6-0.1
				V473l0.6-0.1v-0.4l0.6-0.1V472l0.6-0.1v-0.4l0.6-0.1V471l0.6-0.1v-0.4l0.6-0.1V470l0.6-0.1v-0.4l0.6-0.1V469l0.6-0.1v-0.4
				l0.6-0.1V468l0.6-0.1v-0.4l0.6-0.1V467l0.6-0.1v-0.4l0.6-0.1V466l0.6-0.1v-0.4l0.6-0.1V465l0.6-0.1v-0.4l0.6-0.1V464l0.6-0.1V463
				l0.6-0.1v-0.4l0.6-0.1V462l0.6-0.1v-0.4l0,0V677c0,51.6,26.2,78,76.8,71.9c19.2-2.3,34.9-8.5,46.9-18c0.2-0.2,0.4-0.3,0.6-0.5
				s0.4-0.3,0.6-0.5s0.4-0.3,0.6-0.5s0.4-0.3,0.6-0.5s0.4-0.3,0.6-0.5s0.4-0.3,0.6-0.5s0.4-0.3,0.6-0.5s0.4-0.3,0.6-0.5
				s0.4-0.3,0.6-0.5s0.4-0.3,0.6-0.5s0.4-0.3,0.6-0.5s0.4-0.3,0.6-0.5s0.4-0.3,0.6-0.5s0.4-0.3,0.6-0.5s0.4-0.3,0.6-0.5
				s0.4-0.3,0.6-0.5s0.4-0.3,0.6-0.5s0.4-0.3,0.6-0.5s0.4-0.3,0.6-0.5s0.4-0.3,0.6-0.5s0.4-0.3,0.6-0.5s0.4-0.3,0.6-0.5
				s0.4-0.3,0.6-0.5s0.4-0.3,0.6-0.5s0.4-0.3,0.6-0.5s0.4-0.3,0.6-0.5s0.4-0.3,0.6-0.5s0.4-0.3,0.6-0.5s0.4-0.3,0.6-0.5
				s0.4-0.3,0.6-0.5s0.4-0.3,0.6-0.5s0.4-0.3,0.6-0.5s0.4-0.3,0.6-0.5s0.4-0.3,0.6-0.5s0.4-0.3,0.6-0.5s0.4-0.3,0.6-0.5
				s0.4-0.3,0.6-0.5s0.4-0.3,0.6-0.5s0.4-0.3,0.6-0.5s0.4-0.3,0.6-0.5s0.4-0.3,0.6-0.5s0.4-0.3,0.6-0.5s0.4-0.3,0.6-0.5
				s0.4-0.3,0.6-0.5s0.4-0.3,0.6-0.5c0.1-0.1,0.2-0.2,0.3-0.2C384.9,715.2,370.6,720.3,353.6,722.3z"/>
		</g>
		<g>
			<polygon class="st0" points="1058.6,357.5 1058.6,378.8 1113.9,372.1 1113.9,371.8 1114.6,371.6 1114.6,371.2 1115.2,371.1 
				1115.2,370.8 1115.9,370.6 1115.9,370.2 1116.5,370.1 1116.5,369.8 1117.2,369.8 1117.2,369.2 1117.8,369.2 1117.8,368.8 
				1118.4,368.8 1118.4,368.3 1119.1,368.2 1119.1,367.8 1119.7,367.8 1119.7,367.3 1120.4,367.2 1120.4,366.8 1121,366.8 
				1121,366.3 1121.7,366.2 1121.7,365.8 1122.3,365.8 1122.3,365.3 1123,365.3 1123,364.8 1123.6,364.8 1123.6,364.4 1124.2,364.3 
				1124.2,363.9 1124.9,363.8 1124.9,363.4 1125.5,363.3 1125.5,362.9 1126.2,362.8 1126.2,362.4 1126.8,362.3 1126.8,361.9 
				1127.5,361.8 1127.5,361.4 1128.1,361.3 1128.1,360.9 1128.8,360.9 1128.8,360.5 1129.4,360.4 1129.4,360 1130,359.9 
				1130.1,359.5 1130.7,359.4 1130.7,359 1131.3,358.9 1131.3,358.5 1132,358.4 1132,358 1132.6,357.9 1132.6,357.5 1133.3,357.4 
				1133.3,357 1133.9,357 1133.9,356.5 1134.6,356.5 1134.6,356.1 1135.2,356 1135.2,355.6 1135.9,355.5 1135.9,355.1 1136.5,355 
				1136.5,354.6 1137.1,354.5 1137.1,354.1 1137.8,354 1137.8,353.6 1138.4,353.5 1138.4,353.1 1139.1,353 1139.1,352.6 
				1139.7,352.6 1139.7,352.1 1140.4,352.1 1140.4,351.8 1141,351.6 1141,351.2 1141.7,351.1 1141.7,350.8 1142.3,350.6 
				1142.3,350.2 1142.9,350.1 1142.9,349.8 1143.6,349.6 1143.6,349.2 1144.2,349.1 1144.2,348.8 1144.9,348.6 1144.9,348.2 
				1145.5,348.2 1145.5,347.8 1146.2,347.8 1146.2,347.3 1146.8,347.2 1146.8,347 			"/>
			<path class="st0" d="M886.7,477.1l3.7-0.4c19.2-2.3,30.9-12,31-37.8l0.1-31.8c0-23.1-7.9-32.2-26.2-30.1l-24.8,3v22.7
				c12,1.6,17.5,11,17.5,30v31.8C887.9,469.2,887.5,473.4,886.7,477.1z"/>
			<polygon class="st0" points="1095.7,509.9 1096.3,509.8 1096.3,509.4 1097,509.3 1097,508.9 1097.6,508.9 1097.6,508.4 
				1098.2,508.4 1098.2,507.9 1098.9,507.9 1098.9,507.5 1099.5,507.4 1099.5,507 1100.2,506.9 1100.2,506.5 1100.8,506.4 
				1100.8,506 1101.4,505.9 1101.4,505.5 1102.1,505.4 1102.1,505 1102.7,504.9 1102.7,504.5 1103.4,504.4 1103.4,504 1104,504 
				1104,503.5 1104.6,503.5 1104.6,503.1 1105.3,503 1105.3,502.6 1105.9,502.5 1105.9,502.1 1106.6,502 1106.6,501.6 1107.2,501.5 
				1107.2,501.1 1107.8,501 1107.8,500.6 1108.5,500.5 1108.5,500.1 1109.1,500 1109.1,499.6 1109.8,499.6 1109.8,499.1 
				1110.4,499.1 1110.4,498.6 1111,498.6 1111,498.2 1111.7,498.1 1111.7,497.8 1112.3,497.6 1112.3,497.2 1113,497.1 1113,496.8 
				1113.6,496.6 1113.6,496.2 1114.2,496.1 1114.2,495.8 1114.9,495.6 1114.9,495.2 1115.5,495.1 1115.5,494.8 1116.2,494.8 
				1116.2,494.2 1116.8,494.2 1116.8,493.8 1117.4,493.8 1117.4,493.3 1118.1,493.2 1118.1,492.8 1118.7,492.8 1118.7,492.3 
				1119.4,492.2 1119.4,491.8 1120,491.8 1120,491.3 1120.6,491.2 1120.6,490.8 1121.3,490.8 1121.3,490.3 1121.9,490.3 
				1121.9,489.8 1122.6,489.8 1122.6,489.3 1123.2,489.3 1123.2,488.9 1123.8,488.8 1123.8,488.4 1124.5,488.3 1124.5,487.9 
				1125.1,487.8 1125.1,487.4 1125.8,487.3 1125.8,486.9 1126.4,486.8 1126.4,486.4 1127,486.3 1127,485.9 1127.7,485.8 
				1127.7,485.4 1128.3,485.4 1128.3,485.2 1058.4,493.5 1058.3,514.8 1095.7,510.3 			"/>
			<polygon class="st0" points="818.4,662.8 819,340.2 818.3,340.3 818.3,340.8 817.6,340.8 817.6,341.2 817,341.3 817,341.8 
				816.3,341.8 816.3,342.2 815.7,342.3 815.7,342.8 815,342.8 815,343.2 814.4,343.3 814.4,343.8 813.7,343.8 813.7,344.2 
				813.1,344.3 813.1,344.8 812.5,344.8 812.5,345.2 811.8,345.3 811.8,345.8 811.2,345.8 811.2,346.2 810.5,346.3 810.5,346.8 
				809.9,346.8 809.9,347.2 809.2,347.3 809.2,347.8 808.6,347.8 808.6,348.2 807.9,348.3 807.9,348.8 807.3,348.8 807.3,349.2 
				806.7,349.3 806.7,349.8 806,349.8 806,350.2 805.4,350.3 805.4,350.8 804.7,350.8 804.7,351.2 804.1,351.3 804.1,351.8 
				803.4,351.8 803.4,352.2 802.8,352.3 802.8,352.8 802.1,352.8 802.1,353.2 801.5,353.3 801.5,353.8 800.9,353.8 800.8,354.2 
				800.2,354.3 800.2,354.8 799.6,354.8 799.6,355.2 798.9,355.3 798.9,355.8 798.3,355.8 798.3,356.2 797.6,356.3 797.6,356.8 
				797,356.8 797,357.2 796.3,357.3 796.3,357.8 795.7,357.8 795.7,358.2 795,358.3 795,358.8 794.4,358.8 794.4,359.2 793.8,359.3 
				793.8,359.8 793.1,359.8 793.1,360.2 792.5,360.2 792.5,360.8 791.8,360.8 791.8,361.2 791.2,361.2 791.2,361.8 790.5,361.8 
				790.5,362.2 789.9,362.2 789.9,362.8 789.2,362.8 789.2,363.2 788.6,363.2 788.6,363.8 788,363.8 788,364.2 787.3,364.2 
				787.3,364.8 786.7,364.8 786.7,365.2 786,365.2 786,365.8 785.4,365.8 785.4,688.5 836.9,682.2 836.9,681.8 837.5,681.8 
				837.5,681.3 838.1,681.2 838.1,680.8 838.8,680.8 838.8,680.3 839.4,680.2 839.4,679.8 840,679.8 840,679.3 840.7,679.2 
				840.7,678.8 841.3,678.8 841.3,678.3 841.9,678.2 841.9,677.8 842.6,677.8 842.6,677.3 843.2,677.3 843.2,676.8 843.8,676.8 
				843.8,676.3 844.5,676.3 844.5,675.8 845.1,675.8 845.1,675.3 845.7,675.3 845.7,674.8 846.4,674.8 846.4,674.3 847,674.3 
				847,673.8 847.6,673.8 847.6,673.3 848.3,673.3 848.3,672.8 848.9,672.8 848.9,672.3 849.5,672.3 849.5,672 850.2,671.8 
				850.2,671.5 850.8,671.3 850.8,671 851.4,670.8 851.4,670.5 852.1,670.3 852.1,670 852.7,669.8 852.7,669.5 853.3,669.3 
				853.3,669 854,668.8 854,668.5 854.6,668.3 854.6,668 855.3,667.8 855.3,667.5 855.9,667.3 855.9,667 856.5,666.8 856.5,666.5 
				857.2,666.3 857.2,666 857.8,665.8 857.8,665.5 858.4,665.3 858.4,665 859.1,664.8 859.1,664.5 859.7,664.3 859.7,664 
				860.3,663.8 860.3,663.5 861,663.3 861,663 861.6,662.8 861.6,662.5 862.2,662.3 862.2,662 862.9,661.8 862.9,661.5 863.5,661.3 
				863.5,661 864.1,660.8 864.1,660.5 864.8,660.3 864.8,660 865.4,659.8 865.4,659.5 866,659.3 866,659 866.7,658.8 866.7,658.5 
				867.3,658.3 867.3,658 867.9,657.8 867.9,657.5 868.6,657.3 868.6,657 869.2,656.8 869.2,656.8 			"/>
			<path class="st0" d="M940.2,490.2c0.2-0.2,0.4-0.3,0.6-0.5c0.2-0.2,0.4-0.3,0.6-0.5l0.1-0.1c-0.8,0.5-1.7,1.1-2.6,1.6
				c0.1,0,0.3,0.1,0.4,0.1l0.1-0.1C939.8,490.6,940,490.4,940.2,490.2z"/>
			<path class="st0" d="M1143.3,623.4v0.1l-0.6,0.1v0.4l-0.6,0.1v0.4l-0.6,0.1v0.4l-0.6,0.1v0.4l-0.6,0.1v0.4l-0.6,0.1v0.4l-0.6,0.1
				v0.4l-0.6,0.1v0.4l-0.6,0.1v0.4l-0.6,0.1v0.4l-0.6,0.1v0.4l-0.6,0.1v0.4l-0.6,0.1v0.4l-0.6,0.1v0.4l-0.6,0.1v0.4l-0.6,0.1v0.4
				l-0.6,0.1v0.4l-0.6,0.1v0.4l-0.6,0.1v0.4l-0.6,0.1v0.4l-0.6,0.1v0.4l-0.6,0.1v0.4l-0.6,0.1v0.4l-0.6,0.1v0.4l-0.6,0.1v0.4
				l-0.6,0.1v0.4l-0.6,0.1v0.4l-0.6,0.1v0.4l-0.6,0.1v0.4l-0.6,0.1v0.4l-0.6,0.1v0.4l-0.6,0.1v0.4l-0.6,0.1v0.4l-0.6,0.1v0.4
				l-0.6,0.1v0.4l-0.6,0.1v0.4l-0.6,0.1v0.4l-0.6,0.1v0.2l-0.6,0.1v0.4l-0.6,0.1v0.4l-0.6,0.1v0.4l-0.6,0.1v0.4l-0.6,0.1v0.4
				l-0.6,0.1v0.4l-0.6,0.1v0.4l-0.6,0.1v0.4l-0.6,0.1v0.4l-0.6,0.1v0.4l-0.6,0.1v0.4l-0.6,0.1v0.4l-0.6,0.1v0.4l-140.4,17V647H972
				c0.1,0.1,0.1,0.3,0.2,0.4l-0.8,0.1c0.1,0.1,0.1,0.3,0.2,0.4l-0.8,0.1c0.1,0.1,0.1,0.3,0.2,0.4l-0.8,0.1c0.1,0.1,0.1,0.3,0.2,0.4
				l-0.8,0.1c0.1,0.1,0.1,0.3,0.2,0.4l-0.8,0.1c0.1,0.1,0.1,0.3,0.2,0.4l-0.8,0.1c0.1,0.1,0.1,0.3,0.2,0.4l-0.8,0.1
				c0.1,0.1,0.1,0.3,0.2,0.4l-0.8,0.1c0.1,0.1,0.1,0.3,0.2,0.4l-0.8,0.1c0.1,0.1,0.1,0.3,0.2,0.4L966,652c0.1,0.1,0.1,0.3,0.2,0.4
				l-0.8,0.1c0.1,0.1,0.1,0.3,0.2,0.4l-0.8,0.1c0.1,0.1,0.1,0.3,0.2,0.4l-0.8,0.1c0.1,0.1,0.1,0.3,0.2,0.4l-0.8,0.1
				c0.1,0.1,0.1,0.3,0.2,0.4l-0.8,0.1c0.1,0.1,0.1,0.3,0.2,0.4l-0.8,0.1c0.1,0.1,0.1,0.3,0.2,0.4l-0.8,0.1c0.1,0.1,0.1,0.3,0.2,0.4
				l-0.8,0.1c0.1,0.1,0.1,0.3,0.2,0.4l-0.8,0.1c0.1,0.1,0.1,0.3,0.2,0.4L960,657c0.1,0.1,0.1,0.3,0.2,0.4l-0.8,0.1
				c0.1,0.1,0.1,0.3,0.2,0.4l-0.8,0.1c0.1,0.1,0.1,0.3,0.2,0.4l-0.8,0.1c0.1,0.1,0.1,0.3,0.2,0.4l-0.8,0.1c0.1,0.1,0.1,0.3,0.2,0.4
				l-0.8,0.1c0.1,0.1,0.1,0.3,0.2,0.4l-0.8,0.1c0.1,0.1,0.1,0.3,0.2,0.4l-0.8,0.1c0.1,0.1,0.1,0.3,0.2,0.4l-0.8,0.1
				c0.1,0.1,0.1,0.3,0.2,0.4l-0.8,0.1c0.1,0.1,0.1,0.3,0.2,0.4L954,662c0.1,0.1,0.1,0.3,0.2,0.4l-0.8,0.1c0.1,0.1,0.1,0.3,0.2,0.4
				l-0.8,0.1c0.1,0.1,0.1,0.3,0.2,0.4l-0.8,0.1c0.1,0.1,0.1,0.3,0.2,0.4l-0.8,0.1c0.1,0.1,0.1,0.3,0.2,0.4l-0.8,0.1
				c0.1,0.1,0.1,0.3,0.2,0.4l-0.8,0.1c0.1,0.1,0.1,0.3,0.2,0.4l-0.8,0.1c0.1,0.1,0.1,0.3,0.2,0.4l-0.8,0.1c0.1,0.1,0.1,0.3,0.2,0.4
				l-0.8,0.1c0.1,0.1,0.1,0.3,0.2,0.4L948,667c0.1,0.1,0.1,0.3,0.2,0.4l-0.8,0.1c0.1,0.1,0.1,0.3,0.2,0.4l-0.8,0.1
				c0.1,0.1,0.1,0.3,0.2,0.4l-0.8,0.1c0.1,0.1,0.1,0.3,0.2,0.4l-0.8,0.1c0.1,0.1,0.1,0.3,0.2,0.4l-52.4,6.3
				c-2.8-8-4.7-12.8-4.7-39.1v-50.7c0-22.3-5.7-33.4-18.2-36.5v-24l17.8-2.1c6.7-0.8,12.4-0.6,17,0.9c0.1,0,0.2,0.1,0.4,0.1
				c11.2,3.7,16.3,14.8,16.2,36l-0.1,50.7c-0.1,26.2,1.8,31,4.6,39c0,0,0,0.1,0,0.1l52.4-6.3c-3-6.6-4.4-13.3-5-20.8V345.1l5.9-4.9
				l0.4,0v-0.4l0,0l0.6-0.1v-0.4l0,0l0.6-0.1v-0.4l0,0l0.6-0.1v-0.4l0,0l0.6-0.1v-0.4l0,0l0.6-0.1v-0.4l0,0l0.6-0.1v-0.4l0,0
				l0.6-0.1v-0.4l0,0l0.6-0.1v-0.4l0,0l0.6-0.1v-0.4h0l0.6-0.1v-0.4h0l0.6-0.1v-0.4h0l0.6-0.1v-0.4h0l0.6-0.1v-0.4h0l0.6-0.1v-0.4h0
				l0.6-0.1v-0.4h0l0.6-0.1v-0.4h0l0.6-0.1v-0.4h0l0.6-0.1v-0.4h0l0.6-0.1v-0.4h0l0.6-0.1v-0.4h0l0.6-0.1v-0.4l0.6-0.1v-0.4l0.6-0.1
				v-0.4l0.6-0.1v-0.4l0.6-0.1v-0.4l0.6-0.1v-0.4l0.6-0.1v-0.4l0.6-0.1v-0.4l0.6-0.1v-0.4l0.6-0.1v-0.4l0.6-0.1v-0.4l0.6-0.1v-0.4
				l0.6-0.1v-0.4l0.6-0.1v-0.4l0.6-0.1v-0.4l0.6-0.1v-0.4l0.6-0.1v-0.4l0.6-0.1v-0.4l0.6-0.1v-0.4l0.6-0.1v-0.4l0.6-0.1v-0.4
				l0.6-0.1v-0.4l0.6-0.1v-0.4l0.6-0.1v-0.4l0.6-0.1l0.1,0l-0.6,322.5v0.1l20.7-2.6L1143.3,623.4z"/>
		</g>
		<g>
			<path class="st1" d="M170,560.8l66.5-7.9l-0.1,46.1l-66.5,7.9L169.7,740l-51.5,6.1l0.6-322.7L255,407.2l-0.1,46.1l-84.7,10.1
				L170,560.8z"/>
			<path class="st1" d="M328.9,398.4l-0.4,249c0,23.1,10.2,30.1,26.6,28.2c16.4-2,26.7-11.5,26.7-34.5l0.4-249l48.7-5.8L430.5,632
				c-0.1,51.6-26.4,84.3-76.9,90.3c-50.6,6-76.7-20.4-76.6-72l0.4-245.7L328.9,398.4z"/>
			<path class="st1" d="M451.1,383.9l159.2-19l-0.1,46.1l-53.8,6.4L555.8,694l-51.5,6.1l0.5-276.6l-53.8,6.4L451.1,383.9z"/>
			<path class="st1" d="M681.8,356.4l-0.4,249c0,23.1,10.2,30.1,26.6,28.2c16.4-2,26.7-11.5,26.7-34.5l0.4-249l48.7-5.8l-0.4,245.7
				c-0.1,51.6-26.4,84.3-76.9,90.3c-50.6,6-76.7-20.4-76.6-72l0.4-245.7L681.8,356.4z"/>
			<path class="st1" d="M973.2,605.2l0.1-49.8c0-33.5-8.4-57-33.9-64.5c-0.1,0-0.1,0-0.2,0c0.5-0.3,1-0.6,1.5-0.9
				c21.9-13.5,32.2-36.1,32.3-68.6v-25.4c0.1-49.8-22.8-71.5-76.2-65.1l-77.7,9.3l-0.6,322.7v0l35.1-4.2l15.6-1.8l0.8-0.1l0.2-131.4
				l17.8-2.1c6.9-0.8,12.6-0.6,17.3,1c0.1,0,0.2,0.1,0.4,0.1c11,3.8,16,14.9,15.9,35.9l-0.1,50.7c-0.1,26.3,1.8,31.1,4.6,39.1l0.2,0
				l52.3-6.3C973.6,632.3,973.2,620.9,973.2,605.2z M870.2,479.2l0.2-99.1l24.8-3c0.9-0.1,1.7-0.2,2.6-0.2c1.3-0.1,2.5-0.1,3.6,0
				c13.9,0.6,20,10.1,20,30.4l-0.1,31.8c-0.1,25.8-11.8,35.5-31,37.8l-1,0.1L870.2,479.2z"/>
			<path class="st1" d="M1058.4,447.4l70.7-8.4l-0.1,46.1l-70.7,8.4l-0.2,94.5l88.9-10.6l-0.1,46.1l-140.4,16.7l0.6-322.7
				l140.4-16.7l-0.1,46.1l-88.9,10.6L1058.4,447.4z"/>
		</g>
	</g>
	<polygon class="st2" points="1155.4,244.1 1127.5,231.5 1101.4,247.3 1104.8,216.9 1081.7,196.9 1111.6,190.7 1123.5,162.6 
		1138.6,189.1 1169,191.7 1148.4,214.3 	"/>
	<polygon class="st2" points="994.6,81.5 966.8,68.9 940.6,84.7 944,54.3 920.9,34.3 950.8,28.1 962.7,0 977.8,26.5 1008.3,29.1 
		987.7,51.7 	"/>
	<polygon class="st2" points="662.8,136.2 634.9,123.7 608.8,139.5 612.2,109.1 589.1,89.1 619,82.9 630.9,54.8 646,81.3 
		676.4,83.9 655.8,106.5 	"/>
	<polygon class="st2" points="85.8,254.7 69.1,280.3 80.7,308.5 51.2,300.6 28,320.4 26.4,289.9 0.4,273.8 28.9,262.9 36.1,233.3 
		55.3,257 	"/>
	<polygon class="st2" points="221.2,75.8 204.5,101.4 216.2,129.6 186.7,121.7 163.4,141.5 161.8,111 135.8,95 164.4,84 171.6,54.4 
		190.8,78.1 	"/>
	<g>
		<g>
			<path class="st0" d="M138.2,1032.5C138.2,1032.5,138.2,1032.5,138.2,1032.5c-2.8-0.9-6-1.1-9.8-0.7c-3.3,0.4-6.2,1.3-8.8,2.5
				c-8.8,4.4-12.8,13.6-12.8,24.7v49.6c0,14.2,6.7,23.8,21.6,22c6.9-0.8,12.1-3.6,15.6-7.6c4.3-4.9,6.3-11.8,6.3-19.6v-49.7
				C150.3,1043.2,146.5,1035.1,138.2,1032.5z M113.3,1108.4v-50.6c0-8.9,3-16.2,10.4-19.1c1.4-0.5,3-0.9,4.7-1.1
				c11-1.3,15.4,5.9,15.4,16.5v50.6c0,5.5-1.2,10.5-4,14.1c-2.5,3.3-6.2,5.5-11.5,6.1c-1.1,0.1-2.1,0.2-3.1,0.1
				C116.7,1124.7,113.3,1117.9,113.3,1108.4z"/>
			<path class="st0" d="M256.7,1064.6v5.8l-25.5,3.1v44l-6.5,0.8V1021l37.5-4.5v5.8l-31,3.8v41.5L256.7,1064.6z"/>
			<path class="st0" d="M427.9,996.5v97.2l-6.5,0.8v-97.2L427.9,996.5z"/>
			<path class="st0" d="M508.8,1083.9l-5.9,0.7v-97.2l8.5-1l29.6,78.5v-82.1l5.9-0.7v97.2l-7.2,0.9l-30.9-83V1083.9z"/>
			<path class="st0" d="M665.3,989c-0.6-8.9-4.2-15.4-11.2-17.8c-2.9-1-6.4-1.3-10.6-0.8l-15.3,1.8l-6.4,0.8v97.2l21.7-2.6
				c7-0.8,12.2-3.5,15.7-7.6c4.2-4.8,6.2-11.5,6.2-19.2v-48.9C665.4,990.9,665.4,989.9,665.3,989z M628.2,978l6.5-0.8l8.6-1
				c10.8-1.3,15.5,5.5,15.5,16.2v49.5c0,5.5-1.2,10.2-3.8,13.7c-2.5,3.3-6.3,5.6-11.7,6.2l-15.1,1.8V978z"/>
			<path class="st0" d="M746.3,958v97.2l-6.5,0.8v-97.2L746.3,958z"/>
			<path class="st0" d="M867.1,1014.9l-1.2-5.4L852,949.9l-1.1-4.8l-3.8,0.4l-5.6,0.7l-21.6,100l5.9-0.7l1-4.3l3.9-17.8l5.5-0.7
				l25.3-3l4.9,20.9l6.5-0.8L867.1,1014.9z M831.7,1017.8l14.3-64.7l2.8,11.7l10.8,45.5l0.9,4L831.7,1017.8z"/>
			<path class="st0" d="M952.4,1030.2l-5.9,0.7v-97.2l8.5-1l29.6,78.5V929l5.9-0.7v97.2l-7.2,0.9l-30.9-83L952.4,1030.2
				L952.4,1030.2z"/>
			<path class="st0" d="M1111.2,985.3l-1.3-5.5l-13.8-59.6l-1.1-4.8l-3.9,0.5l-5.5,0.6l-21.6,100l5.9-0.7l0.9-4.2l4-17.9l5.5-0.7
				l25.3-3l4.9,20.9l6.5-0.8L1111.2,985.3z M1075.8,988.3l14.3-64.7l2.7,11.6l10.8,45.5l1,4.1L1075.8,988.3z"/>
		</g>
	</g>
	<g>
		<path class="st1" d="M117.4,793l31-3.7l-0.3,194.5l-31,3.7L117.4,793z"/>
		<path class="st1" d="M198.5,836.8l-0.2,140.8l-27.9,3.4l0.3-194.5l38.9-4.6l31.7,112.6l0.2-116.4l27.6-3.3l-0.3,194.5l-31.9,3.8
			L198.5,836.8z"/>
		<path class="st1" d="M319,822.5l-0.2,140.9l-27.9,3.3l0.3-194.5l38.9-4.6l31.7,112.6l0.2-116.4l27.6-3.3L389.3,955l-31.9,3.8
			L319,822.5z"/>
		<path class="st1" d="M456.4,750.4c-13.5,1.6-24.3,6.4-32.2,13.9l0,0c-9.8,9.5-15,23.3-15,40.6L409,906
			c-0.1,26.9,12.3,42.4,35.4,43.7c2.3,0.1,4.8,0.1,7.4,0c1.4-0.1,2.8-0.2,4.2-0.4c0.4,0,0.8-0.1,1.2-0.2c1.1-0.1,2.1-0.3,3.2-0.5
			c0.3-0.1,0.7-0.1,1-0.2c0.5-0.1,1-0.2,1.5-0.3c0.4-0.1,0.9-0.2,1.3-0.3c0.8-0.2,1.7-0.4,2.5-0.6c0.1,0,0.1,0,0.2,0
			c23.6-6.6,36.3-25.2,36.4-52.4l0.2-101.1C503.5,762.6,486.9,746.8,456.4,750.4z M466.3,917.4c-2.6,2.3-6.1,3.7-10.2,4.1
			c-9.8,1.1-16-3.4-16-17.3l0.2-105c0-13.9,6.2-19.9,16.1-21.1c0.2,0,0.5-0.1,0.7-0.1c9.4-0.8,15.3,3.8,15.3,17.4l-0.2,105
			c0,7.4-1.8,12.5-4.9,15.9C467,916.7,466.6,917.1,466.3,917.4z"/>
		<path class="st1" d="M569.8,897.6l24-161.5l28.5-3.4l-30.8,198.1l-46.3,5.5l-30.1-190.8l31.3-3.7L569.8,897.6z"/>
		<path class="st1" d="M698.4,723.8l-45.4,5.4l0,0.2l-31.9,198l2-0.2l26.5-3.2l5.4-35.9l38.1-4.5v0l5.3,34.6l0.9-0.1l30.4-3.6
			L698.4,723.8z M659,861.2l15.1-100.1l14.8,96.5L659,861.2z"/>
		<path class="st1" d="M724.7,720.5l95.9-11.4v27.8l-32.4,3.9l-0.3,166.7l-31,3.7l0.3-166.7l-32.4,3.9L724.7,720.5z"/>
		<path class="st1" d="M878.7,700.1c-12.9,1.5-23.4,6-31.1,13c-2.1,1.9-4,3.9-5.6,6.1c-0.6,0.8-1.2,1.6-1.7,2.5
			c-0.4,0.6-0.8,1.3-1.2,2c-0.2,0.3-0.4,0.7-0.6,1c-4.2,7.5-6.5,16.6-6.9,27.1c0,0.5,0,1,0,1.4c0,0.5,0,1,0,1.5l-0.2,101.1
			c-0.1,31.1,16.5,46.9,47,43.3c1.3-0.1,2.5-0.3,3.7-0.5c0,0,0.1,0,0.1,0c7.2-1.2,13.6-3.4,19.1-6.5c0,0,0,0,0,0
			c15.8-8.9,24.2-25.3,24.3-47.5l0.2-101.1C925.8,712.3,909.2,696.5,878.7,700.1z M862.3,853.9l0.2-105c0-13.9,6.2-19.9,16.1-21.1
			c0.2,0,0.5,0,0.7-0.1c9.4-0.8,15.3,3.8,15.3,17.4l-0.2,105c0,7.4-1.8,12.5-4.9,15.9c-0.3,0.4-0.7,0.7-1.1,1
			c-2.6,2.3-6.1,3.7-10.2,4.2C868.5,872.3,862.3,867.8,862.3,853.9z"/>
		<path class="st1" d="M1038.5,853.9l0.1-30c0.1-19.9-4.9-34-19.8-38.7c-0.1,0-0.1,0-0.2,0c-0.1,0-0.3-0.1-0.4-0.1c0,0-0.1,0-0.1,0
			c1.2-0.7,2.3-1.4,3.3-2.2c0,0,0,0,0,0c11.6-8.3,17-21.4,17-39.7v-15.3c0.1-30-13.7-43-45.9-39.2l-46.8,5.6v0.9l-0.3,193.6l0.5-0.1
			l30.5-3.6l0.1-79.2l10.7-1.3c5.6-0.7,10-0.2,13.2,1.9c4.9,3,7.1,9.5,7.1,20.4l-0.1,30.6c0,15.9,1.1,18.8,2.8,23.6l0.4,0l31.1-3.9
			C1038.8,870.3,1038.5,863.3,1038.5,853.9z M976.8,718.4L976.8,718.4l14.9-1.9c10.1-1.2,15,3.3,15.7,14.8c0.1,1,0.1,2.1,0.1,3.3
			v19.2c0,1,0,1.9-0.1,2.8c0,0.7-0.1,1.5-0.2,2.2c0,0.1,0,0.2,0,0.3c-0.3,2.2-0.7,4.1-1.4,5.8c-0.1,0.3-0.2,0.7-0.4,1
			c-0.4,0.8-0.8,1.6-1.2,2.4c0,0,0,0,0,0.1c-3.2,5.1-8.4,7.5-15.4,8.4l-12.1,1.4L976.8,718.4z"/>
		<path class="st1" d="M1100.9,673.5c30.2-3.6,45.7,12.3,45.6,43.4v6.1l-29.3,3.5v-8.1c0-13.9-5.6-18.5-15.5-17.3s-15.5,7.1-15.5,21
			c-0.1,40,60.6,40.3,60.5,95.8c-0.1,31.1-15.9,50.8-46.3,54.4c-30.5,3.6-46.2-12.3-46.2-43.4V817l29.3-3.5v13.9
			c0,13.9,6.2,18.1,16,17c9.9-1.2,16.1-6.9,16.1-20.8c0.1-40-60.6-40.3-60.5-95.8C1055.2,696.8,1070.8,677,1100.9,673.5z"/>
	</g>
	<path class="st1" d="M134.9,1026.9c-6.7,0.8-11.8,3.5-15.3,7.5c-4.3,4.9-6.3,11.8-6.3,19.7v49.6c0,10.7,3.8,18.7,12,21.3
		c2.7,0.9,5.9,1.1,9.6,0.7c3.5-0.4,6.5-1.3,9.1-2.6c8.9-4.4,12.8-13.6,12.8-24.6v-49.7C156.8,1034.7,150.1,1025.1,134.9,1026.9z
		 M150.3,1099.8c0,8.8-3.1,16.1-10.5,19c-1.5,0.6-3.1,1-5,1.2c-10.9,1.3-15.1-5.9-15.1-16.5v-50.6c0-5.6,1.2-10.5,3.9-14.2
		c2.4-3.2,6.1-5.4,11.2-6c1.2-0.1,2.3-0.2,3.3-0.1c0,0,0,0,0,0c8.6,0.4,12.1,7.2,12.1,16.6V1099.8z"/>
	<path class="st1" d="M263.2,1059.6v5.8l-25.5,3.1v44l-6.5,0.8V1016l37.5-4.5v5.8l-31,3.8v41.5L263.2,1059.6z"/>
	<path class="st1" d="M434.3,991.5v97.2l-6.5,0.8v-97.2L434.3,991.5z"/>
	<path class="st1" d="M515.3,1078.9l-5.9,0.7v-97.2l8.5-1l29.6,78.5v-82.1l5.9-0.7v97.2l-7.2,0.9l-30.9-83L515.3,1078.9
		L515.3,1078.9z"/>
	<path class="st1" d="M649.9,965.5l-21.7,2.6v97.2l21.7-2.6c3.6-0.4,6.7-1.3,9.3-2.7c8.7-4.3,12.6-13.2,12.6-24.1V987
		C671.8,972.7,665.1,963.7,649.9,965.5z M655,1055.6c-1.5,0.6-3.3,1.1-5.2,1.3l-15.1,1.8v-85.6l15.1-1.8c1.6-0.2,3-0.2,4.3-0.1
		c7.8,0.8,11.2,7.1,11.2,16.3v49.5C665.3,1045.8,662.2,1052.7,655,1055.6z"/>
	<path class="st1" d="M752.7,953v97.2l-6.5,0.8v-97.2L752.7,953z"/>
	<path class="st1" d="M857.4,940.2l-9.4,1.1l-0.9,4.3l-20.7,95.6l0.4,0l5.5-0.7l3.9-17.8l1-4.3l29.9-3.6l0.9-0.1l4.9,20.9l6.5-0.8
		L857.4,940.2z M859.6,1010.3l-21.3,2.6l10.6-48.1l3.2-14.8l0.4-1.8l14.6,61.2l-1.1,0.1L859.6,1010.3z"/>
	<path class="st1" d="M958.9,1025.4l-5.9,0.7v-97.2l8.5-1l29.6,78.5v-82.1l5.9-0.7v97.2l-7.2,0.9l-30.9-83L958.9,1025.4
		L958.9,1025.4z"/>
	<path class="st1" d="M1101.4,910.7l-9.4,1.1l-0.9,4.3l-20.7,95.7l0.4,0l5.5-0.7l4-17.9l0.9-4.2l30-3.6l0.8-0.1l4.9,20.9l6.5-0.8
		L1101.4,910.7z M1103.6,980.7l-21.4,2.6l10.6-48.1l3.3-14.8l0.4-1.8l14.5,61.2l-1.1,0.1L1103.6,980.7z"/>
	<g>
		<path class="st2" d="M1077,271.8c-0.5-0.4-1.3-0.4-1.7,0.1l-27.1,30.1c-0.4,0.5-0.4,1.3,0.1,1.7c0.2,0.2,0.5,0.3,0.8,0.3
			s0.7-0.1,0.9-0.4l27.1-30.1C1077.6,273,1077.5,272.3,1077,271.8z"/>
		<path class="st2" d="M925.3,123.4c-0.6-0.3-1.3,0-1.6,0.5L825,323.5c-0.3,0.6-0.1,1.3,0.5,1.6c0.2,0.1,0.4,0.1,0.5,0.1
			c0.4,0,0.9-0.2,1.1-0.7l98.7-199.6C926.2,124.5,925.9,123.7,925.3,123.4z"/>
		<path class="st2" d="M210.6,169c-0.3-0.6-1.1-0.8-1.6-0.4c-0.6,0.3-0.8,1.1-0.4,1.6L330.7,383c0.2,0.4,0.6,0.6,1,0.6
			c0.2,0,0.4-0.1,0.6-0.2c0.6-0.3,0.8-1.1,0.4-1.6L210.6,169z"/>
		<path class="st2" d="M631.7,162c-0.7-0.1-1.2,0.4-1.3,1.1l-14.8,187.3c-0.1,0.7,0.4,1.2,1.1,1.3h0.1c0.6,0,1.2-0.5,1.2-1.1
			l14.8-187.3C632.9,162.6,632.4,162,631.7,162z"/>
		<path class="st2" d="M93.5,323.2c-0.5-0.4-1.3-0.4-1.7,0.1c-0.4,0.5-0.4,1.3,0.1,1.7l91.8,78.4c0.2,0.2,0.5,0.3,0.8,0.3
			s0.7-0.1,0.9-0.4c0.4-0.5,0.4-1.3-0.1-1.7L93.5,323.2z"/>
	</g>
	<g>
		<path class="st2" d="M656.4,1143.1c0.1-0.2,0-0.2,0-0.2c0-0.3,0-0.7-0.2-1.1c0.3-0.5,0.5-1,0.4-1.6v-3c0-2.8-0.1-5.7-0.2-8.5v-5.9
			c0-0.4,0.1-1-0.1-1.6c0.1-0.5,0.1-0.9,0.1-1.2v-0.1c0-1.8-0.1-3.6-0.2-5.4v-0.5c0-0.5,0-1.1-0.2-1.8v-3.9c0-0.6,0.1-1.4-0.2-2.2
			c0.1-1.1,0-2.1,0-3.1c0-0.5-0.1-1-0.1-1.5s-0.2-1-0.6-1.3c-0.3-0.2-0.8-0.5-1.6-0.4l-0.6,0.1c-0.4,0-0.7,0.1-1.1,0.1
			c-0.8,0.1-1.6,0.2-2.4,0.3c-1.5,0.2-3,0.3-4.5,0.7l-4,0.5l-6.5,0.8c-0.8,0.1-1.7,0.2-2.5,0.3c-1,0.1-1.9,0.4-2.6,1l-0.8,0.6
			c-0.4,0.1-0.8,0.4-1.1,0.7c-1.5,0.8-2.2,0.7-2.8,0.3c-0.6-0.7-1.2-0.7-1.5-0.7c-0.4,0-1.1,0.3-1.5,1.3c-0.2,0.5-0.1,0.9-0.1,1.2
			v18c0,0.2,0,0.5-0.1,0.7c-0.1,0.6-0.2,1.4,0,2.2c-0.2,0.5-0.2,1-0.1,1.3v10.9c0,0.1,0,0.1,0,0.2c-0.4,0.3-0.6,0.7-0.8,1.2
			c-0.1,0.5-0.1,1,0,1.4c-0.4,0.4-0.6,0.9-0.7,1.4c-0.1,0.9,0.5,1.5,0.8,1.8c0,0.7,0.2,1.1,0.6,1.4c-0.2,1,0.1,1.8,0.4,2.3
			c-0.9,0.6-1.2,1.4-1.4,2c0,0.1-0.1,0.2-0.1,0.3c-0.2,0.4-0.3,0.7-0.4,1c-0.5,0.4-0.7,0.9-0.9,1.3l-0.1,0.3c-0.4,0.9-0.6,1.3-1,1.4
			c-0.8,0.3-1.5,1.1-1.7,2.1c-0.1,0.4-0.1,0.8,0.1,1.2c-0.2,0.2-0.3,0.5-0.3,0.8l-0.2,1.1c-0.2,0.9-0.4,1.7-0.5,2.6
			c-0.2,1,0.2,1.6,0.4,2c0.3,0.4,0.8,0.7,1.4,0.7c0.3,0.1,0.6,0.2,0.9,0.2c0.6,0,1.1-0.3,1.5-0.7c0.2-0.3,0.4-0.6,0.5-0.9
			c0.1,0,0.1,0,0.2,0c0.1,0.1,0.3,0.3,0.5,0.4c0.8,0.4,1.9,0.2,2.6-0.5c0.3-0.3,0.4-0.6,0.6-0.9c0.2-0.1,0.5-0.2,0.7-0.3
			c0.7,0.3,1.3,0.6,2,0.9c0.6,0.8,1.5,1,2.2,0.7c1.3-0.4,1.5-1.6,1.5-2v-0.1c0-0.1,0-0.1,0-0.2c0.1,0,0.1-0.1,0.2-0.1
			c0.2-0.1,0.5-0.2,0.8-0.4c0.2,0.3,0.5,0.5,0.8,0.6c0.1,0,0.2,0.1,0.3,0.1c0.3,0.3,0.7,0.5,1.1,0.6c0.6,0.1,1.2-0.1,1.6-0.4
			s0.5-0.7,0.6-1c0.3-0.2,0.6-0.4,0.8-0.8c0.2-0.3,0.3-0.7,0.3-1.3c0.2-0.1,0.4-0.2,0.5-0.4c0.1,0.1,0.1,0.1,0.2,0.2
			c0.4,0.3,1.1,0.7,2.3,0.6c0.6,0.3,1.4,0.3,2.3-0.1c0.5-0.2,1.6-0.8,1.8-2c0-0.3,0.1-0.5,0.1-0.8c0.1-0.8,0.2-1.3,0.5-1.7
			c0-0.1,0.1-0.1,0.1-0.2c1.7-0.4,2.2-0.9,2.6-2.8v-0.1c1.2-0.4,2.8-2.3,2.5-3.7c-0.1-0.3-0.1-0.5-0.2-0.8c1,0.8,2.3,0.6,3.3-0.4
			c0.5-0.6,1.2-1,1.9-1.1c0.6-0.1,1.8-0.4,2.2-2.2C656.8,1144.5,657,1143.8,656.4,1143.1z M653.5,1139.8c-0.9,1-1,1.7-0.9,2.3v1.4
			h0.1c0,0.3,0,0.5,0.1,0.7c-0.8,0.3-1.5,0.8-2.2,1.4c-1.5-0.7-3.4-0.1-4.4,1.1l-0.5,0.6l0.4,1.4c0.1,0.3,0.2,0.6,0.2,0.9
			c-0.1,0.1-0.2,0.3-0.3,0.4c-1.1,0.3-1.8,1.1-2.1,2.4c0,0.1-0.1,0.3-0.1,0.4c-0.1,0-0.3,0.1-0.5,0.1c-0.4,0.1-0.7,0.2-0.9,0.4
			l-0.8,0.4l-0.1,0.8c-0.7,1-0.8,2.1-0.9,3c0,0.1,0,0.1,0,0.2c-0.3-0.1-0.7-0.2-1-0.1c-0.2-1.7-1.5-1.9-2.1-1.9l-1.7-0.1v0.9
			c-0.4,0.1-1.1,0.2-1.5,1c-0.1,0.2-0.1,0.3-0.2,0.5l-0.6,0.5l-0.1,0.6c0,0.1,0,0.1,0,0.2c0,0.2-0.1,0.4-0.1,0.6h-0.1
			c-0.4-0.6-1-0.9-1.7-1c-0.7,0-1.3,0.3-1.6,0.8c-0.1,0.2-0.4,0.3-0.8,0.5c-0.4,0.2-0.8,0.4-1.2,0.7l-0.5,0.4l-0.1,0.3
			c-0.7-0.3-1.5-0.7-2.2-1c-0.5-0.2-1.2-0.2-1.7,0.1c-0.3-0.3-0.8-0.5-1.6-0.3l-1.7,0.4l0.3,0.9c-0.2,0-0.3,0.1-0.4,0.2
			c-0.2-0.2-0.5-0.3-0.9-0.4c0.5-0.4,0.9-0.9,0.9-1.5c0-0.3,0-0.6-0.1-1c1.3-0.7,1.8-2,2.1-2.9l0.1-0.3c0-0.1,0.1-0.1,0.1-0.2
			l0.2-0.1l0.3-0.4c0.4-0.5,0.4-1,0.5-1.3v-0.1c0.1-0.2,0.2-0.4,0.3-0.6c0.2-0.5,0.2-0.5,0.3-0.5c1.1-0.5,1.3-1.5,1.4-2.1
			c0-0.1,0-0.2,0.1-0.3l0.2-0.6l-0.2-0.5c-0.1-0.2-0.2-0.4-0.3-0.5c0-0.1-0.1-0.2-0.1-0.3c0.3-0.5,0.4-1.1,0.2-1.6
			c-0.1-0.5-0.4-0.8-0.7-1.1c0-0.3-0.1-0.7-0.3-1l-0.1-0.1c0.6-0.8,0.5-1.5,0.3-2.1c0.7-0.8,0.7-1.7,0.6-2.1v-11.2c0,0,0,0,0-0.1
			l0.2-0.3v-1.3l-0.1-0.3c-0.1-0.2,0-0.6,0-1c0-0.3,0.1-0.7,0.1-1.1v-16.4c1.9,0.3,3.6-0.6,4.4-1l0.3-0.2l0.2-0.2l0.3-0.1l1-0.7
			l0.3-0.3c0.3-0.2,0.5-0.4,0.9-0.4c0.9-0.1,1.7-0.2,2.6-0.3l6.5-0.8l4.1-0.6h0.2c1.4-0.3,2.8-0.5,4.2-0.7c0.8-0.1,1.7-0.2,2.5-0.3
			c0.1,0,0.2,0,0.2,0c0.1,0.5,0.1,1,0.1,1.5s0,1-0.1,1.4v0.6l0.1,0.3c0.1,0.3,0.1,0.7,0.1,1.2v4.7l0.1,0.3v1.4
			c0.1,1.8,0.1,3.6,0.2,5.4v0.3l-0.2,0.2v1.4l0.2,0.3v6.5c0.2,2.8,0.2,5.7,0.2,8.4V1139.8z"/>
		<path class="st2" d="M598.2,1136.1l-491.7,59.6c-0.9,0.1-1.5,0.9-1.4,1.8c0.1,0.8,0.8,1.4,1.6,1.4c0.1,0,0.1,0,0.2,0l491.7-59.6
			c0.9-0.1,1.5-0.9,1.4-1.8C599.9,1136.6,599.1,1135.9,598.2,1136.1z"/>
		<path class="st2" d="M1126.3,1074.1c-0.1-0.9-0.9-1.5-1.8-1.4l-451.2,54.3c-0.9,0.1-1.5,0.9-1.4,1.8c0.1,0.8,0.8,1.4,1.6,1.4
			c0.1,0,0.1,0,0.2,0l451.2-54.3C1125.8,1075.8,1126.4,1074.9,1126.3,1074.1z"/>
	</g>
</g>
</svg>
