<?xml version="1.0" encoding="utf-8"?>
<!-- Generator: Adobe Illustrator 21.1.0, SVG Export Plug-In . SVG Version: 6.00 Build 0)  -->
<svg version="1.1" id="Layer_1" xmlns="http://www.w3.org/2000/svg" xmlns:xlink="http://www.w3.org/1999/xlink" x="0px" y="0px"
	 viewBox="0 0 1233.1 1198.9" style="enable-background:new 0 0 1233.1 1198.9;" xml:space="preserve">
<style type="text/css">
	.st0{fill:#FFFFFF;}
	.st1{fill:#0071ED;}
</style>
<g>
	<polygon class="st0" points="1155,244.1 1127.1,231.5 1101,247.3 1104.4,216.9 1081.3,196.9 1111.2,190.7 1123.1,162.6 
		1138.2,189.1 1168.6,191.7 1148,214.3 	"/>
	<polygon class="st0" points="994.2,81.5 966.4,68.9 940.2,84.7 943.6,54.3 920.5,34.3 950.4,28.1 962.3,0 977.4,26.5 1007.9,29.1 
		987.3,51.7 	"/>
	<polygon class="st0" points="662.4,136.2 634.5,123.7 608.4,139.5 611.8,109.1 588.7,89.1 618.6,82.9 630.5,54.8 645.6,81.3 
		676,83.9 655.4,106.5 	"/>
	<polygon class="st0" points="85.4,254.7 68.7,280.3 80.3,308.5 50.8,300.6 27.6,320.4 26,289.9 0,273.8 28.5,262.9 35.7,233.3 
		54.9,257 	"/>
	<polygon class="st0" points="220.8,75.8 204.1,101.4 215.8,129.6 186.3,121.7 163,141.5 161.4,111 135.4,95 164,84 171.2,54.4 
		190.4,78.1 	"/>
	<g>
		<g>
			<path class="st0" d="M106.4,1059c0-14.2,6.6-25.4,21.6-27.2c15.2-1.8,21.9,7.8,21.9,21.9v49.7c0,14.2-6.6,25.4-21.9,27.2
				c-14.9,1.8-21.6-7.8-21.6-22V1059z M112.9,1108.3c0,10.6,4.2,17.8,15.1,16.5c11-1.3,15.4-9.6,15.4-20.2v-50.6
				c0-10.6-4.4-17.8-15.4-16.5c-10.9,1.3-15.1,9.6-15.1,20.2V1108.3z"/>
			<path class="st0" d="M256.3,1064.5v5.8l-25.5,3.1v44l-6.5,0.8V1021l37.5-4.5v5.8l-31,3.8v41.5L256.3,1064.5z"/>
			<path class="st0" d="M427.5,996.4v97.2l-6.5,0.8v-97.2L427.5,996.4z"/>
			<path class="st0" d="M508.4,1083.8l-5.9,0.7v-97.2l8.5-1l29.6,78.5v-82.1l5.9-0.7v97.2l-7.2,0.9l-30.9-83V1083.8z"/>
			<path class="st0" d="M643.1,970.3c15.2-1.8,21.9,7.2,21.9,21.5v48.9c0,14.3-6.6,25-21.9,26.8l-21.7,2.6v-97.2L643.1,970.3z
				 M642.9,1061.7c11-1.3,15.5-9.2,15.5-19.9v-49.5c0-10.7-4.7-17.5-15.5-16.2l-15.1,1.8v85.6L642.9,1061.7z"/>
			<path class="st0" d="M745.9,957.9v97.2l-6.5,0.8v-97.2L745.9,957.9z"/>
			<path class="st0" d="M830.3,1023.4l-4.9,22.1l-5.9,0.7l21.6-100l9.4-1.1l22,94.7l-6.5,0.8l-4.9-20.9L830.3,1023.4z M831.3,1017.7
				l28.8-3.5L845.6,953L831.3,1017.7z"/>
			<path class="st0" d="M952,1030.2l-5.9,0.7v-97.2l8.5-1l29.6,78.5V929l5.9-0.7v97.2l-7.2,0.9l-30.9-83V1030.2z"/>
			<path class="st0" d="M1074.4,993.8l-4.9,22.1l-5.9,0.7l21.6-100l9.4-1.1l22,94.7l-6.5,0.8l-4.9-20.9L1074.4,993.8z M1075.4,988.2
				l28.8-3.5l-14.5-61.2L1075.4,988.2z"/>
		</g>
	</g>
	<path class="st0" d="M589.1,932.1l0.5-0.1l0.1-0.4l0.5-0.1l0.1-0.4l0.5-0.1L621.6,733l-28.5,3.4l-0.1,0.4l-0.6,0.1l-0.1,0.4
		l-0.6,0.1l-0.1,0.4l-0.6,0.1l-0.1,0.4l-0.6,0.1l-0.1,0.4l-0.6,0.1l-0.1,0.4l-0.6,0.1l-0.1,0.4l-0.6,0.1l-0.1,0.4l-0.6,0.1l-0.1,0.4
		l-0.6,0.1l-0.1,0.4l-0.6,0.1l-0.1,0.4l-0.6,0.1l-0.1,0.4l-0.6,0.1l-0.1,0.4l-0.6,0.1l-0.1,0.4l-0.6,0.1l-0.1,0.4l-0.6,0.1l-0.1,0.4
		l-0.6,0.1l-0.1,0.4l-0.6,0.1l-0.1,0.4l-0.6,0.1l-0.1,0.4l-0.6,0.1l-0.1,0.4l-0.6,0.1l-0.1,0.4l-0.6,0.1l-0.1,0.4l-0.6,0.1l-0.1,0.4
		l-0.6,0.1l-0.1,0.4l-0.6,0.1l-0.1,0.4l-0.6,0.1l-0.1,0.4l-0.6,0.1l-0.1,0.4l-0.6,0.1l-0.1,0.4l-0.6,0.1l-0.1,0.4l-0.6,0.1l-0.1,0.4
		l-0.6,0.1l-0.1,0.4l-0.6,0.1l-0.1,0.4l-0.6,0.1l-0.1,0.4l-0.6,0.1l-0.1,0.4l-0.6,0.1l-0.1,0.4l-0.6,0.1l-0.1,0.4l-0.6,0.1l-0.1,0.4
		l-0.6,0.1l-0.1,0.4l-0.6,0.1l-0.1,0.4l-0.6,0.1l-0.1,0.4l-0.6,0.1l-0.1,0.4l-0.6,0.1l-0.1,0.4l-0.6,0.1l-0.1,0.4l-0.6,0.1l-0.1,0.4
		l-0.6,0.1l-0.1,0.4l-0.6,0.1l-0.1,0.4l-0.6,0.1l-0.1,0.4l-0.6,0.1l-0.1,0.4l-0.6,0.1l-0.1,0.4l-0.6,0.1l-0.1,0.4l-0.6,0.1l-0.1,0.4
		l-0.6,0.1l-6.2,42.5l-9.4-62.4l-31.3,3.7l0.1,0.4l-0.7,0.1l0.1,0.4l-0.7,0.1l0.1,0.4l-0.7,0.1l0.1,0.4l-0.7,0.1l0.1,0.4l-0.7,0.1
		l0.1,0.4l-0.7,0.1l0.1,0.4l-0.7,0.1l0.1,0.4l-0.7,0.1l0.1,0.4l-0.7,0.1l0.1,0.4l-0.7,0.1l0.1,0.4l-0.7,0.1l0.1,0.4l-0.7,0.1
		l0.1,0.4l-0.7,0.1l0.1,0.4l-0.7,0.1l0.1,0.4l-0.7,0.1l0.1,0.4l-0.7,0.1l0.1,0.4l-0.7,0.1l0.1,0.4l-0.7,0.1l0.1,0.4l-0.7,0.1
		l0.1,0.4l-0.7,0.1l0.1,0.4l-0.7,0.1l0.1,0.4l-0.7,0.1l0.1,0.4l-0.7,0.1l0.1,0.4l-0.7,0.1l0.1,0.4l-0.7,0.1l0.1,0.4l-0.7,0.1
		l0.1,0.4l-0.7,0.1l0.1,0.4l-0.7,0.1l0.1,0.4l-0.7,0.1l0.1,0.4l-0.7,0.1l0.1,0.4l-0.7,0.1l0.1,0.4l-0.7,0.1l0.1,0.4l-0.7,0.1
		l0.1,0.4c-7.8-9.9-20.7-14.3-38.2-12.2c-11.7,1.4-21.3,5.2-28.8,11c-0.2,0.2-0.4,0.3-0.6,0.5c-0.2,0.2-0.4,0.3-0.6,0.5
		c-0.2,0.2-0.4,0.3-0.6,0.5c-0.2,0.2-0.4,0.3-0.6,0.5c-0.2,0.2-0.4,0.3-0.6,0.5c-0.2,0.2-0.4,0.3-0.6,0.5c-0.2,0.2-0.4,0.3-0.6,0.5
		c-0.2,0.2-0.4,0.3-0.6,0.5c-0.2,0.2-0.4,0.3-0.6,0.5c-0.2,0.2-0.4,0.3-0.6,0.5c-0.2,0.2-0.4,0.3-0.6,0.5c-0.2,0.2-0.4,0.3-0.6,0.5
		c-0.2,0.2-0.4,0.3-0.6,0.5c-0.2,0.2-0.4,0.3-0.6,0.5c-0.2,0.2-0.4,0.3-0.6,0.5c-0.2,0.2-0.4,0.3-0.6,0.5c-0.2,0.2-0.4,0.3-0.6,0.5
		c-0.2,0.2-0.4,0.3-0.6,0.5c-0.2,0.2-0.4,0.3-0.6,0.5c-0.2,0.2-0.4,0.3-0.6,0.5c-0.2,0.2-0.4,0.3-0.6,0.5c-0.2,0.2-0.4,0.3-0.6,0.5
		c-0.2,0.2-0.4,0.3-0.6,0.5c-0.2,0.2-0.4,0.3-0.6,0.5c-0.2,0.2-0.4,0.3-0.6,0.5c-0.2,0.2-0.4,0.3-0.6,0.5c-0.2,0.2-0.4,0.3-0.6,0.5
		c-0.2,0.2-0.4,0.3-0.6,0.5c-0.2,0.2-0.4,0.3-0.6,0.5c-0.2,0.2-0.4,0.3-0.6,0.5c-0.2,0.2-0.4,0.3-0.6,0.5c-0.2,0.2-0.4,0.3-0.6,0.5
		c-0.2,0.2-0.4,0.3-0.6,0.5c-0.2,0.2-0.4,0.3-0.6,0.5c-0.2,0.2-0.4,0.3-0.6,0.5c-0.2,0.2-0.4,0.3-0.6,0.5c-0.2,0.2-0.4,0.3-0.6,0.5
		c-0.2,0.2-0.4,0.3-0.6,0.5c-0.2,0.2-0.4,0.3-0.6,0.5c-0.2,0.2-0.4,0.3-0.6,0.5c-0.2,0.2-0.4,0.3-0.6,0.5c-0.2,0.2-0.4,0.3-0.6,0.5
		c-0.2,0.2-0.4,0.3-0.6,0.5c-0.2,0.2-0.4,0.3-0.6,0.5c-0.2,0.2-0.4,0.3-0.6,0.5c-0.2,0.2-0.4,0.3-0.6,0.5c-0.2,0.2-0.4,0.3-0.6,0.5
		c-0.2,0.2-0.4,0.3-0.6,0.5c-0.2,0.2-0.4,0.3-0.6,0.5c-0.2,0.2-0.4,0.3-0.6,0.5c-2.6,2-4.9,4.2-7,6.7l0.1-32.8l-27.6,3.3l0,0.4
		l-0.6,0.1l0,0.4l-0.6,0.1l0,0.4l-0.6,0.1v0.4l-0.6,0.1l0,0.4l-0.6,0.1v0.4l-0.6,0.1l0,0.4l-0.6,0.1v0.4l-0.6,0.1l0,0.4l-0.6,0.1
		v0.4l-0.6,0.1l0,0.4l-0.6,0.1v0.4l-0.6,0.1l0,0.4l-0.6,0.1v0.4l-0.6,0.1l0,0.4l-0.6,0.1v0.4l-0.6,0.1l0,0.4l-0.6,0.1l0,0.4
		l-0.6,0.1v0.4l-0.6,0.1l0,0.4l-0.6,0.1v0.4l-0.6,0.1l0,0.4l-0.6,0.1v0.4l-0.6,0.1l0,0.4l-0.6,0.1v0.4l-0.6,0.1l0,0.4l-0.6,0.1v0.4
		l-0.6,0.1l0,0.4l-0.6,0.1v0.4l-0.6,0.1l0,0.4l-0.6,0.1v0.4l-0.6,0.1l0,0.4l-0.6,0.1v0.4l-0.6,0.1l0,0.4l-0.6,0.1v0.4l-0.6,0.1
		l0,0.4l-0.6,0.1v0.4l-0.6,0.1l0,0.4l-0.6,0.1v0.4l-0.6,0.1v0.4l-0.6,0.1v0.4l-0.6,0.1v0.4l-0.6,0.1v0.4l-0.6,0.1v0.2l-5.1-18.2
		l-38.9,4.6v0.4l-0.6,0.1l0,0.4l-0.6,0.1l0,0.4l-0.6,0.1l0,0.4l-0.6,0.1l0,0.4l-0.6,0.1l0,0.4l-0.6,0.1l0,0.4l-0.6,0.1v0.4l-0.6,0.1
		l0,0.4l-0.6,0.1l0,0.4l-0.6,0.1v0.4l-0.6,0.1v0.4l-0.6,0.1l0,0.4l-0.6,0.1l0,0.4l-0.6,0.1v0.4l-0.6,0.1l0,0.4l-0.6,0.1l0,0.4
		l-0.6,0.1v0.4l-0.6,0.1v0.4l-0.6,0.1l0,0.4l-0.6,0.1v0.4l-0.6,0.1v0.4l-0.6,0.1l0,0.4l-0.6,0.1l0,0.4l-0.6,0.1v0.4l-0.6,0.1l0,0.4
		l-0.6,0.1l0,0.4l-0.6,0.1v0.4l-0.6,0.1v0.4l-0.6,0.1l0,0.4l-0.6,0.1v0.4l-0.6,0.1v0.4l-0.6,0.1l0,0.4l-0.6,0.1l0,0.4l-0.6,0.1v0.4
		l-0.6,0.1l0,0.4l-0.3,0l0-15.7l-27.6,3.3l0,0.4l-0.6,0.1l0,0.4l-0.6,0.1l0,0.4l-0.6,0.1v0.4l-0.6,0.1l0,0.4l-0.6,0.1l0,0.4
		l-0.6,0.1l0,0.4l-0.6,0.1l0,0.4l-0.6,0.1l0,0.4l-0.6,0.1v0.4l-0.6,0.1l0,0.4L234,784v0.4l-0.6,0.1l0,0.4l-0.6,0.1l0,0.4l-0.6,0.1
		l0,0.4l-0.6,0.1v0.4l-0.6,0.1v0.4l-0.6,0.1l0,0.4l-0.6,0.1l0,0.4l-0.6,0.1l0,0.4l-0.6,0.1v0.4l-0.6,0.1v0.4l-0.6,0.1v0.4l-0.6,0.1
		l0,0.4l-0.6,0.1l0,0.4l-0.6,0.1l0,0.4l-0.6,0.1v0.4l-0.6,0.1v0.4l-0.6,0.1v0.4l-0.6,0.1l0,0.4l-0.6,0.1l0,0.4l-0.6,0.1l0,0.4
		l-0.6,0.1v0.4l-0.6,0.1v0.4l-0.6,0.1v0.4l-0.6,0.1l0,0.4l-0.6,0.1l0,0.4l-0.6,0.1l0,0.4l-0.6,0.1v0.4l-0.6,0.1v0.4l-0.6,0.1v0.4
		l-0.6,0.1v0.4l-0.6,0.1v0.4l-0.6,0.1v0.1l-5.1-18.3l-38.9,4.6l0,0.4l-0.6,0.1l0,0.4l-0.6,0.1l0,0.4l-0.6,0.1l0,0.4l-0.6,0.1l0,0.4
		l-0.6,0.1l0,0.4l-0.6,0.1l0,0.4l-0.6,0.1l0,0.4l-0.6,0.1l0,0.4l-0.6,0.1l0,0.4l-0.6,0.1l0,0.4l-0.6,0.1l0,0.4l-0.6,0.1l0,0.4
		l-0.6,0.1l0,0.4l-0.6,0.1l0,0.4l-0.6,0.1l0,0.4l-0.6,0.1l0,0.4l-0.6,0.1l0,0.4l-0.6,0.1l0,0.4l-0.6,0.1l0,0.4l-0.6,0.1l0,0.4
		l-0.6,0.1l0,0.4l-0.6,0.1l0,0.4l-0.6,0.1l0,0.4l-0.6,0.1l0,0.4l-0.6,0.1l0,0.4l-0.6,0.1l0,0.4l-0.6,0.1l0,0.4l-0.6,0.1l0,0.4
		l-0.6,0.1l0,0.4l-0.6,0.1l0,0.4l-0.6,0.1l0,0.4l-0.6,0.1l0,0.4l-0.6,0.1l0,0.4l-0.6,0.1l0,0.4l-0.6,0.1l0,0.4l-0.6,0.1l0-15.8
		l-31,3.7l0,0.4l-0.6,0.1l0,0.4l-0.6,0.1l0,0.4l-0.6,0.1l0,0.4l-0.6,0.1l0,0.4l-0.6,0.1v0.4l-0.6,0.1l0,0.4l-0.6,0.1l0,0.4l-0.6,0.1
		l0,0.4l-0.6,0.1l0,0.4l-0.6,0.1l0,0.4l-0.6,0.1v0.4l-0.6,0.1v0.4l-0.6,0.1l0,0.4l-0.6,0.1l0,0.4l-0.6,0.1l0,0.4l-0.6,0.1l0,0.4
		l-0.6,0.1v0.4l-0.6,0.1v0.4L105,803v0.4l-0.6,0.1l0,0.4l-0.6,0.1l0,0.4l-0.6,0.1l0,0.4l-0.6,0.1v0.4l-0.6,0.1v0.4l-0.6,0.1v0.4
		l-0.6,0.1v0.4l-0.6,0.1l0,0.4l-0.6,0.1l0,0.4l-0.6,0.1l0,0.4l-0.6,0.1v0.4l-0.6,0.1v0.4l-0.6,0.1v0.4l-0.6,0.1v0.4l-0.6,0.1l0,0.4
		l-0.6,0.1l0,0.4l-0.6,0.1l0,0.4l-0.6,0.1v0.4l-0.6,0.1v0.4l-0.6,0.1v0.4l-0.6,0.1v0.4l-0.6,0.1v0.4l-0.6,0.1v0.4l-0.6,0.1v0.4
		l-0.6,0.1v0.4l-0.6,0.1v0.4l-0.6,0.1v0.4l-0.6,0.1v0.4l-0.6,0.1v0.4l-0.6,0.1v0.4l-0.6,0.1v0.4l-0.6,0.1v194.5l31-3.7v-0.4l0.6-0.1
		v-0.4l0.6-0.1v-0.4l0.6-0.1v-0.4l0.6-0.1v-0.4l0.6-0.1v-0.4l0.6-0.1v-0.4l0.6-0.1v-0.4l0.6-0.1v-0.4l0.6-0.1v-0.4l0.6-0.1v-0.4
		l0.6-0.1v-0.4l0.6-0.1v-0.4l0.6-0.1v-0.4l0.6-0.1v-0.4l0.6-0.1l0-0.4l0.6-0.1l0-0.4l0.6-0.1v-0.4l0.6-0.1v-0.4l0.6-0.1l0-0.4
		l0.6-0.1l0-0.4l0.6-0.1l0-0.4l0.6-0.1v-0.4l0.6-0.1v-0.4l0.6-0.1l0-0.4l0.6-0.1l0-0.4l0.6-0.1v-0.4l0.6-0.1v-0.4l0.6-0.1l0-0.4
		l0.6-0.1l0-0.4l0.6-0.1v-0.4l0.6-0.1v-0.4l0.6-0.1l0-0.4l0.6-0.1l0-0.4l0.6-0.1l0-0.4l0.6-0.1v-0.4l0.6-0.1v-0.4l0.1,0v16.3
		l27.9-3.4v-0.4l0.6-0.1v-0.4l0.6-0.1v-0.4l0.6-0.1v-0.4l0.6-0.1v-0.4l0.6-0.1v-0.4l0.6-0.1v-0.4l0.6-0.1v-0.4l0.6-0.1v-0.4l0.6-0.1
		v-0.4l0.6-0.1v-0.4l0.6-0.1V998l0.6-0.1v-0.4l0.6-0.1V997l0.6-0.1l0-0.4l0.6-0.1l0-0.4l0.6-0.1l0-0.4l0.6-0.1l0-0.4l0.6-0.1l0-0.4
		l0.6-0.1v-0.4l0.6-0.1v-0.4l0.6-0.1v-0.4l0.6-0.1v-0.4l0.6-0.1v-0.4l0.6-0.1l0-0.4l0.6-0.1l0-0.4l0.6-0.1l0-0.4l0.6-0.1l0-0.4
		l0.6-0.1l0-0.4l0.6-0.1v-0.4l0.6-0.1v-0.4l0.6-0.1v-0.4l0.6-0.1v-0.4l0.6-0.1l0-0.4l0.6-0.1l0-0.4l0.6-0.1l0-0.4l0.6-0.1l0-0.4
		l0.6-0.1l0-0.4l0.6-0.1v-0.4l0.6-0.1v-0.4l0.6-0.1l0-0.4l0.6-0.1v-0.4l0.6-0.1v-0.4l0.6-0.1l0-0.4l0.6-0.1l0-0.4l0.6-0.1l0-0.4
		l0.6-0.1l0-0.4l0.6-0.1l0-0.4l0.6-0.1l0-0.4l0.6-0.1l0-0.4l0.6-0.1l0-0.4l0.6-0.1l0-4.1l7.3,25.6l31.9-3.9v-0.4l0.6-0.1v-0.4
		l0.6-0.1v-0.4l0.6-0.1v-0.4l0.6-0.1v-0.4l0.6-0.1v-0.4l0.6-0.1v-0.4l0.6-0.1v-0.4l0.6-0.1v-0.4l0.6-0.1v-0.4l0.6-0.1v-0.4l0.6-0.1
		v-0.4l0.6-0.1V989l0.6-0.1v-0.4l0.6-0.1V988l0.6-0.1l0-0.4l0.6-0.1l0-0.4l0.6-0.1l0-0.4l0.6-0.1l0-0.4l0.6-0.1l0-0.4l0.6-0.1l0-0.4
		l0.6-0.1v-0.4l0.6-0.1v-0.4l0.6-0.1v-0.4l0.6-0.1v-0.4l0.6-0.1v-0.4l0.6-0.1v-0.4l0.6-0.1l0-0.4l0.6-0.1l0-0.4l0.6-0.1l0-0.4
		l0.6-0.1l0-0.4l0.6-0.1l0-0.4l0.6-0.1l0-0.4l0.6-0.1l0-0.4l0.6-0.1v-0.4l0.6-0.1v-0.4l0.5-0.1v15.7l27.9-3.4v-0.4l0.6-0.1v-0.4
		l0.6-0.1v-0.4l0.6-0.1v-0.4l0.6-0.1v-0.4l0.6-0.1v-0.4l0.6-0.1v-0.4l0.6-0.1v-0.4l0.6-0.1v-0.4l0.6-0.1v-0.4l0.6-0.1V984l0.6-0.1
		v-0.4l0.6-0.1V983l0.6-0.1v-0.4l0.6-0.1V982l0.6-0.1v-0.4l0.6-0.1l0-0.4l0.6-0.1l0-0.4l0.6-0.1V980l0.6-0.1v-0.4l0.6-0.1l0-0.4
		l0.6-0.1l0-0.4l0.6-0.1l0-0.4l0.6-0.1v-0.4l0.6-0.1v-0.4l0.6-0.1l0-0.4l0.6-0.1l0-0.4l0.6-0.1l0-0.4l0.6-0.1v-0.4l0.6-0.1v-0.4
		l0.6-0.1l0-0.4l0.6-0.1l0-0.4l0.6-0.1v-0.4l0.6-0.1v-0.4l0.6-0.1v-0.4l0.6-0.1l0-0.4l0.6-0.1l0-0.4l0.6-0.1v-0.4l0.6-0.1v-0.4
		l0.6-0.1v-0.4l0.6-0.1l0-0.4l0.6-0.1l0-0.4l0.6-0.1v-0.4l0.6-0.1l0-0.4l0.6-0.1l0-0.4l0.6-0.1l0-0.4l0.6-0.1l0-0.4l0.6-0.1v-0.4
		l0.6-0.1l0-0.4l0.6-0.1l0-0.4l0.6-0.1l0-0.4l0.6-0.1l0-4.2l7.2,25.5l31.9-3.9v-0.4l0.6-0.1v-0.4l0.6-0.1v-0.4l0.6-0.1v-0.4l0.6-0.1
		v-0.4l0.6-0.1v-0.4l0.6-0.1v-0.4l0.6-0.1v-0.4l0.6-0.1v-0.4l0.6-0.1V976l0.6-0.1v-0.4l0.6-0.1V975l0.6-0.1v-0.4l0.6-0.1V974
		l0.6-0.1l0-0.4l0.6-0.1V973l0.6-0.1l0-0.4l0.6-0.1l0-0.4l0.6-0.1v-0.4l0.6-0.1l0-0.4l0.6-0.1v-0.4l0.6-0.1l0-0.4l0.6-0.1l0-0.4
		l0.6-0.1v-0.4l0.6-0.1l0-0.4l0.6-0.1v-0.4l0.6-0.1v-0.4l0.6-0.1l0-0.4l0.6-0.1v-0.4l0.6-0.1l0-0.4l0.6-0.1v-0.4l0.6-0.1v-0.4
		l0.6-0.1l0-0.4l0.6-0.1v-0.4l0.6-0.1l0-0.4l0.6-0.1l0-0.4l0.6-0.1v-0.4l0.6-0.1l0-0.4l0.6-0.1v-0.4l0.6-0.1l0-0.4l0.6-0.1l0-0.4
		l0.6-0.1l0-0.4l0.6-0.1l0-0.4l0.2,0c7.4,12.6,21.2,18.3,40.8,15.9c11.7-1.4,21.3-5.2,28.8-11.1c0.2-0.2,0.4-0.3,0.6-0.5
		c0.2-0.2,0.4-0.3,0.6-0.5c0.2-0.2,0.4-0.3,0.6-0.5c0.2-0.2,0.4-0.3,0.6-0.5c0.2-0.2,0.4-0.3,0.6-0.5c0.2-0.2,0.4-0.3,0.6-0.5
		c0.2-0.2,0.4-0.3,0.6-0.5c0.2-0.2,0.4-0.3,0.6-0.5c0.2-0.2,0.4-0.3,0.6-0.5c0.2-0.2,0.4-0.3,0.6-0.5c0.2-0.2,0.4-0.3,0.6-0.5
		c0.2-0.2,0.4-0.3,0.6-0.5c0.2-0.2,0.4-0.3,0.6-0.5c0.2-0.2,0.4-0.3,0.6-0.5c0.2-0.2,0.4-0.3,0.6-0.5c0.2-0.2,0.4-0.3,0.6-0.5
		c0.2-0.2,0.4-0.3,0.6-0.5c0.2-0.2,0.4-0.3,0.6-0.5c0.2-0.2,0.4-0.3,0.6-0.5c0.2-0.2,0.4-0.3,0.6-0.5c0.2-0.2,0.4-0.3,0.6-0.5
		c0.2-0.2,0.4-0.3,0.6-0.5c0.2-0.2,0.4-0.3,0.6-0.5c0.2-0.2,0.4-0.3,0.6-0.5c0.2-0.2,0.4-0.3,0.6-0.5c0.2-0.2,0.4-0.3,0.6-0.5
		c0.2-0.2,0.4-0.3,0.6-0.5c0.2-0.2,0.4-0.3,0.6-0.5c0.2-0.2,0.4-0.3,0.6-0.5c0.2-0.2,0.4-0.3,0.6-0.5c0.2-0.2,0.4-0.3,0.6-0.5
		c0.2-0.2,0.4-0.3,0.6-0.5c0.2-0.2,0.4-0.3,0.6-0.5c0.2-0.2,0.4-0.3,0.6-0.5c0.2-0.2,0.4-0.3,0.6-0.5c0.2-0.2,0.4-0.3,0.6-0.5
		c0.2-0.2,0.4-0.3,0.6-0.5c0.2-0.2,0.4-0.3,0.6-0.5c0.2-0.2,0.4-0.3,0.6-0.5c0.2-0.2,0.4-0.3,0.6-0.5c0.2-0.2,0.4-0.3,0.6-0.5
		c0.2-0.2,0.4-0.3,0.6-0.5c0.2-0.2,0.4-0.3,0.6-0.5c0.2-0.2,0.4-0.3,0.6-0.5c0.2-0.2,0.4-0.3,0.6-0.5c0.2-0.2,0.4-0.3,0.6-0.5
		c0.2-0.2,0.4-0.3,0.6-0.5c0.2-0.2,0.4-0.3,0.6-0.5c0.2-0.2,0.4-0.3,0.6-0.5c0.2-0.2,0.4-0.3,0.6-0.5c12.2-9.2,18.7-23.9,19-43
		l10.6,66.3l46.2-5.6l0.1-0.4l0.5-0.1l0.1-0.4l0.5-0.1l0.1-0.4l0.5-0.1l0.1-0.4l0.5-0.1l0.1-0.4l0.5-0.1l0.1-0.4l0.5-0.1l0.1-0.4
		l0.5-0.1l0.1-0.4l0.5-0.1l0.1-0.4l0.5-0.1l0.1-0.4l0.5-0.1l0.1-0.4l0.5-0.1l0.1-0.4l0.5-0.1l0.1-0.4l0.5-0.1l0.1-0.4l0.5-0.1
		l0.1-0.4l0.5-0.1l0.1-0.4l0.5-0.1l0.1-0.4l0.5-0.1l0.1-0.4l0.5-0.1l0.1-0.4l0.5-0.1l0.1-0.4l0.5-0.1l0.1-0.4l0.5-0.1l0.1-0.4
		l0.5-0.1l0.1-0.4l0.5-0.1l0.1-0.4l0.5-0.1l0.1-0.4l0.5-0.1l0.1-0.4l0.5-0.1l0.1-0.4l0.5-0.1l0.1-0.4l0.5-0.1l0.1-0.4l0.5-0.1
		l0.1-0.4l0.5-0.1l0.1-0.4l0.5-0.1l0.1-0.4l0.5-0.1l0.1-0.4l0.5-0.1l0.1-0.4l0.5-0.1l0.1-0.4l0.5-0.1l0.1-0.4l0.5-0.1l0.1-0.4
		l0.5-0.1l0.1-0.4l0.5-0.1l0.1-0.4l0.5-0.1l0.1-0.4l0.5-0.1l0.1-0.4l0.5-0.1l0.1-0.4l0.5-0.1l0.1-0.4l0.5-0.1l0.1-0.4l0.5-0.1
		l0.1-0.4l0.5-0.1l0.1-0.4l0.5-0.1l0.1-0.4l0.5-0.1l0.1-0.4l0.5-0.1L589.1,932.1z M439.5,904.4l0.2-89c0.3,1.8,0.5,3.6,0.5,5.9V911
		C439.7,909.1,439.5,906.9,439.5,904.4z"/>
	<path class="st0" d="M1127.4,862.2c12.3-9.4,18.6-24.4,18.6-44c0.1-39.2-30.1-50.9-47.8-68.5l15.9-1.9v-0.4l0.6-0.1v-0.4l0.6-0.1
		v-0.4l0.6-0.1v-0.4l0.6-0.1v-0.4l0.6-0.1V745l0.6-0.1v-0.4l0.6-0.1V744l0.6-0.1v-0.4l0.6-0.1v-0.4l0.6-0.1v-0.4l0.6-0.1v-0.4
		l0.6-0.1v-0.4l0.6-0.1v-0.4l0.6-0.1v-0.4l0.6-0.1l0-0.4l0.6-0.1v-0.4l0.6-0.1l0-0.4l0.6-0.1v-0.4l0.6-0.1v-0.4l0.6-0.1l0-0.4
		l0.6-0.1v-0.4l0.6-0.1l0-0.4l0.6-0.1l0-0.4l0.6-0.1v-0.4l0.6-0.1l0-0.4l0.6-0.1l0-0.4l0.6-0.1v-0.4l0.6-0.1l0-0.4l0.6-0.1v-0.4
		l0.6-0.1v-0.4l0.6-0.1l0-0.4l0.6-0.1V732l0.6-0.1l0-0.4l0.6-0.1l0-0.4l0.6-0.1v-0.4l0.6-0.1l0-0.4l0.6-0.1v-0.4l0.6-0.1v-0.4
		l0.6-0.1l0-0.4l0.6-0.1v-0.4l0.6-0.1l0-0.4l0.6-0.1l0-0.4l0.6-0.1v-0.4l0.6-0.1l0-0.4l0.6-0.1v-0.4l0.6-0.1l0-0.4l0.6-0.1l0-0.4
		l0.6-0.1v-0.4l0.6-0.1l0-0.4l0.6-0.1l0-0.4l0.6-0.1l0-6.1c0.1-31.1-15.4-47-45.6-43.4c-11.5,1.4-20.8,5.1-28,10.8
		c-0.2,0.2-0.4,0.3-0.6,0.5c-0.2,0.2-0.4,0.3-0.6,0.5c-0.2,0.2-0.4,0.3-0.6,0.5c-0.2,0.2-0.4,0.3-0.6,0.5c-0.2,0.2-0.4,0.3-0.6,0.5
		c-0.2,0.2-0.4,0.3-0.6,0.5c-0.2,0.2-0.4,0.3-0.6,0.5c-0.2,0.2-0.4,0.3-0.6,0.5c-0.2,0.2-0.4,0.3-0.6,0.5c-0.2,0.2-0.4,0.3-0.6,0.5
		c-0.2,0.2-0.4,0.3-0.6,0.5c-0.2,0.2-0.4,0.3-0.6,0.5c-0.2,0.2-0.4,0.3-0.6,0.5c-0.2,0.2-0.4,0.3-0.6,0.5c-0.2,0.2-0.4,0.3-0.6,0.5
		c-0.2,0.2-0.4,0.3-0.6,0.5c-0.2,0.2-0.4,0.3-0.6,0.5c-0.2,0.2-0.4,0.3-0.6,0.5c-0.2,0.2-0.4,0.3-0.6,0.5c-0.2,0.2-0.4,0.3-0.6,0.5
		c-0.2,0.2-0.4,0.3-0.6,0.5c-0.2,0.2-0.4,0.3-0.6,0.5c-0.2,0.2-0.4,0.3-0.6,0.5c-0.2,0.2-0.4,0.3-0.6,0.5c-0.2,0.2-0.4,0.3-0.6,0.5
		c-0.2,0.2-0.4,0.3-0.6,0.5c-0.2,0.2-0.4,0.3-0.6,0.5c-0.2,0.2-0.4,0.3-0.6,0.5c-0.2,0.2-0.4,0.3-0.6,0.5c-0.2,0.2-0.4,0.3-0.6,0.5
		c-0.2,0.2-0.4,0.3-0.6,0.5c-0.2,0.2-0.4,0.3-0.6,0.5c-0.2,0.2-0.4,0.3-0.6,0.5c-0.2,0.2-0.4,0.3-0.6,0.5c-0.2,0.2-0.4,0.3-0.6,0.5
		c-0.2,0.2-0.4,0.3-0.6,0.5c-0.2,0.2-0.4,0.3-0.6,0.5c-0.2,0.2-0.4,0.3-0.6,0.5c-0.2,0.2-0.4,0.3-0.6,0.5c-0.2,0.2-0.4,0.3-0.6,0.5
		c-0.2,0.2-0.4,0.3-0.6,0.5c-0.2,0.2-0.4,0.3-0.6,0.5c-0.2,0.2-0.4,0.3-0.6,0.5c-0.2,0.2-0.4,0.3-0.6,0.5c-0.2,0.2-0.4,0.3-0.6,0.5
		c-0.2,0.2-0.4,0.3-0.6,0.5c-0.2,0.2-0.4,0.3-0.6,0.5c-0.2,0.2-0.4,0.3-0.6,0.5c-0.2,0.2-0.4,0.3-0.6,0.5c-0.2,0.2-0.4,0.3-0.6,0.5
		c-1.7,1.3-3.2,2.7-4.7,4.2c-4.3-19.2-18.3-27.2-44.4-24.1l-46.8,5.6v0.4l-0.6,0.1v0.4l-0.6,0.1v0.4l-0.6,0.1v0.4l-0.6,0.1v0.4
		l-0.6,0.1v0.4l-0.6,0.1v0.4l-0.6,0.1v0.4l-0.6,0.1v0.4l-0.6,0.1v0.4l-0.6,0.1v0.4l-0.6,0.1v0.4l-0.6,0.1v0.4l-0.6,0.1l0,0.4
		l-0.6,0.1l0,0.4l-0.6,0.1l0,0.4l-0.6,0.1l0,0.4l-0.6,0.1l0,0.4l-0.6,0.1l0,0.4l-0.6,0.1l0,0.4l-0.6,0.1l0,0.4l-0.6,0.1l0,0.4
		l-0.6,0.1l0,0.4l-0.6,0.1l0,0.4l-0.6,0.1l0,0.4l-0.6,0.1l0,0.4l-0.6,0.1l0,0.4l-0.6,0.1l0,0.4l-0.6,0.1l0,0.4l-0.6,0.1l0,0.4
		l-0.6,0.1l0,0.4l-0.6,0.1l0,0.4l-0.6,0.1l0,0.4l-0.6,0.1l0,0.4l-0.6,0.1l0,0.4l-0.6,0.1l0,0.4l-0.6,0.1l0,0.4l-0.6,0.1v0.4
		l-0.6,0.1v0.4l-0.6,0.1v0.4l-0.6,0.1v0.4l-0.6,0.1v0.4l-0.6,0.1v0.4l-0.6,0.1c-7.5-12.1-21.2-17.5-40.3-15.2
		c-11.6,1.4-21.2,5.1-28.7,11c-0.2,0.2-0.4,0.3-0.6,0.5c-0.2,0.2-0.4,0.3-0.6,0.5c-0.2,0.2-0.4,0.3-0.6,0.5
		c-0.2,0.2-0.4,0.3-0.6,0.5c-0.2,0.2-0.4,0.3-0.6,0.5c-0.2,0.2-0.4,0.3-0.6,0.5c-0.2,0.2-0.4,0.3-0.6,0.5c-0.2,0.2-0.4,0.3-0.6,0.5
		c-0.2,0.2-0.4,0.3-0.6,0.5c-0.2,0.2-0.4,0.3-0.6,0.5c-0.2,0.2-0.4,0.3-0.6,0.5c-0.2,0.2-0.4,0.3-0.6,0.5c-0.2,0.2-0.4,0.3-0.6,0.5
		c-0.2,0.2-0.4,0.3-0.6,0.5c-0.2,0.2-0.4,0.3-0.6,0.5c-0.2,0.2-0.4,0.3-0.6,0.5c-0.2,0.2-0.4,0.3-0.6,0.5c-0.2,0.2-0.4,0.3-0.6,0.5
		c-0.2,0.2-0.4,0.3-0.6,0.5c-0.2,0.2-0.4,0.3-0.6,0.5c-0.2,0.2-0.4,0.3-0.6,0.5c-0.2,0.2-0.4,0.3-0.6,0.5c-0.2,0.2-0.4,0.3-0.6,0.5
		c-0.2,0.2-0.4,0.3-0.6,0.5c-0.2,0.2-0.4,0.3-0.6,0.5c-0.2,0.2-0.4,0.3-0.6,0.5c-0.2,0.2-0.4,0.3-0.6,0.5c-0.2,0.2-0.4,0.3-0.6,0.5
		c-0.2,0.2-0.4,0.3-0.6,0.5c-0.2,0.2-0.4,0.3-0.6,0.5c-0.2,0.2-0.4,0.3-0.6,0.5c-0.2,0.2-0.4,0.3-0.6,0.5c-0.2,0.2-0.4,0.3-0.6,0.5
		c-0.2,0.2-0.4,0.3-0.6,0.5c-0.2,0.2-0.4,0.3-0.6,0.5c-0.2,0.2-0.4,0.3-0.6,0.5c-0.2,0.2-0.4,0.3-0.6,0.5c-0.2,0.2-0.4,0.3-0.6,0.5
		c-0.2,0.2-0.4,0.3-0.6,0.5c-0.2,0.2-0.4,0.3-0.6,0.5c-0.2,0.2-0.4,0.3-0.6,0.5c-0.2,0.2-0.4,0.3-0.6,0.5c-0.2,0.2-0.4,0.3-0.6,0.5
		c-0.2,0.2-0.4,0.3-0.6,0.5c-0.2,0.2-0.4,0.3-0.6,0.5c-0.2,0.2-0.4,0.3-0.6,0.5c-0.2,0.2-0.4,0.3-0.6,0.5c-0.1,0-0.1,0.1-0.2,0.1
		l0-25L724,720.8v0.4l-0.6,0.1l0,0.4l-0.6,0.1v0.4l-0.6,0.1l0,0.4l-0.6,0.1l0,0.4l-0.6,0.1l0,0.4l-0.6,0.1l0,0.4l-0.6,0.1v0.4
		l-0.6,0.1l0,0.4l-0.6,0.1l0,0.4l-0.6,0.1v0.4l-0.6,0.1l0,0.4l-0.6,0.1v0.4l-0.6,0.1l0,0.4l-0.6,0.1v0.4l-0.6,0.1v0.4l-0.6,0.1
		l0,0.4l-0.6,0.1v0.4l-0.6,0.1l0,0.4l-0.6,0.1v0.4l-0.6,0.1l0,0.4l-0.6,0.1l0,0.4l-0.6,0.1v0.4l-0.6,0.1l0,0.4l-0.6,0.1v0.4
		l-0.6,0.1l0,0.4l-0.6,0.1v0.4l-0.6,0.1v0.4l-0.6,0.1l0,0.4l-0.6,0.1v0.4l-0.6,0.1l0,0.4l-0.6,0.1v0.4l-0.6,0.1v0.4l-0.6,0.1l0,0.4
		l-0.6,0.1v0.4l-0.6,0.1l0,0.4l-0.6,0.1v0.4l-0.6,0.1v0.4l-0.6,0.1l-2.6-15.7l-45.4,5.4l-0.1,0.4l-0.6,0.1l-0.1,0.4l-0.6,0.1
		l-0.1,0.4l-0.6,0.1l-0.1,0.4l-0.6,0.1l-0.1,0.4l-0.6,0.1l-0.1,0.4l-0.6,0.1l-0.1,0.4l-0.6,0.1l-0.1,0.4l-0.6,0.1l-0.1,0.4l-0.6,0.1
		l-0.1,0.4l-0.6,0.1l-0.1,0.4l-0.6,0.1l-0.1,0.4l-0.6,0.1l-0.1,0.4l-0.6,0.1l-0.1,0.4l-0.6,0.1l-0.1,0.4l-0.6,0.1l-0.1,0.4l-0.6,0.1
		l-0.1,0.4l-0.6,0.1l-0.1,0.4l-0.6,0.1l-0.1,0.4l-0.6,0.1l-0.1,0.4l-0.6,0.1l-0.1,0.4l-0.6,0.1l-0.1,0.4l-0.6,0.1l-0.1,0.4l-0.6,0.1
		l-0.1,0.4l-0.6,0.1l-0.1,0.4l-0.6,0.1l-0.1,0.4l-0.6,0.1l-0.1,0.4l-0.6,0.1l-0.1,0.4l-0.6,0.1l-0.1,0.4l-0.6,0.1l-0.1,0.4l-0.6,0.1
		l-0.1,0.4l-0.6,0.1l-0.1,0.4l-0.6,0.1l-0.1,0.4l-0.6,0.1l-0.1,0.4l-0.6,0.1l-0.1,0.4l-0.6,0.1l-0.1,0.4l-0.6,0.1l-0.1,0.4l-0.6,0.1
		l-0.1,0.4l-0.6,0.1l-0.1,0.4l-0.6,0.1l-0.1,0.4l-0.6,0.1l-0.1,0.4l-0.6,0.1l-0.1,0.4l-0.6,0.1l-0.1,0.4l-0.6,0.1l-0.1,0.4l-0.6,0.1
		l-0.1,0.4l-0.6,0.1l-0.1,0.4l-0.6,0.1l-0.1,0.4l-0.6,0.1l-0.1,0.4l-0.6,0.1l-0.1,0.4l-0.6,0.1l-0.1,0.4l-0.6,0.1l-0.1,0.4l-0.6,0.1
		L589,953l28.5-3.4l0.1-0.4l0.6-0.1l0.1-0.4l0.6-0.1l0.1-0.4l0.6-0.1l0.1-0.4l0.6-0.1l0.1-0.4l0.6-0.1l0.1-0.4l0.6-0.1l0.1-0.4
		l0.6-0.1l0.1-0.4l0.6-0.1l0.1-0.4l0.6-0.1l0.1-0.4l0.6-0.1l0.1-0.4l0.6-0.1l0.1-0.4l0.6-0.1l0.1-0.4l0.6-0.1l0.1-0.4l0.6-0.1
		l0.1-0.4l0.6-0.1l0.1-0.4l0.6-0.1l0.1-0.4l0.6-0.1l0.1-0.4l0.6-0.1l0.1-0.4l0.6-0.1l0.1-0.4l0.6-0.1l0.1-0.4l0.6-0.1l0.1-0.4
		l0.6-0.1l0.1-0.4l0.6-0.1l0.1-0.4l0.6-0.1l0.1-0.4l0.6-0.1l0.1-0.4l0.6-0.1l0.1-0.4l0.6-0.1l0.1-0.4l0.6-0.1l0.1-0.4l0.6-0.1
		l0.1-0.4l0.6-0.1l0.1-0.4l0.6-0.1l0.1-0.4l0.6-0.1l0.1-0.4l0.6-0.1l0.1-0.4l0.6-0.1l0.1-0.4l0.6-0.1l0.1-0.4l0.6-0.1l0.1-0.4
		l0.6-0.1l0.1-0.4l0.6-0.1l0.1-0.4l0.6-0.1l0.1-0.4l0.6-0.1l0.1-0.4l0.6-0.1l0.1-0.4l0.6-0.1l0.1-0.4l0.6-0.1l0.1-0.4l0.6-0.1
		l0.1-0.4l0.6-0.1l0.1-0.4l0.6-0.1l0.1-0.4l0.6-0.1l0.1-0.4l0.6-0.1l0.1-0.4l0.6-0.1l0.1-0.4l0.6-0.1l0.1-0.4l0.6-0.1l2.1-13.9
		l9.9-1.2l5.4,34.6l31.3-3.8l-0.1-0.4l0.7-0.1l-0.1-0.4l0.7-0.1l-0.1-0.4l0.7-0.1l-0.1-0.4l0.7-0.1l-0.1-0.4l0.7-0.1l-0.1-0.4
		l0.7-0.1l-0.1-0.4l0.7-0.1l-0.1-0.4l0.7-0.1l-0.1-0.4l0.7-0.1l-0.1-0.4l0.7-0.1l-0.1-0.4l0.7-0.1l-0.1-0.4l0.7-0.1l-0.1-0.4
		l0.7-0.1l-0.1-0.4l0.7-0.1l-0.1-0.4l0.7-0.1l-0.1-0.4l0.7-0.1l-0.1-0.4l0.7-0.1L708,931l0.7-0.1l-0.1-0.4l0.7-0.1l-0.1-0.4l0.7-0.1
		l-0.1-0.4l0.7-0.1l-0.1-0.4l0.7-0.1l-0.1-0.4l0.7-0.1l-0.1-0.4l0.7-0.1l-0.1-0.4l0.7-0.1l-0.1-0.4l0.7-0.1l-0.1-0.4l0.7-0.1
		l-0.1-0.4l0.7-0.1l-0.1-0.4l0.7-0.1l-0.1-0.4l0.7-0.1l-0.1-0.4l0.7-0.1l-0.1-0.4l0.7-0.1l-0.1-0.4l0.7-0.1l-0.1-0.4l0.7-0.1
		l-0.1-0.4l0.7-0.1l-0.1-0.4l0.7-0.1l-0.1-0.4l0.7-0.1l-0.1-0.4l0.7-0.1l-0.1-0.4l0.7-0.1l-0.1-0.4l0.7-0.1l-0.1-0.4l0.7-0.1
		l-0.1-0.4l0.7-0.1l-0.1-0.4l0.7-0.1l-0.1-0.4l0.6-0.1v18.5l31-3.8v-0.4l0.6-0.1v-0.4l0.6-0.1v-0.4l0.6-0.1v-0.4l0.6-0.1v-0.4
		l0.6-0.1V930l0.6-0.1v-0.4l0.6-0.1V929l0.6-0.1v-0.4l0.6-0.1V928l0.6-0.1v-0.4l0.6-0.1V927l0.6-0.1v-0.4l0.6-0.1V926l0.6-0.1v-0.4
		l0.6-0.1l0-0.4l0.6-0.1l0-0.4l0.6-0.1V924l0.6-0.1l0-0.4l0.6-0.1V923l0.6-0.1l0-0.4l0.6-0.1v-0.4l0.6-0.1v-0.4l0.6-0.1l0-0.4
		l0.6-0.1v-0.4l0.6-0.1l0-0.4l0.6-0.1v-0.4l0.6-0.1l0-0.4l0.6-0.1l0-0.4l0.6-0.1v-0.4l0.6-0.1l0-0.4l0.6-0.1v-0.4l0.6-0.1l0-0.4
		l0.6-0.1v-0.4l0.6-0.1v-0.4l0.6-0.1l0-0.4l0.6-0.1v-0.4l0.6-0.1l0-0.4l0.6-0.1v-0.4l0.6-0.1l0-0.4l0.6-0.1l0-0.4l0.6-0.1v-0.4
		l0.6-0.1l0-0.4l0.6-0.1v-0.4l0.6-0.1l0-0.4l0.6-0.1l0-0.4l0.6-0.1l0-0.4l0.6-0.1l0-0.4l0.6-0.1v-0.4l0.6-0.1l0-0.4l0.6-0.1v-0.4
		l0.6-0.1l0.2-145.3l0.7-0.1v-0.4l0.6-0.1v-0.4l0.6-0.1v-0.4l0.6-0.1v-0.4l0.6-0.1v-0.4l0.6-0.1v-0.4l0.6-0.1v-0.4l0.6-0.1v-0.4
		l0.6-0.1v-0.4l0.6-0.1v-0.4l0.6-0.1v-0.4l0.6-0.1v-0.4l0.6-0.1v-0.4l0.6-0.1v-0.4l0.6-0.1v-0.4l0.6-0.1v-0.4l0.6-0.1v-0.4l0.6-0.1
		l0-0.4l0.6-0.1l0-0.4l0.6-0.1l0-0.4l0.6-0.1l0-0.4l0.6-0.1l0-0.4l0.6-0.1l0-0.4l0.6-0.1l0-0.4l0.6-0.1l0-0.4l0.6-0.1v-0.4l0.6-0.1
		V749l0.6-0.1v-0.4l0.6-0.1V748l0.6-0.1v-0.4l0.6-0.1V747l0.6-0.1v-0.4l0.6-0.1l0-0.4l0.3,0c-6.1,8.9-9.2,20.2-9.2,33.8v101.1
		c0,31.1,16.6,46.9,47.1,43.2c11.6-1.4,21.2-5.2,28.7-11c0.2-0.2,0.4-0.3,0.6-0.5c0.2-0.2,0.4-0.3,0.6-0.5c0.2-0.2,0.4-0.3,0.6-0.5
		c0.2-0.2,0.4-0.3,0.6-0.5c0.2-0.2,0.4-0.3,0.6-0.5c0.2-0.2,0.4-0.3,0.6-0.5c0.2-0.2,0.4-0.3,0.6-0.5c0.2-0.2,0.4-0.3,0.6-0.5
		c0.2-0.2,0.4-0.3,0.6-0.5c0.2-0.2,0.4-0.3,0.6-0.5c0.2-0.2,0.4-0.3,0.6-0.5c0.2-0.2,0.4-0.3,0.6-0.5c0.2-0.2,0.4-0.3,0.6-0.5
		c0.2-0.2,0.4-0.3,0.6-0.5c0.2-0.2,0.4-0.3,0.6-0.5c0.2-0.2,0.4-0.3,0.6-0.5c0.2-0.2,0.4-0.3,0.6-0.5c0.2-0.2,0.4-0.3,0.6-0.5
		c0.2-0.2,0.4-0.3,0.6-0.5c0.2-0.2,0.4-0.3,0.6-0.5c0.2-0.2,0.4-0.3,0.6-0.5c0.2-0.2,0.4-0.3,0.6-0.5c0.2-0.2,0.4-0.3,0.6-0.5
		c0.2-0.2,0.4-0.3,0.6-0.5c0.2-0.2,0.4-0.3,0.6-0.5c0.2-0.2,0.4-0.3,0.6-0.5c0.2-0.2,0.4-0.3,0.6-0.5c0.2-0.2,0.4-0.3,0.6-0.5
		c0.2-0.2,0.4-0.3,0.6-0.5c0.2-0.2,0.4-0.3,0.6-0.5c0.2-0.2,0.4-0.3,0.6-0.5c0.2-0.2,0.4-0.3,0.6-0.5c0.2-0.2,0.4-0.3,0.6-0.5
		c0.2-0.2,0.4-0.3,0.6-0.5c0.2-0.2,0.4-0.3,0.6-0.5c0.2-0.2,0.4-0.3,0.6-0.5c0.2-0.2,0.4-0.3,0.6-0.5c0.2-0.2,0.4-0.3,0.6-0.5
		c0.2-0.2,0.4-0.3,0.6-0.5c0.2-0.2,0.4-0.3,0.6-0.5c0.2-0.2,0.4-0.3,0.6-0.5c0.2-0.2,0.4-0.3,0.6-0.5c0.2-0.2,0.4-0.3,0.6-0.5
		c0.2-0.2,0.4-0.3,0.6-0.5c0.2-0.2,0.4-0.3,0.6-0.5c0.2-0.2,0.4-0.3,0.6-0.5c0.2-0.2,0.4-0.3,0.6-0.5c0.2-0.2,0.4-0.3,0.6-0.5
		c0.2-0.2,0.4-0.3,0.6-0.5c0.2-0.2,0.4-0.3,0.6-0.5c2.8-2.1,5.3-4.6,7.5-7.3v32.5l31-3.8v-0.4l0.6-0.1v-0.4l0.6-0.1v-0.4l0.6-0.1
		v-0.4l0.6-0.1v-0.4l0.6-0.1v-0.4l0.6-0.1v-0.4l0.6-0.1v-0.4l0.6-0.1v-0.4l0.6-0.1v-0.4l0.6-0.1v-0.4l0.6-0.1v-0.4l0.6-0.1v-0.4
		l0.6-0.1v-0.4l0.6-0.1v-0.4l0.6-0.1l0-0.4l0.6-0.1l0-0.4l0.6-0.1l0-0.4l0.6-0.1l0-0.4l0.6-0.1v-0.4l0.6-0.1v-0.4l0.6-0.1v-0.4
		l0.6-0.1v-0.4l0.6-0.1v-0.4l0.6-0.1l0-0.4l0.6-0.1l0-0.4l0.6-0.1l0-0.4l0.6-0.1l0-0.4l0.6-0.1l0-0.4l0.6-0.1v-0.4l0.6-0.1V895
		l0.6-0.1v-0.4l0.6-0.1V894l0.6-0.1v-0.4l0.6-0.1l0-0.4l0.6-0.1l0-0.4l0.6-0.1l0-0.4l0.6-0.1l0-0.4l0.6-0.1l0-0.4l0.6-0.1v-0.4
		l0.6-0.1v-0.4l0.6-0.1v-0.4l0.6-0.1v-0.4l0.6-0.1v-0.4l0.6-0.1l0-0.4l0.6-0.1l0-0.4l0.6-0.1l0-0.4l0.6-0.1l0-0.4l0.6-0.1l0-0.4
		l0.6-0.1l0-0.4l0.6-0.1l0-0.4l0.1,0c0.1,13.2,1.2,16.2,2.8,20.7l31.6-3.8c-0.1-0.1-0.1-0.3-0.1-0.4l0.8-0.1
		c-0.1-0.1-0.1-0.3-0.1-0.4l0.8-0.1c-0.1-0.1-0.1-0.3-0.1-0.4l0.8-0.1c-0.1-0.1-0.1-0.3-0.1-0.4l0.8-0.1c-0.1-0.1-0.1-0.3-0.1-0.4
		l0.8-0.1c-0.1-0.1-0.1-0.3-0.1-0.4l0.8-0.1c-0.1-0.1-0.1-0.3-0.1-0.4l0.8-0.1c-0.1-0.1-0.1-0.3-0.1-0.4l0.8-0.1
		c-0.1-0.1-0.1-0.3-0.1-0.4l0.8-0.1c-0.1-0.1-0.1-0.3-0.1-0.4l0.8-0.1c-0.1-0.1-0.1-0.3-0.1-0.4l0.8-0.1c-0.1-0.1-0.1-0.3-0.1-0.4
		l0.8-0.1c-0.1-0.1-0.1-0.3-0.1-0.4l0.8-0.1c-0.1-0.1-0.1-0.3-0.1-0.4l0.8-0.1c-0.1-0.1-0.1-0.3-0.1-0.4l0.8-0.1
		c-0.1-0.1-0.1-0.3-0.1-0.4l0.8-0.1c-0.1-0.1-0.1-0.3-0.1-0.4l0.8-0.1c-0.1-0.1-0.1-0.3-0.1-0.4l0.8-0.1c-0.1-0.1-0.1-0.3-0.1-0.4
		l0.8-0.1c-0.1-0.1-0.1-0.3-0.1-0.4l0.8-0.1c-0.1-0.1-0.1-0.3-0.1-0.4l0.8-0.1c-0.1-0.1-0.1-0.3-0.1-0.4l0.8-0.1
		c-0.1-0.1-0.1-0.3-0.1-0.4l0.8-0.1c-0.1-0.1-0.1-0.3-0.1-0.4l0.8-0.1c-0.1-0.1-0.1-0.3-0.1-0.4l0.8-0.1c-0.1-0.1-0.1-0.3-0.1-0.4
		l0.8-0.1c-0.1-0.1-0.1-0.3-0.1-0.4l0.8-0.1c-0.1-0.1-0.1-0.3-0.1-0.4l0.8-0.1c-0.1-0.1-0.1-0.3-0.1-0.4l0.8-0.1
		c-0.1-0.1-0.1-0.3-0.1-0.4l0.8-0.1c-0.1-0.1-0.1-0.3-0.1-0.4l0.8-0.1c-0.1-0.1-0.1-0.3-0.1-0.4l0.8-0.1c-0.1-0.1-0.1-0.3-0.1-0.4
		l0.8-0.1c-0.1-0.1-0.1-0.3-0.1-0.4l0.8-0.1c0,0,0-0.1,0-0.1c7.6,9.7,20.2,13.8,37.4,11.8c11.6-1.4,21-5.1,28.3-10.9
		c0.2-0.2,0.4-0.3,0.6-0.5c0.2-0.2,0.4-0.3,0.6-0.5c0.2-0.2,0.4-0.3,0.6-0.5c0.2-0.2,0.4-0.3,0.6-0.5c0.2-0.2,0.4-0.3,0.6-0.5
		c0.2-0.2,0.4-0.3,0.6-0.5c0.2-0.2,0.4-0.3,0.6-0.5c0.2-0.2,0.4-0.3,0.6-0.5c0.2-0.2,0.4-0.3,0.6-0.5c0.2-0.2,0.4-0.3,0.6-0.5
		c0.2-0.2,0.4-0.3,0.6-0.5c0.2-0.2,0.4-0.3,0.6-0.5c0.2-0.2,0.4-0.3,0.6-0.5c0.2-0.2,0.4-0.3,0.6-0.5c0.2-0.2,0.4-0.3,0.6-0.5
		c0.2-0.2,0.4-0.3,0.6-0.5c0.2-0.2,0.4-0.3,0.6-0.5c0.2-0.2,0.4-0.3,0.6-0.5c0.2-0.2,0.4-0.3,0.6-0.5c0.2-0.2,0.4-0.3,0.6-0.5
		c0.2-0.2,0.4-0.3,0.6-0.5c0.2-0.2,0.4-0.3,0.6-0.5c0.2-0.2,0.4-0.3,0.6-0.5c0.2-0.2,0.4-0.3,0.6-0.5c0.2-0.2,0.4-0.3,0.6-0.5
		c0.2-0.2,0.4-0.3,0.6-0.5c0.2-0.2,0.4-0.3,0.6-0.5c0.2-0.2,0.4-0.3,0.6-0.5c0.2-0.2,0.4-0.3,0.6-0.5c0.2-0.2,0.4-0.3,0.6-0.5
		c0.2-0.2,0.4-0.3,0.6-0.5c0.2-0.2,0.4-0.3,0.6-0.5c0.2-0.2,0.4-0.3,0.6-0.5c0.2-0.2,0.4-0.3,0.6-0.5c0.2-0.2,0.4-0.3,0.6-0.5
		c0.2-0.2,0.4-0.3,0.6-0.5c0.2-0.2,0.4-0.3,0.6-0.5c0.2-0.2,0.4-0.3,0.6-0.5c0.2-0.2,0.4-0.3,0.6-0.5c0.2-0.2,0.4-0.3,0.6-0.5
		c0.2-0.2,0.4-0.3,0.6-0.5c0.2-0.2,0.4-0.3,0.6-0.5c0.2-0.2,0.4-0.3,0.6-0.5c0.2-0.2,0.4-0.3,0.6-0.5c0.2-0.2,0.4-0.3,0.6-0.5
		c0.2-0.2,0.4-0.3,0.6-0.5c0.2-0.2,0.4-0.3,0.6-0.5c0.2-0.2,0.4-0.3,0.6-0.5c0.2-0.2,0.4-0.3,0.6-0.5
		C1127,862.6,1127.2,862.4,1127.4,862.2z M724.7,887.8l-19-115.6l19-2.3V887.8z M1065,815.9l-11.4,1.4l0,0.4l-0.6,0.1l0,0.4
		l-0.6,0.1v0.4l-0.6,0.1l0,0.4l-0.6,0.1l0,0.4l-0.6,0.1v0.4l-0.6,0.1l0,0.4l-0.6,0.1l0,0.4l-0.6,0.1v0.4l-0.6,0.1l0,0.4l-0.6,0.1
		l0,0.4l-0.6,0.1v0.4l-0.6,0.1l0,0.4l-0.6,0.1l0,0.4l-0.6,0.1v0.4l-0.6,0.1l0,0.4l-0.6,0.1l0,0.4l-0.6,0.1v0.4l-0.6,0.1l0,0.4
		l-0.6,0.1v0.4l-0.6,0.1v0.4l-0.6,0.1l0,0.4l-0.6,0.1v0.4l-0.6,0.1v0.4l-0.6,0.1l0,0.4l-0.6,0.1v0.4l0,0l0-5.7
		c0-20.1-5-34.1-20.1-38.8c0.1-0.1,0.2-0.2,0.3-0.3c0.2-0.2,0.4-0.3,0.6-0.5c0.2-0.2,0.4-0.3,0.6-0.5c0.2-0.2,0.4-0.3,0.6-0.5
		c0.2-0.2,0.4-0.3,0.6-0.5c0.2-0.2,0.4-0.3,0.6-0.5c0.2-0.2,0.4-0.3,0.6-0.5c2.1-1.6,3.9-3.4,5.6-5.4
		C1035.5,795,1051.9,805,1065,815.9z M862.3,860.2c-0.3-1.8-0.6-3.8-0.6-6.2l0.2-89.3c0.3,1.6,0.4,3.4,0.4,5.4V860.2z M724.7,917.6
		L724.7,917.6L724.7,917.6L724.7,917.6z"/>
	<g>
		<g>
			<path class="st0" d="M136.3,766.5l0.6-0.1V766l0.6-0.1v-0.4l0.6-0.1v-0.4l0.6-0.1v-0.4l0.6-0.1v-0.4l0.6-0.1v-0.4l0.6-0.1v-0.4
				l0.6-0.1v-0.4l0.6-0.1v-0.4l0.6-0.1v-0.4l0.6-0.1v-0.4l0.6-0.1v-0.4l0.6-0.1v-0.4l0.6-0.1v-0.4l0.6-0.1v-0.4l0.6-0.1l0-0.4
				l0.6-0.1l0-0.4l0.6-0.1l0-0.4l0.6-0.1l0-0.4l0.6-0.1l0-0.4l0.6-0.1l0-0.4l0.6-0.1l0-0.4l0.6-0.1l0-0.4l0.6-0.1l0-0.4l0.6-0.1
				l0-0.4l0.6-0.1l0-0.4l0.6-0.1l0-0.4l0.6-0.1l0-0.4l0.6-0.1l0-0.4l0.6-0.1l0-0.4l0.6-0.1l0-0.4l0.6-0.1l0-0.4l0.6-0.1l0-0.4
				l0.6-0.1l0-0.4l0.6-0.1l0-0.4l0.6-0.1l0-0.4l0.6-0.1v-0.4l0.6-0.1v-0.4l0.6-0.1v-0.4l0.6-0.1l0-0.4l0.6-0.1l0-0.4l0.6-0.1l0-0.4
				l0.6-0.1l0-0.4l0.6-0.1l0-0.4l0.6-0.1l0-0.4l0.6-0.1l0-0.4l0.6-0.1l0-0.4l0.6-0.1v-0.4l0.6-0.1v-0.4l0.6-0.1v-0.4l0.6-0.1
				l0.2-110.6l34.1-4.1v-0.4l0.6-0.1v-0.4l0.6-0.1v-0.4l0.6-0.1v-0.4l0.6-0.1v-0.4l0.6-0.1v-0.4l0.6-0.1v-0.4l0.6-0.1v-0.4l0.6-0.1
				V621l0.6-0.1v-0.4l0.6-0.1V620l0.6-0.1v-0.4l0.6-0.1V619l0.6-0.1v-0.4l0.6-0.1l0-0.4l0.6-0.1l0-0.4l0.6-0.1l0-0.4l0.6-0.1l0-0.4
				l0.6-0.1l0-0.4l0.6-0.1l0-0.4l0.6-0.1l0-0.4l0.6-0.1v-0.4l0.6-0.1v-0.4l0.6-0.1v-0.4l0.6-0.1v-0.4l0.6-0.1v-0.4l0.6-0.1v-0.4
				l0.6-0.1v-0.4l0.6-0.1v-0.4l0.6-0.1v-0.4l0.6-0.1v-0.4l0.6-0.1v-0.4l0.6-0.1v-0.4l0.6-0.1l0-0.4l0.6-0.1l0-0.4l0.6-0.1l0-0.4
				l0.6-0.1l0-0.4l0.6-0.1l0-0.4l0.6-0.1l0-0.4l0.6-0.1l0-0.4l0.6-0.1l0-0.4l0.6-0.1l0-0.4l0.6-0.1l0-0.4l0.6-0.1l0-0.4l0.6-0.1
				l0-0.4l0.6-0.1l0-0.4l0.6-0.1l0-0.4l0.6-0.1l0-0.4l0.6-0.1l0-0.4l0.6-0.1l0-0.4l0.6-0.1l0-0.4l0.6-0.1l0.1-46.1l-66.5,7.9
				l0.1-74.6l52.1-6.3v-0.4l0.6-0.1v-0.4l0.6-0.1v-0.4l0.6-0.1v-0.4l0.6-0.1v-0.4l0.6-0.1V477l0.6-0.1v-0.4l0.6-0.1V476l0.6-0.1
				v-0.4l0.6-0.1V475l0.6-0.1v-0.4l0.6-0.1v-0.4l0.6-0.1v-0.4l0.6-0.1v-0.4l0.6-0.1l0-0.4l0.6-0.1l0-0.4l0.6-0.1l0-0.4l0.6-0.1
				l0-0.4l0.6-0.1l0-0.4l0.6-0.1l0-0.4l0.6-0.1v-0.4l0.6-0.1v-0.4l0.6-0.1v-0.4l0.6-0.1v-0.4l0.6-0.1v-0.4l0.6-0.1v-0.4l0.6-0.1
				v-0.4l0.6-0.1v-0.4l0.6-0.1v-0.4l0.6-0.1v-0.4l0.6-0.1v-0.4l0.6-0.1v-0.4l0.6-0.1V463l0.6-0.1v-0.4l0.6-0.1V462l0.6-0.1v-0.4l0,0
				V677c0,51.6,26.2,78,76.8,71.9c19.2-2.3,34.9-8.5,46.9-18c0.2-0.2,0.4-0.3,0.6-0.5c0.2-0.2,0.4-0.3,0.6-0.5
				c0.2-0.2,0.4-0.3,0.6-0.5c0.2-0.2,0.4-0.3,0.6-0.5c0.2-0.2,0.4-0.3,0.6-0.5c0.2-0.2,0.4-0.3,0.6-0.5c0.2-0.2,0.4-0.3,0.6-0.5
				c0.2-0.2,0.4-0.3,0.6-0.5c0.2-0.2,0.4-0.3,0.6-0.5c0.2-0.2,0.4-0.3,0.6-0.5c0.2-0.2,0.4-0.3,0.6-0.5c0.2-0.2,0.4-0.3,0.6-0.5
				c0.2-0.2,0.4-0.3,0.6-0.5c0.2-0.2,0.4-0.3,0.6-0.5c0.2-0.2,0.4-0.3,0.6-0.5c0.2-0.2,0.4-0.3,0.6-0.5c0.2-0.2,0.4-0.3,0.6-0.5
				c0.2-0.2,0.4-0.3,0.6-0.5c0.2-0.2,0.4-0.3,0.6-0.5c0.2-0.2,0.4-0.3,0.6-0.5c0.2-0.2,0.4-0.3,0.6-0.5c0.2-0.2,0.4-0.3,0.6-0.5
				c0.2-0.2,0.4-0.3,0.6-0.5c0.2-0.2,0.4-0.3,0.6-0.5c0.2-0.2,0.4-0.3,0.6-0.5c0.2-0.2,0.4-0.3,0.6-0.5c0.2-0.2,0.4-0.3,0.6-0.5
				c0.2-0.2,0.4-0.3,0.6-0.5c0.2-0.2,0.4-0.3,0.6-0.5c0.2-0.2,0.4-0.3,0.6-0.5c0.2-0.2,0.4-0.3,0.6-0.5c0.2-0.2,0.4-0.3,0.6-0.5
				c0.2-0.2,0.4-0.3,0.6-0.5c0.2-0.2,0.4-0.3,0.6-0.5c0.2-0.2,0.4-0.3,0.6-0.5c0.2-0.2,0.4-0.3,0.6-0.5c0.2-0.2,0.4-0.3,0.6-0.5
				c0.2-0.2,0.4-0.3,0.6-0.5c0.2-0.2,0.4-0.3,0.6-0.5c0.2-0.2,0.4-0.3,0.6-0.5c0.2-0.2,0.4-0.3,0.6-0.5c0.2-0.2,0.4-0.3,0.6-0.5
				c0.2-0.2,0.4-0.3,0.6-0.5c0.2-0.2,0.4-0.3,0.6-0.5c0.2-0.2,0.4-0.3,0.6-0.5c0.2-0.2,0.4-0.3,0.6-0.5c0.2-0.2,0.4-0.3,0.6-0.5
				c0.2-0.2,0.4-0.3,0.6-0.5c0.2-0.2,0.4-0.3,0.6-0.5c0.2-0.2,0.4-0.3,0.6-0.5c20.2-15.6,30.5-40.5,30.6-72.8l0.3-177.4l41.2-5
				v276.6l51.5-6.2v-0.4l0.6-0.1v-0.4l0.6-0.1v-0.4l0.6-0.1v-0.4l0.6-0.1v-0.4l0.6-0.1v-0.4l0.6-0.1v-0.4l0.6-0.1v-0.4l0.6-0.1v-0.4
				l0.6-0.1v-0.4l0.6-0.1v-0.4l0.6-0.1v-0.4l0.6-0.1v-0.4l0.6-0.1v-0.4l0.6-0.1l0-0.4l0.6-0.1l0-0.4l0.6-0.1l0-0.4l0.6-0.1l0-0.4
				l0.6-0.1l0-0.4l0.6-0.1l0-0.4l0.6-0.1v-0.4l0.6-0.1v-0.4l0.6-0.1v-0.4l0.6-0.1v-0.4l0.6-0.1v-0.4l0.6-0.1v-0.4l0.6-0.1v-0.4
				l0.6-0.1v-0.4l0.6-0.1v-0.4l0.6-0.1V705l0.6-0.1v-0.4l0.6-0.1l0-0.4l0.6-0.1l0-0.4l0.6-0.1l0-0.4l0.6-0.1l0-0.4l0.6-0.1l0-0.4
				l0.6-0.1l0-0.4l0.6-0.1l0-0.4l0.6-0.1l0-0.4l0.6-0.1l0-0.4l0.6-0.1l0-0.4l0.6-0.1l0-0.4l0.6-0.1l0-0.4l0.6-0.1l0-0.4l0.6-0.1
				l0-0.4l0.6-0.1l0-0.4l0.6-0.1l0-0.4l0.6-0.1l0-0.4l0.6-0.1v-0.4l0.6-0.1v-0.4l0.6-0.1v-0.4l0.6-0.1l0.4-254.6l21.1-2.6v-0.4
				l0.6-0.1v-0.4l0.6-0.1v-0.4l0.6-0.1v-0.4l0.6-0.1v-0.4l0.6-0.1v-0.4l0.6-0.1v-0.4l0.6-0.1v-0.4l0.6-0.1v-0.4l0.6-0.1v-0.4
				l0.6-0.1v-0.4l0.6-0.1v-0.4l0.6-0.1v-0.4l0.6-0.1v-0.4l0.6-0.1v-0.4l0.6-0.1v-0.4l0.6-0.1v-0.4l0.6-0.1v-0.4l0.6-0.1v-0.4
				l0.6-0.1V427l0.6-0.1v-0.4l0.6-0.1l0-0.4l0.6-0.1l0-0.4l0.6-0.1l0-0.4l0.6-0.1l0-0.4l0.6-0.1l0-0.4l0.6-0.1l0-0.4l0.6-0.1l0-0.4
				l0.6-0.1v-0.4l0.6-0.1V422l0.6-0.1v-0.4l0.6-0.1V421l0.2,0v213.3c0,51.6,26.2,78,76.8,71.9c19.1-2.3,34.8-8.5,46.8-18
				c0.2-0.2,0.4-0.3,0.6-0.5c0.2-0.2,0.4-0.3,0.6-0.5c0.2-0.2,0.4-0.3,0.6-0.5c0.2-0.2,0.4-0.3,0.6-0.5c0.2-0.2,0.4-0.3,0.6-0.5
				c0.2-0.2,0.4-0.3,0.6-0.5c0.2-0.2,0.4-0.3,0.6-0.5c0.2-0.2,0.4-0.3,0.6-0.5c0.2-0.2,0.4-0.3,0.6-0.5c0.2-0.2,0.4-0.3,0.6-0.5
				c0.2-0.2,0.4-0.3,0.6-0.5c0.2-0.2,0.4-0.3,0.6-0.5c0.2-0.2,0.4-0.3,0.6-0.5c0.2-0.2,0.4-0.3,0.6-0.5c0.2-0.2,0.4-0.3,0.6-0.5
				c0.2-0.2,0.4-0.3,0.6-0.5c0.2-0.2,0.4-0.3,0.6-0.5c0.2-0.2,0.4-0.3,0.6-0.5c0.2-0.2,0.4-0.3,0.6-0.5c0.2-0.2,0.4-0.3,0.6-0.5
				c0.2-0.2,0.4-0.3,0.6-0.5c0.2-0.2,0.4-0.3,0.6-0.5c0.2-0.2,0.4-0.3,0.6-0.5c0.2-0.2,0.4-0.3,0.6-0.5c0.2-0.2,0.4-0.3,0.6-0.5
				c0.2-0.2,0.4-0.3,0.6-0.5c0.2-0.2,0.4-0.3,0.6-0.5c0.2-0.2,0.4-0.3,0.6-0.5c0.2-0.2,0.4-0.3,0.6-0.5c0.2-0.2,0.4-0.3,0.6-0.5
				c0.2-0.2,0.4-0.3,0.6-0.5c0.2-0.2,0.4-0.3,0.6-0.5c0.2-0.2,0.4-0.3,0.6-0.5c0.2-0.2,0.4-0.3,0.6-0.5c0.2-0.2,0.4-0.3,0.6-0.5
				c0.2-0.2,0.4-0.3,0.6-0.5c0.2-0.2,0.4-0.3,0.6-0.5c0.2-0.2,0.4-0.3,0.6-0.5c0.2-0.2,0.4-0.3,0.6-0.5c0.2-0.2,0.4-0.3,0.6-0.5
				c0.2-0.2,0.4-0.3,0.6-0.5c0.2-0.2,0.4-0.3,0.6-0.5c0.2-0.2,0.4-0.3,0.6-0.5c0.2-0.2,0.4-0.3,0.6-0.5c0.2-0.2,0.4-0.3,0.6-0.5
				c0.2-0.2,0.4-0.3,0.6-0.5c0.2-0.2,0.4-0.3,0.6-0.5c0.2-0.2,0.4-0.3,0.6-0.5c0.2-0.2,0.4-0.3,0.6-0.5c0.2-0.2,0.4-0.3,0.6-0.5
				c20.2-15.6,30.6-40.5,30.7-72.9l0.4-245.7l-48.7,5.8v0.4l-0.6,0.1v0.4l-0.6,0.1l0,0.4l-0.6,0.1l0,0.4l-0.6,0.1l0,0.4l-0.6,0.1
				v0.4l-0.6,0.1l0,0.4l-0.6,0.1l0,0.4l-0.6,0.1l0,0.4l-0.6,0.1v0.4l-0.6,0.1v0.4l-0.6,0.1v0.4l-0.6,0.1l0,0.4l-0.6,0.1l0,0.4
				l-0.6,0.1v0.4l-0.6,0.1v0.4l-0.6,0.1l0,0.4l-0.6,0.1l0,0.4l-0.6,0.1v0.4l-0.6,0.1v0.4l-0.6,0.1v0.4l-0.6,0.1l0,0.4l-0.6,0.1
				l0,0.4l-0.6,0.1v0.4l-0.6,0.1v0.4l-0.6,0.1l0,0.4l-0.6,0.1l0,0.4l-0.6,0.1v0.4l-0.6,0.1v0.4l-0.6,0.1v0.4l-0.6,0.1l0,0.4
				l-0.6,0.1l0,0.4l-0.6,0.1v0.4l-0.6,0.1v0.4l-0.6,0.1l0,0.4l-0.6,0.1l0,0.4l-0.6,0.1v0.4l-0.6,0.1v0.4l-0.6,0.1v0.4l-0.6,0.1v0.4
				l-0.6,0.1v0.4l-0.6,0.1v0.4l-0.6,0.1v0.4l-0.6,0.1v0.4l-0.6,0.1v0.4l-0.6,0.1v0.4l-0.6,0.1v0.4l-0.6,0.1v0.4l-0.6,0.1v0.4
				l-0.6,0.1v0.4l-0.6,0.1v0.4l-0.6,0.1v248.9c0,3.4-0.3,6.4-0.7,9.2c-12.6-0.6-20.2-8.6-20.2-28.4l0.4-248.9l-51.5,6.1l0,0.4
				l-0.6,0.1l0,0.4l-0.6,0.1l0,0.4l-0.6,0.1l0,0.4l-0.6,0.1l0,0.4l-0.6,0.1l0,0.4l-0.6,0.1l0,0.4l-0.6,0.1l0,0.4l-0.6,0.1v0.4
				l-0.6,0.1v0.4l-0.6,0.1v0.4l-0.6,0.1v0.4l-0.6,0.1v0.4l-0.6,0.1v0.4l-0.6,0.1l0,0.4l-0.6,0.1l0,0.4l-0.6,0.1l0,0.4l-0.6,0.1
				l0,0.4l-0.6,0.1l0,0.4l-0.6,0.1l0,0.4l-0.6,0.1l0,0.4l-0.6,0.1l0,0.4l-0.6,0.1l0,0.4l-0.6,0.1l0,0.4l-0.6,0.1l0,0.4l-0.6,0.1v0.4
				l-0.6,0.1v0.4l-0.6,0.1v0.4l-0.6,0.1v0.4l-0.6,0.1v0.4l-0.6,0.1v0.4l-0.6,0.1v0.4l-0.2,0l0-13.7l-159.2,19l0,0.4l-0.6,0.1l0,0.4
				l-0.6,0.1l0,0.4l-0.6,0.1l0,0.4l-0.6,0.1l0,0.4l-0.6,0.1l0,0.4l-0.6,0.1l0,0.4l-0.6,0.1l0,0.4l-0.6,0.1l0,0.4l-0.6,0.1l0,0.4
				l-0.6,0.1l0,0.4l-0.6,0.1v0.4l-0.6,0.1l0,0.4l-0.6,0.1v0.4l-0.6,0.1l0,0.4l-0.6,0.1v0.4l-0.6,0.1l0,0.4l-0.6,0.1v0.4l-0.6,0.1
				l0,0.4l-0.6,0.1v0.4l-0.6,0.1l0,0.4l-0.6,0.1v0.4l-0.6,0.1l0,0.4l-0.6,0.1v0.4l-0.6,0.1l0,0.4l-0.6,0.1v0.4l-0.6,0.1l0,0.4
				l-0.6,0.1v0.4l-0.6,0.1l0,0.4l-0.6,0.1v0.4l-0.6,0.1l0,0.4L430,400v0.4l-0.2,0l0-13.9l-48.7,5.8l0,0.4l-0.6,0.1l0,0.4l-0.6,0.1
				l0,0.4l-0.6,0.1l0,0.4l-0.6,0.1l0,0.4l-0.6,0.1l0,0.4l-0.6,0.1l0,0.4l-0.6,0.1l0,0.4l-0.6,0.1l0,0.4l-0.6,0.1l0,0.4l-0.6,0.1
				l0,0.4l-0.6,0.1v0.4l-0.6,0.1l0,0.4l-0.6,0.1l0,0.4l-0.6,0.1v0.4l-0.6,0.1l0,0.4l-0.6,0.1l0,0.4l-0.6,0.1v0.4l-0.6,0.1l0,0.4
				l-0.6,0.1l0,0.4l-0.6,0.1v0.4l-0.6,0.1l0,0.4l-0.6,0.1l0,0.4l-0.6,0.1v0.4l-0.6,0.1l0,0.4l-0.6,0.1l0,0.4l-0.6,0.1v0.4l-0.6,0.1
				l0,0.4l-0.6,0.1l0,0.4l-0.6,0.1v0.4l-0.6,0.1v0.4l-0.6,0.1l0,0.4l-0.6,0.1v0.4l-0.6,0.1v0.4l-0.6,0.1l0,0.4l-0.6,0.1v0.4
				l-0.6,0.1v0.4l-0.6,0.1l0,0.4l-0.6,0.1v0.4l-0.6,0.1v0.4l-0.6,0.1v0.4l-0.6,0.1v0.4l-0.6,0.1v0.4l-0.6,0.1v0.4l-0.6,0.1v0.4
				l-0.6,0.1v0.4l-0.6,0.1v0.4l-0.6,0.1v0.4l-0.6,0.1v0.4l-0.6,0.1v0.4L349,418v0.4l-0.6,0.1v248.9c0,3.1-0.2,5.9-0.6,8.6
				c-12.7-0.5-20.4-8.5-20.4-28.4l0.4-248.9l-51.5,6.1v0.4l-0.6,0.1l0,0.4l-0.6,0.1l0,0.4l-0.6,0.1l0,0.4l-0.6,0.1l0,0.4l-0.6,0.1
				l0,0.4l-0.6,0.1l0,0.4l-0.6,0.1l0,0.4l-0.6,0.1l0,0.4l-0.6,0.1l0,0.4l-0.6,0.1l0,0.4l-0.6,0.1l0,0.4l-0.6,0.1l0,0.4l-0.6,0.1v0.4
				l-0.6,0.1v0.4l-0.6,0.1v0.4l-0.6,0.1v0.4l-0.6,0.1v0.4l-0.6,0.1v0.4l-0.6,0.1v0.4l-0.6,0.1v0.4l-0.6,0.1l0,0.4l-0.6,0.1l0,0.4
				l-0.6,0.1l0,0.4l-0.6,0.1l0,0.4l-0.6,0.1l0,0.4l-0.6,0.1l0,0.4l-0.6,0.1l0,0.4l-0.6,0.1l0,0.4l-0.6,0.1v0.4l-0.6,0.1v0.4
				l-0.6,0.1v0.4l-0.6,0.1v0.4l-0.6,0.1v0.4l-0.6,0.1v0.4l-0.6,0.1l0-15.4l-136.2,16.2l0,0.4l-0.6,0.1l0,0.4l-0.6,0.1v0.4l-0.6,0.1
				l0,0.4l-0.6,0.1l0,0.4l-0.6,0.1v0.4l-0.6,0.1l0,0.4l-0.6,0.1l0,0.4l-0.6,0.1v0.4l-0.6,0.1l0,0.4l-0.6,0.1l0,0.4l-0.6,0.1l0,0.4
				l-0.6,0.1l0,0.4l-0.6,0.1v0.4l-0.6,0.1l0,0.4l-0.6,0.1l0,0.4l-0.6,0.1v0.4l-0.6,0.1l0,0.4l-0.6,0.1l0,0.4l-0.6,0.1v0.4l-0.6,0.1
				l0,0.4l-0.6,0.1l0,0.4l-0.6,0.1v0.4l-0.6,0.1l0,0.4l-0.6,0.1l0,0.4l-0.6,0.1v0.4l-0.6,0.1l0,0.4l-0.6,0.1l0,0.4l-0.6,0.1v0.4
				l-0.6,0.1l0,0.4l-0.6,0.1l0,0.4l-0.6,0.1v0.4l-0.6,0.1l0,0.4l-0.6,0.1v0.4l-0.6,0.1v0.4l-0.6,0.1l0,0.4l-0.6,0.1v0.4l-0.6,0.1
				v0.4l-0.6,0.1v0.4l-0.6,0.1v0.4l-0.6,0.1v0.4l-0.6,0.1v0.4l-0.6,0.1v0.4l-0.6,0.1v0.4l-0.6,0.1v0.4l-0.6,0.1v0.4l-0.6,0.1v0.4
				l-0.6,0.1v0.4l-0.6,0.1v0.4l-0.6,0.1v0.4l-0.6,0.1v0.4l-0.6,0.1v322.7l51.5-6.2V766.5z"/>
			<path class="st0" d="M836.5,681.8l0.6-0.1v-0.4l0.6-0.1v-0.4l0.6-0.1v-0.4l0.6-0.1v-0.4l0.6-0.1v-0.4l0.6-0.1v-0.4l0.6-0.1v-0.4
				l0.6-0.1v-0.4l0.6-0.1v-0.4l0.6-0.1v-0.4l0.6-0.1v-0.4l0.6-0.1v-0.4l0.6-0.1v-0.4l0.6-0.1v-0.4l0.6-0.1l0-0.4l0.6-0.1v-0.4
				l0.6-0.1v-0.4l0.6-0.1l0-0.4l0.6-0.1l0-0.4l0.6-0.1v-0.4l0.6-0.1v-0.4l0.6-0.1l0-0.4l0.6-0.1l0-0.4l0.6-0.1v-0.4l0.6-0.1v-0.4
				l0.6-0.1l0-0.4l0.6-0.1l0-0.4l0.6-0.1v-0.4l0.6-0.1v-0.4l0.6-0.1l0-0.4l0.6-0.1l0-0.4l0.6-0.1v-0.4l0.6-0.1v-0.4l0.6-0.1l0-0.4
				l0.6-0.1l0-0.4l0.6-0.1v-0.4l0.6-0.1v-0.4l0.6-0.1l0-0.4l0.6-0.1l0-0.4l0.6-0.1v-0.4l0.6-0.1v-0.4l0.6-0.1l0-0.4l0.6-0.1l0-0.4
				l0.6-0.1l0-0.4l0.6-0.1v-0.4l0.6-0.1l0-0.4l0.6-0.1l0-0.4l0.6-0.1l0-0.4l0.6-0.1v-0.4l0.6-0.1l0-0.4l0.6-0.1L869,549
				c13,2.8,19,14,19,36.7v50.7c0,26.3,1.9,31.1,4.7,39.1l52.4-6.3c-0.1-0.1-0.1-0.3-0.2-0.4l0.8-0.1c-0.1-0.1-0.1-0.3-0.2-0.4
				l0.8-0.1c-0.1-0.1-0.1-0.3-0.2-0.4l0.8-0.1c-0.1-0.1-0.1-0.3-0.2-0.4l0.8-0.1c-0.1-0.1-0.1-0.3-0.2-0.4l0.8-0.1
				c-0.1-0.1-0.1-0.3-0.2-0.4l0.8-0.1c-0.1-0.1-0.1-0.3-0.2-0.4l0.8-0.1c-0.1-0.1-0.1-0.3-0.2-0.4l0.8-0.1c-0.1-0.1-0.1-0.3-0.2-0.4
				l0.8-0.1c-0.1-0.1-0.1-0.3-0.2-0.4l0.8-0.1c-0.1-0.1-0.1-0.3-0.2-0.4l0.8-0.1c-0.1-0.1-0.1-0.3-0.2-0.4l0.8-0.1
				c-0.1-0.1-0.1-0.3-0.2-0.4l0.8-0.1c-0.1-0.1-0.1-0.3-0.2-0.4l0.8-0.1c-0.1-0.1-0.1-0.3-0.2-0.4l0.8-0.1c-0.1-0.1-0.1-0.3-0.2-0.4
				l0.8-0.1c-0.1-0.1-0.1-0.3-0.2-0.4l0.8-0.1c-0.1-0.1-0.1-0.3-0.2-0.4l0.8-0.1c-0.1-0.1-0.1-0.3-0.2-0.4l0.8-0.1
				c-0.1-0.1-0.1-0.3-0.2-0.4l0.8-0.1c-0.1-0.1-0.1-0.3-0.2-0.4l0.8-0.1c-0.1-0.1-0.1-0.3-0.2-0.4l0.8-0.1c-0.1-0.1-0.1-0.3-0.2-0.4
				l0.8-0.1c-0.1-0.1-0.1-0.3-0.2-0.4l0.8-0.1c-0.1-0.1-0.1-0.3-0.2-0.4l0.8-0.1c-0.1-0.1-0.1-0.3-0.2-0.4l0.8-0.1
				c-0.1-0.1-0.1-0.3-0.2-0.4l0.8-0.1c-0.1-0.1-0.1-0.3-0.2-0.4l0.8-0.1c-0.1-0.1-0.1-0.3-0.2-0.4l0.8-0.1c-0.1-0.1-0.1-0.3-0.2-0.4
				l0.8-0.1c-0.1-0.1-0.1-0.3-0.2-0.4l0.8-0.1c-0.1-0.1-0.1-0.3-0.2-0.4l0.8-0.1c-0.1-0.1-0.1-0.3-0.2-0.4l0.8-0.1
				c-0.1-0.1-0.1-0.3-0.2-0.4l0.8-0.1c-0.1-0.1-0.1-0.3-0.2-0.4l0.8-0.1c-0.1-0.1-0.1-0.3-0.2-0.4l0.8-0.1c-0.1-0.1-0.1-0.3-0.2-0.4
				l0.8-0.1c-0.1-0.1-0.1-0.3-0.2-0.4l0.8-0.1c-0.1-0.1-0.1-0.3-0.2-0.4l0.8-0.1c-0.1-0.1-0.1-0.3-0.2-0.4l0.8-0.1
				c-0.1-0.1-0.1-0.3-0.2-0.4l0.8-0.1c-0.1-0.1-0.1-0.3-0.2-0.4l0.8-0.1c-0.1-0.1-0.1-0.3-0.2-0.4l0.8-0.1c-0.1-0.1-0.1-0.3-0.2-0.4
				l0.8-0.1c-0.1-0.1-0.1-0.3-0.2-0.4l0.3,0v18.8l140.4-17v-0.4l0.6-0.1v-0.4l0.6-0.1v-0.4l0.6-0.1v-0.4l0.6-0.1v-0.4l0.6-0.1v-0.4
				l0.6-0.1v-0.4l0.6-0.1v-0.4l0.6-0.1v-0.4l0.6-0.1v-0.4l0.6-0.1v-0.4l0.6-0.1v-0.4l0.6-0.1v-0.4l0.6-0.1V642l0.6-0.1v-0.4l0.6-0.1
				V641l0.6-0.1l0-0.4l0.6-0.1V640l0.6-0.1l0-0.4l0.6-0.1V639l0.6-0.1v-0.4l0.6-0.1l0-0.4l0.6-0.1v-0.4l0.6-0.1l0-0.4l0.6-0.1v-0.4
				l0.6-0.1l0-0.4l0.6-0.1v-0.4l0.6-0.1l0-0.4l0.6-0.1v-0.4l0.6-0.1l0-0.4l0.6-0.1v-0.4l0.6-0.1v-0.4l0.6-0.1l0-0.4l0.6-0.1v-0.4
				l0.6-0.1l0-0.4l0.6-0.1v-0.4l0.6-0.1l0-0.4l0.6-0.1v-0.4l0.6-0.1l0-0.4l0.6-0.1v-0.4l0.6-0.1l0-0.4l0.6-0.1v-0.4l0.6-0.1v-0.4
				l0.6-0.1l0-0.4l0.6-0.1l0-0.4l0.6-0.1l0-0.4l0.6-0.1l0-0.4l0.6-0.1l0-0.4l0.6-0.1v-0.4l0.6-0.1l0-0.4l0.6-0.1v-0.4l0.6-0.1
				l0.1-46.1l-89,10.6l0.1-73.4l38.1-4.6v-0.4l0.6-0.1v-0.4l0.6-0.1v-0.4l0.6-0.1v-0.4l0.6-0.1v-0.4l0.6-0.1v-0.4l0.6-0.1V507
				l0.6-0.1v-0.4l0.6-0.1V506l0.6-0.1v-0.4l0.6-0.1V505l0.6-0.1v-0.4l0.6-0.1V504l0.6-0.1v-0.4l0.6-0.1v-0.4l0.6-0.1v-0.4l0.6-0.1
				v-0.4l0.6-0.1l0-0.4l0.6-0.1v-0.4l0.6-0.1l0-0.4l0.6-0.1l0-0.4l0.6-0.1v-0.4l0.6-0.1l0-0.4l0.6-0.1v-0.4l0.6-0.1v-0.4l0.6-0.1
				l0-0.4l0.6-0.1v-0.4l0.6-0.1l0-0.4l0.6-0.1l0-0.4l0.6-0.1v-0.4l0.6-0.1l0-0.4l0.6-0.1v-0.4l0.6-0.1v-0.4l0.6-0.1l0-0.4l0.6-0.1
				v-0.4l0.6-0.1l0-0.4l0.6-0.1l0-0.4l0.6-0.1v-0.4l0.6-0.1l0-0.4l0.6-0.1v-0.4l0.6-0.1v-0.4l0.6-0.1l0-0.4l0.6-0.1v-0.4l0.6-0.1
				l0-0.4l0.6-0.1l0-0.4l0.6-0.1l0-0.4l0.6-0.1l0-0.4l0.6-0.1v-0.4l0.6-0.1l0-0.4l0.6-0.1l0-0.4l0.6-0.1v-0.4l0.6-0.1l0.1-46.1
				l-70.7,8.4l0.1-68.8l56.1-6.8v-0.4l0.6-0.1v-0.4l0.6-0.1v-0.4l0.6-0.1v-0.4l0.6-0.1v-0.4l0.6-0.1v-0.4l0.6-0.1v-0.4l0.6-0.1v-0.4
				l0.6-0.1v-0.4l0.6-0.1v-0.4l0.6-0.1v-0.4l0.6-0.1v-0.4l0.6-0.1v-0.4l0.6-0.1v-0.4l0.6-0.1v-0.4l0.6-0.1l0-0.4l0.6-0.1v-0.4
				l0.6-0.1v-0.4l0.6-0.1l0-0.4l0.6-0.1l0-0.4l0.6-0.1v-0.4l0.6-0.1l0-0.4l0.6-0.1l0-0.4l0.6-0.1v-0.4l0.6-0.1V360l0.6-0.1l0-0.4
				l0.6-0.1V359l0.6-0.1v-0.4l0.6-0.1l0-0.4l0.6-0.1l0-0.4l0.6-0.1V357l0.6-0.1l0-0.4l0.6-0.1l0-0.4l0.6-0.1v-0.4l0.6-0.1v-0.4
				l0.6-0.1l0-0.4l0.6-0.1v-0.4l0.6-0.1v-0.4l0.6-0.1l0-0.4l0.6-0.1l0-0.4l0.6-0.1v-0.4l0.6-0.1v-0.4l0.6-0.1l0-0.4l0.6-0.1v-0.4
				l0.6-0.1l0-0.4l0.6-0.1l0-0.4l0.6-0.1l0-0.4l0.6-0.1l0-0.4l0.6-0.1l0-0.4l0.6-0.1l0-0.4l0.6-0.1v-0.4l0.6-0.1l0.1-46.1
				L1006,317.8l0,0.4l-0.6,0.1l0,0.4l-0.6,0.1l0,0.4l-0.6,0.1l0,0.4l-0.6,0.1l0,0.4l-0.6,0.1l0,0.4l-0.6,0.1l0,0.4l-0.6,0.1v0.4
				l-0.6,0.1v0.4l-0.6,0.1v0.4l-0.6,0.1l0,0.4l-0.6,0.1l0,0.4l-0.6,0.1l0,0.4l-0.6,0.1l0,0.4l-0.6,0.1l0,0.4l-0.6,0.1l0,0.4
				l-0.6,0.1v0.4l-0.6,0.1v0.4l-0.6,0.1v0.4l-0.6,0.1v0.4l-0.6,0.1v0.4l-0.6,0.1l0,0.4l-0.6,0.1l0,0.4l-0.6,0.1l0,0.4l-0.6,0.1
				l0,0.4l-0.6,0.1l0,0.4l-0.6,0.1l0,0.4l-0.6,0.1v0.4l-0.6,0.1v0.4l-0.6,0.1v0.4l-0.6,0.1v0.4l-0.6,0.1v0.4l-0.6,0.1v0.4l-0.6,0.1
				l0,0.4l-0.6,0.1l0,0.4l-0.6,0.1l0,0.4l-0.6,0.1l0,0.4l-0.6,0.1v0.4l-0.6,0.1v0.4l-0.6,0.1v0.4l-0.6,0.1v0.4l-0.6,0.1v0.4
				l-0.6,0.1v0.4l-0.6,0.1v0.4l-0.6,0.1v0.4L977,340v0.4l-0.6,0.1v0.4l-0.6,0.1v0.4l-0.6,0.1v0.4l-0.6,0.1v0.4l-0.6,0.1v0.4
				l-0.6,0.1v285.9c-1.1-7-1.3-14.6-1.2-23.6l0.1-49.8c0.1-33.4-8.2-56.6-33.4-64.4c0.2-0.2,0.4-0.3,0.6-0.5
				c0.2-0.2,0.4-0.3,0.6-0.5c0.2-0.2,0.4-0.3,0.6-0.5c0.2-0.2,0.4-0.3,0.6-0.5c0.2-0.2,0.4-0.3,0.6-0.5c0.2-0.2,0.4-0.3,0.6-0.5
				c0.2-0.2,0.4-0.3,0.6-0.5c0.2-0.2,0.4-0.3,0.6-0.5c0.2-0.2,0.4-0.3,0.6-0.5c0.2-0.2,0.4-0.3,0.6-0.5c0.2-0.2,0.4-0.3,0.6-0.5
				c17.7-13.8,26.1-35,26.2-64.3l0-25.4c0.1-49.8-22.8-71.5-76.2-65.1l-77.7,9.3v0.4l-0.6,0.1l0,0.4l-0.6,0.1v0.4l-0.6,0.1l0,0.4
				l-0.6,0.1l0,0.4l-0.6,0.1l0,0.4l-0.6,0.1l0,0.4l-0.6,0.1v0.4l-0.6,0.1l0,0.4l-0.6,0.1v0.4l-0.6,0.1l0,0.4l-0.6,0.1l0,0.4
				l-0.6,0.1v0.4l-0.6,0.1l0,0.4l-0.6,0.1v0.4l-0.6,0.1l0,0.4l-0.6,0.1v0.4l-0.6,0.1l0,0.4l-0.6,0.1v0.4l-0.6,0.1v0.4l-0.6,0.1
				l0,0.4l-0.6,0.1v0.4l-0.6,0.1l0,0.4l-0.6,0.1v0.4l-0.6,0.1l0,0.4l-0.6,0.1v0.4l-0.6,0.1v0.4l-0.6,0.1l0,0.4l-0.6,0.1v0.4
				l-0.6,0.1l0,0.4l-0.6,0.1v0.4l-0.6,0.1l0,0.4l-0.6,0.1v0.4l-0.6,0.1l0,0.4l-0.6,0.1l0,0.4l-0.6,0.1v0.4l-0.6,0.1l0,0.4l-0.6,0.1
				v0.4l-0.6,0.1v0.4l-0.6,0.1v0.4l-0.6,0.1v0.4l-0.6,0.1v0.4l-0.6,0.1v0.4l-0.6,0.1v0.4l-0.6,0.1v0.4l-0.6,0.1v0.4l-0.6,0.1v0.4
				l-0.6,0.1v0.4l-0.6,0.1v0.4l-0.6,0.1v0.4l-0.6,0.1v0.4l-0.6,0.1v322.7l51.5-6.2V681.8z M869.2,402.6
				c12.5,1.3,18.2,10.8,18.2,30.1v31.8c0,4.8-0.4,9.1-1.2,12.8l-17.2,2L869.2,402.6z"/>
		</g>
		<g>
			<path class="st1" d="M169.6,560.7l66.5-7.9l-0.1,46.1l-66.5,7.9l-0.2,133.2l-51.5,6.1l0.6-322.7l136.2-16.2l-0.1,46.1l-84.7,10.1
				L169.6,560.7z"/>
			<path class="st1" d="M328.5,398.4l-0.4,249c0,23.1,10.2,30.1,26.6,28.2c16.4-2,26.7-11.5,26.7-34.5l0.4-249l48.7-5.8L430.1,632
				c-0.1,51.6-26.4,84.3-76.9,90.3c-50.6,6-76.7-20.4-76.6-72l0.4-245.7L328.5,398.4z"/>
			<path class="st1" d="M450.7,383.9l159.2-19l-0.1,46.1l-53.8,6.4L555.4,694l-51.5,6.1l0.5-276.6l-53.8,6.4L450.7,383.9z"/>
			<path class="st1" d="M681.4,356.4l-0.4,249c0,23.1,10.2,30.1,26.6,28.2c16.4-2,26.7-11.5,26.7-34.5l0.4-249l48.7-5.8l-0.4,245.7
				c-0.1,51.6-26.4,84.3-76.9,90.3c-50.6,6-76.7-20.4-76.6-72l0.4-245.7L681.4,356.4z"/>
			<path class="st1" d="M925.7,649.9c-2.8-8-4.7-12.8-4.6-39.1l0.1-50.7c0.1-30-10.2-39.8-33.6-37l-17.8,2.1l-0.2,131.4l-51.5,6.1
				l0.6-322.7l77.7-9.3c53.4-6.4,76.3,15.3,76.2,65.1l0,25.4c-0.1,33.2-10.9,56.1-33.8,69.5c25.7,7.5,34.1,31,34.1,64.6l-0.1,49.8
				c0,15.7,0.4,27.1,5.5,38.5L925.7,649.9z M870,380l-0.2,99.1l20.1-2.4c19.2-2.3,30.9-12,31-37.8l0.1-31.8
				c0-23.1-7.9-32.2-26.2-30.1L870,380z"/>
			<path class="st1" d="M1058,447.4l70.7-8.4l-0.1,46.1l-70.7,8.4l-0.2,94.5l88.9-10.6l-0.1,46.1l-140.4,16.7l0.6-322.7l140.4-16.7
				l-0.1,46.1l-88.9,10.6L1058,447.4z"/>
		</g>
	</g>
	<g>
		<path class="st1" d="M117,792.9l31-3.7l-0.3,194.5l-31,3.7L117,792.9z"/>
		<path class="st1" d="M198.1,836.8l-0.2,140.8L170,981l0.3-194.5l38.9-4.6l31.7,112.6l0.2-116.4l27.6-3.3l-0.3,194.5l-31.9,3.8
			L198.1,836.8z"/>
		<path class="st1" d="M318.6,822.5l-0.2,140.9l-27.9,3.3l0.3-194.5l38.9-4.6l31.7,112.6l0.2-116.4l27.6-3.3l-0.3,194.5l-31.9,3.8
			L318.6,822.5z"/>
		<path class="st1" d="M408.8,804.8c0.1-31.1,16.7-50.9,47.2-54.5c30.5-3.6,47.1,12.2,47,43.3l-0.2,101.1
			c-0.1,31.1-16.7,50.9-47.2,54.5c-30.5,3.6-47.1-12.2-47-43.3L408.8,804.8z M439.7,904.2c0,13.9,6.2,18.4,16,17.3
			c9.9-1.2,16.1-7.2,16.1-21.1l0.2-105c0-13.9-6.2-18.4-16-17.3c-9.9,1.2-16.1,7.2-16.1,21.1L439.7,904.2z"/>
		<path class="st1" d="M569.4,897.6l24-161.5l28.5-3.4l-30.8,198.1l-46.3,5.5l-30.1-190.8l31.3-3.7L569.4,897.6z"/>
		<path class="st1" d="M729.3,914.4l-31.3,3.7l-5.3-34.6l-38.1,4.5l-5.4,35.9l-28.5,3.4l31.9-198.2l45.4-5.4L729.3,914.4z
			 M658.6,861.1l29.9-3.6L673.7,761L658.6,861.1z"/>
		<path class="st1" d="M724.3,720.5l95.9-11.4l0,27.8l-32.4,3.9l-0.3,166.7l-31,3.7l0.3-166.7l-32.4,3.9L724.3,720.5z"/>
		<path class="st1" d="M831.1,754.5c0.1-31.1,16.7-50.9,47.2-54.5c30.5-3.6,47.1,12.2,47,43.3l-0.2,101.1
			c-0.1,31.1-16.7,50.9-47.2,54.5c-30.5,3.6-47.1-12.2-47-43.3L831.1,754.5z M861.9,853.8c0,13.9,6.2,18.4,16,17.3
			c9.9-1.2,16.1-7.2,16.1-21.1l0.2-105c0-13.9-6.2-18.4-16-17.3c-9.9,1.2-16.1,7.2-16.1,21.1L861.9,853.8z"/>
		<path class="st1" d="M1009.9,880.9c-1.7-4.8-2.8-7.7-2.8-23.6l0.1-30.6c0-18.1-6.2-24-20.3-22.3l-10.7,1.3l-0.1,79.2l-31,3.7
			l0.3-194.5l46.8-5.6c32.2-3.8,46,9.2,45.9,39.2l0,15.3c0,20-6.5,33.8-20.4,41.9c15.5,4.5,20.6,18.7,20.5,38.9l-0.1,30
			c0,9.4,0.3,16.4,3.3,23.2L1009.9,880.9z M976.4,718.2l-0.1,59.7l12.1-1.4c11.6-1.4,18.6-7.2,18.7-22.8l0-19.2
			c0-13.9-4.8-19.4-15.8-18.1L976.4,718.2z"/>
		<path class="st1" d="M1100.5,673.5c30.2-3.6,45.7,12.3,45.6,43.4l0,6.1l-29.3,3.5l0-8.1c0-13.9-5.6-18.5-15.5-17.3
			c-9.9,1.2-15.5,7.1-15.5,21c-0.1,40,60.6,40.3,60.5,95.8c-0.1,31.1-15.9,50.8-46.3,54.4c-30.5,3.6-46.2-12.3-46.2-43.4l0-11.9
			l29.3-3.5l0,13.9c0,13.9,6.2,18.1,16,17c9.9-1.2,16.1-6.9,16.1-20.8c0.1-40-60.6-40.3-60.5-95.8
			C1054.8,696.7,1070.4,677,1100.5,673.5z"/>
	</g>
	<path class="st1" d="M112.9,1054c0-14.2,6.6-25.4,21.6-27.2c15.2-1.8,21.9,7.8,21.9,21.9v49.7c0,14.2-6.6,25.4-21.9,27.2
		c-14.9,1.8-21.6-7.8-21.6-22V1054z M119.4,1103.4c0,10.6,4.2,17.8,15.1,16.5c11-1.3,15.4-9.6,15.4-20.2v-50.6
		c0-10.6-4.4-17.8-15.4-16.5c-10.9,1.3-15.1,9.6-15.1,20.2V1103.4z"/>
	<path class="st1" d="M262.8,1059.5v5.8l-25.5,3.1v44l-6.5,0.8V1016l37.5-4.5v5.8l-31,3.8v41.5L262.8,1059.5z"/>
	<path class="st1" d="M433.9,991.5v97.2l-6.5,0.8v-97.2L433.9,991.5z"/>
	<path class="st1" d="M514.9,1078.9l-5.9,0.7v-97.2l8.5-1l29.6,78.5v-82.1l5.9-0.7v97.2l-7.2,0.9l-30.9-83V1078.9z"/>
	<path class="st1" d="M649.5,965.4c15.2-1.8,21.9,7.2,21.9,21.5v48.9c0,14.3-6.6,25-21.9,26.8l-21.7,2.6V968L649.5,965.4z
		 M649.4,1056.8c11-1.3,15.5-9.2,15.5-19.9v-49.5c0-10.7-4.7-17.5-15.5-16.2l-15.1,1.8v85.6L649.4,1056.8z"/>
	<path class="st1" d="M752.3,952.9v97.2l-6.5,0.8v-97.2L752.3,952.9z"/>
	<path class="st1" d="M836.8,1018.4l-4.9,22.1l-5.9,0.7l21.6-100l9.4-1.1l22,94.7l-6.5,0.8l-4.9-20.9L836.8,1018.4z M837.8,1012.8
		l28.8-3.5L852,948.1L837.8,1012.8z"/>
	<path class="st1" d="M958.5,1025.3l-5.9,0.7v-97.2l8.5-1l29.6,78.5v-82.1l5.9-0.7v97.2l-7.2,0.9l-30.9-83V1025.3z"/>
	<path class="st1" d="M1080.8,988.9l-4.9,22.1l-5.9,0.7l21.6-100l9.4-1.1l22,94.7l-6.5,0.8l-4.9-20.9L1080.8,988.9z M1081.8,983.2
		l28.8-3.5l-14.5-61.2L1081.8,983.2z"/>
	<g>
		<path class="st0" d="M1076.6,271.8c-0.5-0.4-1.3-0.4-1.7,0.1l-27.1,30.1c-0.4,0.5-0.4,1.3,0.1,1.7c0.2,0.2,0.5,0.3,0.8,0.3
			c0.3,0,0.7-0.1,0.9-0.4l27.1-30.1C1077.2,273,1077.1,272.3,1076.6,271.8z"/>
		<path class="st0" d="M924.9,123.4c-0.6-0.3-1.3,0-1.6,0.5l-98.7,199.6c-0.3,0.6-0.1,1.3,0.5,1.6c0.2,0.1,0.4,0.1,0.5,0.1
			c0.4,0,0.9-0.2,1.1-0.7l98.7-199.6C925.8,124.5,925.5,123.7,924.9,123.4z"/>
		<path class="st0" d="M210.2,169c-0.3-0.6-1.1-0.8-1.6-0.4c-0.6,0.3-0.8,1.1-0.4,1.6l122.1,212.7c0.2,0.4,0.6,0.6,1,0.6
			c0.2,0,0.4-0.1,0.6-0.2c0.6-0.3,0.8-1.1,0.4-1.6L210.2,169z"/>
		<path class="st0" d="M631.3,162c-0.7-0.1-1.2,0.4-1.3,1.1l-14.8,187.3c-0.1,0.7,0.4,1.2,1.1,1.3c0,0,0.1,0,0.1,0
			c0.6,0,1.2-0.5,1.2-1.1l14.8-187.3C632.5,162.6,632,162,631.3,162z"/>
		<path class="st0" d="M93.1,323.2c-0.5-0.4-1.3-0.4-1.7,0.1c-0.4,0.5-0.4,1.3,0.1,1.7l91.8,78.4c0.2,0.2,0.5,0.3,0.8,0.3
			c0.3,0,0.7-0.1,0.9-0.4c0.4-0.5,0.4-1.3-0.1-1.7L93.1,323.2z"/>
	</g>
	<g>
		<path class="st0" d="M656,1142.8c0-0.3,0-0.7-0.2-1.1c0.3-0.5,0.5-1,0.4-1.6c0-1,0-2,0-3c0-2.8-0.1-5.7-0.2-8.5l0-1.6
			c0-1.3,0-2.6,0-3.9c0-0.1,0-0.2,0-0.4c0-0.4,0.1-1-0.1-1.6c0.1-0.5,0.1-0.9,0.1-1.2l0-0.1c0-1.8-0.1-3.6-0.2-5.4
			c0-0.2,0-0.3,0-0.5c0-0.5,0-1.1-0.2-1.8c0-0.3,0-0.5,0-0.8c0-0.8,0-1.6,0-2.4c0-0.2,0-0.5,0-0.7c0-0.6,0.1-1.4-0.2-2.2
			c0.1-1.1,0-2.1,0-3.1c0-0.5-0.1-1-0.1-1.5c0-0.5-0.2-1-0.6-1.3c-0.3-0.2-0.8-0.5-1.6-0.4l-0.6,0.1c-0.4,0-0.7,0.1-1.1,0.1
			c-0.8,0.1-1.6,0.2-2.4,0.3c-1.5,0.2-3,0.3-4.5,0.7l-4,0.5l-6.5,0.8c-0.8,0.1-1.7,0.2-2.5,0.3c-1,0.1-1.9,0.4-2.6,1l-0.8,0.6
			c-0.4,0.1-0.8,0.4-1.1,0.7c-1.5,0.8-2.2,0.7-2.8,0.3c-0.6-0.7-1.2-0.7-1.5-0.7c-0.4,0-1.1,0.3-1.5,1.3c-0.2,0.5-0.1,0.9-0.1,1.2
			l0,5c0,4.3,0,8.7,0,13c0,0.2,0,0.5-0.1,0.7c-0.1,0.6-0.2,1.4,0,2.2c-0.2,0.5-0.2,1-0.1,1.3l0,0.1l0,10.8c0,0.1,0,0.1,0,0.2
			c-0.4,0.3-0.6,0.7-0.8,1.2c-0.1,0.5-0.1,1,0,1.4c-0.4,0.4-0.6,0.9-0.7,1.4c-0.1,0.9,0.5,1.5,0.8,1.8l0,0c0,0.7,0.2,1.1,0.6,1.4
			c-0.2,1,0.1,1.8,0.4,2.3c-0.9,0.6-1.2,1.4-1.4,2c0,0.1-0.1,0.2-0.1,0.3c-0.2,0.4-0.3,0.7-0.4,1c-0.5,0.4-0.7,0.9-0.9,1.3l-0.1,0.3
			c-0.4,0.9-0.6,1.3-1,1.4c-0.8,0.3-1.5,1.1-1.7,2.1c-0.1,0.4-0.1,0.8,0.1,1.2c-0.2,0.2-0.3,0.5-0.3,0.8l-0.2,1.1
			c-0.2,0.9-0.4,1.7-0.5,2.6c-0.2,1,0.2,1.6,0.4,2c0.3,0.4,0.8,0.7,1.4,0.7c0.3,0.1,0.6,0.2,0.9,0.2c0.6,0,1.1-0.3,1.5-0.7
			c0.2-0.3,0.4-0.6,0.5-0.9c0.1,0,0.1,0,0.2,0c0.1,0.1,0.3,0.3,0.5,0.4c0.8,0.4,1.9,0.2,2.6-0.5c0.3-0.3,0.4-0.6,0.6-0.9
			c0.2-0.1,0.5-0.2,0.7-0.3c0.7,0.3,1.3,0.6,2,0.9c0.6,0.8,1.5,1,2.2,0.7c1.3-0.4,1.5-1.6,1.5-2l0-0.1c0-0.1,0-0.1,0-0.2
			c0.1,0,0.1-0.1,0.2-0.1c0.2-0.1,0.5-0.2,0.8-0.4c0.2,0.3,0.5,0.5,0.8,0.6c0.1,0,0.2,0.1,0.3,0.1c0.3,0.3,0.7,0.5,1.1,0.6
			c0.6,0.1,1.2-0.1,1.6-0.4c0.4-0.3,0.5-0.7,0.6-1c0.3-0.2,0.6-0.4,0.8-0.8c0.2-0.3,0.3-0.7,0.3-1.3c0.2-0.1,0.4-0.2,0.5-0.4
			c0.1,0.1,0.1,0.1,0.2,0.2c0.4,0.3,1.1,0.7,2.3,0.6c0.6,0.3,1.4,0.3,2.3-0.1c0.5-0.2,1.6-0.8,1.8-2c0-0.3,0.1-0.5,0.1-0.8
			c0.1-0.8,0.2-1.3,0.5-1.7c0-0.1,0.1-0.1,0.1-0.2c1.7-0.4,2.2-0.9,2.6-2.8c0,0,0-0.1,0-0.1c1.2-0.4,2.8-2.3,2.5-3.7
			c-0.1-0.3-0.1-0.5-0.2-0.8c1,0.8,2.3,0.6,3.3-0.4c0.5-0.6,1.2-1,1.9-1.1c0.6-0.1,1.8-0.4,2.2-2.2c0.1-0.5,0.3-1.2-0.3-1.9
			C656.1,1142.8,656,1142.8,656,1142.8z M652.2,1142l0,1.4h0.1c0,0.3,0,0.5,0.1,0.7c-0.8,0.3-1.5,0.8-2.2,1.4
			c-1.5-0.7-3.4-0.1-4.4,1.1l-0.5,0.6l0.4,1.4c0.1,0.3,0.2,0.6,0.2,0.9c-0.1,0.1-0.2,0.3-0.3,0.4c-1.1,0.3-1.8,1.1-2.1,2.4
			c0,0.1-0.1,0.3-0.1,0.4c-0.1,0-0.3,0.1-0.5,0.1c-0.4,0.1-0.7,0.2-0.9,0.4l-0.8,0.4l-0.1,0.8c-0.7,1-0.8,2.1-0.9,3
			c0,0.1,0,0.1,0,0.2c-0.3-0.1-0.7-0.2-1-0.1c-0.2-1.7-1.5-1.9-2.1-1.9l-1.7-0.1l0,0.9c-0.4,0.1-1.1,0.2-1.5,1
			c-0.1,0.2-0.1,0.3-0.2,0.5l-0.6,0.5l-0.1,0.6c0,0.1,0,0.1,0,0.2c0,0.2-0.1,0.4-0.1,0.6c0,0-0.1,0-0.1,0c0,0,0,0,0,0
			c-0.4-0.6-1-0.9-1.7-1c-0.7,0-1.3,0.3-1.6,0.8c-0.1,0.2-0.4,0.3-0.8,0.5c-0.4,0.2-0.8,0.4-1.2,0.7l-0.5,0.4l-0.1,0.3
			c-0.7-0.3-1.5-0.7-2.2-1c-0.5-0.2-1.2-0.2-1.7,0.1c-0.3-0.3-0.8-0.5-1.6-0.3l-1.7,0.4l0.3,0.9c-0.2,0-0.3,0.1-0.4,0.2
			c-0.2-0.2-0.5-0.3-0.9-0.4l0,0c0.5-0.4,0.9-0.9,0.9-1.5c0-0.3,0-0.6-0.1-1c1.3-0.7,1.8-2,2.1-2.9l0.1-0.3c0-0.1,0.1-0.1,0.1-0.2
			l0.2-0.1l0.3-0.4c0.4-0.5,0.4-1,0.5-1.3l0-0.1c0.1-0.2,0.2-0.4,0.3-0.6c0.2-0.5,0.2-0.5,0.3-0.5c1.1-0.5,1.3-1.5,1.4-2.1
			c0-0.1,0-0.2,0.1-0.3l0.2-0.6l-0.2-0.5c-0.1-0.2-0.2-0.4-0.3-0.5c0-0.1-0.1-0.2-0.1-0.3c0.3-0.5,0.4-1.1,0.2-1.6
			c-0.1-0.5-0.4-0.8-0.7-1.1c0-0.3-0.1-0.7-0.3-1l-0.1-0.1c0.6-0.8,0.5-1.5,0.3-2.1c0.7-0.8,0.7-1.7,0.6-2.1l0-0.1l0-10.8
			c0-0.1,0-0.2,0-0.3c0,0,0,0,0-0.1l0.2-0.3v-1.3l-0.1-0.3c-0.1-0.2,0-0.6,0-1c0-0.3,0.1-0.7,0.1-1.1c0-4.3,0-8.7,0-13l0-3.4
			c1.9,0.3,3.6-0.6,4.4-1l0.3-0.2l0.2-0.2l0.3-0.1l1-0.7l0.3-0.3c0.3-0.2,0.5-0.4,0.9-0.4c0.9-0.1,1.7-0.2,2.6-0.3l6.5-0.8l4.1-0.6
			l0.2,0c1.4-0.3,2.8-0.5,4.2-0.7c0.8-0.1,1.7-0.2,2.5-0.3c0.1,0,0.2,0,0.2,0c0,0,0,0,0,0c0.1,1,0.1,2,0,2.9l0,0.6l0.1,0.3
			c0.1,0.3,0.1,0.7,0.1,1.2c0,0.3,0,0.7,0,1c0,0.7,0,1.5,0,2.2c0,0.4,0,0.7,0,1.1l0,0.4l0.1,0.3c0,0.1,0,0.5,0,0.7
			c0,0.2,0,0.5,0,0.7c0.1,1.8,0.1,3.6,0.2,5.4l0,0.3c0,0,0,0,0,0l-0.2,0.2l0,1.4l0.2,0.3c0,0.1,0,0.3,0,0.4c0,0.2,0,0.4,0,0.6
			c0,1.3,0,2.5,0,3.8l0,1.7c0.2,2.8,0.2,5.7,0.2,8.4c0,1,0,1.9,0,2.9C652.2,1140.7,652.1,1141.4,652.2,1142z"/>
		<path class="st0" d="M597.8,1136l-491.7,59.6c-0.9,0.1-1.5,0.9-1.4,1.8c0.1,0.8,0.8,1.4,1.6,1.4c0.1,0,0.1,0,0.2,0l491.7-59.6
			c0.9-0.1,1.5-0.9,1.4-1.8C599.5,1136.5,598.7,1135.9,597.8,1136z"/>
		<path class="st0" d="M1125.9,1074.1c-0.1-0.9-0.9-1.5-1.8-1.4l-451.2,54.3c-0.9,0.1-1.5,0.9-1.4,1.8c0.1,0.8,0.8,1.4,1.6,1.4
			c0.1,0,0.1,0,0.2,0l451.2-54.3C1125.4,1075.7,1126,1074.9,1125.9,1074.1z"/>
	</g>
</g>
</svg>
