<?xml version="1.0" encoding="utf-8"?>
<!-- Generator: Adobe Illustrator 21.1.0, SVG Export Plug-In . SVG Version: 6.00 Build 0)  -->
<svg version="1.1" id="Layer_1" xmlns="http://www.w3.org/2000/svg" xmlns:xlink="http://www.w3.org/1999/xlink" x="0px" y="0px"
	 viewBox="0 0 93.3 106.7" style="enable-background:new 0 0 93.3 106.7;" xml:space="preserve">
<style type="text/css">
	.st0{fill:#FFE600;}
	.st1{fill:none;stroke:#0071ED;stroke-miterlimit:10;}
</style>
<g>
	<path class="st0" d="M92.3,77.1l-9-12.5c1.1-5.1,1.1-10.3,0.1-15.3L92.7,37c-1.4-3.4-3.3-6.7-5.5-9.7l-15.3,1.5
		c-1.6-1.4-3.3-2.7-5.1-3.9c-2.6-1.6-5.3-2.9-8-3.9L52.7,6.9C49,6.4,45.3,6.4,41.6,6.8l-6.4,14c-4.8,1.5-9.4,4.1-13.3,7.5L6.6,26.5
		c-0.8,1-1.5,2.1-2.2,3.2c-1.3,2.1-2.5,4.2-3.4,6.4l9,12.5c-1.1,5.1-1.1,10.3-0.1,15.3L0.6,76.2C2,79.6,3.8,82.9,6,85.9l15.3-1.5
		c1.6,1.4,3.3,2.7,5.1,3.9c2.6,1.6,5.3,2.9,8,3.9l6.1,14.2c3.7,0.4,7.4,0.5,11.1,0.1l6.4-14c4.8-1.5,9.4-4.1,13.3-7.5l15.3,1.8
		c0.8-1,1.5-2.1,2.2-3.2C90.2,81.4,91.4,79.3,92.3,77.1z M35.4,74.2C25.7,68,22.9,55.1,29,45.4S48.1,32.8,57.9,39
		s12.6,19.1,6.4,28.8S45.2,80.4,35.4,74.2z"/>
	<path class="st1" d="M92.3,71.1l-9-12.5c1.1-5.1,1.1-10.3,0.1-15.3L92.7,31c-1.4-3.4-3.3-6.7-5.5-9.7l-15.3,1.5
		c-1.6-1.4-3.3-2.7-5.1-3.9c-2.6-1.6-5.3-2.9-8-3.9L52.7,0.9C49,0.4,45.3,0.4,41.6,0.8l-6.4,14c-4.8,1.5-9.4,4.1-13.3,7.5L6.6,20.5
		c-0.8,1-1.5,2.1-2.2,3.2c-1.3,2.1-2.5,4.2-3.4,6.4l9,12.5c-1.1,5.1-1.1,10.3-0.1,15.3L0.6,70.2C2,73.6,3.8,76.9,6,79.9l15.3-1.5
		c1.6,1.4,3.3,2.7,5.1,3.9c2.6,1.6,5.3,2.9,8,3.9l6.1,14.2c3.7,0.4,7.4,0.5,11.1,0.1l6.4-14c4.8-1.5,9.4-4.1,13.3-7.5l15.3,1.8
		c0.8-1,1.5-2.1,2.2-3.2C90.2,75.4,91.4,73.3,92.3,71.1z M35.4,68.2C25.7,62,22.9,49.1,29,39.4S48.1,26.8,57.9,33
		s12.6,19.1,6.4,28.8S45.2,74.4,35.4,68.2z"/>
</g>
</svg>
