<?xml version="1.0" encoding="utf-8"?>
<!-- Generator: Adobe Illustrator 21.1.0, SVG Export Plug-In . SVG Version: 6.00 Build 0)  -->
<svg version="1.1" id="Layer_1" xmlns="http://www.w3.org/2000/svg" xmlns:xlink="http://www.w3.org/1999/xlink" x="0px" y="0px"
	 viewBox="0 0 43.3 46.8" style="enable-background:new 0 0 43.3 46.8;" xml:space="preserve">
<style type="text/css">
	.st0{fill:none;stroke:#FFFFFF;stroke-miterlimit:10;}
</style>
<path class="st0" d="M42.6,32.8l-4.1-5.7c0.5-2.3,0.5-4.7,0.1-7l4.2-5.7c-0.7-1.6-1.5-3-2.5-4.4l-7,0.7c-0.7-0.6-1.5-1.2-2.3-1.8
	c-1.2-0.7-2.4-1.3-3.7-1.8l-2.8-6.5c-1.7-0.2-3.4-0.2-5.1,0L16.4,7c-2.2,0.7-4.3,1.9-6.1,3.4l-7-0.8c-0.4,0.5-0.7,1-1,1.5
	C1.7,12.1,1.2,13,0.8,14l4.1,5.7c-0.5,2.3-0.5,4.7-0.1,7l-4.2,5.7c0.7,1.6,1.5,3,2.5,4.4l7-0.7c0.7,0.6,1.5,1.2,2.3,1.8
	c1.2,0.7,2.4,1.3,3.7,1.8l2.8,6.5c1.7,0.2,3.4,0.2,5.1,0l2.9-6.4c2.2-0.7,4.3-1.9,6.1-3.4l7,0.8c0.4-0.5,0.7-1,1-1.5
	C41.6,34.8,42.1,33.8,42.6,32.8z M16.5,31.5c-4.4-2.8-5.8-8.7-2.9-13.2s8.7-5.8,13.2-2.9s5.8,8.7,2.9,13.2S21,34.3,16.5,31.5z"/>
</svg>
