<?xml version="1.0" encoding="utf-8"?>
<!-- Generator: Adobe Illustrator 22.0.0, SVG Export Plug-In . SVG Version: 6.00 Build 0)  -->
<svg version="1.1" id="Layer_1" xmlns="http://www.w3.org/2000/svg" xmlns:xlink="http://www.w3.org/1999/xlink" x="0px" y="0px"
	 viewBox="0 0 549.7 533.7" style="enable-background:new 0 0 549.7 533.7;" xml:space="preserve">
<style type="text/css">
	.st0{enable-background:new    ;}
	.st1{fill:none;stroke:#0071ED;stroke-miterlimit:10;}
	.st2{fill:#0071ED;}
	.st3{fill:#FFFFFF;}
	.st4{fill:none;stroke:#0071ED;stroke-linecap:round;stroke-miterlimit:10;}
</style>
<g>
	<g>
		<g class="st0">
			<path class="st1" d="M79.3,406.5l-10.7,80.7l-40.2,4.9L7.7,345.6l28.5-3.4l15.7,115.6L66,338.5l28.2-3.4l14.6,116.6l15.2-120.2
				l25.6-3.1l-20.8,151.5L90,484.6L79.3,406.5z"/>
			<path class="st1" d="M164.3,326.6l29.3-3.5v149l-29.3,3.5V326.6z"/>
			<path class="st1" d="M206.4,321.5l90.5-11v21.3l-30.6,3.7v127.7l-29.3,3.5V339.1l-30.6,3.7V321.5z"/>
		</g>
		<g class="st0">
			<path class="st1" d="M10.2,206.5l18-2.2v112.7l-18,2.2V206.5z"/>
			<path class="st1" d="M65.1,231v81.6l-16.2,2V201.8l22.6-2.7L90,264.3v-67.5l16-1.9v112.7l-18.5,2.2L65.1,231z"/>
			<path class="st1" d="M142.8,221.6v81.6l-16.2,2V192.5l22.6-2.7l18.5,65.2v-67.5l16-1.9v112.7l-18.5,2.2L142.8,221.6z"/>
			<path class="st1" d="M202.9,210.3c0-18,9.6-29.5,27.3-31.6s27.3,7,27.3,25v58.6c0,18-9.6,29.5-27.3,31.6
				c-17.7,2.1-27.3-7-27.3-25V210.3z M220.9,267.8c0,8,3.6,10.7,9.3,10c5.7-0.7,9.3-4.2,9.3-12.2v-60.9c0-8-3.6-10.7-9.3-10
				c-5.7,0.7-9.3,4.2-9.3,12.2V267.8z"/>
			<path class="st1" d="M303.9,262.9l13.7-93.6l16.5-2l-17.7,114.8l-26.8,3.2L272,174.9l18.1-2.2L303.9,262.9z"/>
			<path class="st1" d="M404.4,271.5l-18.1,2.2l-3.1-20.1l-22.1,2.7l-3.1,20.8l-16.5,2l18.3-114.9l26.3-3.2L404.4,271.5z
				 M363.4,240.8l17.3-2.1l-8.7-55.9L363.4,240.8z"/>
			<path class="st1" d="M409.2,158.3l55.6-6.7v16.1l-18.8,2.3v96.6l-18,2.2v-96.6l-18.8,2.3V158.3z"/>
			<path class="st1" d="M498.4,195l24.7-3v16.1l-24.7,3v33l31.1-3.8v16.1l-49,5.9V149.7l49-5.9v16.1l-31.1,3.8V195z"/>
		</g>
		<g class="st0">
			<path class="st1" d="M339,454.5l-29.3,3.5V309l29.3-3.5v63.9l33.3-4v-63.9l29.8-3.6v149l-29.8,3.6v-63.9l-33.3,4V454.5z"/>
		</g>
		<g class="st0">
			<path class="st1" d="M439.9,293.3v149l-9.9,1.2v-149L439.9,293.3z"/>
			<path class="st1" d="M466.2,439.1l-9.1,1.1v-149l13-1.6L515.5,410V284.1l9.1-1.1v149l-11,1.3l-47.3-127.1V439.1z"/>
		</g>
	</g>
</g>
<g>
	<g>
		<g>
			<path class="st2" d="M547.6,437.1c-1.6,0-2.3-0.9-1.1-2.3c2.4-2.9,0.5-4.4-1.1-6.1l0,0c-0.6-1.4,0.5-2.3,1.5-3.1
				c1.3-1.2,1.7-2.5,1.7-4.1c-0.3-16.1-0.2-32.3-1.1-48.3c0-7.6,0.1-15.2,0-22.9c0-2.5,0.7-5.2-0.7-7.4l0,0c0-0.6,0-1.3,0-1.9
				c1-1.5,0.6-3,0.6-4.4c-0.2-7.6-0.4-15.1-0.7-22.6c-0.1-2.8,0.5-5.7-0.7-8.3v-0.3c0-4.7,0.1-9.4-0.1-14.1
				c-0.2-3.8,0.7-7.9-0.8-11.5v-0.4c0.7-6.7-0.2-13.1-0.3-19.7c0-0.8-0.9-0.8-1.6-0.7l0,0c-0.4,0.1-0.8,0.1-1.1,0.2
				c-1.9,0.2-3.8,0.3-5.7,0.6c-9.5,1.5-19,1.9-28.5,4.2c-5.7,0.8-11.5,1.5-17.2,2.3c-7.4,0.9-14.8,1.8-22.3,2.7
				c-5.2,0.6-10.3,1.3-15.5,1.8c-3,0.2-5.6,1.3-7.8,3.5l0,0l0,0c-0.2,0.2-0.3,0.3-0.5,0.5c-1.1,0.8-2.2,1.6-3.3,2.3l0,0l0,0
				c-1.4,0.3-2.5,1-3.5,2.1c-7,3.8-13.9,5.8-20.2,0.9c-0.5-0.3-0.9-2.2-1.7-0.1c-0.3,0.9-0.1,1.9-0.1,2.8
				c-0.1,25.1-0.2,50.3-0.1,75.4c0,3.9-1.6,7.9,0.1,11.6v1.9c-1.1,1.6-0.7,3.2-0.7,4.8c-0.1,15-0.1,30.1-0.1,45.1
				c0,1.7,0.4,3.5-1.1,5.1l0,0c-2.8,1.3-2.8,3.9-1.8,5.4c1.5,2.3,0.5,3.6-1.2,5.1c-3.5,2.8-0.7,4.2,0.6,6h0.2
				c0.2,0.2,0.4,0.5,0.7,0.7c0.9,1.4-0.8,3.8,1.2,4.8l0,0c1.4,0.7,3.2,1.6,2.1,3.4c-2.5,4.1,0,6.6,1.4,9.6c-0.6,2-0.6,4.9-2.3,5.6
				c-3.9,1.7-4.2,5-5.6,7.9c-1.3,1.4-0.3,3.4-1.5,4.8l0,0c-0.1,0.1-0.2,0.2-0.3,0.3c-1.6,0.9-2.2,2.1-3,3.9
				c-1.8,4.2-3.4,9.1-8.8,10.8c-2.1,0.7-3.5,4.7-1.9,6c2,1.6,2,2.8-0.6,4.1c-0.7,0.3-1.1,0.9-1.3,1.6c-1.1,5-2.3,10-3.1,15.1
				c-0.3,1.7-0.1,3.5,2.4,3.6c1.1,0,1.8,1.7,3.4-0.2c1.7-1.9,0.9-2.9,0-4.2c-1-1.4,0.1-2.6,1.1-3.6c1.4-1.5,2.2-0.3,2.9,0.6
				c1.1,1.6,2.4,1.3,4.2,0.5c1.7-0.8,3.6-1.9,5.5-1c-0.1,1.3-2.2,2.9-0.2,3.9c0.8,0.4,1.9,0.1,2.7-0.7c1.3-1.4,1.5-2.8,0.1-3.9
				c-1.8-1.4,0.6-3,0.1-4.5c0.3-0.1,0.7-0.2,0.8-0.1c1.8,2.8,3.9,4.6,7.3,0.9c0.3-0.3,1.2-0.4,1.6-0.3c4.4,1.9,8.9,3.8,13.3,5.8
				c0.9,0.4,0.6,2.5,2.4,1.9c1.8-0.7,1.8-2.4,2.1-3.8c0.3-1.2,0.4-2.4,0.6-3.6c3.2-2.4,7.5-2.9,10.1-6.6c0.7-1,2-0.8,2.7,0.3
				c0.6,0.9,0.7,2.2,1.9,2.8v0.1c0.9,4.4,3.3-0.2,4.9,0.2v0.1c0.2,0.2,0.5,0.5,0.7,0.7c0,1.2-1.8,3.2-0.1,3.4c2,0.3,1.9-1.8,1.9-3.2
				c0-0.4,0.1-0.8,0.1-1.2c2.9-0.4,5-1.1,3.5-4.7c-0.4-1,0.3-2.6,0.5-4l0,0c1.5-0.2,4.5-0.7,3.7-2c-2.8-4.4,1.6-2.6,2.7-3.5
				c1.7-0.4,3.6-0.6,3.6-3.1c2.2,0.1,2.2,1.6,2.3,3.4c0.1,3.7,2.4,5.5,6.2,4.8c1.4-0.2,2.4-0.1,3.4,0.6c1.8,1.2,7.3-1.2,7.7-3.7
				c0.8-4.6,0.6-9.4,4-13.5c0.3-0.4,0.2-1.1,0.3-1.6c0.6-0.3,1.3-0.8,1.9-0.9c6.4-1.2,6.4-1.2,7.9-7.3c0.6-2.4,1.6-4.4,4.5-5.1
				c2.3-0.6,6.5-5.9,6.1-7.4c-0.7-2.8-1.5-5.5-2.2-8.3c2.8-3.4,8.8-4.6,11.7-2.2c1.8,1.5,3.5,0.9,5-0.7c3.1-3.4,6.9-5.7,11.1-6.6
				c2.5-0.5,3.5-0.6,4.3-3.8C549.8,437.7,550.1,437.1,547.6,437.1z"/>
		</g>
	</g>
</g>
<g>
	<g>
		<g class="st0">
			<path class="st2" d="M16.4,200.5l18-2.2v112.7l-18,2.2V200.5z"/>
			<path class="st2" d="M71.3,225v81.6l-16.2,2V195.8l22.6-2.7l18.5,65.2v-67.5l16-1.9v112.7l-18.5,2.2L71.3,225z"/>
			<path class="st2" d="M149,215.6v81.6l-16.2,2V186.5l22.6-2.7l18.5,65.2v-67.5l16-1.9v112.7l-18.5,2.2L149,215.6z"/>
			<path class="st2" d="M209.1,204.3c0-18,9.6-29.5,27.3-31.6c17.7-2.1,27.3,7,27.3,25v58.6c0,18-9.6,29.5-27.3,31.6
				c-17.7,2.1-27.3-7-27.3-25V204.3z M227.1,261.8c0,8.1,3.6,10.7,9.3,10c5.7-0.7,9.3-4.2,9.3-12.2v-60.9c0-8-3.6-10.7-9.3-10
				c-5.7,0.7-9.3,4.2-9.3,12.2V261.8z"/>
			<path class="st2" d="M310.1,256.9l13.7-93.6l16.5-2l-17.7,114.8l-26.8,3.2l-17.7-110.6l18.1-2.2L310.1,256.9z"/>
			<path class="st2" d="M410.6,265.5l-18.1,2.2l-3.1-20.1l-22.1,2.7l-3.1,20.8l-16.5,2L366,158.2l26.3-3.2L410.6,265.5z
				 M369.6,234.8l17.3-2.1l-8.7-55.9L369.6,234.8z"/>
			<path class="st2" d="M415.4,152.3l55.6-6.7v16.1l-18.8,2.3v96.6l-18,2.2v-96.6l-18.8,2.3V152.3z"/>
			<path class="st2" d="M504.6,189l24.7-3v16.1l-24.7,3v33l31.1-3.8v16.1l-49,5.9V143.7l49-5.9v16.1l-31.1,3.8V189z"/>
		</g>
		<g class="st0">
			<path class="st2" d="M85.5,400.5l-10.7,80.7l-40.2,4.9L13.9,339.6l28.5-3.4l15.7,115.6l14.1-119.2l28.2-3.4l14.6,116.6
				l15.2-120.2l25.6-3.1l-20.8,151.5l-38.9,4.7L85.5,400.5z"/>
			<path class="st2" d="M170.5,320.6l29.3-3.5v149l-29.3,3.5V320.6z"/>
			<path class="st2" d="M212.6,315.5l90.5-11v21.3l-30.6,3.7v127.7l-29.3,3.5V333.1l-30.6,3.7V315.5z"/>
		</g>
		<g class="st0">
			<path class="st2" d="M345.2,448.5l-29.3,3.5V303l29.3-3.5v63.9l33.3-4v-63.9l29.8-3.6v149l-29.8,3.6v-63.9l-33.3,4V448.5z"/>
		</g>
		<g class="st0">
			<path class="st3" d="M446.1,287.3v149l-9.9,1.2v-149L446.1,287.3z"/>
			<path class="st3" d="M472.4,433.1l-9.1,1.1v-149l13-1.6L521.7,404V278.1l9.1-1.1v149l-11,1.3l-47.3-127.1V433.1z"/>
		</g>
	</g>
</g>
<g>
	<polygon class="st4" points="508.1,101.1 496.2,95.7 485,102.4 486.4,89.4 476.5,80.8 489.4,78.2 494.5,66.1 500.9,77.5 514,78.6 
		505.2,88.3 	"/>
	<line class="st4" x1="474.2" y1="113.4" x2="462.6" y2="126.3"/>
	<polygon class="st4" points="426.2,35 414.3,29.6 403.1,36.3 404.5,23.3 394.6,14.7 407.4,12.1 412.5,0 419,11.4 432.1,12.5 
		423.2,22.2 	"/>
	<polygon class="st4" points="284,58.4 272,53 260.8,59.8 262.3,46.8 252.4,38.2 265.2,35.6 270.3,23.5 276.8,34.9 289.8,36 
		281,45.7 	"/>
	<polygon class="st4" points="36.6,109.2 29.5,120.2 34.5,132.3 21.8,128.9 11.8,137.4 11.2,124.3 0,117.4 12.3,112.7 15.3,100 
		23.6,110.2 	"/>
	<polygon class="st4" points="94.7,32.5 87.5,43.5 92.5,55.6 79.9,52.2 69.9,60.7 69.2,47.6 58.1,40.7 70.3,36.1 73.4,23.3 
		81.6,33.5 	"/>
	<line class="st4" x1="396.3" y1="53.4" x2="354" y2="139"/>
	<line class="st4" x1="142" y1="163.9" x2="89.7" y2="72.7"/>
	<line class="st4" x1="270.6" y1="70" x2="264.3" y2="150.2"/>
	<line class="st4" x1="39.6" y1="139" x2="78.9" y2="172.6"/>
</g>
<g>
	<path class="st4" d="M277.1,500.4c-0.1,0-0.2-0.1-0.1-0.2c0.2-0.2,0-0.3-0.1-0.5l0,0c0-0.1,0-0.2,0.1-0.2c0.1-0.1,0.1-0.2,0.1-0.3
		c0-1.2,0-2.4-0.1-3.6c0-0.6,0-1.1,0-1.7c0-0.2,0.1-0.4,0-0.5l0,0v-0.1c0.1-0.1,0-0.2,0-0.3c0-0.6,0-1.1-0.1-1.7
		c0-0.2,0-0.4-0.1-0.6l0,0c0-0.3,0-0.7,0-1s0.1-0.6-0.1-0.9l0,0c0.1-0.5,0-1,0-1.5c0-0.1-0.1-0.1-0.1,0l0,0h-0.1c-0.1,0-0.3,0-0.4,0
		c-0.7,0.1-1.4,0.1-2.1,0.3c-0.4,0.1-0.9,0.1-1.3,0.2c-0.6,0.1-1.1,0.1-1.7,0.2c-0.4,0-0.8,0.1-1.1,0.1c-0.2,0-0.4,0.1-0.6,0.3l0,0
		l0,0l0,0c-0.1,0.1-0.2,0.1-0.2,0.2l0,0l0,0c-0.1,0-0.2,0.1-0.3,0.2c-0.5,0.3-1,0.4-1.5,0.1c0,0-0.1-0.2-0.1,0c0,0.1,0,0.1,0,0.2
		c0,1.9,0,3.7,0,5.6c0,0.3-0.1,0.6,0,0.9v0.1c-0.1,0.1-0.1,0.2-0.1,0.4c0,1.1,0,2.2,0,3.4c0,0.1,0,0.3-0.1,0.4l0,0
		c-0.2,0.1-0.2,0.3-0.1,0.4c0.1,0.2,0,0.3-0.1,0.4c-0.3,0.2,0,0.3,0,0.4l0,0c0,0,0,0,0,0.1c0.1,0.1-0.1,0.3,0.1,0.4l0,0
		c0.1,0.1,0.2,0.1,0.2,0.3c-0.2,0.3,0,0.5,0.1,0.7c0,0.1,0,0.4-0.2,0.4c-0.3,0.1-0.3,0.4-0.4,0.6c-0.1,0.1,0,0.2-0.1,0.4l0,0l0,0
		c-0.1,0.1-0.2,0.2-0.2,0.3c-0.1,0.3-0.3,0.7-0.7,0.8c-0.2,0.1-0.3,0.4-0.1,0.4c0.1,0.1,0.1,0.2,0,0.3l-0.1,0.1
		c-0.1,0.4-0.2,0.7-0.2,1.1c0,0.1,0,0.3,0.2,0.3c0.1,0,0.1,0.1,0.3,0c0.1-0.1,0.1-0.2,0-0.3c-0.1-0.1,0-0.2,0.1-0.3
		c0.1-0.1,0.2,0,0.2,0c0.1,0.1,0.2,0.1,0.3,0c0.1-0.1,0.3-0.1,0.4-0.1c0,0.1-0.2,0.2,0,0.3c0.1,0,0.1,0,0.2,0c0.1-0.1,0.1-0.2,0-0.3
		c-0.1-0.1,0-0.2,0-0.3h0.1c0.1,0.2,0.3,0.3,0.5,0.1h0.1c0.3,0.1,0.7,0.3,1,0.4c0.1,0,0,0.2,0.2,0.1c0.1,0,0.1-0.2,0.2-0.3
		c0-0.1,0-0.2,0-0.3c0.2-0.2,0.6-0.2,0.7-0.5c0-0.1,0.1-0.1,0.2,0c0,0.1,0.1,0.2,0.1,0.2l0,0c0.1,0.3,0.2,0,0.4,0l0,0
		c0,0,0,0,0.1,0.1c0,0.1-0.1,0.2,0,0.3c0.1,0,0.1-0.1,0.1-0.2v-0.1c0.2,0,0.4-0.1,0.3-0.4c0-0.1,0-0.2,0-0.3l0,0
		c0.1,0,0.3-0.1,0.3-0.1c-0.2-0.3,0.1-0.2,0.2-0.3c0.1,0,0.3,0,0.3-0.2c0.2,0,0.2,0.1,0.2,0.2c0,0.3,0.2,0.4,0.5,0.4
		c0.1,0,0.2,0,0.3,0c0.1,0.1,0.5-0.1,0.6-0.3c0.1-0.3,0-0.7,0.3-1V504l0.1-0.1c0.5-0.1,0.5-0.1,0.6-0.5c0-0.2,0.1-0.3,0.3-0.4
		c0.2,0,0.5-0.4,0.5-0.6s-0.1-0.4-0.2-0.6c0.2-0.3,0.7-0.3,0.9-0.2c0.1,0.1,0.3,0.1,0.4-0.1c0.2-0.3,0.5-0.4,0.8-0.5
		c0.2,0,0.3,0,0.3-0.3C277.3,500.4,277.3,500.4,277.1,500.4z"/>
	<line class="st4" x1="259.6" y1="498.5" x2="32.8" y2="525.9"/>
	<line class="st4" x1="394.3" y1="482.2" x2="282.9" y2="495.7"/>
</g>
<line class="st4" x1="544.6" y1="463.8" x2="520.9" y2="466.7"/>
</svg>
