<?xml version="1.0" encoding="utf-8"?>
<!-- Generator: Adobe Illustrator 21.1.0, SVG Export Plug-In . SVG Version: 6.00 Build 0)  -->
<svg version="1.1" id="Layer_1" xmlns="http://www.w3.org/2000/svg" xmlns:xlink="http://www.w3.org/1999/xlink" x="0px" y="0px"
	 viewBox="0 0 54 33.8" style="enable-background:new 0 0 54 33.8;" xml:space="preserve">
<style type="text/css">
	.st0{fill:#0071ED;}
</style>
<path class="st0" d="M52.1,0H1.9C1.7,0,1.5,0,1.3,0.1l0,0l0,0C0.5,0.5,0,1.3,0,2.3v29.1c0,1.3,0.9,2.3,1.9,2.3h50.2
	c1.1,0,1.9-1,1.9-2.3V2.3C54,1,53.2,0,52.1,0z M36.5,18L35,19.2l15.4,12.5H3.6l15.4-12.5L17.5,18L1.7,30.8V2.9L27,23.4L52.3,2.9
	v27.9L36.5,18z M50.3,2.1L27,21L3.7,2.1H50.3z"/>
</svg>
